<svg width="40" height="40" viewBox="0 0 40 40" fill="none" xmlns="http://www.w3.org/2000/svg">
<g clip-path="url(#clip0_7206_7294)">
<path d="M20 39.545C30.7947 39.545 39.5455 30.7942 39.5455 19.9996C39.5455 9.2049 30.7947 0.454102 20 0.454102C9.20539 0.454102 0.45459 9.2049 0.45459 19.9996C0.45459 30.7942 9.20539 39.545 20 39.545Z" fill="#ED7600" fill-opacity="0.4"/>
<path d="M20 40C8.97182 40 0 31.0282 0 20C0 8.97182 8.97182 0 20 0C22.8008 0.00224406 25.5699 0.591648 28.1289 1.73018C30.6878 2.86871 32.9796 4.53107 34.8564 6.61C34.9371 6.69945 34.9791 6.81732 34.9729 6.93769C34.9668 7.05805 34.9131 7.17105 34.8236 7.25182C34.7342 7.33259 34.6163 7.37452 34.4959 7.36838C34.3756 7.36224 34.2626 7.30854 34.1818 7.21909C32.3902 5.23456 30.2025 3.64768 27.7598 2.56082C25.317 1.47397 22.6736 0.911289 20 0.909091C9.47363 0.909091 0.909091 9.47273 0.909091 20C0.909091 30.5273 9.47363 39.0909 20 39.0909C30.5264 39.0909 39.0909 30.5273 39.0909 20C39.0909 17.91 38.7554 15.8545 38.0927 13.8909C38.0543 13.7767 38.0627 13.652 38.1163 13.5441C38.1698 13.4361 38.264 13.3539 38.3782 13.3155C38.4923 13.277 38.6171 13.2855 38.725 13.339C38.8329 13.3925 38.9152 13.4867 38.9536 13.6009C39.6488 15.6627 40.0022 17.8242 40 20C40 31.0282 31.0282 40 20 40Z" fill="white"/>
<path d="M20 40C8.97182 40 0 31.0282 0 20C0 8.97182 8.97182 0 20 0C22.8008 0.00224406 25.5699 0.591648 28.1289 1.73018C30.6878 2.86871 32.9796 4.53107 34.8564 6.61C34.9371 6.69945 34.9791 6.81732 34.9729 6.93769C34.9668 7.05805 34.9131 7.17105 34.8236 7.25182C34.7342 7.33259 34.6163 7.37452 34.4959 7.36838C34.3756 7.36224 34.2626 7.30854 34.1818 7.21909C32.3902 5.23456 30.2025 3.64768 27.7598 2.56082C25.317 1.47397 22.6736 0.911289 20 0.909091C9.47363 0.909091 0.909091 9.47273 0.909091 20C0.909091 30.5273 9.47363 39.0909 20 39.0909C30.5264 39.0909 39.0909 30.5273 39.0909 20C39.0909 17.91 38.7554 15.8545 38.0927 13.8909C38.0543 13.7767 38.0627 13.652 38.1163 13.5441C38.1698 13.4361 38.264 13.3539 38.3782 13.3155C38.4923 13.277 38.6171 13.2855 38.725 13.339C38.8329 13.3925 38.9152 13.4867 38.9536 13.6009C39.6488 15.6627 40.0022 17.8242 40 20C40 31.0282 31.0282 40 20 40Z" fill="black"/>
<path d="M20 39.091C9.4736 39.091 0.909058 30.5274 0.909058 20.0001C0.909058 9.47282 9.4736 0.90918 20 0.90918C22.6322 0.912972 25.2355 1.45926 27.6472 2.51395C30.0589 3.56864 32.2274 5.1091 34.0172 7.03918C34.0971 7.128 34.1388 7.24467 34.1333 7.36398C34.1278 7.48328 34.0755 7.59563 33.9879 7.67673C33.9002 7.75783 33.7841 7.80117 33.6648 7.79738C33.5454 7.79358 33.4323 7.74296 33.35 7.65645C31.6453 5.81821 29.5801 4.35106 27.2832 3.34657C24.9862 2.34209 22.5069 1.82183 20 1.81827C9.97451 1.81827 1.81815 9.97463 1.81815 20.0001C1.81815 30.0255 9.97451 38.1819 20 38.1819C30.0254 38.1819 38.1818 30.0255 38.1818 20.0001C38.1818 18.1546 37.9063 16.3355 37.3645 14.5928C37.3468 14.5358 37.3404 14.4759 37.3459 14.4164C37.3513 14.357 37.3684 14.2992 37.3962 14.2463C37.424 14.1935 37.4619 14.1466 37.5078 14.1084C37.5536 14.0702 37.6066 14.0415 37.6636 14.0237C37.7206 14.006 37.7805 13.9997 37.84 14.0051C37.8994 14.0105 37.9572 14.0276 38.0101 14.0554C38.0629 14.0832 38.1098 14.1211 38.148 14.167C38.1862 14.2129 38.215 14.2658 38.2327 14.3228C38.8027 16.1528 39.0909 18.0628 39.0909 20.0001C39.0909 30.5274 30.5263 39.091 20 39.091Z" fill="white"/>
<path d="M17.8036 28.9403C18.6145 29.7475 20.02 29.7475 20.8318 28.9403L38.4564 11.3866C38.6575 11.1865 38.8172 10.9486 38.9261 10.6866C39.035 10.4245 39.0911 10.1436 39.0911 9.85981C39.0911 9.57605 39.035 9.29508 38.9261 9.03306C38.8172 8.77103 38.6575 8.53312 38.4564 8.33299C37.6455 7.52572 36.24 7.52572 35.4291 8.33299L20.0064 23.6921C19.6436 24.0539 18.9918 24.0539 18.6282 23.6921L12.7527 17.8412C12.3473 17.4375 11.81 17.2157 11.2391 17.2157C10.6682 17.2157 10.13 17.4375 9.72546 17.8412C9.52429 18.0413 9.36464 18.2792 9.25571 18.5412C9.14678 18.8033 9.0907 19.0842 9.0907 19.368C9.0907 19.6518 9.14678 19.9327 9.25571 20.1947C9.36464 20.4568 9.52429 20.6947 9.72546 20.8948L17.8036 28.9403Z" fill="#ED7600"/>
<path d="M19.3173 30.0046C18.6317 30.0093 17.972 29.7423 17.4828 29.2618L9.4046 21.2164C9.16006 20.9745 8.96611 20.6863 8.83407 20.3687C8.70203 20.0511 8.63453 19.7103 8.63551 19.3664C8.63551 18.6673 8.90915 18.0109 9.4046 17.5182C10.3837 16.5418 12.0901 16.54 13.0728 17.5182L18.9482 23.3691C19.1346 23.5546 19.4991 23.5555 19.6846 23.3691L35.1082 8.0091C36.1028 7.0191 37.7819 7.0191 38.7764 8.0091C39.0209 8.25087 39.2148 8.53887 39.3468 8.85633C39.4789 9.1738 39.5464 9.51437 39.5455 9.85819C39.5455 10.5573 39.2719 11.2136 38.7764 11.7064L21.1528 29.2618C20.6632 29.7423 20.0033 30.0094 19.3173 30.0046ZM11.2391 17.67C11.0177 17.6696 10.7983 17.7129 10.5936 17.7974C10.389 17.882 10.203 18.0061 10.0464 18.1627C9.72369 18.4846 9.5446 18.9118 9.5446 19.3673C9.5446 19.8227 9.72187 20.2509 10.0455 20.5718L18.1237 28.6182C18.7591 29.25 19.8755 29.2509 20.511 28.6182L38.1355 11.0636C38.4573 10.7427 38.6364 10.3146 38.6364 9.8591C38.6364 9.40365 38.4591 8.97547 38.1355 8.65456C37.5 8.02183 36.3846 8.02092 35.7491 8.65456L20.3264 24.0146C19.7901 24.5509 18.8446 24.5509 18.3064 24.0146L12.4319 18.1636C12.2756 18.0066 12.0897 17.8821 11.885 17.7974C11.6802 17.7126 11.4607 17.6693 11.2391 17.67Z" fill="white"/>
<path d="M19.3173 30.0046C18.6317 30.0093 17.972 29.7423 17.4828 29.2618L9.4046 21.2164C9.16006 20.9745 8.96611 20.6863 8.83407 20.3687C8.70203 20.0511 8.63453 19.7103 8.63551 19.3664C8.63551 18.6673 8.90915 18.0109 9.4046 17.5182C10.3837 16.5418 12.0901 16.54 13.0728 17.5182L18.9482 23.3691C19.1346 23.5546 19.4991 23.5555 19.6846 23.3691L35.1082 8.0091C36.1028 7.0191 37.7819 7.0191 38.7764 8.0091C39.0209 8.25087 39.2148 8.53887 39.3468 8.85633C39.4789 9.1738 39.5464 9.51437 39.5455 9.85819C39.5455 10.5573 39.2719 11.2136 38.7764 11.7064L21.1528 29.2618C20.6632 29.7423 20.0033 30.0094 19.3173 30.0046ZM11.2391 17.67C11.0177 17.6696 10.7983 17.7129 10.5936 17.7974C10.389 17.882 10.203 18.0061 10.0464 18.1627C9.72369 18.4846 9.5446 18.9118 9.5446 19.3673C9.5446 19.8227 9.72187 20.2509 10.0455 20.5718L18.1237 28.6182C18.7591 29.25 19.8755 29.2509 20.511 28.6182L38.1355 11.0636C38.4573 10.7427 38.6364 10.3146 38.6364 9.8591C38.6364 9.40365 38.4591 8.97547 38.1355 8.65456C37.5 8.02183 36.3846 8.02092 35.7491 8.65456L20.3264 24.0146C19.7901 24.5509 18.8446 24.5509 18.3064 24.0146L12.4319 18.1636C12.2756 18.0066 12.0897 17.8821 11.885 17.7974C11.6802 17.7126 11.4607 17.6693 11.2391 17.67Z" fill="black"/>
<path d="M9.99996 19.8221C9.8794 19.8221 9.76379 19.7742 9.67854 19.689C9.5933 19.6037 9.54541 19.4881 9.54541 19.3676C9.54541 18.913 9.72359 18.4848 10.0472 18.163C10.3663 17.8448 10.789 17.6703 11.24 17.6703C11.3605 17.6703 11.4761 17.7182 11.5614 17.8034C11.6466 17.8887 11.6945 18.0043 11.6945 18.1249C11.6945 18.2454 11.6466 18.361 11.5614 18.4463C11.4761 18.5315 11.3605 18.5794 11.24 18.5794C11.1377 18.5792 11.0364 18.5992 10.9419 18.6382C10.8474 18.6772 10.7614 18.7344 10.689 18.8067C10.6151 18.8802 10.5564 18.9676 10.5163 19.0638C10.4762 19.1601 10.4555 19.2633 10.4554 19.3676C10.4552 19.4882 10.4071 19.6038 10.3217 19.689C10.2363 19.7743 10.1206 19.8221 9.99996 19.8221ZM21.9645 23.4803C21.8748 23.4794 21.7874 23.4522 21.7132 23.4019C21.6389 23.3516 21.5811 23.2806 21.547 23.1977C21.5128 23.1148 21.5039 23.0236 21.5212 22.9357C21.5386 22.8477 21.5814 22.7668 21.6445 22.703L34.4354 9.96394C34.4775 9.92066 34.5277 9.88619 34.5832 9.86254C34.6388 9.83889 34.6984 9.82653 34.7588 9.82618C34.8191 9.82583 34.8789 9.83751 34.9347 9.86052C34.9905 9.88353 35.0412 9.91742 35.0837 9.96022C35.1263 10.003 35.1599 10.0538 35.1826 10.1098C35.2053 10.1657 35.2166 10.2256 35.2159 10.2859C35.2152 10.3462 35.2025 10.4058 35.1786 10.4612C35.1546 10.5166 35.1198 10.5667 35.0763 10.6085L22.2854 23.3476C22.2002 23.4325 22.0848 23.4803 21.9645 23.4803Z" fill="white"/>
</g>
<defs>
<clipPath id="clip0_7206_7294">
<rect width="40" height="40" fill="white"/>
</clipPath>
</defs>
</svg>