<svg width="403" height="300" viewBox="0 0 403 300" fill="none" xmlns="http://www.w3.org/2000/svg">
<path d="M402.62 263.635H0V263.836H402.62V263.635Z" fill="#EBEBEB"/>
<path d="M362.277 276.591H335.608V276.792H362.277V276.591Z" fill="#EBEBEB"/>
<path d="M266.711 278.782H259.714V278.984H266.711V278.782Z" fill="#EBEBEB"/>
<path d="M334.803 269.118H319.35V269.319H334.803V269.118Z" fill="#EBEBEB"/>
<path d="M77.0212 270.472H42.2429V270.673H77.0212V270.472Z" fill="#EBEBEB"/>
<path d="M89.293 270.472H84.1958V270.673H89.293V270.472Z" fill="#EBEBEB"/>
<path d="M181.3 273.869H105.865V274.07H181.3V273.869Z" fill="#EBEBEB"/>
<path d="M190.842 227.722H35.3581C34.14 227.72 32.9726 227.234 32.112 226.372C31.2515 225.51 30.7682 224.342 30.7682 223.124V4.55766C30.7788 3.3466 31.2668 2.18862 32.1262 1.33526C32.9856 0.481902 34.1469 0.00207461 35.3581 0H190.842C192.061 0 193.231 0.484422 194.093 1.3467C194.955 2.20898 195.44 3.37847 195.44 4.59792V223.124C195.44 224.343 194.955 225.513 194.093 226.375C193.231 227.237 192.061 227.722 190.842 227.722ZM35.3581 0.161049C34.1934 0.163182 33.0772 0.627334 32.2544 1.45163C31.4316 2.27592 30.9695 3.393 30.9695 4.55766V223.124C30.9695 224.288 31.4316 225.406 32.2544 226.23C33.0772 227.054 34.1934 227.518 35.3581 227.52H190.842C192.007 227.518 193.124 227.054 193.948 226.23C194.772 225.406 195.236 224.289 195.238 223.124V4.55766C195.236 3.39226 194.772 2.2752 193.948 1.45114C193.124 0.627072 192.007 0.163177 190.842 0.161049H35.3581Z" fill="#EBEBEB"/>
<path d="M365.023 227.722H209.531C208.312 227.72 207.144 227.234 206.282 226.373C205.421 225.511 204.935 224.343 204.933 223.124V4.55766C204.946 3.34586 205.436 2.1879 206.297 1.33476C207.157 0.481621 208.319 0.00205198 209.531 0H365.023C366.233 0.00419087 367.392 0.484955 368.25 1.33809C369.107 2.19122 369.594 3.34799 369.605 4.55766V223.124C369.605 224.34 369.123 225.508 368.264 226.369C367.405 227.231 366.24 227.717 365.023 227.722ZM209.531 0.161049C208.366 0.163177 207.249 0.627072 206.425 1.45114C205.601 2.2752 205.137 3.39226 205.135 4.55766V223.124C205.137 224.289 205.601 225.406 206.425 226.23C207.249 227.054 208.366 227.518 209.531 227.52H365.023C366.188 227.518 367.305 227.054 368.13 226.23C368.954 225.406 369.417 224.289 369.42 223.124V4.55766C369.417 3.39226 368.954 2.2752 368.13 1.45114C367.305 0.627072 366.188 0.163177 365.023 0.161049H209.531Z" fill="#EBEBEB"/>
<path d="M173.424 16.3788L174.101 17.7558C174.14 17.8363 174.199 17.9058 174.272 17.9578C174.346 18.0098 174.43 18.0428 174.52 18.0537L176.041 18.2792C176.142 18.2947 176.236 18.338 176.314 18.4042C176.391 18.4704 176.449 18.5569 176.48 18.6539C176.511 18.751 176.514 18.8547 176.489 18.9535C176.464 19.0523 176.412 19.1423 176.339 19.2132L175.244 20.2923C175.18 20.3533 175.131 20.4293 175.103 20.5136C175.075 20.5979 175.068 20.6878 175.083 20.7754L175.341 22.2892C175.36 22.3916 175.35 22.4974 175.311 22.5941C175.273 22.6909 175.207 22.7746 175.123 22.8355C175.038 22.8963 174.938 22.9318 174.834 22.9378C174.73 22.9437 174.627 22.9199 174.536 22.869L173.175 22.1524C173.096 22.1127 173.009 22.0921 172.921 22.0921C172.833 22.0921 172.746 22.1127 172.667 22.1524L171.299 22.869C171.208 22.9199 171.104 22.9437 171 22.9378C170.896 22.9318 170.796 22.8963 170.711 22.8355C170.627 22.7746 170.561 22.6909 170.523 22.5941C170.484 22.4974 170.474 22.3916 170.493 22.2892L170.759 20.7754C170.772 20.6879 170.764 20.5985 170.736 20.5146C170.708 20.4307 170.661 20.3545 170.598 20.2923L169.495 19.2132C169.422 19.1418 169.37 19.0512 169.345 18.9518C169.321 18.8524 169.325 18.7482 169.357 18.6509C169.389 18.5536 169.447 18.4673 169.526 18.4015C169.604 18.3358 169.699 18.2934 169.801 18.2792L171.323 18.0537C171.411 18.0414 171.496 18.0079 171.569 17.956C171.642 17.9042 171.701 17.8355 171.741 17.7558L172.418 16.3788C172.463 16.2831 172.534 16.2021 172.623 16.1454C172.712 16.0887 172.815 16.0586 172.921 16.0586C173.027 16.0586 173.13 16.0887 173.219 16.1454C173.309 16.2021 173.38 16.2831 173.424 16.3788Z" fill="#F5F5F5"/>
<path d="M73.164 129.796L73.8485 131.181C73.8878 131.26 73.9457 131.329 74.0172 131.381C74.0888 131.433 74.1718 131.466 74.2592 131.479L75.7811 131.705C75.8824 131.719 75.9777 131.761 76.0562 131.827C76.1346 131.893 76.1931 131.979 76.225 132.077C76.2568 132.174 76.2608 132.278 76.2364 132.377C76.212 132.477 76.1603 132.567 76.0871 132.639L74.9839 133.71C74.9207 133.773 74.8737 133.851 74.8471 133.937C74.8205 134.022 74.8149 134.113 74.8309 134.201L75.0886 135.715C75.1079 135.817 75.0977 135.923 75.0591 136.02C75.0205 136.116 74.955 136.2 74.8705 136.261C74.786 136.322 74.6858 136.357 74.5818 136.363C74.4778 136.369 74.3742 136.345 74.2833 136.295L72.9225 135.578C72.8424 135.538 72.7542 135.518 72.6648 135.518C72.5754 135.518 72.4872 135.538 72.4071 135.578L71.0463 136.295C70.9553 136.345 70.8518 136.369 70.7478 136.363C70.6438 136.357 70.5436 136.322 70.4591 136.261C70.3745 136.2 70.3091 136.116 70.2705 136.02C70.2319 135.923 70.2216 135.817 70.241 135.715L70.4987 134.201C70.5147 134.113 70.5091 134.022 70.4825 133.937C70.4558 133.851 70.4089 133.773 70.3457 133.71L69.2506 132.639C69.1773 132.567 69.1256 132.477 69.1012 132.377C69.0768 132.278 69.0808 132.174 69.1127 132.077C69.1445 131.979 69.203 131.893 69.2815 131.827C69.3599 131.761 69.4552 131.719 69.5566 131.705L71.0785 131.479C71.1659 131.466 71.2489 131.433 71.3204 131.381C71.3919 131.329 71.4498 131.26 71.4891 131.181L72.1736 129.796C72.2179 129.702 72.288 129.623 72.3756 129.568C72.4633 129.512 72.565 129.482 72.6688 129.482C72.7726 129.482 72.8743 129.512 72.962 129.568C73.0497 129.623 73.1197 129.702 73.164 129.796Z" fill="#F0F0F0"/>
<path d="M60.5218 53.7011L61.1982 55.078C61.2371 55.1582 61.2947 55.2279 61.3662 55.2812C61.4376 55.3344 61.5209 55.3697 61.6089 55.384L63.1308 55.6014C63.2321 55.6174 63.327 55.6611 63.405 55.7277C63.483 55.7942 63.541 55.8811 63.5727 55.9786C63.6044 56.0762 63.6085 56.1806 63.5845 56.2803C63.5605 56.38 63.5093 56.4711 63.4367 56.5436L62.3336 57.6145C62.2712 57.6771 62.2242 57.7534 62.1963 57.8372C62.1683 57.921 62.1602 58.0102 62.1725 58.0977L62.4382 59.6196C62.4576 59.7219 62.4474 59.8277 62.4088 59.9245C62.3701 60.0212 62.3047 60.1049 62.2202 60.1658C62.1356 60.2267 62.0355 60.2621 61.9315 60.2681C61.8275 60.274 61.7239 60.2502 61.633 60.1993L60.2721 59.4827C60.1933 59.439 60.1046 59.416 60.0145 59.416C59.9243 59.416 59.8356 59.439 59.7568 59.4827L58.3959 60.1993C58.305 60.2502 58.2015 60.274 58.0975 60.2681C57.9935 60.2621 57.8933 60.2267 57.8088 60.1658C57.7242 60.1049 57.6588 60.0212 57.6202 59.9245C57.5816 59.8277 57.5713 59.7219 57.5907 59.6196L57.8484 58.0977C57.8649 58.0101 57.8588 57.9197 57.8306 57.8352C57.8024 57.7506 57.7531 57.6747 57.6873 57.6145L56.5922 56.5436C56.5167 56.473 56.4628 56.3824 56.4366 56.2825C56.4104 56.1825 56.413 56.0771 56.4442 55.9786C56.4753 55.88 56.5338 55.7923 56.6127 55.7256C56.6916 55.6588 56.7878 55.6158 56.8901 55.6014L58.412 55.384C58.501 55.3696 58.5853 55.3344 58.6581 55.2812C58.7309 55.2281 58.79 55.1584 58.8308 55.078L59.5072 53.7011C59.5509 53.6031 59.6221 53.5199 59.7122 53.4615C59.8022 53.4031 59.9072 53.3721 60.0145 53.3721C60.1218 53.3721 60.2268 53.4031 60.3168 53.4615C60.4068 53.5199 60.478 53.6031 60.5218 53.7011Z" fill="#F0F0F0"/>
<path d="M121.535 88.3105L121.937 89.1157C121.962 89.1628 121.998 89.2034 122.041 89.2342C122.084 89.2649 122.134 89.2851 122.187 89.2929L123.097 89.4217C123.158 89.4314 123.214 89.4578 123.261 89.4979C123.307 89.538 123.342 89.5902 123.36 89.6488C123.378 89.7073 123.38 89.7698 123.365 89.8293C123.35 89.8887 123.318 89.9428 123.274 89.9854L122.622 90.6296C122.583 90.6661 122.554 90.7117 122.537 90.7623C122.52 90.8129 122.516 90.8669 122.525 90.9195L122.678 91.8213C122.691 91.8821 122.686 91.9453 122.664 92.0034C122.642 92.0614 122.603 92.1117 122.553 92.1483C122.503 92.1849 122.443 92.2062 122.381 92.2096C122.319 92.213 122.257 92.1984 122.203 92.1676L121.398 91.7408C121.351 91.7167 121.298 91.7042 121.245 91.7042C121.192 91.7042 121.139 91.7167 121.092 91.7408L120.287 92.1676C120.233 92.1984 120.171 92.213 120.109 92.2096C120.047 92.2062 119.987 92.1849 119.937 92.1483C119.887 92.1117 119.848 92.0614 119.826 92.0034C119.804 91.9453 119.799 91.8821 119.812 91.8213L119.965 90.9195C119.974 90.8669 119.97 90.8129 119.953 90.7623C119.936 90.7117 119.907 90.6661 119.868 90.6296L119.208 89.9854C119.163 89.9423 119.132 89.8876 119.117 89.8275C119.103 89.7675 119.105 89.7045 119.124 89.6457C119.144 89.587 119.179 89.5348 119.226 89.4952C119.274 89.4556 119.332 89.4301 119.393 89.4217L120.303 89.2929C120.355 89.2851 120.405 89.2649 120.449 89.2342C120.492 89.2034 120.528 89.1628 120.552 89.1157L120.955 88.3105C120.985 88.2605 121.028 88.2191 121.078 88.1903C121.129 88.1616 121.187 88.1465 121.245 88.1465C121.303 88.1465 121.361 88.1616 121.411 88.1903C121.462 88.2191 121.505 88.2605 121.535 88.3105Z" fill="#F0F0F0"/>
<path d="M96.8543 193.821L97.2569 194.626C97.2812 194.675 97.3164 194.717 97.3597 194.749C97.4031 194.781 97.4533 194.802 97.5065 194.812L98.4164 194.941C98.4777 194.949 98.5353 194.974 98.5828 195.014C98.6303 195.054 98.6657 195.106 98.685 195.165C98.7043 195.223 98.7068 195.286 98.692 195.346C98.6773 195.406 98.6459 195.461 98.6016 195.504L97.9413 196.14C97.9024 196.178 97.8733 196.226 97.8564 196.277C97.8396 196.329 97.8356 196.384 97.8447 196.438L98.0058 197.34C98.0163 197.401 98.0095 197.464 97.9859 197.522C97.9624 197.579 97.9232 197.629 97.8728 197.665C97.8223 197.701 97.7627 197.722 97.7008 197.726C97.6389 197.73 97.5771 197.716 97.5226 197.686L96.7174 197.26C96.67 197.236 96.6175 197.223 96.5644 197.223C96.5112 197.223 96.4588 197.236 96.4114 197.26L95.6061 197.686C95.5519 197.714 95.4911 197.726 95.4305 197.721C95.3699 197.716 95.3118 197.694 95.2627 197.659C95.2135 197.623 95.1752 197.574 95.152 197.518C95.1288 197.462 95.1215 197.4 95.131 197.34L95.284 196.438C95.2942 196.385 95.2914 196.33 95.276 196.279C95.2606 196.227 95.233 196.179 95.1955 196.14L94.5352 195.504C94.491 195.462 94.4596 195.408 94.4444 195.348C94.4293 195.289 94.431 195.226 94.4494 195.168C94.4678 195.109 94.5021 195.057 94.5486 195.017C94.595 194.977 94.6517 194.95 94.7123 194.941L95.6222 194.812C95.6759 194.804 95.7267 194.783 95.7702 194.75C95.8138 194.718 95.8487 194.675 95.8719 194.626L96.2825 193.821C96.3115 193.771 96.3532 193.729 96.4034 193.7C96.4536 193.672 96.5105 193.656 96.5684 193.656C96.6263 193.656 96.6832 193.672 96.7334 193.7C96.7836 193.729 96.8253 193.771 96.8543 193.821Z" fill="#F5F5F5"/>
<path d="M349.796 17.6336L350.199 18.4389C350.222 18.4873 350.257 18.5289 350.3 18.5599C350.344 18.5909 350.395 18.6103 350.448 18.616L351.358 18.7529C351.419 18.7614 351.477 18.7868 351.525 18.8264C351.572 18.866 351.608 18.9182 351.627 18.9769C351.646 19.0357 351.649 19.0987 351.634 19.1587C351.619 19.2188 351.588 19.2735 351.543 19.3166L350.883 19.9527C350.845 19.9897 350.816 20.0354 350.799 20.0858C350.782 20.1363 350.778 20.1901 350.786 20.2426L350.948 21.1525C350.958 21.2137 350.951 21.2766 350.928 21.334C350.904 21.3914 350.865 21.441 350.815 21.4772C350.764 21.5133 350.705 21.5345 350.643 21.5383C350.581 21.5422 350.519 21.5285 350.464 21.4988L349.659 21.072C349.612 21.048 349.559 21.0354 349.506 21.0354C349.453 21.0354 349.401 21.048 349.353 21.072L348.548 21.4988C348.494 21.5262 348.433 21.5382 348.372 21.5333C348.312 21.5284 348.254 21.5068 348.204 21.471C348.155 21.4352 348.117 21.3865 348.094 21.3303C348.071 21.2741 348.063 21.2126 348.073 21.1525L348.226 20.2426C348.235 20.1907 348.232 20.1373 348.217 20.0869C348.201 20.0365 348.174 19.9905 348.137 19.9527L347.461 19.3246C347.417 19.2821 347.385 19.228 347.37 19.1685C347.355 19.1091 347.357 19.0466 347.375 18.988C347.393 18.9295 347.428 18.8772 347.474 18.8371C347.521 18.797 347.577 18.7707 347.638 18.761L348.548 18.6241C348.601 18.6191 348.653 18.6001 348.696 18.569C348.74 18.5379 348.775 18.4958 348.798 18.4469L349.208 17.6417C349.233 17.5846 349.273 17.5359 349.325 17.5014C349.377 17.467 349.437 17.4481 349.5 17.4473C349.562 17.4464 349.623 17.4636 349.675 17.4966C349.728 17.5297 349.77 17.5773 349.796 17.6336Z" fill="#F5F5F5"/>
<path d="M342.799 169.608L343.499 171.033C343.539 171.116 343.599 171.187 343.673 171.241C343.748 171.294 343.835 171.328 343.926 171.339L345.536 171.573C345.642 171.587 345.741 171.631 345.822 171.699C345.904 171.767 345.964 171.856 345.997 171.957C346.03 172.058 346.034 172.166 346.008 172.269C345.982 172.372 345.927 172.466 345.85 172.539L344.643 173.65C344.578 173.716 344.529 173.796 344.501 173.885C344.473 173.973 344.467 174.066 344.482 174.158L344.755 175.768C344.769 175.869 344.755 175.973 344.715 176.067C344.675 176.161 344.611 176.243 344.529 176.304C344.447 176.365 344.349 176.403 344.248 176.413C344.146 176.424 344.043 176.407 343.95 176.364L342.541 175.623C342.459 175.579 342.368 175.557 342.275 175.557C342.182 175.557 342.091 175.579 342.009 175.623L340.616 176.348C340.524 176.393 340.42 176.413 340.317 176.403C340.214 176.394 340.115 176.357 340.032 176.295C339.949 176.234 339.884 176.15 339.845 176.055C339.806 175.959 339.795 175.854 339.811 175.752L340.077 174.141C340.094 174.05 340.088 173.956 340.06 173.868C340.032 173.779 339.982 173.699 339.916 173.634L338.772 172.523C338.698 172.448 338.647 172.354 338.623 172.251C338.599 172.148 338.604 172.041 338.637 171.941C338.671 171.841 338.731 171.752 338.812 171.684C338.892 171.617 338.99 171.572 339.094 171.557L340.665 171.323C340.756 171.312 340.843 171.278 340.917 171.225C340.992 171.171 341.052 171.1 341.091 171.017L341.8 169.592C341.851 169.504 341.925 169.431 342.013 169.381C342.102 169.331 342.202 169.305 342.304 169.307C342.406 169.308 342.505 169.337 342.592 169.39C342.679 169.443 342.75 169.518 342.799 169.608Z" fill="#F0F0F0"/>
<path d="M256.541 36.1471C256.541 36.359 256.478 36.566 256.361 36.7421C256.243 36.9183 256.076 37.0555 255.88 37.1366C255.684 37.2176 255.469 37.2389 255.261 37.1975C255.054 37.1562 254.863 37.0542 254.713 36.9044C254.563 36.7547 254.461 36.5638 254.42 36.3561C254.379 36.1483 254.4 35.933 254.481 35.7373C254.562 35.5416 254.699 35.3743 254.875 35.2567C255.051 35.139 255.258 35.0762 255.47 35.0762C255.754 35.0762 256.027 35.189 256.228 35.3899C256.428 35.5907 256.541 35.8631 256.541 36.1471Z" fill="#F0F0F0"/>
<path d="M287.277 243.721C287.277 243.933 287.215 244.14 287.097 244.316C286.979 244.493 286.812 244.63 286.616 244.711C286.42 244.792 286.205 244.813 285.997 244.772C285.79 244.73 285.599 244.628 285.449 244.479C285.299 244.329 285.197 244.138 285.156 243.93C285.115 243.723 285.136 243.507 285.217 243.312C285.298 243.116 285.435 242.949 285.611 242.831C285.787 242.713 285.995 242.65 286.206 242.65C286.347 242.649 286.487 242.676 286.617 242.73C286.748 242.783 286.866 242.862 286.966 242.962C287.066 243.061 287.145 243.18 287.198 243.31C287.251 243.441 287.278 243.58 287.277 243.721Z" fill="#F5F5F5"/>
<path d="M106.896 22.7967C106.896 23.7028 106.627 24.5887 106.123 25.3422C105.62 26.0956 104.904 26.6829 104.067 27.0297C103.23 27.3765 102.309 27.4672 101.42 27.2904C100.531 27.1136 99.7147 26.6773 99.0739 26.0365C98.4331 25.3957 97.9968 24.5793 97.82 23.6905C97.6432 22.8017 97.7339 21.8805 98.0807 21.0433C98.4275 20.2061 99.0148 19.4905 99.7682 18.987C100.522 18.4836 101.408 18.2148 102.314 18.2148C103.529 18.2148 104.694 18.6976 105.554 19.5568C106.413 20.4161 106.896 21.5815 106.896 22.7967Z" fill="#F0F0F0"/>
<path d="M150.25 53.0729C153.014 53.5587 155.817 53.7985 158.624 53.7895C157.525 55.0738 156.112 56.0516 154.523 56.6274C152.934 57.2033 151.223 57.3576 149.557 57.0754C147.89 56.7932 146.325 56.084 145.014 55.0171C143.703 53.9501 142.691 52.5618 142.076 50.9873C144.735 51.9191 147.47 52.6169 150.25 53.0729Z" fill="#F5F5F5"/>
<path d="M151.675 44.6192C148.488 44.0484 145.248 43.8216 142.012 43.9428C142.819 41.824 144.336 40.0508 146.304 38.9256C148.272 37.8005 150.57 37.3933 152.805 37.7734C155.04 38.1535 157.074 39.2974 158.559 41.0099C160.045 42.7225 160.89 44.8974 160.951 47.1638C157.959 45.9869 154.849 45.1339 151.675 44.6192Z" fill="#F5F5F5"/>
<path d="M166.389 49.9766C166.7 48.1348 160.152 45.4928 151.763 44.0755C143.375 42.6582 136.322 43.0022 136.011 44.844C135.7 46.6857 142.248 49.3277 150.637 50.745C159.025 52.1623 166.078 51.8183 166.389 49.9766Z" fill="#F5F5F5"/>
<path d="M349.184 119.015C345.436 126.52 340.245 133.213 333.91 138.711C327.574 144.21 320.217 148.406 312.259 151.061C304.301 153.716 295.899 154.776 287.531 154.183C279.163 153.589 270.994 151.353 263.49 147.601C262.186 146.957 260.922 146.272 259.714 145.548C270.98 141.369 281.144 134.673 289.429 125.97C297.715 117.267 303.903 106.787 307.522 95.3287C311.142 83.8705 312.097 71.7371 310.315 59.8537C308.532 47.9703 304.06 36.651 297.238 26.7588C307.652 27.6139 317.697 31.0091 326.494 36.6472C335.291 42.2853 342.572 49.9943 347.698 59.099C352.825 68.2037 355.641 78.4265 355.9 88.8721C356.159 99.3177 353.853 109.667 349.184 119.015Z" fill="#F5F5F5"/>
<path d="M319.97 43.7645C321.688 45.0338 323.105 46.6672 324.118 48.5479C325.132 50.4286 325.717 52.5101 325.832 54.6433C323.602 51.5618 320.908 48.8452 317.844 46.5909C314.794 44.3262 311.416 42.5395 307.827 41.2925C309.908 40.7813 312.076 40.7379 314.176 41.1654C316.276 41.5928 318.254 42.4805 319.97 43.7645Z" fill="#F0F0F0"/>
<path d="M303.841 140.587C302.057 141.764 300.034 142.532 297.918 142.835C295.802 143.139 293.645 142.97 291.601 142.342C295.251 141.307 298.718 139.71 301.876 137.608C305.056 135.526 307.899 132.97 310.307 130.03C310.076 132.158 309.376 134.208 308.258 136.034C307.14 137.859 305.631 139.414 303.841 140.587Z" fill="#F0F0F0"/>
<path d="M325.848 79.792C326.763 81.7238 327.238 83.8347 327.238 85.9722C327.238 88.1097 326.763 90.2206 325.848 92.1524C325.348 88.3907 324.261 84.7307 322.627 81.3058C321.019 77.8662 318.896 74.6919 316.33 71.8926C318.401 72.4256 320.329 73.4103 321.974 74.776C323.62 76.1418 324.943 77.8547 325.848 79.792Z" fill="#F0F0F0"/>
<path d="M336.228 123.637C334.888 125.304 333.196 126.653 331.274 127.589C329.351 128.524 327.245 129.023 325.107 129.049C328.268 126.95 331.08 124.368 333.442 121.399C335.833 118.447 337.761 115.148 339.159 111.615C339.588 113.711 339.548 115.876 339.041 117.955C338.534 120.033 337.573 121.974 336.228 123.637Z" fill="#F0F0F0"/>
<path d="M201.31 300C287.537 300 357.438 295.919 357.438 290.885C357.438 285.851 287.537 281.77 201.31 281.77C115.083 281.77 45.182 285.851 45.182 290.885C45.182 295.919 115.083 300 201.31 300Z" fill="#F5F5F5"/>
<path d="M204.813 62.6715L204.249 62.2286C206.786 59.0076 209.451 55.98 212.173 53.1455L212.68 53.6448C209.974 56.455 207.325 59.4988 204.813 62.6715Z" fill="#ED7600"/>
<path d="M201.805 65.3175L199.208 68.5918L199.763 69.0321L202.36 65.7578L201.805 65.3175Z" fill="#ED7600"/>
<path d="M257.677 100.027C275.174 71.9001 277.558 44.1838 264.819 35.2134C252.08 26.243 226.788 37.8224 206.198 63.7752L147.359 137.994L207.687 180.479L257.677 100.027Z" fill="#ED7600"/>
<path opacity="0.1" d="M250.792 95.1792L199.578 174.793L193.314 162.819L244.181 90.1867C258.562 69.6451 266.623 50.8749 266.655 40.4229C266.653 40.2209 266.723 40.0248 266.853 39.8695C266.982 39.7143 267.162 39.61 267.362 39.5752C267.561 39.5405 267.766 39.5774 267.94 39.6796C268.114 39.7817 268.247 39.9424 268.314 40.133C271.937 50.5609 265.656 72.0769 250.792 95.1792Z" fill="white"/>
<path d="M207.651 180.46C215.796 168.893 208.891 150.006 192.23 138.274C175.569 126.543 155.46 126.409 147.315 137.976C139.171 149.543 146.075 168.43 162.736 180.162C179.398 191.893 199.507 192.027 207.651 180.46Z" fill="#ED7600"/>
<path opacity="0.5" d="M207.651 180.46C215.796 168.893 208.891 150.006 192.23 138.274C175.569 126.543 155.46 126.409 147.315 137.976C139.171 149.543 146.075 168.43 162.736 180.162C179.398 191.893 199.507 192.027 207.651 180.46Z" fill="white"/>
<path opacity="0.1" d="M201.39 125.167C188.152 115.842 173.134 113.177 163.544 117.533L148.607 136.36C157.464 126.471 176.396 127.148 192.227 138.292C208.058 149.437 215.087 167.063 208.742 178.715L221.28 158.584C222.359 148.011 214.773 134.588 201.39 125.167Z" fill="black"/>
<path opacity="0.2" d="M222.592 64.4668C218.92 70.2806 216.15 81.1594 227.061 88.8334C237.972 96.5073 247.281 90.2506 251.508 84.8072L222.592 64.4668Z" fill="black"/>
<path d="M254.085 78.1079C252.837 88.4955 240.831 96.0728 228.229 87.1991C215.627 78.3253 218.711 64.4672 228.068 59.8209C233.833 56.9382 241.177 58.2105 246.202 61.7052C251.227 65.2 254.858 71.666 254.085 78.1079Z" fill="white"/>
<path d="M229.944 84.7444C225.04 81.298 222.528 76.7887 222.882 72.07C223.043 70.0334 223.728 68.0732 224.871 66.3799C226.014 64.6866 227.576 63.318 229.405 62.4071C233.785 60.2169 239.985 60.9013 244.487 64.0659C248.988 67.2305 251.734 72.8511 251.13 77.7147C250.89 79.7377 250.132 81.6644 248.929 83.3081C247.725 84.9517 246.117 86.2565 244.261 87.0957C239.961 89.0444 234.848 88.1989 229.944 84.7444Z" fill="#ED7600"/>
<path opacity="0.3" d="M229.944 84.7444C225.04 81.298 222.528 76.7887 222.882 72.07C223.043 70.0334 223.728 68.0732 224.871 66.3799C226.014 64.6866 227.576 63.318 229.405 62.4071C233.785 60.2169 239.985 60.9013 244.487 64.0659C248.988 67.2305 251.734 72.8511 251.13 77.7147C250.89 79.7377 250.132 81.6644 248.929 83.3081C247.725 84.9517 246.117 86.2565 244.261 87.0957C239.961 89.0444 234.848 88.1989 229.944 84.7444Z" fill="black"/>
<path d="M229.944 84.7427C225.04 81.2963 222.439 76.9158 222.633 72.4225C222.716 70.5122 223.326 68.6621 224.394 67.0763C225.463 65.4906 226.949 64.2308 228.688 63.4361C232.899 61.4874 238.979 62.3409 243.48 65.5136C247.982 68.6862 250.832 74.1216 250.413 78.7437C250.251 80.6517 249.563 82.4775 248.426 84.0183C247.289 85.5591 245.747 86.7547 243.971 87.4725C239.841 89.1715 234.848 88.1972 229.944 84.7427Z" fill="#ED7600"/>
<path opacity="0.2" d="M229.944 84.7427C225.04 81.2963 222.439 76.9158 222.633 72.4225C222.716 70.5122 223.326 68.6621 224.394 67.0763C225.463 65.4906 226.949 64.2308 228.688 63.4361C232.899 61.4874 238.979 62.3409 243.48 65.5136C247.982 68.6862 250.832 74.1216 250.413 78.7437C250.251 80.6517 249.563 82.4775 248.426 84.0183C247.289 85.5591 245.747 86.7547 243.971 87.4725C239.841 89.1715 234.848 88.1972 229.944 84.7427Z" fill="white"/>
<path opacity="0.3" d="M246.894 68.6957L224.227 78.6968C223.103 76.8023 222.544 74.6257 222.616 72.424C222.659 71.3869 222.863 70.3628 223.22 69.3882L237.852 62.9463C241.403 63.8463 244.568 65.8683 246.878 68.7118L246.894 68.6957Z" fill="white"/>
<path opacity="0.3" d="M250.148 75.1449L229.348 84.3085C228.097 83.3911 226.957 82.3318 225.95 81.152L248.577 71.167C249.284 72.4129 249.813 73.7519 250.148 75.1449Z" fill="white"/>
<path opacity="0.1" d="M272.823 57.2127C272.131 51.6565 267.863 45.2307 261.115 40.4798C254.367 35.7289 246.886 33.8768 241.419 35.0928C250.719 31.3001 259.054 31.1551 264.819 35.2135C270.585 39.2719 273.258 47.1794 272.823 57.2127Z" fill="black"/>
<path opacity="0.5" d="M192.218 157.81C194.755 154.206 192.7 148.39 187.627 144.818C182.554 141.246 176.385 141.272 173.848 144.876C171.311 148.479 173.366 154.296 178.439 157.867C183.511 161.439 189.68 161.413 192.218 157.81Z" fill="#ED7600"/>
<path opacity="0.5" d="M168.295 154.428C165.758 158.028 159.59 158.06 154.517 154.485C149.444 150.909 147.383 145.096 149.919 141.496C152.456 137.897 158.632 137.865 163.705 141.44C168.778 145.015 170.799 150.829 168.295 154.428Z" fill="#ED7600"/>
<path opacity="0.5" d="M203.492 179.239C200.956 182.846 194.787 182.87 189.714 179.295C184.641 175.72 182.588 169.906 185.125 166.307C187.661 162.707 193.829 162.675 198.902 166.25C203.975 169.826 206.029 175.639 203.492 179.239Z" fill="#ED7600"/>
<path opacity="0.5" d="M179.568 175.848C177.032 179.448 170.864 179.472 165.791 175.905C160.718 172.338 158.664 166.516 161.201 162.908C163.737 159.301 169.905 159.285 174.978 162.852C180.051 166.419 182.073 172.241 179.568 175.848Z" fill="#ED7600"/>
<path opacity="0.5" d="M192.227 157.828C191.959 158.208 191.645 158.554 191.293 158.858C192.702 155.267 190.576 150.283 186.043 147.094C181.509 143.905 176.106 143.583 173.199 146.111C173.37 145.683 173.589 145.275 173.851 144.896C176.388 141.296 182.564 141.264 187.637 144.839C192.71 148.414 194.755 154.22 192.227 157.828Z" fill="#ED7600"/>
<path opacity="0.5" d="M168.295 154.429C168.028 154.808 167.717 155.154 167.369 155.46C168.778 151.861 166.66 146.884 162.119 143.687C157.577 140.491 152.182 140.177 149.275 142.713C149.444 142.284 149.663 141.876 149.928 141.497C152.464 137.89 158.632 137.866 163.705 141.441C168.778 145.016 170.799 150.822 168.295 154.429Z" fill="#ED7600"/>
<path opacity="0.5" d="M203.492 179.246C203.225 179.622 202.914 179.965 202.566 180.269C203.975 176.669 201.849 171.693 197.316 168.504C192.782 165.315 187.379 164.985 184.472 167.53C184.64 167.097 184.859 166.686 185.125 166.306C187.661 162.698 193.829 162.674 198.902 166.249C203.975 169.825 206.037 175.639 203.492 179.246Z" fill="#ED7600"/>
<path opacity="0.5" d="M179.568 175.848C179.305 176.228 178.994 176.572 178.642 176.871C180.051 173.28 177.926 168.295 173.392 165.107C168.859 161.918 163.455 161.596 160.549 164.132C160.714 163.699 160.933 163.288 161.201 162.908C163.737 159.301 169.905 159.285 174.978 162.852C180.051 166.419 182.073 172.241 179.568 175.848Z" fill="#ED7600"/>
<path d="M187.283 91.1771C187.283 91.1771 176.412 105.285 166.942 117.428C165.597 119.121 163.836 120.435 161.829 121.241C159.823 122.047 157.642 122.318 155.5 122.026C147.23 121.003 133.758 126.857 133.758 126.857C133.758 126.857 159.244 84.9929 187.283 91.1771Z" fill="#ED7600"/>
<path opacity="0.3" d="M187.283 91.1771C187.283 91.1771 176.412 105.285 166.942 117.428C165.597 119.121 163.836 120.435 161.829 121.241C159.823 122.047 157.642 122.318 155.5 122.026C147.23 121.003 133.758 126.857 133.758 126.857C133.758 126.857 159.244 84.9929 187.283 91.1771Z" fill="black"/>
<path d="M238.262 127.084C238.262 127.084 228.688 142.069 220.402 155.074C219.262 156.911 218.619 159.012 218.537 161.172C218.455 163.332 218.937 165.477 219.935 167.394C223.687 174.843 222.705 189.53 222.705 189.53C222.705 189.53 253.538 151.386 238.262 127.084Z" fill="#ED7600"/>
<path opacity="0.3" d="M238.262 127.084C238.262 127.084 228.688 142.069 220.402 155.074C219.262 156.911 218.619 159.012 218.537 161.172C218.455 163.332 218.937 165.477 219.935 167.394C223.687 174.843 222.705 189.53 222.705 189.53C222.705 189.53 253.538 151.386 238.262 127.084Z" fill="black"/>
<path d="M273.387 234.816C283.444 210.208 239.961 203.235 222.753 209.411C205.545 215.587 187.999 220.177 187.323 203.71C186.646 187.243 199.901 177.032 193.579 173.232C190.077 171.122 189.078 174.842 187.347 180.269C182.048 196.898 152.037 200.859 165.847 224.928C179.657 248.997 172.289 243.771 149.058 253.425C125.827 263.08 137.784 290.885 160.259 290.885H295.603C357.639 290.885 298.905 172.144 273.387 234.816Z" fill="#ED7600"/>
<path opacity="0.6" d="M273.387 234.816C283.444 210.208 239.961 203.235 222.753 209.411C205.545 215.587 187.999 220.177 187.323 203.71C186.646 187.243 199.901 177.032 193.579 173.232C190.077 171.122 189.078 174.842 187.347 180.269C182.048 196.898 152.037 200.859 165.847 224.928C179.657 248.997 172.289 243.771 149.058 253.425C125.827 263.08 137.784 290.885 160.259 290.885H295.603C357.639 290.885 298.905 172.144 273.387 234.816Z" fill="white"/>
<path d="M159.075 149.042C157.271 142.777 147.512 150.653 137.897 160.195C128.283 169.737 123.54 191.518 114.239 202.872C104.939 214.226 78.3095 224.485 88.7212 241.572C104.077 266.752 68.7835 290.909 110.583 290.909H196.317C211.995 290.909 228.994 271.736 204.579 258.7C180.164 245.663 143.59 276.061 133.718 247.064C128.822 232.674 146.602 239.277 138.364 215.716C130.127 192.155 130.674 185.737 134.87 175.237C145.08 149.646 161.853 158.56 159.075 149.042Z" fill="#ED7600"/>
<path opacity="0.6" d="M159.075 149.042C157.271 142.777 147.512 150.653 137.897 160.195C128.283 169.737 123.54 191.518 114.239 202.872C104.939 214.226 78.3095 224.485 88.7212 241.572C104.077 266.752 68.7835 290.909 110.583 290.909H196.317C211.995 290.909 228.994 271.736 204.579 258.7C180.164 245.663 143.59 276.061 133.718 247.064C128.822 232.674 146.602 239.277 138.364 215.716C130.127 192.155 130.674 185.737 134.87 175.237C145.08 149.646 161.853 158.56 159.075 149.042Z" fill="white"/>
<path d="M176.847 151.932C178.972 148.051 186.268 150.378 186.107 155.459C185.946 160.54 167.055 167.2 170.566 184.746C174.077 202.292 207.8 203.548 215.716 221.127C223.631 238.705 192.967 241.169 202.115 252.16C211.263 263.152 239.494 237.908 259.609 244.398C279.724 250.888 299.823 290.884 262.927 290.884H149.235C124.514 290.884 106.461 239.84 130.215 218.84C153.97 197.839 134.805 204.659 143.671 191.204C152.536 177.748 168.69 166.813 176.847 151.932Z" fill="#ED7600"/>
<path opacity="0.8" d="M176.847 151.932C178.972 148.051 186.268 150.378 186.107 155.459C185.946 160.54 167.055 167.2 170.566 184.746C174.077 202.292 207.8 203.548 215.716 221.127C223.631 238.705 192.967 241.169 202.115 252.16C211.263 263.152 239.494 237.908 259.609 244.398C279.724 250.888 299.823 290.884 262.927 290.884H149.235C124.514 290.884 106.461 239.84 130.215 218.84C153.97 197.839 134.805 204.659 143.671 191.204C152.536 177.748 168.69 166.813 176.847 151.932Z" fill="white"/>
</svg>