<svg width="99" height="100" viewBox="0 0 99 100" fill="none" xmlns="http://www.w3.org/2000/svg">
<path d="M50.1504 0.429822L48.7121 1.39673C48.3593 1.6339 48.2655 2.11219 48.5027 2.46502L49.4696 3.90338C49.7068 4.2562 50.1851 4.34995 50.5379 4.11278L51.9762 3.14587C52.3291 2.90869 52.4228 2.4304 52.1856 2.07758L51.2187 0.63922C50.9816 0.286395 50.5033 0.192644 50.1504 0.429822Z" fill="#F5F5F5"/>
<path d="M7.867 23.4103L6.42864 24.3772C6.07582 24.6144 5.98207 25.0927 6.21924 25.4455L7.18615 26.8838C7.42332 27.2367 7.90161 27.3304 8.25444 27.0932L9.6928 26.1263C10.0456 25.8892 10.1394 25.4109 9.9022 25.058L8.93529 23.6197C8.69812 23.2669 8.21982 23.1731 7.867 23.4103Z" fill="#F5F5F5"/>
<path d="M66.5377 8.35092L67.0494 8.46154L68.4875 7.22161L68.7018 6.24902C68.7018 6.24902 69.5016 6.37578 69.1282 7.63185C68.7549 8.88791 68.9277 8.58369 68.9277 8.58369C68.9277 8.58369 70.5986 8.95706 70.7092 9.12761C70.7876 9.24975 70.4788 10.8515 70.3105 11.7181C70.2718 11.9319 70.162 12.1264 69.9988 12.2699C69.8356 12.4134 69.6287 12.4975 69.4117 12.5086C69.3497 12.5094 69.2879 12.5033 69.2273 12.4902C68.8102 12.4003 66.7474 11.6052 66.7474 11.6052L65.8647 11.4116L66.5377 8.35092Z" fill="#E0E0E0"/>
<path d="M65.1365 7.76074L64.717 11.1694L65.5905 11.3607L66.3096 8.09032L65.1365 7.76074Z" fill="#E0E0E0"/>
<path d="M76.4388 16.5235L77.0887 17.1918C77.1243 17.2279 77.1679 17.2549 77.2161 17.2705C77.2642 17.2862 77.3154 17.29 77.3653 17.2817L78.2872 17.125C78.3456 17.1144 78.4058 17.1207 78.4608 17.143C78.5158 17.1654 78.5634 17.2029 78.5979 17.2511C78.6324 17.2994 78.6525 17.3565 78.6559 17.4158C78.6592 17.4751 78.6456 17.5341 78.6168 17.5859L78.1812 18.4087C78.1574 18.4534 78.1449 18.5033 78.1449 18.5539C78.1449 18.6046 78.1574 18.6544 78.1812 18.6991L78.6145 19.5265C78.6444 19.5783 78.6587 19.6375 78.6559 19.6972C78.653 19.7569 78.6329 19.8145 78.5982 19.8632C78.5634 19.9118 78.5154 19.9494 78.4598 19.9714C78.4043 19.9934 78.3435 19.999 78.2849 19.9874L77.363 19.8284C77.3131 19.8195 77.2617 19.8231 77.2135 19.8388C77.1652 19.8545 77.1216 19.8818 77.0864 19.9183L76.4365 20.5844C76.396 20.6264 76.3445 20.6563 76.2879 20.6705C76.2312 20.6847 76.1717 20.6826 76.1162 20.6646C76.0607 20.6466 76.0113 20.6133 75.9738 20.5685C75.9363 20.5238 75.9122 20.4693 75.9041 20.4115L75.7705 19.4896C75.7626 19.4404 75.743 19.3937 75.7133 19.3536C75.6836 19.3135 75.6447 19.2811 75.5999 19.2592L74.7656 18.8466C74.713 18.8211 74.6686 18.7814 74.6376 18.7318C74.6066 18.6823 74.5901 18.625 74.5901 18.5666C74.5901 18.5081 74.6066 18.4509 74.6376 18.4014C74.6686 18.3518 74.713 18.3121 74.7656 18.2866L75.6022 17.874C75.6474 17.8526 75.6866 17.8203 75.7163 17.7801C75.7461 17.7399 75.7655 17.693 75.7728 17.6436L75.9087 16.7217C75.913 16.6622 75.9342 16.6052 75.9699 16.5574C76.0056 16.5097 76.0543 16.4732 76.1101 16.4523C76.166 16.4314 76.2266 16.427 76.2849 16.4397C76.3432 16.4523 76.3966 16.4814 76.4388 16.5235Z" fill="#EBEBEB"/>
<path d="M21.0059 1.45806L21.4668 1.93283C21.4922 1.95807 21.5232 1.97703 21.5572 1.98824C21.5912 1.99944 21.6273 2.00256 21.6627 1.99736L22.3127 1.88674C22.3522 1.88354 22.392 1.89062 22.428 1.90728C22.464 1.92395 22.4951 1.94964 22.5183 1.98186C22.5415 2.01409 22.556 2.05176 22.5603 2.09122C22.5647 2.13068 22.5588 2.17059 22.5431 2.20709L22.2389 2.78788C22.222 2.81941 22.2131 2.85464 22.2131 2.89044C22.2131 2.92623 22.222 2.96147 22.2389 2.993L22.5501 3.583C22.5657 3.6195 22.5716 3.65942 22.5672 3.69888C22.5629 3.73834 22.5484 3.776 22.5252 3.80823C22.5021 3.84046 22.4709 3.86615 22.4349 3.88281C22.3989 3.89948 22.3592 3.90656 22.3196 3.90336L21.6697 3.79043C21.6342 3.78523 21.5981 3.78835 21.5641 3.79955C21.5301 3.81076 21.4992 3.82973 21.4738 3.85496L21.0128 4.3159C20.9826 4.34197 20.9462 4.35977 20.9071 4.36755C20.868 4.37533 20.8275 4.37282 20.7897 4.36028C20.7518 4.34774 20.7179 4.32559 20.6911 4.296C20.6644 4.2664 20.6458 4.23038 20.6371 4.19145L20.5427 3.53921C20.5369 3.50356 20.5228 3.46976 20.5016 3.44054C20.4804 3.41131 20.4526 3.38748 20.4205 3.37097L19.8282 3.07827C19.7938 3.05786 19.7653 3.02886 19.7455 2.99411C19.7257 2.95936 19.7153 2.92006 19.7153 2.88007C19.7153 2.84008 19.7257 2.80078 19.7455 2.76602C19.7653 2.73127 19.7938 2.70227 19.8282 2.68186L20.4205 2.38916C20.4523 2.37288 20.48 2.34941 20.5012 2.32061C20.5224 2.2918 20.5366 2.25847 20.5427 2.22322L20.6371 1.56869C20.6481 1.53212 20.6679 1.49885 20.6949 1.47185C20.7219 1.44486 20.7552 1.42498 20.7917 1.41402C20.8283 1.40305 20.867 1.40133 20.9044 1.40902C20.9417 1.41671 20.9766 1.43356 21.0059 1.45806Z" fill="#EBEBEB"/>
<path d="M5.70264 12.6034C6.05277 12.5681 6.37958 12.4117 6.62659 12.161C6.87361 11.9104 7.0253 11.5814 7.05546 11.2308C7.08562 10.8802 6.99235 10.53 6.79177 10.2409C6.59119 9.95178 6.2959 9.7418 5.95694 9.64728C5.61797 9.55275 5.25664 9.57962 4.93538 9.72322C4.61412 9.86683 4.35312 10.1182 4.1975 10.4338C4.04187 10.7494 4.0014 11.1094 4.08307 11.4517C4.16474 11.794 4.36342 12.097 4.64478 12.3084C2.32164 12.0041 1.78003 14.3388 1.78003 14.3388L7.05781 15.8369C7.05781 15.8369 7.82758 13.5391 5.70264 12.6034Z" fill="#E0E0E0"/>
<path d="M39.5426 100C44.27 100 48.1023 99.7104 48.1023 99.3527C48.1023 98.995 44.27 98.7051 39.5426 98.7051C34.8152 98.7051 30.9829 98.995 30.9829 99.3527C30.9829 99.7104 34.8152 100 39.5426 100Z" fill="#E0E0E0"/>
<path d="M98.9882 97.0746C98.9882 97.1091 77.4138 97.1345 50.8198 97.1345C24.2258 97.1345 2.63525 97.1091 2.63525 97.0746C2.63525 97.04 24.2027 97.0146 50.8198 97.0146C77.4369 97.0146 98.9882 97.0492 98.9882 97.0746Z" fill="#263238"/>
<path d="M33.009 61.7459C33.009 61.7459 14.8018 42.2458 12.6538 39.6921C11.732 38.5813 10.333 35.6935 10.1555 34.7278C10.0233 34.022 10.117 33.2924 10.4232 32.6428C10.7293 31.9932 11.2325 31.4567 11.861 31.1094C14.7373 29.5307 21.9464 27.4219 39.9185 27.4219C55.0605 27.4219 61.887 29.1711 64.9592 30.819C65.7658 31.2554 66.4062 31.9455 66.7811 32.7825C67.1561 33.6195 67.2448 34.5567 67.0334 35.4492C66.706 36.8407 66.0239 38.1237 65.0537 39.1736L44.1961 61.7597L42.3316 77.5539H35.7516L33.009 61.7459Z" fill="#455A64"/>
<path d="M63.3136 32.3564C63.4884 32.4279 63.64 32.5461 63.752 32.6982C63.8639 32.8502 63.9319 33.0301 63.9483 33.2182C63.9647 33.4063 63.929 33.5953 63.8451 33.7644C63.7612 33.9336 63.6324 34.0764 63.4727 34.1771C59.1675 36.9427 53.7537 37.6802 48.5865 38.019C36.9916 38.7773 18.8835 38.3163 13.5066 33.6585C13.4238 33.5882 13.3611 33.4972 13.3248 33.3948C13.2886 33.2924 13.2801 33.1822 13.3002 33.0754C13.3203 32.9687 13.3684 32.8692 13.4394 32.787C13.5105 32.7048 13.6021 32.6429 13.7048 32.6076C15.5785 31.9576 21.1329 29.7866 38.3214 29.9157C53.3458 30.0286 60.4673 31.2017 63.3136 32.3564Z" fill="#263238"/>
<path d="M44.535 61.5273C44.5021 61.5527 44.4665 61.5743 44.4289 61.5919L44.1178 61.7555C43.9547 61.8415 43.787 61.9184 43.6154 61.986C43.4149 62.0689 43.1913 62.175 42.924 62.2602L42.5183 62.4054C42.3778 62.4538 42.2256 62.4907 42.0712 62.5368C41.7647 62.6336 41.4259 62.7027 41.0733 62.7811C40.3009 62.9279 39.5177 63.0103 38.7317 63.0277C37.945 63.0313 37.1594 62.9689 36.3832 62.841C36.0283 62.7719 35.6918 62.712 35.3784 62.6221C35.2216 62.5806 35.0695 62.5483 34.9174 62.5022L34.5095 62.3686C34.2467 62.2902 34.0209 62.1888 33.8181 62.1104C33.6441 62.0433 33.474 61.9663 33.3087 61.88L32.993 61.7232C32.9547 61.708 32.9189 61.687 32.887 61.661C32.9273 61.6712 32.9667 61.6851 33.0045 61.7025L33.3272 61.8385C33.4677 61.9007 33.6383 61.9722 33.8434 62.0436C34.0485 62.115 34.2744 62.2095 34.5348 62.2741L34.9428 62.3985C35.0833 62.4423 35.2355 62.4723 35.3899 62.5115C35.6987 62.5967 36.0375 62.652 36.3901 62.7189C37.9311 62.9725 39.5048 62.9523 41.0387 62.659C41.3913 62.5829 41.7301 62.5184 42.032 62.4285C42.1865 62.3847 42.3386 62.3478 42.4792 62.3017L42.8825 62.1681C43.1429 62.0874 43.3688 61.986 43.5739 61.9099C43.779 61.8339 43.9473 61.7555 44.0855 61.691L44.4059 61.5458C44.4478 61.5336 44.4913 61.5273 44.535 61.5273Z" fill="#263238"/>
<path d="M65.026 32.9443C65.026 32.9443 64.9915 32.9766 64.9177 33.0342L64.5928 33.2854L64.0581 33.6911L63.2929 34.1935C62.5814 34.6351 61.8424 35.0308 61.0804 35.3781C60.0692 35.8348 59.0273 36.2199 57.9621 36.5305C56.6749 36.9055 55.3666 37.2041 54.0441 37.4247C52.6152 37.6552 51.0779 37.8464 49.4577 37.987C46.2127 38.2567 42.6381 38.448 38.8814 38.4295C37.0031 38.4295 35.1685 38.3765 33.4008 38.2728C31.6331 38.1691 29.9276 38.0423 28.312 37.8464C25.4477 37.532 22.6015 37.0705 19.7846 36.4636C17.8641 36.1164 16.0256 35.4129 14.3639 34.3894C13.9116 34.112 13.4951 33.78 13.124 33.4007C13.03 33.2995 12.9445 33.1908 12.8682 33.0757C12.8175 32.9973 12.7944 32.9559 12.7944 32.9559C12.9014 33.1059 13.0176 33.249 13.1424 33.3845C13.5177 33.7545 13.9354 34.0786 14.387 34.3502C16.0524 35.3538 17.8884 36.0421 19.8031 36.3807C22.6209 36.9773 25.467 37.4319 28.3305 37.7427C29.9438 37.9271 31.6469 38.0631 33.4147 38.1622C35.1824 38.2613 37.0123 38.3143 38.8883 38.3166C42.6404 38.3166 46.215 38.1484 49.4531 37.8833C51.0664 37.7473 52.6083 37.5676 54.0349 37.3325C55.3569 37.1174 56.6651 36.825 57.9529 36.4567C59.015 36.1516 60.0552 35.7751 61.0665 35.3297C61.8277 34.987 62.5674 34.5983 63.2814 34.1658L64.035 33.6703L64.5743 33.2739L64.9085 33.0319L65.026 32.9443Z" fill="#263238"/>
<path d="M64.6964 39.5518L64.5719 39.614L64.2009 39.7868L62.772 40.4414L61.7395 40.9023C61.3569 41.066 60.9328 41.2204 60.4834 41.3978C59.5753 41.7389 58.5613 42.1791 57.3928 42.5317L55.5721 43.1264C55.2563 43.237 54.9267 43.3177 54.5926 43.4075L53.5716 43.6795L52.5114 43.9722L51.9698 44.1151L51.4121 44.2326L49.1074 44.7166C45.6663 45.3483 42.1807 45.7074 38.6832 45.7906C35.1815 45.8242 31.6828 45.5722 28.2221 45.037L25.9013 44.6106L25.3412 44.5092C25.1568 44.47 24.9771 44.4216 24.7973 44.3778L23.7325 44.1174L22.7069 43.8662C22.3704 43.7809 22.0363 43.7118 21.7205 43.6057L19.8906 43.0411C18.7152 42.7115 17.6965 42.2782 16.7861 41.9463C16.3252 41.7712 15.908 41.6237 15.5255 41.4624L14.4906 41.0014L13.0502 40.3538L12.6791 40.1832L12.5547 40.121L12.6838 40.1717L13.0594 40.3331L14.4999 40.9576L15.5393 41.4186C15.9219 41.5776 16.3482 41.7228 16.8023 41.8933C17.7241 42.2183 18.7313 42.6447 19.9067 42.9696L21.7366 43.5251C22.0524 43.6311 22.3866 43.7002 22.7208 43.7832L23.7487 44.0298L24.8088 44.2879C24.9909 44.3294 25.1707 44.3778 25.355 44.417L25.9128 44.5184L28.2175 44.9379C31.6807 45.4625 35.1806 45.7076 38.6832 45.6708C42.1772 45.5882 45.6594 45.233 49.0981 44.6083L51.4028 44.1289L51.9583 44.0137L52.4999 43.8708L53.5554 43.5919L54.5787 43.3246C54.9106 43.2347 55.2425 43.1563 55.5559 43.0457L57.3766 42.4603C58.5451 42.1146 59.5615 41.679 60.4696 41.3448C60.9305 41.1697 61.3454 41.0199 61.7279 40.8585L62.7651 40.3976L64.2032 39.7661L64.5766 39.6048C64.6503 39.5679 64.6964 39.5518 64.6964 39.5518Z" fill="#263238"/>
<path d="M36.7012 77.5404C36.6919 77.5167 36.6857 77.4919 36.6827 77.4666C36.6827 77.4136 36.662 77.3422 36.6435 77.2523C36.6113 77.0564 36.5629 76.7752 36.5006 76.4111C36.3785 75.6713 36.201 74.6019 35.9775 73.2536C35.5396 70.5456 34.9196 66.7267 34.1959 62.2601L34.2098 62.2901C32.4928 60.4187 30.619 58.3583 28.7153 56.1619C26.5697 53.6866 24.5968 51.2667 22.889 48.9989C22.034 47.8673 21.2504 46.7679 20.5244 45.7354C19.7984 44.7029 19.1416 43.7326 18.6115 42.79C18.1181 41.9513 17.7961 41.023 17.6643 40.0589C17.5798 39.3265 17.6715 38.5846 17.9316 37.8948C18.0965 37.4634 18.3492 37.071 18.6737 36.7424L18.8258 36.5995L18.9457 36.5073C19.0079 36.4566 19.0425 36.4336 19.0425 36.4336C19.014 36.4628 18.984 36.4905 18.9526 36.5166C18.9203 36.5419 18.8811 36.5742 18.8374 36.6134L18.6922 36.7609C18.3773 37.0922 18.1333 37.4843 17.9754 37.9132C17.7267 38.5961 17.643 39.3282 17.7311 40.0497C17.8676 41.0035 18.1919 41.9208 18.6852 42.7485C19.2061 43.6819 19.8952 44.6384 20.6074 45.6778C21.3195 46.7172 22.1193 47.8027 22.9789 48.932C24.689 51.1929 26.6665 53.6106 28.8052 56.0766C30.7089 58.273 32.5803 60.3334 34.2927 62.2071H34.3043V62.2486C35.0118 66.7175 35.6156 70.5456 36.0443 73.249C36.254 74.5973 36.42 75.6689 36.5352 76.4111C36.5882 76.7752 36.632 77.0564 36.6597 77.2523C36.6735 77.3445 36.6827 77.4182 36.6919 77.4712L36.7012 77.5404Z" fill="#263238"/>
<path d="M61.4606 29.379C61.4606 29.3928 61.3407 29.379 61.1356 29.4181C60.847 29.4649 60.5776 29.5928 60.3589 29.7869C60.0418 30.0865 59.7872 30.4461 59.6099 30.8448C59.3849 31.3331 59.1991 31.8387 59.0545 32.3566C58.7318 33.4583 58.5474 34.4862 58.4022 35.226C58.34 35.5786 58.287 35.8736 58.2478 36.1041C58.2346 36.2132 58.2099 36.3206 58.1741 36.4245C58.1739 36.3148 58.1831 36.2053 58.2017 36.0972C58.2271 35.8875 58.264 35.5855 58.3193 35.2099C58.4667 34.2363 58.6737 33.2726 58.9392 32.3244C59.085 31.7994 59.2763 31.2881 59.5108 30.7964C59.6983 30.3876 59.9682 30.0219 60.3036 29.7224C60.5376 29.5246 60.8261 29.4024 61.131 29.372C61.2123 29.3643 61.2941 29.3643 61.3753 29.372C61.4306 29.3697 61.4606 29.3744 61.4606 29.379Z" fill="#263238"/>
<path d="M72.6982 25.9703C72.6982 25.9703 70.511 22.179 69.4163 22.3957C68.6658 22.5796 67.9639 22.9231 67.3582 23.4028L70.1422 26.6755L72.6982 25.9703Z" fill="#FFBE9D"/>
<path d="M85.9203 35.9517L77.545 32.1927L72.6613 24.7646L69.656 26.3226L75.3371 36.4472L84.6781 39.9896L85.9203 35.9517Z" fill="#ED7600"/>
<path d="M68.0035 22.6358C68.6035 22.7741 69.2331 22.6984 69.7832 22.4218C70.3334 22.1451 70.7696 21.685 71.0164 21.1208C71.2633 20.5566 71.3052 19.924 71.135 19.3321C70.9648 18.7403 70.5932 18.2266 70.0844 17.8797C69.5756 17.5329 68.9615 17.3747 68.3485 17.4326C67.7354 17.4905 67.1618 17.7607 66.7269 18.1967C66.292 18.6326 66.023 19.2068 65.9666 19.82C65.9102 20.4332 66.0698 21.0469 66.4178 21.5549C62.7303 19.748 60.5293 23.3134 60.5293 23.3134L68.4344 28.7548C68.4344 28.7548 71.0019 25.3738 68.0035 22.6358Z" fill="#263238"/>
<path d="M74.3116 95.9341L74.5421 93.8438L78.3541 94.2263L78.1651 97.2985H77.9208C76.833 97.2501 72.3895 96.9759 71.6981 96.6832C70.9099 96.3582 74.3116 95.9341 74.3116 95.9341Z" fill="#455A64"/>
<path d="M78.2225 97.2138C78.1995 97.2163 78.1763 97.2163 78.1533 97.2138H77.9597L77.2453 97.1746C76.6414 97.1354 75.8071 97.0709 74.8899 96.981C73.9726 96.8911 73.1406 96.7897 72.5414 96.7067L71.8338 96.6076L71.6402 96.5754C71.6181 96.5742 71.5963 96.5695 71.5757 96.5615H71.6425L71.8361 96.5846L72.546 96.6698C73.1475 96.7413 73.9772 96.8381 74.8945 96.928C75.8117 97.0179 76.6437 97.0893 77.2476 97.1354L77.9597 97.1907L78.1556 97.2068L78.2225 97.2138Z" fill="#263238"/>
<path d="M72.9333 96.7945C72.9151 96.6732 72.8818 96.5548 72.8342 96.4418C72.7748 96.3346 72.7029 96.2348 72.6199 96.1445C72.7366 96.2024 72.8284 96.3006 72.878 96.4211C72.9425 96.5343 72.9622 96.6675 72.9333 96.7945Z" fill="#263238"/>
<path d="M74.148 96.3242C74.1364 96.3242 74.088 96.2574 74.0396 96.1606C74.0035 96.1061 73.9814 96.0436 73.9751 95.9785C73.9866 95.9785 74.035 96.0453 74.0834 96.1398C74.1318 96.2343 74.1595 96.3173 74.148 96.3242Z" fill="#263238"/>
<path d="M74.4821 96.1878C74.4821 96.1878 74.4153 96.1486 74.353 96.0818C74.2908 96.015 74.2516 95.9527 74.2609 95.9435C74.2701 95.9343 74.3277 95.9827 74.3899 96.0495C74.4522 96.1164 74.4913 96.1786 74.4821 96.1878Z" fill="#263238"/>
<path d="M74.7195 95.8377C74.7195 95.8515 74.6273 95.8538 74.512 95.8377C74.4431 95.8378 74.3748 95.8237 74.3115 95.7962C74.379 95.7802 74.4492 95.7802 74.5166 95.7962C74.5865 95.795 74.6557 95.8092 74.7195 95.8377Z" fill="#263238"/>
<path d="M74.814 95.5844C74.7436 95.6227 74.663 95.638 74.5835 95.6281C74.5028 95.6336 74.4224 95.6143 74.353 95.5728C74.4297 95.5656 74.5068 95.5656 74.5835 95.5728C74.6605 95.5698 74.7376 95.5737 74.814 95.5844Z" fill="#263238"/>
<path d="M74.051 95.9695C73.9655 95.9744 73.8799 95.9651 73.7975 95.9418C73.708 95.9222 73.6208 95.8937 73.5371 95.8565C73.4847 95.8368 73.4352 95.8105 73.3895 95.7782C73.3613 95.7575 73.3416 95.7271 73.3342 95.6929C73.3323 95.6738 73.3359 95.6546 73.3444 95.6375C73.353 95.6204 73.3663 95.606 73.3826 95.5961C73.4836 95.558 73.5947 95.5565 73.6966 95.5919C73.7985 95.6273 73.8848 95.6973 73.9404 95.7897C73.9754 95.8422 73.9975 95.9022 74.0049 95.9649C74.0109 95.9875 74.0109 96.0113 74.0049 96.034C73.988 95.9524 73.9567 95.8743 73.9127 95.8035C73.8619 95.7315 73.7915 95.6755 73.7099 95.6422C73.6621 95.6222 73.6108 95.612 73.5589 95.612C73.5071 95.612 73.4558 95.6222 73.408 95.6422C73.3665 95.6676 73.378 95.7159 73.4195 95.7459C73.4611 95.7762 73.5059 95.8017 73.5532 95.822C73.6353 95.8588 73.7201 95.8897 73.8067 95.9142C73.945 95.951 74.051 95.9626 74.051 95.9695Z" fill="#263238"/>
<path d="M73.9844 95.976C73.9584 95.9196 73.9543 95.8556 73.9728 95.7963C73.9868 95.7319 74.016 95.6718 74.0581 95.6211C74.0834 95.5842 74.1181 95.5546 74.1586 95.5356C74.1991 95.5165 74.244 95.5087 74.2886 95.5128C74.3134 95.5212 74.3341 95.5388 74.3465 95.5619C74.3589 95.585 74.3621 95.6119 74.3554 95.6372C74.3446 95.6768 74.3258 95.7136 74.3001 95.7456C74.2615 95.7977 74.2166 95.845 74.1664 95.8862C74.1226 95.9272 74.0697 95.9572 74.012 95.9737C74.012 95.9737 74.0673 95.9322 74.1434 95.8608C74.1885 95.818 74.2294 95.7709 74.2655 95.7202C74.3047 95.6695 74.337 95.5773 74.2655 95.5589C74.1941 95.5404 74.1342 95.6027 74.0904 95.6488C74.0497 95.6937 74.0198 95.7473 74.0028 95.8055C73.99 95.8614 73.9838 95.9187 73.9844 95.976Z" fill="#263238"/>
<path d="M78.2503 96.1277C78.2503 96.1277 78.1373 96.1047 77.9599 96.1093C77.7262 96.1104 77.4977 96.1782 77.3013 96.3048C77.1049 96.4314 76.9488 96.6114 76.8513 96.8237C76.7752 96.9851 76.7568 97.098 76.7499 97.0957C76.743 97.0934 76.7499 97.068 76.7499 97.0173C76.7635 96.946 76.7851 96.8764 76.8144 96.8099C76.9076 96.5866 77.0663 96.3968 77.2695 96.2655C77.4728 96.1343 77.7111 96.0677 77.953 96.0747C78.0253 96.0753 78.0972 96.0846 78.1673 96.1024C78.1963 96.1055 78.2245 96.1141 78.2503 96.1277Z" fill="#263238"/>
<path d="M78.0061 94.4639C78.0073 94.7334 77.9919 95.0028 77.96 95.2705C77.9449 95.5403 77.9133 95.8089 77.8655 96.0749C77.867 95.8054 77.8824 95.5361 77.9116 95.2682C77.9269 94.9984 77.9584 94.7298 78.0061 94.4639Z" fill="#263238"/>
<path d="M76.2866 96.695C76.0945 96.7193 75.9001 96.7193 75.7081 96.695C75.5155 96.6854 75.325 96.6513 75.1411 96.5936C75.1411 96.5797 75.3969 96.6212 75.7127 96.6489C76.0284 96.6765 76.2866 96.6811 76.2866 96.695Z" fill="#263238"/>
<path d="M77.0541 96.7692C77.0541 96.7807 77.0288 96.8222 76.9965 96.8775C76.9642 96.9328 76.9435 96.9859 76.932 96.9835C76.9205 96.9812 76.9158 96.919 76.955 96.8545C76.9942 96.79 77.0472 96.76 77.0541 96.7692Z" fill="#263238"/>
<path d="M77.3791 96.4395C77.3791 96.4395 77.3583 96.4879 77.3145 96.5248C77.2707 96.5617 77.227 96.5824 77.2177 96.5732C77.2085 96.564 77.2385 96.5248 77.2823 96.4879C77.3261 96.451 77.3698 96.428 77.3791 96.4395Z" fill="#263238"/>
<path d="M77.81 96.3151C77.81 96.3289 77.7547 96.3151 77.6948 96.3381C77.6349 96.3612 77.5911 96.3796 77.5795 96.3681C77.568 96.3566 77.6095 96.3082 77.6833 96.292C77.757 96.2759 77.8146 96.3036 77.81 96.3151Z" fill="#263238"/>
<path d="M78.1119 96.2666C78.1119 96.2804 78.0912 96.2989 78.0566 96.3081C78.0221 96.3173 77.9944 96.3081 77.9898 96.3081C77.9852 96.3081 78.0105 96.2781 78.0451 96.2689C78.0797 96.2597 78.1096 96.2551 78.1119 96.2666Z" fill="#263238"/>
<path d="M60.859 26.2822C60.3019 25.6487 59.7795 24.9855 59.2941 24.2955C58.7317 23.4105 58.8101 23.3575 58.923 23.3068C59.2273 23.1708 59.9717 24.8233 60.0155 24.3716C60.0593 23.9199 58.8631 22.4587 59.195 22.3296C59.6168 22.1614 60.3635 23.9083 60.4372 24.0512C60.511 24.1941 60.7184 24.0858 60.6447 23.9613C60.5386 23.7816 59.4739 21.8618 59.8841 21.6912C60.1146 21.5967 60.2344 22.03 60.2344 22.03C60.2344 22.03 61.101 23.9014 61.2923 23.8162C61.4836 23.7309 61.0157 22.6108 60.8313 22.2443C60.647 21.8779 60.7438 21.6451 60.9696 21.6935C61.1217 21.7258 61.7163 22.8297 61.8915 23.1939C62.0667 23.558 62.5299 24.5767 62.7005 23.8853C62.871 23.1939 63.2605 22.7191 63.4495 22.6638C63.6385 22.6085 63.7814 22.8597 63.6454 23.0349C63.5164 23.2388 63.4149 23.4589 63.3435 23.6894C63.2812 23.8735 63.2492 24.0666 63.249 24.261C63.249 24.4269 63.249 24.5767 63.2628 24.7219L63.3296 26.1416L61.7048 27.2548L60.859 26.2822Z" fill="#FFBE9D"/>
<path d="M79.9719 69.8174L78.2871 95.5725L74.3691 95.1392C74.3691 95.1392 75.0721 70.0179 75.2565 70.0179C75.4408 70.0179 79.9719 69.8174 79.9719 69.8174Z" fill="#FFBE9D"/>
<path d="M88.4717 69.0781L92.8691 94.612L89.3936 95.1398L83.3069 70.2927L88.4717 69.0781Z" fill="#FFBE9D"/>
<path d="M82.7882 25.2423L82.8965 34.8299C82.903 35.3315 82.7143 35.816 82.3703 36.1811C82.0263 36.5462 81.5538 36.7634 81.0527 36.7866C80.7986 36.7987 80.5446 36.7606 80.3052 36.6745C80.0659 36.5883 79.8458 36.4558 79.6577 36.2846C79.4695 36.1134 79.317 35.9067 79.2088 35.6765C79.1005 35.4463 79.0387 35.197 79.0269 34.9429L78.907 32.4976C78.907 32.4976 77.167 32.781 76.819 31.5296C76.5885 30.7276 76.819 24.998 76.819 24.998L82.7882 25.2423Z" fill="#FFBE9D"/>
<path d="M86.7708 54.3596L90.9354 75.0351L83.7631 75.7242L81.7903 61.2921L81.0182 75.9916L73.9243 75.3808L75.1135 53.3916L86.7708 54.3596Z" fill="#263238"/>
<path d="M92.9475 94.0078L93.1987 97.103L89.1931 96.9832L89.2922 94.1738L92.9475 94.0078Z" fill="#455A64"/>
<path d="M91.1082 93.9551C91.0732 94.3587 91.0786 94.7648 91.1244 95.1673C91.1287 95.5727 91.1743 95.9766 91.2603 96.3727C91.2956 95.9692 91.291 95.5631 91.2465 95.1604C91.2422 94.755 91.1958 94.351 91.1082 93.9551Z" fill="#263238"/>
<path d="M89.1931 96.4919C89.3906 96.5036 89.5888 96.4982 89.7854 96.4758L91.212 96.3882C91.7698 96.3513 92.2745 96.3075 92.6386 96.2637C92.837 96.2521 93.0334 96.2181 93.224 96.1623C93.0266 96.1477 92.8281 96.1531 92.6317 96.1785L91.2051 96.266C90.6474 96.3029 90.1427 96.3467 89.7785 96.3905C89.5802 96.4021 89.3838 96.4361 89.1931 96.4919Z" fill="#263238"/>
<path d="M86.5379 46.6526V51.753L87.0956 55.989L74.9337 54.8735L75.4545 46.4037C75.5352 44.4217 75.5721 42.3567 75.6205 40.529C74.7931 40.2156 67.0931 37.3024 66.5699 37.2264C66.0467 37.1503 60.9741 27.8301 60.9741 27.8301C60.815 26.7123 63.8457 25.9863 63.8457 25.9863C63.8457 25.9863 68.5519 33.0848 68.9507 33.4835C69.3494 33.8823 76.7106 35.1729 76.7106 35.1729C78.6159 34.7866 80.5519 34.5714 82.4954 34.5299C83.6733 34.5118 84.8141 34.9419 85.687 35.733C86.5598 36.5241 87.0996 37.6173 87.197 38.7913C87.3538 40.559 87.2547 43.0919 86.5379 46.6526Z" fill="#ED7600"/>
<path d="M70.1629 23.9219C70.0258 23.9553 69.8985 24.0205 69.7912 24.1122C69.684 24.2039 69.5997 24.3195 69.5453 24.4497C69.1017 24.0989 68.5478 23.9176 67.9827 23.938C68.0475 24.2626 68.2349 24.5498 68.5058 24.74C68.764 24.9429 69.059 25.0927 69.3171 25.2932C69.5897 25.4797 69.7822 25.7618 69.8564 26.0837" fill="#FFBE9D"/>
<path d="M76.1231 23.7168C75.6621 23.7652 75.3809 24.3345 75.4893 24.7931C75.5976 25.2517 75.964 25.6021 76.3443 25.8786C76.3119 26.0797 76.3321 26.2858 76.4029 26.4767C76.4737 26.6677 76.5927 26.8371 76.7484 26.9684C76.9041 27.0998 77.0912 27.1885 77.2913 27.2262C77.4915 27.2638 77.698 27.2489 77.8908 27.1831C77.8539 27.2192 77.8249 27.2625 77.8057 27.3103C77.7864 27.3581 77.7772 27.4094 77.7787 27.4609C77.7802 27.5124 77.7924 27.5631 77.8145 27.6097C77.8365 27.6563 77.868 27.6978 77.9069 27.7316C77.9892 27.7962 78.0847 27.8419 78.1867 27.8654C78.2887 27.8889 78.3946 27.8897 78.4969 27.8676C78.7043 27.8376 78.9025 27.7616 79.1076 27.7247C79.3396 27.6769 79.5806 27.7017 79.7979 27.7957C80.0152 27.8897 80.1983 28.0484 80.3222 28.2502C80.5389 28.6696 80.2946 29.2919 79.8267 29.3518C79.7214 29.3541 79.6165 29.3657 79.5133 29.3864C79.452 29.4159 79.3979 29.4581 79.3544 29.5103C79.3109 29.5625 79.2791 29.6235 79.2612 29.689C79.2433 29.7546 79.2396 29.8232 79.2505 29.8903C79.2614 29.9573 79.2866 30.0213 79.3243 30.0778C79.4061 30.1877 79.512 30.2774 79.6338 30.3402C79.7557 30.4029 79.8902 30.4369 80.0272 30.4396C79.8797 30.6342 79.8138 30.8785 79.8436 31.1209C79.8734 31.3632 79.9964 31.5843 80.1867 31.7374C80.3769 31.8904 80.6193 31.9632 80.8624 31.9404C81.1054 31.9175 81.33 31.8008 81.4884 31.615C81.5396 31.7773 81.6247 31.9268 81.7379 32.0538C81.8512 32.1808 81.9901 32.2823 82.1454 32.3516C82.3008 32.421 82.4691 32.4565 82.6393 32.456C82.8094 32.4555 82.9775 32.4189 83.1325 32.3487C83.2874 32.2784 83.4257 32.1761 83.5382 32.0485C83.6507 31.9208 83.7349 31.7708 83.7851 31.6082C83.8354 31.4457 83.8505 31.2743 83.8297 31.1054C83.8088 30.9366 83.7524 30.7741 83.6641 30.6286C83.8938 30.5267 84.0938 30.3681 84.2454 30.1677C84.3971 29.9673 84.4954 29.7316 84.5311 29.4829C84.5668 29.2341 84.5387 28.9804 84.4496 28.7454C84.3604 28.5105 84.213 28.302 84.0213 28.1395C84.3083 27.9164 84.5628 27.6542 84.7772 27.3606C84.8836 27.2124 84.9573 27.0433 84.9935 26.8645C85.0296 26.6857 85.0274 26.5013 84.987 26.3234C84.94 26.1473 84.8336 25.9928 84.6857 25.8861C84.5379 25.7794 84.3577 25.7271 84.1757 25.738C84.2697 25.6068 84.3259 25.4523 84.3382 25.2913C84.3505 25.1304 84.3185 24.9691 84.2455 24.8251C84.1726 24.6811 84.0615 24.5599 83.9245 24.4746C83.7874 24.3893 83.6296 24.3432 83.4682 24.3414C83.4406 24.031 83.3118 23.7383 83.1017 23.5082C82.8915 23.2782 82.6117 23.1235 82.3051 23.068C81.9985 23.0125 81.6821 23.0592 81.4046 23.201C81.1272 23.3428 80.904 23.5718 80.7693 23.8528C80.7348 23.4264 80.2508 23.1383 79.8313 23.2075C79.6231 23.2576 79.4296 23.3558 79.2663 23.4943C79.103 23.6328 78.9745 23.8077 78.891 24.0049C78.9146 23.88 78.9127 23.7517 78.8854 23.6275C78.858 23.5034 78.8058 23.3862 78.7318 23.2828C78.6579 23.1794 78.5637 23.0921 78.4551 23.0262C78.3465 22.9602 78.2256 22.917 78.0998 22.8991C77.9739 22.8811 77.8458 22.8889 77.723 22.9219C77.6003 22.9549 77.4855 23.0124 77.3857 23.091C77.2858 23.1695 77.2029 23.2676 77.1419 23.3791C77.081 23.4906 77.0433 23.6134 77.0311 23.7399C77.0541 23.6827 77.0622 23.6206 77.0547 23.5594C77.0472 23.4983 77.0242 23.44 76.988 23.3901C76.9519 23.3402 76.9036 23.3004 76.8478 23.2742C76.792 23.2481 76.7305 23.2365 76.669 23.2406C76.6075 23.2447 76.548 23.2644 76.4962 23.2977C76.4444 23.3311 76.4019 23.377 76.3727 23.4313C76.3434 23.4856 76.3285 23.5464 76.3292 23.608C76.3298 23.6696 76.3461 23.73 76.3766 23.7836" fill="#263238"/>
<path d="M79.2827 28.9254C79.2827 28.9069 79.3496 28.9254 79.4325 28.8793C79.4868 28.8626 79.5349 28.8299 79.5704 28.7856C79.6059 28.7413 79.6273 28.6873 79.6318 28.6306C79.6363 28.574 79.6236 28.5173 79.5955 28.4679C79.5674 28.4186 79.525 28.3788 79.474 28.3538C79.398 28.3054 79.3357 28.3054 79.3334 28.287C79.3311 28.2685 79.4003 28.2386 79.5109 28.287C79.5884 28.3103 79.6557 28.3594 79.7014 28.4261C79.7472 28.4929 79.7688 28.5733 79.7626 28.654C79.7564 28.7347 79.7228 28.8109 79.6674 28.8699C79.612 28.9289 79.5381 28.9672 79.4579 28.9784C79.3404 28.983 79.2758 28.9369 79.2827 28.9254Z" fill="#EB996E"/>
<path d="M78.2341 27.7589L78.2825 29.1417C78.2799 29.2005 78.2918 29.2591 78.3171 29.3122C78.3463 29.3529 78.3887 29.382 78.4371 29.3947C78.4855 29.4073 78.5368 29.4026 78.5821 29.3814C78.6278 29.3583 78.668 29.3259 78.7002 29.2862C78.7324 29.2464 78.7558 29.2003 78.7688 29.1509C78.7957 29.0547 78.8112 28.9557 78.8149 28.8559C78.8525 28.3785 78.95 27.9077 79.1053 27.4546C78.9425 27.3994 78.7649 27.4068 78.6072 27.4754C78.4496 27.544 78.3231 27.6689 78.2526 27.8257" fill="#263238"/>
<path d="M78.8956 41.719C78.8841 41.7489 77.8723 41.4032 76.6347 40.9446C75.3971 40.4859 74.4014 40.0895 74.4129 40.0596C75.1802 40.2775 75.9357 40.5352 76.6762 40.8316C77.4307 41.0893 78.1715 41.3854 78.8956 41.719Z" fill="#263238"/>
<path d="M79.2805 36.0234C79.3619 36.048 79.4394 36.0837 79.511 36.1295C79.7215 36.247 79.9166 36.3902 80.0918 36.5558C80.3531 36.8023 80.5705 37.0914 80.7348 37.4109C80.9365 37.8041 81.0498 38.2368 81.0667 38.6785C81.0834 39.119 81.0096 39.5582 80.85 39.9691C80.7211 40.3085 80.5305 40.6211 80.2877 40.891C80.1269 41.0767 79.9142 41.21 79.6769 41.2736C79.6129 41.2894 79.5469 41.2957 79.481 41.292C79.4349 41.292 79.4119 41.2874 79.4119 41.2782C79.4974 41.2678 79.5821 41.2516 79.6654 41.2298C79.885 41.1516 80.0788 41.0145 80.2254 40.8334C80.4496 40.5678 80.6259 40.2652 80.7463 39.9391C80.8946 39.5408 80.9628 39.1171 80.9468 38.6923C80.9301 38.2678 80.8241 37.8516 80.6357 37.4708C80.4806 37.1593 80.2768 36.8745 80.0319 36.6273C79.8008 36.403 79.5492 36.2009 79.2805 36.0234Z" fill="#263238"/>
<path d="M79.1168 36.1019C78.9827 36.0863 78.85 36.0593 78.7204 36.0212L77.6534 35.7608L74.1364 34.8758L70.6125 34.0046L69.5454 33.7395C69.4139 33.7116 69.2846 33.6747 69.1582 33.6289C69.2927 33.6401 69.4261 33.6625 69.5569 33.6957C69.8104 33.7441 70.1792 33.8225 70.6332 33.9262C71.539 34.1244 72.7904 34.4171 74.164 34.7605C75.5376 35.1039 76.7799 35.4335 77.6741 35.6824L78.7343 35.982C78.8644 36.0132 78.9922 36.0532 79.1168 36.1019Z" fill="#263238"/>
<path d="M77.5588 54.7151C77.5502 54.6726 77.5463 54.6294 77.5473 54.586C77.5473 54.4893 77.5473 54.3694 77.5473 54.2219C77.5473 53.9039 77.5473 53.4452 77.5473 52.8783C77.5588 51.7443 77.5957 50.1771 77.6717 48.4486C77.7478 46.7201 77.8469 45.1552 77.9321 44.0259C77.9759 43.4589 78.0128 43.0026 78.0451 42.6868C78.0589 42.5393 78.0727 42.4195 78.0819 42.325C78.083 42.2825 78.0869 42.2402 78.0935 42.1982C78.1 42.2402 78.1 42.283 78.0935 42.325C78.0935 42.4218 78.0935 42.5439 78.0773 42.6914C78.0589 43.0233 78.0335 43.4774 78.0036 44.0305C77.939 45.1621 77.8538 46.727 77.7731 48.4555C77.6924 50.1841 77.6464 51.7467 77.6118 52.8806C77.5957 53.4337 77.5818 53.8877 77.5703 54.2219C77.5703 54.3694 77.5588 54.4893 77.5542 54.586C77.5616 54.6287 77.5632 54.6721 77.5588 54.7151Z" fill="#263238"/>
<path d="M80.7854 34.627C80.3872 34.7665 80.0017 34.94 79.6331 35.1455C79.2853 35.3856 78.9591 35.6555 78.6582 35.9522C78.8895 35.5843 79.2015 35.2739 79.5704 35.0443C79.9393 34.8148 80.3556 34.672 80.7878 34.627H80.7854Z" fill="#263238"/>
<path d="M83.2354 34.5927C82.9512 34.6303 82.6648 34.6503 82.3781 34.6527C81.8503 34.6803 81.122 34.7264 80.32 34.8094C79.5179 34.8923 78.7943 34.9961 78.2711 35.0767C77.9901 35.1328 77.7062 35.1728 77.4207 35.1966C77.4939 35.1629 77.5715 35.1396 77.6511 35.1274C77.7963 35.0906 78.0061 35.0445 78.2665 34.9938C78.785 34.89 79.511 34.7748 80.3154 34.6895C81.1197 34.6043 81.8549 34.572 82.3896 34.5674C82.6547 34.5674 82.869 34.5674 83.0188 34.5674C83.0917 34.5683 83.1643 34.5768 83.2354 34.5927Z" fill="#263238"/>
<path d="M85.5817 60.1058C85.5817 60.1381 84.2426 60.4285 82.5855 60.7581C80.9285 61.0876 79.5641 61.325 79.5572 61.2928C79.5502 61.2605 80.8962 60.9678 82.5533 60.6405C84.2104 60.3132 85.5747 60.0713 85.5817 60.1058Z" fill="#455A64"/>
<path d="M74.6366 75.3854C74.6043 75.3854 75.0099 70.8428 75.5446 65.2447C76.0793 59.6466 76.538 55.1178 76.5702 55.1201C76.6025 55.1224 76.1992 59.6604 75.6645 65.2608C75.1298 70.8613 74.6688 75.3854 74.6366 75.3854Z" fill="#455A64"/>
<path d="M75.314 75.4712C75.2795 75.4712 75.6459 70.8756 76.1276 65.2129C76.6093 59.5502 77.031 54.9616 77.0633 54.9639C77.0956 54.9662 76.7314 59.5595 76.2474 65.2221C75.7634 70.8848 75.3463 75.4735 75.314 75.4712Z" fill="#455A64"/>
<path d="M40.1901 88.5598C40.874 88.2871 41.4413 87.7842 41.7939 87.1378C42.1465 86.4915 42.2624 85.7423 42.1214 85.0196C41.9804 84.2969 41.5915 83.6462 41.0218 83.1798C40.4521 82.7133 39.7374 82.4605 39.0011 82.4649C38.2649 82.4693 37.5532 82.7307 36.9892 83.204C36.4251 83.6772 36.0441 84.3326 35.9118 85.0569C35.7795 85.7812 35.9043 86.5289 36.2646 87.171C36.625 87.8131 37.1982 88.3092 37.8854 88.5736C33.0317 89.2973 33.276 94.3123 33.276 94.3123L44.7649 94.2916C44.7649 94.2916 45.0115 89.2143 40.1901 88.5598Z" fill="#ED7600"/>
<path d="M30.4227 27.3998L30.1554 27.7501C28.254 30.3175 30.2176 32.5185 30.6578 32.9564L36.5256 27.0679C36.0834 26.6408 35.5682 26.2966 35.0045 26.0515C33.7254 25.5099 32.49 25.6804 31.3331 26.5585L30.9874 26.819L31.1556 26.4226C31.3587 25.9408 31.3887 25.4036 31.2406 24.9023C31.0924 24.4009 30.7753 23.9663 30.3431 23.6722C29.9108 23.3782 29.3901 23.2428 28.8694 23.2892C28.3486 23.3356 27.86 23.5608 27.4865 23.9266C27.2787 24.1344 27.1147 24.3818 27.0043 24.6542C26.8938 24.9266 26.8391 25.2183 26.8435 25.5122C26.8443 25.8882 26.9386 26.2581 27.1179 26.5887C27.2972 26.9192 27.5558 27.1999 27.8706 27.4057C28.1853 27.6114 28.5463 27.7356 28.921 27.7672C29.2957 27.7987 29.6724 27.7366 30.0171 27.5864L30.4227 27.3998Z" fill="#ED7600"/>
<path d="M55.5072 12.5928C55.278 12.3265 54.9629 12.1487 54.6165 12.0901C54.2701 12.0314 53.9141 12.0956 53.61 12.2716C53.3059 12.4476 53.0729 12.7242 52.9511 13.0538C52.8293 13.3834 52.8265 13.7451 52.9431 14.0765C53.0597 14.4079 53.2885 14.6882 53.5898 14.8689C53.8911 15.0496 54.2461 15.1193 54.5934 15.0661C54.9406 15.0128 55.2584 14.8399 55.4918 14.5773C55.7251 14.3146 55.8594 13.9787 55.8713 13.6276C56.9523 15.7018 59.1786 14.8145 59.1786 14.8145L57.3832 9.62891C57.3832 9.62891 55.0463 10.3134 55.5072 12.5928Z" fill="#455A64"/>
<path d="M52.1714 24.9163L49.3774 20.7599C49.1403 20.4071 48.662 20.3134 48.3092 20.5505L44.1528 23.3445C43.8 23.5817 43.7063 24.06 43.9434 24.4128L46.7374 28.5691C46.9746 28.922 47.4529 29.0157 47.8057 28.7785L51.962 25.9846C52.3149 25.7474 52.4086 25.2691 52.1714 24.9163Z" fill="#ED7600"/>
<path d="M29.3518 11.6407L27.4896 10.5655C27.1215 10.353 26.6507 10.4791 26.4381 10.8473L25.363 12.7095C25.1504 13.0777 25.2765 13.5485 25.6447 13.761L27.5069 14.8362C27.8751 15.0488 28.3459 14.9226 28.5585 14.5544L29.6336 12.6922C29.8462 12.324 29.72 11.8533 29.3518 11.6407Z" fill="#ED7600"/>
<path d="M41.8289 18.2456C41.5431 17.4758 40.9992 16.0608 40.877 16.0008C40.7088 15.9202 39.2015 16.4433 39.2015 16.4433C39.2015 16.4433 39.213 16.766 38.895 15.5906C38.5769 14.4152 37.8809 14.7056 37.8809 14.7056L38.1874 15.5791L37.655 17.2661L37.1941 17.4251L38.1598 20.177L38.9526 19.9004C38.9526 19.9004 40.9715 19.5201 41.3472 19.3888C41.4013 19.3682 41.4531 19.3419 41.5016 19.3104C41.6686 19.1961 41.7918 19.0286 41.8513 18.8352C41.9107 18.6418 41.9028 18.4339 41.8289 18.2456Z" fill="#263238"/>
<path d="M35.7998 17.6464L37.1342 20.5481L37.9201 20.2715L36.8876 17.333L35.7998 17.6464Z" fill="#263238"/>
<path d="M16.7121 16.1551L16.0507 15.2033L16.1498 14.9013L14.336 14.2998L14.1631 14.823C14.1631 14.823 13.5524 16.0237 13.4717 16.2703C13.4601 16.307 13.4531 16.3449 13.4509 16.3833C13.4432 16.5155 13.4808 16.6465 13.5574 16.7546C13.6341 16.8627 13.7453 16.9414 13.8727 16.9779C14.3867 17.1369 15.3385 17.4227 15.4192 17.3812C15.4998 17.3397 15.8617 16.3349 15.8617 16.3349C15.8617 16.3349 15.6888 16.2127 16.4263 16.5169C17.1638 16.8212 17.2906 16.3464 17.2906 16.3464L16.7121 16.1551Z" fill="#455A64"/>
<path d="M16.5968 14.0834L14.5548 13.6133L14.3843 14.1318L16.3225 14.7749L16.5968 14.0834Z" fill="#455A64"/>
<path d="M38.2473 0.95573C38.171 0.891873 38.0845 0.841239 37.9915 0.805925C37.8562 0.76249 37.7103 0.764923 37.5766 0.812845C37.4428 0.860768 37.3286 0.951501 37.2517 1.07097C37.166 1.25948 37.119 1.46322 37.1134 1.67019C37.0811 1.90066 37.0465 2.14496 37.0097 2.41231C36.9728 2.67965 36.9313 2.96313 36.8875 3.26274C36.8611 3.42882 36.7751 3.57959 36.6455 3.68681C36.5779 3.73769 36.5044 3.78025 36.4266 3.81357L36.1961 3.9265L35.2443 4.38744L34.7418 4.64096C34.6615 4.68317 34.592 4.74342 34.5388 4.817C34.4856 4.89057 34.4502 4.97547 34.4353 5.06502C34.4193 5.15716 34.4249 5.25174 34.4517 5.34133C34.4785 5.43092 34.5258 5.51306 34.5897 5.58128C34.656 5.6488 34.7341 5.70349 34.8202 5.74261L35.1014 5.88089L36.2929 6.47551C36.3943 6.52851 36.4911 6.56539 36.5994 6.63223C36.6981 6.70375 36.7774 6.79882 36.8299 6.90879C36.8786 7.0205 36.9074 7.13982 36.9152 7.26141C36.9313 7.37434 36.9474 7.49188 36.9659 7.60481L37.171 9.02221C37.1829 9.13431 37.2265 9.24069 37.2967 9.32888C37.3669 9.41706 37.4608 9.48337 37.5674 9.52003C37.675 9.55837 37.7915 9.5644 37.9024 9.53737C38.0134 9.51034 38.1141 9.45144 38.192 9.36792L39.2591 8.27548L39.5287 8.00122C39.6236 7.89832 39.746 7.82475 39.8813 7.78919C40.0141 7.75942 40.1519 7.75942 40.2847 7.78919L40.6557 7.85372L42.1169 8.10724C42.226 8.12287 42.3374 8.10737 42.4381 8.06252C42.5388 8.01767 42.6248 7.9453 42.6862 7.85372C42.7475 7.76457 42.7834 7.66036 42.7899 7.55233C42.7964 7.44429 42.7733 7.33654 42.723 7.24067L42.0962 6.01456C41.9948 5.81175 41.8864 5.62968 41.7919 5.41765C41.7528 5.30684 41.7417 5.18807 41.7597 5.07194C41.7814 4.96101 41.8227 4.85485 41.8818 4.7585C42.0823 4.38514 42.2736 4.02099 42.4603 3.67068C42.647 3.32036 42.9212 2.97926 42.783 2.64508C42.7543 2.56605 42.7099 2.49365 42.6524 2.43225C42.595 2.37085 42.5257 2.32173 42.4488 2.28785C42.3755 2.25811 42.2974 2.24172 42.2183 2.23945C42.1356 2.24597 42.0533 2.25674 41.9717 2.27172L40.1694 2.56903C40.0334 2.58579 39.8954 2.56172 39.773 2.49988C39.6671 2.44032 39.5726 2.36226 39.4941 2.26941L39.0586 1.80847L38.4524 1.17468L38.3003 1.00874C38.2815 0.990491 38.2645 0.970419 38.2496 0.948816C38.2712 0.963693 38.2913 0.980678 38.3095 0.99952C38.3487 1.041 38.404 1.09401 38.4709 1.15854L39.0862 1.77621L39.5287 2.22332C39.6022 2.31665 39.6929 2.3949 39.7961 2.45379C39.906 2.51058 40.0309 2.53153 40.1533 2.51371L41.951 2.20027C42.0368 2.18235 42.1239 2.17079 42.2114 2.1657C42.3052 2.16534 42.3982 2.18254 42.4857 2.21641C42.5785 2.25277 42.6624 2.30878 42.7315 2.38059C42.8007 2.4524 42.8535 2.53832 42.8863 2.63245C42.9191 2.72659 42.9312 2.82671 42.9218 2.92595C42.9123 3.0252 42.8814 3.12122 42.8314 3.20743L42.5594 3.72599L41.9878 4.81612C41.9305 4.89882 41.8932 4.9937 41.8788 5.09329C41.8644 5.19287 41.8733 5.29444 41.9049 5.38999C41.9901 5.57437 42.1054 5.77487 42.2045 5.97077L42.8314 7.18766C42.8916 7.30208 42.9196 7.43075 42.9123 7.55987C42.905 7.68899 42.8627 7.81368 42.7899 7.92056C42.7163 8.03244 42.6117 8.12054 42.489 8.17413C42.3662 8.22773 42.2306 8.24453 42.0985 8.22248L40.6327 7.97126L40.2616 7.90904C40.146 7.87928 40.0247 7.87928 39.909 7.90904C39.7945 7.93739 39.691 7.99916 39.6117 8.0865L39.342 8.36306L38.275 9.45549C38.1807 9.55437 38.0598 9.62393 37.9269 9.65581C37.7941 9.6877 37.6548 9.68057 37.5259 9.63526C37.4017 9.58694 37.2933 9.50515 37.2128 9.39897C37.1322 9.29279 37.0827 9.16637 37.0696 9.03373C37.0028 8.55205 36.9336 8.07958 36.8668 7.61634C36.8514 7.49803 36.8353 7.38279 36.8184 7.27063C36.8124 7.16114 36.7874 7.05353 36.7446 6.95258C36.699 6.85961 36.6299 6.78016 36.5441 6.72211C36.4612 6.6668 36.3459 6.6207 36.2514 6.57L35.0806 5.98691L34.7995 5.84632C34.6984 5.80312 34.6067 5.74048 34.5298 5.66194C34.4546 5.58252 34.3992 5.48636 34.3684 5.38139C34.3375 5.27642 34.332 5.16562 34.3523 5.05811C34.3706 4.9545 34.4123 4.85642 34.4742 4.77135C34.5361 4.68628 34.6166 4.61646 34.7096 4.56721L35.2166 4.316L36.1708 3.85505C36.3195 3.78957 36.4628 3.71251 36.5994 3.62458C36.7192 3.53339 36.8012 3.40131 36.8299 3.25352C36.8737 2.95391 36.9175 2.67043 36.959 2.40309C37.0005 2.13574 37.0373 1.89144 37.0719 1.66328C37.0833 1.45013 37.1357 1.24118 37.2263 1.04792C37.3233 0.902398 37.4728 0.799999 37.6435 0.762135C37.7667 0.733251 37.8958 0.741266 38.0145 0.785182C38.0866 0.81184 38.153 0.851701 38.2104 0.902722C38.2238 0.919597 38.2361 0.937302 38.2473 0.95573Z" fill="#263238"/>
<path d="M17.4795 22.4469L18.1294 23.1153C18.165 23.1513 18.2086 23.1783 18.2568 23.194C18.3049 23.2096 18.3561 23.2134 18.406 23.2052L19.3279 23.0484C19.3864 23.0374 19.4468 23.0434 19.5019 23.0657C19.5571 23.0879 19.6047 23.1256 19.6392 23.1741C19.6736 23.2226 19.6934 23.28 19.6963 23.3394C19.6991 23.3988 19.6848 23.4578 19.6552 23.5094L19.2196 24.3345C19.1963 24.3793 19.1842 24.4291 19.1842 24.4797C19.1842 24.5302 19.1963 24.58 19.2196 24.6249L19.6529 25.4499C19.6817 25.5018 19.6953 25.5608 19.692 25.6201C19.6886 25.6794 19.6685 25.7365 19.634 25.7848C19.5995 25.833 19.5519 25.8705 19.4969 25.8929C19.4419 25.9152 19.3817 25.9214 19.3233 25.9109L18.4014 25.7519C18.3515 25.7432 18.3002 25.7468 18.252 25.7625C18.2038 25.7782 18.1601 25.8054 18.1248 25.8417L17.4795 26.4917C17.4385 26.5329 17.3868 26.562 17.3303 26.5755C17.2737 26.5891 17.2145 26.5866 17.1592 26.5685C17.104 26.5503 17.0549 26.5171 17.0174 26.4726C16.98 26.4281 16.9556 26.3741 16.9471 26.3165L16.8135 25.3946C16.8056 25.3454 16.786 25.2987 16.7563 25.2586C16.7266 25.2185 16.6877 25.1861 16.6429 25.1642L15.8086 24.7516C15.7567 24.7255 15.7131 24.6855 15.6826 24.6361C15.6521 24.5866 15.636 24.5297 15.636 24.4716C15.636 24.4135 15.6521 24.3566 15.6826 24.3071C15.7131 24.2577 15.7567 24.2177 15.8086 24.1916L16.6452 23.779C16.6904 23.7576 16.7296 23.7254 16.7593 23.6852C16.7891 23.645 16.8085 23.598 16.8158 23.5486L16.9517 22.6267C16.9594 22.5692 16.9829 22.515 17.0196 22.4702C17.0564 22.4254 17.105 22.3918 17.1599 22.3731C17.2147 22.3544 17.2737 22.3514 17.3302 22.3644C17.3867 22.3775 17.4384 22.406 17.4795 22.4469Z" fill="#263238"/>
<path d="M43.9075 31.8964L44.0504 32.8183C44.0586 32.8681 44.0788 32.9152 44.1093 32.9554C44.1399 32.9955 44.1798 33.0276 44.2256 33.0488L45.0645 33.4521C45.1165 33.4778 45.1602 33.5176 45.1908 33.5669C45.2214 33.6161 45.2377 33.673 45.2377 33.731C45.2377 33.789 45.2214 33.8458 45.1908 33.8951C45.1602 33.9444 45.1165 33.9841 45.0645 34.0099L44.2325 34.4339C44.1883 34.4561 44.1501 34.4887 44.1212 34.5288C44.0923 34.5689 44.0736 34.6154 44.0666 34.6644L43.9421 35.5863C43.934 35.6437 43.9101 35.6978 43.8731 35.7425C43.8361 35.7872 43.7874 35.8207 43.7324 35.8393C43.6774 35.858 43.6184 35.861 43.5618 35.8481C43.5053 35.8351 43.4534 35.8067 43.412 35.766L42.7529 35.1046C42.717 35.0692 42.6732 35.043 42.625 35.0281C42.5769 35.0133 42.5259 35.0103 42.4763 35.0193L41.5544 35.1876C41.4957 35.1992 41.4348 35.1938 41.379 35.1719C41.3233 35.15 41.2749 35.1126 41.2398 35.0641C41.2046 35.0156 41.1841 34.958 41.1806 34.8982C41.1772 34.8384 41.1909 34.7789 41.2202 34.7266L41.6443 33.8969C41.6681 33.8522 41.6806 33.8024 41.6806 33.7517C41.6806 33.7011 41.6681 33.6512 41.6443 33.6065L41.2179 32.8068C41.1887 32.7556 41.1746 32.6971 41.1773 32.6382C41.18 32.5793 41.1994 32.5224 41.2332 32.4741C41.2671 32.4258 41.3139 32.3881 41.3683 32.3654C41.4227 32.3427 41.4825 32.3359 41.5406 32.3459L42.4625 32.4934C42.5122 32.5012 42.5631 32.4969 42.6109 32.4808C42.6586 32.4648 42.7018 32.4374 42.7367 32.4012L43.3798 31.7259C43.4206 31.686 43.4716 31.658 43.5271 31.645C43.5827 31.632 43.6408 31.6344 43.6951 31.6519C43.7494 31.6695 43.7979 31.7015 43.8354 31.7446C43.8728 31.7877 43.8977 31.8402 43.9075 31.8964Z" fill="#455A64"/>
</svg>