<svg width="162" height="165" viewBox="0 0 162 165" fill="none" xmlns="http://www.w3.org/2000/svg">
<path d="M79.1387 164.004C122.846 164.004 158.277 143.547 158.277 118.313C158.277 93.0786 122.846 72.6221 79.1387 72.6221C35.4316 72.6221 0 93.0786 0 118.313C0 143.547 35.4316 164.004 79.1387 164.004Z" fill="#E3E3E3"/>
<path d="M121.397 153.212C130.134 153.212 137.216 148.771 137.216 143.293C137.216 137.815 130.134 133.374 121.397 133.374C112.66 133.374 105.577 137.815 105.577 143.293C105.577 148.771 112.66 153.212 121.397 153.212Z" fill="#E0E0E0"/>
<path d="M150.126 107.72L146.845 105.879C146.845 105.879 146.535 99.886 147.007 95.1051C147.666 88.3868 152.005 80.2984 157.183 82.2137C162.362 84.129 154.808 90.954 153.132 96.6557C151.456 102.357 150.126 107.72 150.126 107.72Z" fill="#37474F"/>
<path d="M148.598 107.017C148.621 107.017 148.644 107.012 148.665 107.002C148.686 106.993 148.705 106.98 148.72 106.963C148.736 106.946 148.748 106.926 148.757 106.904C148.765 106.883 148.768 106.86 148.767 106.837C148.259 91.9085 155.692 84.3947 155.765 84.321C155.798 84.2888 155.817 84.2449 155.817 84.1989C155.817 84.153 155.799 84.1088 155.767 84.0761C155.735 84.0433 155.691 84.0248 155.645 84.0244C155.599 84.0241 155.555 84.042 155.522 84.0742C155.445 84.1479 147.905 91.7686 148.417 106.852C148.418 106.874 148.424 106.897 148.433 106.917C148.443 106.938 148.456 106.956 148.473 106.972C148.49 106.987 148.51 106.999 148.531 107.007C148.552 107.015 148.575 107.018 148.598 107.017Z" fill="white"/>
<path d="M151.927 108.758L149.876 107.572C149.876 107.572 149.526 103.337 151.603 98.1874C153.412 93.7049 157.902 89.9885 160.156 90.7693C162.41 91.5502 162.366 93.1524 161.261 94.8209C160.156 96.4894 153.463 100.512 151.927 108.758Z" fill="#455A64"/>
<path d="M150.863 108.306C150.886 108.307 150.909 108.303 150.93 108.294C150.952 108.286 150.971 108.273 150.988 108.257C151.004 108.241 151.017 108.221 151.026 108.2C151.035 108.179 151.04 108.156 151.04 108.133C150.999 98.6929 159.861 92.2951 159.953 92.2472C159.99 92.2199 160.015 92.1793 160.023 92.1339C160.03 92.0885 160.02 92.0419 159.994 92.0041C159.981 91.9853 159.964 91.9694 159.944 91.9572C159.925 91.945 159.903 91.9368 159.881 91.933C159.858 91.9293 159.835 91.93 159.813 91.9353C159.79 91.9405 159.769 91.9501 159.751 91.9636C159.659 92.0262 150.649 98.5124 150.69 108.133C150.69 108.156 150.694 108.178 150.703 108.199C150.712 108.22 150.725 108.239 150.741 108.256C150.757 108.272 150.776 108.284 150.797 108.293C150.818 108.302 150.84 108.306 150.863 108.306Z" fill="white"/>
<path d="M91.172 80.233L89.0393 79.0139C88.9451 78.9432 88.8706 78.8495 88.8228 78.7418C88.7751 78.6342 88.7558 78.516 88.7668 78.3988V64.1887C88.7879 63.8076 88.9155 63.4401 89.1351 63.1279L91.2567 64.3508C91.0443 64.6623 90.9243 65.0274 90.9104 65.4042V79.6253C90.897 79.7406 90.9141 79.8574 90.96 79.9641C91.0059 80.0708 91.079 80.1635 91.172 80.233Z" fill="#ED7600"/>
<path opacity="0.55" d="M91.172 80.233L89.0393 79.0139C88.9451 78.9432 88.8706 78.8495 88.8228 78.7418C88.7751 78.6342 88.7558 78.516 88.7668 78.3988V64.1887C88.7879 63.8076 88.9155 63.4401 89.1351 63.1279L91.2567 64.3508C91.0443 64.6623 90.9243 65.0274 90.9104 65.4042V79.6253C90.897 79.7406 90.9141 79.8574 90.96 79.9641C91.0059 80.0708 91.079 80.1635 91.172 80.233Z" fill="white"/>
<path d="M91.8497 63.7316L121.603 46.5565C122.137 46.2471 122.568 46.4976 122.568 47.1127V61.3522C122.55 61.6867 122.454 62.0124 122.286 62.3024C122.118 62.5924 121.884 62.8385 121.603 63.0207L91.8497 80.17C91.3193 80.4757 90.8846 80.2253 90.8846 79.6101V65.4038C90.9035 65.069 91.0006 64.7433 91.1682 64.4529C91.3358 64.1625 91.5692 63.9154 91.8497 63.7316Z" fill="#ED7600"/>
<path opacity="0.7" d="M91.8497 63.7316L121.603 46.5565C122.137 46.2471 122.568 46.4976 122.568 47.1127V61.3522C122.55 61.6867 122.454 62.0124 122.286 62.3024C122.118 62.5924 121.884 62.8385 121.603 63.0207L91.8497 80.17C91.3193 80.4757 90.8846 80.2253 90.8846 79.6101V65.4038C90.9035 65.069 91.0006 64.7433 91.1682 64.4529C91.3358 64.1625 91.5692 63.9154 91.8497 63.7316Z" fill="white"/>
<path d="M120.152 45.2706L122.251 46.4677C122.144 46.428 122.03 46.4149 121.917 46.4297C121.804 46.4445 121.696 46.4866 121.603 46.5524L91.8496 63.7312C91.5982 63.8867 91.3864 64.0985 91.2308 64.35L89.1093 63.1271C89.2606 62.8781 89.4689 62.6686 89.717 62.5157L119.47 45.3369C119.6 45.2569 119.749 45.2124 119.901 45.208C119.989 45.2073 120.075 45.2289 120.152 45.2706Z" fill="#ED7600"/>
<path opacity="0.85" d="M120.152 45.2706L122.251 46.4677C122.144 46.428 122.03 46.4149 121.917 46.4297C121.804 46.4445 121.696 46.4866 121.603 46.5524L91.8496 63.7312C91.5982 63.8867 91.3864 64.0985 91.2308 64.35L89.1093 63.1271C89.2606 62.8781 89.4689 62.6686 89.717 62.5157L119.47 45.3369C119.6 45.2569 119.749 45.2124 119.901 45.208C119.989 45.2073 120.075 45.2289 120.152 45.2706Z" fill="white"/>
<path d="M94.1775 65.0465L119.275 50.5271C119.533 50.3797 119.739 50.4829 119.739 50.7591C119.728 50.9149 119.68 51.0659 119.6 51.1997C119.519 51.3335 119.408 51.4463 119.275 51.5289L94.1775 66.041C93.9233 66.1883 93.7134 66.0852 93.7134 65.8089C93.726 65.6545 93.7745 65.5051 93.8551 65.3727C93.9357 65.2404 94.0461 65.1286 94.1775 65.0465Z" fill="#ED7600"/>
<path d="M94.1775 75.2051L119.275 60.693C119.533 60.5457 119.739 60.6488 119.739 60.9287C119.728 61.084 119.68 61.2345 119.6 61.3677C119.519 61.5009 119.408 61.613 119.275 61.6948L94.1775 76.1922C93.9233 76.3395 93.7134 76.2327 93.7134 75.9564C93.7282 75.8041 93.7777 75.6571 93.8582 75.5268C93.9386 75.3966 94.0478 75.2865 94.1775 75.2051Z" fill="#ED7600"/>
<path d="M94.1775 70.1182L119.275 55.6024C119.533 55.4551 119.739 55.5619 119.739 55.8381C119.728 55.9938 119.679 56.1445 119.599 56.2782C119.518 56.4119 119.407 56.5249 119.275 56.6079L94.1775 71.12C93.9233 71.2674 93.7134 71.1605 93.7134 70.8843C93.7254 70.7292 93.7737 70.5791 93.8543 70.446C93.9349 70.313 94.0456 70.2007 94.1775 70.1182Z" fill="#ED7600"/>
<path d="M94.1775 72.6524L119.275 58.1404C119.533 57.993 119.739 58.0962 119.739 58.3724C119.728 58.5282 119.68 58.6792 119.6 58.813C119.519 58.9467 119.408 59.0596 119.275 59.1422L94.1775 73.6543C93.9233 73.8016 93.7134 73.6985 93.7134 73.4222C93.7249 73.2665 93.7729 73.1156 93.8535 72.9819C93.9341 72.8482 94.0451 72.7353 94.1775 72.6524Z" fill="#ED7600"/>
<path d="M94.1775 67.581L119.275 53.069C119.533 52.9216 119.739 53.0248 119.739 53.3047C119.728 53.46 119.68 53.6105 119.6 53.7437C119.519 53.8768 119.408 53.989 119.275 54.0708L94.1775 68.5755C93.9233 68.7228 93.7134 68.616 93.7134 68.3398C93.7271 68.1861 93.7761 68.0377 93.8566 67.9061C93.9371 67.7745 94.0469 67.6632 94.1775 67.581Z" fill="#ED7600"/>
<path d="M91.0099 58.5454L88.9841 57.3925C88.8896 57.3221 88.8149 57.2285 88.7671 57.1207C88.7194 57.013 88.7002 56.8947 88.7115 56.7774V18.9797C88.7313 18.5984 88.859 18.2305 89.0799 17.9189L91.0541 19.0608C90.8532 19.3657 90.7399 19.7198 90.7263 20.0847V57.9229C90.7125 58.0426 90.7316 58.1639 90.7816 58.2735C90.8316 58.3832 90.9105 58.4772 91.0099 58.5454Z" fill="#263238"/>
<path d="M121.949 1.10868C121.771 1.09276 121.592 1.13682 121.441 1.23391L91.6875 18.4127C91.4271 18.5756 91.2087 18.7977 91.0503 19.0609L89.0724 17.9191C89.2262 17.672 89.434 17.463 89.6801 17.3077L119.434 0.132614C119.563 0.0504656 119.712 0.00465773 119.864 1.66863e-05C119.952 -0.000686736 120.038 0.0208604 120.115 0.0626322L121.949 1.10868Z" fill="#37474F"/>
<path d="M91.6875 18.4122L121.441 1.23718C121.975 0.927782 122.406 1.17824 122.406 1.79335V39.6647C122.388 39.9992 122.292 40.3249 122.124 40.6149C121.956 40.9049 121.722 41.151 121.441 41.3332L91.6912 58.4825C91.1572 58.7882 90.7225 58.5378 90.7225 57.9226V20.0845C90.7414 19.7497 90.8385 19.424 91.0061 19.1336C91.1737 18.8431 91.4071 18.5961 91.6875 18.4122Z" fill="#455A64"/>
<path d="M93.3377 19.6467L120.041 4.22852C120.52 3.95228 120.907 4.17696 120.907 4.72945V38.7407C120.891 39.0411 120.804 39.3334 120.654 39.5939C120.503 39.8543 120.293 40.0757 120.041 40.2398L93.3377 55.6285C92.8589 55.9048 92.4722 55.6801 92.4722 55.1276V21.1458C92.4883 20.8454 92.5751 20.5531 92.7255 20.2926C92.876 20.0321 93.0857 19.8108 93.3377 19.6467Z" fill="#F0F0F0"/>
<mask id="mask0_7215_7837" style="mask-type:luminance" maskUnits="userSpaceOnUse" x="92" y="4" width="29" height="52">
<path d="M93.3377 19.6467L120.041 4.22852C120.52 3.95228 120.907 4.17696 120.907 4.72945V38.7407C120.891 39.0411 120.804 39.3334 120.654 39.5939C120.503 39.8543 120.293 40.0757 120.041 40.2398L93.3377 55.6285C92.8589 55.9048 92.4722 55.6801 92.4722 55.1276V21.1458C92.4883 20.8454 92.5751 20.5531 92.7255 20.2926C92.876 20.0321 93.0857 19.8108 93.3377 19.6467Z" fill="white"/>
</mask>
<g mask="url(#mask0_7215_7837)">
<path d="M115.537 33.5831C115.068 32.7637 114.323 32.1378 113.435 31.8173C112.547 31.4968 111.574 31.5026 110.69 31.8336C110.69 31.8336 110.535 34.6807 111.994 38.7691C111.994 38.7691 118.347 48.0289 119.614 48.8908L121.371 43.0638C121.371 43.0638 116.734 35.4579 115.537 33.5831Z" fill="#B16668"/>
<path d="M99.9677 35.562C98.4686 36.1329 98.6933 37.772 98.7411 39.2269C98.7669 40.1219 98.9143 41.6394 99.01 43.7204L99.4373 50.4203L99.3415 64.9545C104.214 66.6156 110.413 65.1534 115.614 59.3743C115.614 59.3743 115.323 40.7738 115.323 37.7204C115.323 37.5804 115.323 37.4442 115.323 37.3042C115.139 33.1274 113.065 31.341 110.697 31.8419C109.938 32.004 108.296 32.527 107.209 32.8659L104.226 33.8309C104.226 33.8309 101.463 34.9911 99.9677 35.562Z" fill="#ED7600"/>
<path opacity="0.2" d="M99.9677 35.562C98.4686 36.1329 98.6933 37.772 98.7411 39.2269C98.7669 40.1219 98.9143 41.6394 99.01 43.7204L99.4373 50.4203L99.3415 64.9545C104.214 66.6156 110.413 65.1534 115.614 59.3743C115.614 59.3743 115.323 40.7738 115.323 37.7204C115.323 37.5804 115.323 37.4442 115.323 37.3042C115.139 33.1274 113.065 31.341 110.697 31.8419C109.938 32.004 108.296 32.527 107.209 32.8659L104.226 33.8309C104.226 33.8309 101.463 34.9911 99.9677 35.562Z" fill="black"/>
<path d="M111.253 21.0897C111.253 19.7453 111.463 17.981 112.83 17.3365C113.522 17.0087 114.509 16.8724 115.168 17.2996C115.828 17.7269 116.248 18.331 116.13 19.1707C116.015 19.7977 115.701 20.3711 115.235 20.8061C115.154 20.8681 115.094 20.9528 115.062 21.0492C115.049 21.1269 115.056 21.2064 115.08 21.2812C115.257 22.11 115.246 23.0603 114.682 23.6938C114.488 23.9093 114.243 24.0725 113.97 24.1684C113.696 24.2643 113.403 24.2898 113.117 24.2426C112.796 24.1666 112.496 24.0183 112.24 23.8089C111.985 23.5996 111.781 23.3347 111.644 23.0345C111.363 22.4258 111.229 21.7596 111.253 21.0897Z" fill="#263238"/>
<path d="M102.244 25.8115C102.244 25.8115 103.003 29.7195 103.305 30.3125C103.396 30.4851 103.529 30.632 103.692 30.7395C103.855 30.847 104.042 30.9117 104.237 30.9276L104.185 28.0546L102.244 25.8115Z" fill="#263238"/>
<path d="M103.176 19.6719C103.176 19.6719 102.472 19.845 102.439 19.8634C102.115 19.9844 101.823 20.18 101.588 20.4343C101.406 20.6283 101.273 20.8637 101.201 21.1203C101.129 21.3768 101.12 21.647 101.176 21.9076C101.294 22.2873 101.508 22.6299 101.798 22.9021C101.575 23.1296 101.401 23.4004 101.286 23.6977C101.174 23.9981 101.174 24.3291 101.286 24.6296C101.365 24.8044 101.466 24.9679 101.588 25.1157C101.857 25.4583 102.174 25.7935 102.638 25.7419C102.977 25.7051 103.319 25.6498 103.658 25.6056L103.176 19.6719Z" fill="#263238"/>
<path d="M104.086 25.5055C103.802 25.7817 103.393 25.255 103.04 24.9235C102.686 24.5921 101.537 24.3195 100.962 25.8701C100.388 27.4208 101.47 29.0378 102.377 29.1262C103.938 29.2735 104.174 28.0543 104.174 28.0543L104.226 34.4706C105.931 38.0397 112.959 36.6805 109.382 32.9752V31.0046C110.098 30.9422 110.805 30.7938 111.485 30.5626C112.634 30.0507 113.36 28.8094 113.695 27.2808C114.255 24.8241 114.207 23.3692 114.019 18.9382C113.89 15.8959 108.465 14.9566 105.761 17.6454C103.058 20.3342 104.086 25.5055 104.086 25.5055Z" fill="#B16668"/>
<path d="M103.032 24.9241C102.848 24.7805 102.866 24.3606 102.855 24.158C102.836 23.6668 102.845 23.1749 102.881 22.6847C102.929 21.9112 103.143 21.1009 102.966 20.3422C102.878 20.0664 102.852 19.7747 102.888 19.4876C102.909 19.3439 102.976 19.2107 103.078 19.1073C103.18 19.0039 103.312 18.9359 103.456 18.9131C103.286 18.4699 103.239 17.9892 103.32 17.5217C103.401 17.0542 103.607 16.6171 103.915 16.2566C104.224 15.8961 104.624 15.6255 105.073 15.4733C105.522 15.3211 106.005 15.293 106.469 15.3919C106.593 14.9674 106.83 14.5845 107.154 14.2837C107.478 13.9828 107.878 13.7752 108.31 13.6828C108.805 13.5783 109.319 13.596 109.806 13.7344C110.054 13.8015 110.284 13.9224 110.48 14.0885C110.676 14.2547 110.833 14.462 110.94 14.6957C111.246 14.0401 112.303 13.4508 113.268 13.5613C114.078 13.657 114.911 14.158 115.187 14.8136C115.375 15.2393 115.473 15.6998 115.473 16.1653C115.473 16.6309 115.375 17.0913 115.187 17.5171C115.036 17.8131 114.823 18.0729 114.562 18.2789C114.302 18.4849 114 18.6321 113.677 18.7105C113.019 18.8697 112.325 18.7611 111.747 18.4084C111.745 18.7567 111.632 19.0953 111.423 19.3739C111.214 19.6526 110.92 19.8565 110.586 19.9554C110.122 20.1053 109.627 20.1295 109.15 20.0254C108.702 19.8542 108.295 19.5921 107.953 19.2556C107.923 19.5703 107.807 19.8707 107.618 20.1241C107.429 20.3774 107.174 20.5739 106.881 20.6921C106.587 20.8025 106.272 20.8476 105.958 20.824C105.645 20.8005 105.34 20.709 105.065 20.5558C105.202 20.994 105.279 21.4487 105.294 21.9075C105.314 22.146 105.277 22.3859 105.187 22.6074C105.138 22.7152 105.059 22.807 104.96 22.8722C104.861 22.9373 104.745 22.9732 104.627 22.9757C104.893 23.6467 104.987 24.3732 104.903 25.0899C104.895 25.3765 104.782 25.6503 104.586 25.8597C103.949 26.449 103.426 25.2335 103.032 24.9241Z" fill="#263238"/>
<path d="M103.18 20.0365L101.448 19.4288C101.695 18.7916 102.281 18.4122 102.76 18.5779C103.238 18.7437 103.423 19.3993 103.18 20.0365Z" fill="#263238"/>
<path d="M109.364 31.005C109.364 31.005 106.785 31.0934 105.901 30.7841C105.364 30.5965 104.919 30.2086 104.66 29.7012C104.786 30.2377 105.028 30.7404 105.367 31.1745C106.023 31.9664 109.364 31.7859 109.364 31.7859V31.005Z" fill="#9A4A4D"/>
<path d="M108.701 24.0404C108.7 24.2011 108.65 24.3578 108.558 24.4894C108.466 24.6211 108.336 24.7214 108.185 24.777C107.901 24.8544 107.669 24.6371 107.669 24.2982C107.67 24.1376 107.72 23.9811 107.812 23.8496C107.905 23.718 108.034 23.6176 108.185 23.5615C108.469 23.4842 108.701 23.7015 108.701 24.0404Z" fill="#263238"/>
<path d="M108.31 22.353L107.058 23.1485C107.004 22.9592 107.01 22.7575 107.076 22.5719C107.142 22.3862 107.264 22.2259 107.426 22.1135C107.497 22.0615 107.579 22.0261 107.665 22.0099C107.752 21.9938 107.841 21.9974 107.926 22.0204C108.011 22.0434 108.09 22.0852 108.156 22.1428C108.223 22.2004 108.275 22.2722 108.31 22.353Z" fill="#263238"/>
<path d="M109.132 27.5137L110.303 27.7052C110.27 27.8918 110.172 28.0608 110.026 28.1821C109.881 28.3034 109.697 28.3694 109.507 28.3682C109.183 28.3166 109.014 27.9336 109.132 27.5137Z" fill="#9A4A4D"/>
<path d="M113.356 22.1071L112.354 21.4847C112.557 21.0979 112.947 20.9248 113.224 21.0943C113.365 21.2181 113.457 21.3893 113.481 21.5757C113.505 21.7621 113.461 21.951 113.356 22.1071Z" fill="#263238"/>
<path d="M113.095 23.0054C113.094 23.1657 113.045 23.322 112.954 23.4537C112.862 23.5853 112.733 23.6859 112.583 23.742C112.299 23.8194 112.067 23.6021 112.067 23.2632C112.069 23.1028 112.119 22.9465 112.211 22.8151C112.303 22.6836 112.433 22.583 112.583 22.5266C112.866 22.4492 113.095 22.6628 113.095 23.0054Z" fill="#263238"/>
<path d="M110.303 23.1484L110.362 26.7286L112.203 25.7672L110.303 23.1484Z" fill="#9A4A4D"/>
<path d="M99.0358 66.2174C99.1196 67.1843 99.399 68.1241 99.8571 68.9798C100.365 69.7759 100.985 70.4943 101.699 71.1124C101.775 71.1708 101.831 71.2522 101.857 71.3445C101.883 71.536 101.666 71.6686 101.489 71.7128C101.086 71.7727 100.675 71.692 100.325 71.4844C100.062 71.331 99.8209 71.144 99.6067 70.9282C99.533 70.8619 99.0763 70.5378 99.0763 70.4642C99.2209 71.2399 99.4922 71.9865 99.8792 72.6741C100.26 73.2659 100.603 73.881 100.907 74.5157C101.08 74.932 101.161 75.4697 100.841 75.7865C100.705 75.9011 100.545 75.983 100.373 76.0259C99.7895 76.1903 99.173 76.1971 98.5861 76.0457C97.9993 75.8943 97.4631 75.5901 97.0321 75.164C96.6543 74.7532 96.339 74.2891 96.0965 73.7865C95.9491 73.51 95.8163 73.226 95.6987 72.9356C95.5026 72.4292 95.351 71.9067 95.2457 71.3739C94.9621 70.0958 94.8553 68.7956 94.66 67.5139C94.0802 63.4316 93.8485 59.3075 93.9676 55.186C94.6306 41.5358 95.5624 36.9206 99.975 35.5615C101.224 36.4897 101.783 40.464 100.469 44.0073C99.816 47.9652 99.3881 51.9568 99.1868 55.9631C99.1058 57.8563 98.8 61.6722 98.8884 63.5654C98.929 64.4125 98.929 65.2597 99.0358 66.2174Z" fill="#B16668"/>
</g>
<path d="M10.4826 126.789L8.35001 125.57C8.25577 125.499 8.18123 125.405 8.13352 125.298C8.0858 125.19 8.06649 125.072 8.07745 124.955V110.748C8.0986 110.367 8.22621 110 8.44578 109.688L10.5305 110.91C10.3181 111.222 10.1981 111.587 10.1843 111.964V126.166C10.1721 126.288 10.1934 126.41 10.246 126.52C10.2987 126.629 10.3805 126.723 10.4826 126.789Z" fill="#ED7600"/>
<path opacity="0.55" d="M10.4826 126.789L8.35001 125.57C8.25577 125.499 8.18123 125.405 8.13352 125.298C8.0858 125.19 8.06649 125.072 8.07745 124.955V110.748C8.0986 110.367 8.22621 110 8.44578 109.688L10.5305 110.91C10.3181 111.222 10.1981 111.587 10.1843 111.964V126.166C10.1721 126.288 10.1934 126.41 10.246 126.52C10.2987 126.629 10.3805 126.723 10.4826 126.789Z" fill="white"/>
<path d="M11.1603 110.292L40.9138 93.1132C41.4441 92.8038 41.8788 93.0542 41.8788 93.6693V107.909C41.8598 108.244 41.7622 108.57 41.5939 108.861C41.4257 109.151 41.1914 109.398 40.9101 109.581L11.1603 126.727C10.6263 127.032 10.1953 126.782 10.1953 126.167V111.96C10.213 111.626 10.3097 111.3 10.4774 111.01C10.6451 110.72 10.8792 110.474 11.1603 110.292Z" fill="#ED7600"/>
<path opacity="0.7" d="M11.1603 110.292L40.9138 93.1132C41.4441 92.8038 41.8788 93.0542 41.8788 93.6693V107.909C41.8598 108.244 41.7622 108.57 41.5939 108.861C41.4257 109.151 41.1914 109.398 40.9101 109.581L11.1603 126.727C10.6263 127.032 10.1953 126.782 10.1953 126.167V111.96C10.213 111.626 10.3097 111.3 10.4774 111.01C10.6451 110.72 10.8792 110.474 11.1603 110.292Z" fill="white"/>
<path d="M39.4626 91.8311L41.562 93.0281C41.4552 92.9884 41.3404 92.9754 41.2274 92.9901C41.1144 93.0049 41.0068 93.047 40.9138 93.1128L11.1603 110.292C10.9049 110.446 10.6892 110.658 10.5305 110.91L8.40894 109.688C8.56524 109.443 8.77728 109.238 9.02772 109.091L38.7811 91.9121C38.911 91.8321 39.0596 91.7876 39.2121 91.7832C39.2983 91.7779 39.3844 91.7944 39.4626 91.8311Z" fill="#ED7600"/>
<path opacity="0.85" d="M39.4626 91.8311L41.562 93.0281C41.4552 92.9884 41.3404 92.9754 41.2274 92.9901C41.1144 93.0049 41.0068 93.047 40.9138 93.1128L11.1603 110.292C10.9049 110.446 10.6892 110.658 10.5305 110.91L8.40894 109.688C8.56524 109.443 8.77728 109.238 9.02772 109.091L38.7811 91.9121C38.911 91.8321 39.0596 91.7876 39.2121 91.7832C39.2983 91.7779 39.3844 91.7944 39.4626 91.8311Z" fill="white"/>
<path d="M13.477 111.603L38.5748 97.0904C38.829 96.9431 39.0389 97.0462 39.0389 97.3262C39.0269 97.4813 38.9786 97.6314 38.898 97.7644C38.8174 97.8975 38.7067 98.0098 38.5748 98.0923L13.477 112.604C13.2192 112.752 13.0129 112.649 13.0129 112.372C13.0241 112.216 13.072 112.066 13.1527 111.932C13.2333 111.798 13.3445 111.685 13.477 111.603Z" fill="#ED7600"/>
<path d="M13.477 121.746L38.5859 107.249C38.84 107.102 39.0499 107.208 39.0499 107.485C39.0379 107.64 38.9896 107.79 38.909 107.923C38.8284 108.056 38.7177 108.168 38.5859 108.251L13.477 122.748C13.2192 122.895 13.0129 122.789 13.0129 122.512C13.0241 122.357 13.072 122.207 13.1527 122.073C13.2334 121.94 13.3445 121.828 13.477 121.746Z" fill="#ED7600"/>
<path d="M13.477 116.675L38.5748 102.163C38.829 102.015 39.0389 102.119 39.0389 102.395C39.0268 102.55 38.9786 102.701 38.898 102.835C38.8175 102.968 38.7068 103.081 38.5748 103.165L13.477 117.677C13.2192 117.824 13.0129 117.721 13.0129 117.445C13.0235 117.289 13.0712 117.138 13.1519 117.004C13.2326 116.87 13.3441 116.757 13.477 116.675Z" fill="#ED7600"/>
<path d="M13.477 119.209L38.5748 104.697C38.829 104.55 39.0389 104.653 39.0389 104.929C39.0274 105.085 38.9794 105.236 38.8988 105.369C38.8182 105.503 38.7072 105.616 38.5748 105.699L13.477 120.211C13.2192 120.358 13.0129 120.255 13.0129 119.979C13.0241 119.823 13.072 119.672 13.1527 119.538C13.2333 119.405 13.3445 119.292 13.477 119.209Z" fill="#ED7600"/>
<path d="M13.477 114.141L38.5748 99.6249C38.829 99.4775 39.0389 99.5844 39.0389 99.8606C39.0269 100.016 38.9786 100.166 38.898 100.299C38.8174 100.432 38.7067 100.544 38.5748 100.627L13.477 115.142C13.2192 115.29 13.0129 115.183 13.0129 114.907C13.0241 114.751 13.072 114.601 13.1527 114.468C13.2334 114.335 13.3445 114.222 13.477 114.141Z" fill="#ED7600"/>
<path d="M10.3574 105.039L8.32053 103.901C8.22602 103.831 8.15129 103.737 8.10354 103.63C8.05579 103.522 8.03665 103.404 8.04796 103.286V65.4885C8.06773 65.1072 8.19547 64.7393 8.41629 64.4277L10.3905 65.5695C10.1897 65.8745 10.0763 66.2286 10.0627 66.5935V104.432C10.0529 104.55 10.075 104.669 10.1269 104.776C10.1787 104.883 10.2583 104.974 10.3574 105.039Z" fill="#263238"/>
<path d="M41.2968 47.6175C41.1181 47.6015 40.9393 47.6456 40.7885 47.7427L11.035 64.9215C10.7746 65.0844 10.5563 65.3065 10.3978 65.5697L8.41992 64.4279C8.57371 64.1808 8.78149 63.9718 9.02766 63.8165L38.7811 46.6414C38.9102 46.5593 39.0591 46.5134 39.212 46.5088C39.2995 46.5081 39.3857 46.5296 39.4625 46.5714L41.2968 47.6175Z" fill="#37474F"/>
<path d="M11.0351 64.9171L40.7885 47.7421C41.3189 47.4327 41.7535 47.6831 41.7535 48.2982V86.1696C41.7347 86.5044 41.6375 86.83 41.4699 87.1205C41.3023 87.4109 41.0689 87.6579 40.7885 87.8418L11.0351 104.987C10.501 105.293 10.0701 105.046 10.0701 104.431V66.5893C10.0884 66.2544 10.1852 65.9285 10.3529 65.638C10.5205 65.3475 10.7543 65.1005 11.0351 64.9171Z" fill="#455A64"/>
<path d="M12.56 66.093L39.26 50.6748C39.7388 50.3986 40.1256 50.6232 40.1256 51.1757V85.1502C40.11 85.4507 40.0234 85.7432 39.873 86.0038C39.7225 86.2644 39.5125 86.4856 39.26 86.6493L12.56 102.056C12.0812 102.333 11.6945 102.108 11.6945 101.555V67.5921C11.7106 67.2917 11.7974 66.9994 11.9478 66.7389C12.0982 66.4784 12.308 66.2571 12.56 66.093Z" fill="#F0F0F0"/>
<mask id="mask1_7215_7837" style="mask-type:luminance" maskUnits="userSpaceOnUse" x="11" y="50" width="30" height="53">
<path d="M12.5599 66.092L39.2599 50.6738C39.7387 50.3976 40.1255 50.6223 40.1255 51.1748V85.1492C40.1099 85.4497 40.0233 85.7422 39.8729 86.0028C39.7224 86.2634 39.5124 86.4846 39.2599 86.6483L12.5599 102.055C12.0811 102.332 11.6943 102.107 11.6943 101.554V67.5911C11.7105 67.2907 11.7973 66.9984 11.9477 66.738C12.0981 66.4775 12.3079 66.2561 12.5599 66.092Z" fill="white"/>
</mask>
<g mask="url(#mask1_7215_7837)">
<path d="M34.0001 80.2695C31.9154 77.5623 28.4752 77.9454 28.4752 77.9454C28.7786 80.2989 29.3508 82.6099 30.1806 84.8331C30.1806 84.8331 36.5379 94.0891 37.8049 94.9547L39.5619 89.1241C39.5619 89.1241 35.3519 82.0301 34.0001 80.2695Z" fill="#FFBDA7"/>
<path d="M27.7312 78.0778C28.6322 77.7884 29.5779 77.6636 30.5231 77.7094C32.0222 77.8052 33.8675 79.5032 34.9688 81.2712C36.4421 83.6358 37.4219 85.3227 37.4219 85.3227C37.4219 85.3227 36.932 88.0999 33.1419 89.297L29.6355 84.7224L27.7312 78.0778Z" fill="#ED7600"/>
<path opacity="0.5" d="M27.7312 78.0778C28.6322 77.7884 29.5779 77.6636 30.5231 77.7094C32.0222 77.8052 33.8675 79.5032 34.9688 81.2712C36.4421 83.6358 37.4219 85.3227 37.4219 85.3227C37.4219 85.3227 36.932 88.0999 33.1419 89.297L29.6355 84.7224L27.7312 78.0778Z" fill="black"/>
<path d="M18.059 88.9288L17.5691 96.6636L17.9632 111.135C22.8362 112.796 29.0351 111.334 34.2359 105.555C34.2359 105.555 34.0222 86.3358 33.3445 83.054C32.5305 79.1018 30.5894 76.9398 26.6557 78.3468L22.7993 79.8864L18.8325 81.4665C18.8325 81.4665 18.059 87.4334 18.059 88.9288Z" fill="#ED7600"/>
<path opacity="0.4" d="M18.059 88.9288L17.5691 96.6636L17.9632 111.135C22.8362 112.796 29.0351 111.334 34.2359 105.555C34.2359 105.555 34.0222 86.3358 33.3445 83.054C32.5305 79.1018 30.5894 76.9398 26.6557 78.3468L22.7993 79.8864L18.8325 81.4665C18.8325 81.4665 18.059 87.4334 18.059 88.9288Z" fill="black"/>
<path d="M23.1493 67.36C23.1493 70.6381 25.4513 72.6786 28.3059 71.9162C31.1604 71.1538 33.4624 67.883 33.4624 64.6049C33.4624 61.3268 31.0131 61.3268 28.1733 62.0892C25.3335 62.8517 23.1493 64.0819 23.1493 67.36Z" fill="#263238"/>
<path d="M22.3168 74.2178L21.4549 73.2197L21.8048 71.7832L21.0682 66.1073C20.7687 66.0572 20.461 66.1047 20.1905 66.2426C19.92 66.3805 19.7009 66.6016 19.5654 66.8734C18.3315 69.1128 21.2082 75.9968 21.4549 76.4757C21.5458 76.6488 21.6788 76.7962 21.8417 76.9043C22.0045 77.0125 22.192 77.0779 22.3868 77.0945L22.3168 74.2178Z" fill="#263238"/>
<path d="M22.2174 71.6684C21.9338 71.9447 21.525 71.418 21.1714 71.0865C20.8178 70.755 19.6686 70.4824 19.094 72.0331C18.5194 73.5837 19.5986 75.2043 20.5047 75.2891C22.0701 75.4364 22.3021 74.2172 22.3021 74.2172L22.3574 80.8839C24.9762 83.6648 31.0094 82.3057 27.514 79.1565V77.1786C28.2311 77.1163 28.9383 76.9692 29.6208 76.7403C30.77 76.2246 31.4919 74.987 31.8307 73.4548C32.3906 71.0017 32.6042 69.0828 32.1291 64.6739C31.6061 59.8414 26.6042 61.1306 23.8933 63.8194C21.1824 66.5082 22.2174 71.6684 22.2174 71.6684Z" fill="#FFBDA7"/>
<path d="M22.1659 72.1369C21.687 72.0116 21.374 71.2455 21.1714 71.0872C20.9688 70.9288 21.002 70.5236 20.9946 70.321C21.012 69.8235 20.9997 69.3254 20.9578 68.8293C20.8553 68.3073 20.7986 67.7774 20.7883 67.2455C20.7883 66.1405 20.8141 64.6009 21.2672 63.5807C22.1033 61.6985 23.4071 61.2234 24.9799 60.7188C26.188 60.3504 27.5103 60.3873 28.6963 59.9379C29.6665 59.5033 30.5548 58.9053 31.3225 58.1699C31.6134 57.9232 32.0186 57.6653 32.3391 57.8679C32.4908 57.9861 32.5953 58.1546 32.6337 58.343C32.8093 58.9098 32.8632 59.5072 32.7921 60.0963C32.9292 60.1063 33.0668 60.0849 33.1944 60.0339C33.322 59.9828 33.4364 59.9034 33.5287 59.8016C33.584 59.7353 33.6429 59.658 33.7276 59.658C33.8124 59.658 33.9044 59.7943 33.9229 59.9084C33.9923 60.403 33.9482 60.9068 33.7939 61.3817C33.1162 63.7538 30.7589 65.1902 28.3538 65.7427C27.0075 66.1112 25.594 66.1616 24.2248 65.8901C24.0603 65.8551 23.8886 65.8855 23.746 65.9748C23.6238 66.0677 23.5336 66.1965 23.4882 66.3431C23.2267 67.0171 23.4882 68.3947 23.4219 69.3229C23.3224 70.4536 23.1493 71.4113 22.722 71.9453C22.6639 72.0346 22.5776 72.1019 22.4768 72.1366C22.3761 72.1713 22.2667 72.1714 22.1659 72.1369Z" fill="#263238"/>
<path d="M20.9173 66.203L19.1898 65.5916C19.4329 64.9544 20.0186 64.575 20.4974 64.7445C20.9762 64.9139 21.164 65.5622 20.9173 66.203Z" fill="#263238"/>
<path d="M27.4992 77.1789C27.4992 77.1789 24.9209 77.271 24.0406 76.9579C23.5027 76.7704 23.0581 76.3824 22.7993 75.875C22.9251 76.411 23.1651 76.9135 23.5028 77.3483C24.1584 78.1402 27.4992 77.9597 27.4992 77.9597V77.1789Z" fill="#F0997A"/>
<path d="M26.8841 70.1806C26.8838 70.3409 26.8346 70.4973 26.7431 70.6289C26.6516 70.7605 26.5222 70.8611 26.3721 70.9173C26.0848 70.9909 25.8564 70.7773 25.8564 70.4348C25.8576 70.2742 25.9075 70.1177 25.9996 69.9861C26.0917 69.8546 26.2216 69.7541 26.3721 69.6981C26.6557 69.6244 26.8841 69.8381 26.8841 70.1806Z" fill="#263238"/>
<path d="M26.0591 67.9453L24.9541 68.9398C24.8819 68.7551 24.8679 68.5527 24.9139 68.3598C24.96 68.1669 25.064 67.9927 25.2119 67.8606C25.2644 67.7939 25.3328 67.7415 25.4109 67.7083C25.489 67.675 25.5743 67.662 25.6587 67.6705C25.7432 67.6789 25.8241 67.7085 25.8941 67.7566C25.9641 67.8046 26.0208 67.8695 26.0591 67.9453Z" fill="#263238"/>
<path d="M27.2672 73.6582L28.4422 73.8534C28.4069 74.0394 28.3077 74.2071 28.1617 74.3275C28.0157 74.4479 27.8322 74.5135 27.6429 74.5127C27.3225 74.4685 27.153 74.0781 27.2672 73.6582Z" fill="#F0997A"/>
<path d="M31.5988 66.9807L30.5969 66.3656C30.7995 65.9973 31.1899 65.8058 31.4662 65.9973C31.6014 66.1188 31.6889 66.2845 31.7132 66.4646C31.7375 66.6448 31.6969 66.8277 31.5988 66.9807Z" fill="#263238"/>
<path d="M31.3814 68.8039C31.3803 68.9645 31.3304 69.1209 31.2383 69.2525C31.1462 69.384 31.0162 69.4845 30.8657 69.5405C30.5821 69.6179 30.3538 69.4006 30.3538 69.0617C30.3508 68.8984 30.3984 68.7382 30.4901 68.603C30.5818 68.4679 30.713 68.3643 30.8657 68.3066C31.1567 68.2477 31.3814 68.4613 31.3814 68.8039Z" fill="#263238"/>
<path d="M28.6189 68.833L28.6778 72.4168L30.5195 71.4518L28.6189 68.833Z" fill="#F0997A"/>
<path d="M11.9595 103.887C13.5802 86.5978 15.7828 82.3731 18.9577 81.9385C20.2027 82.8667 20.5968 86.8372 19.7165 90.9551C19.7165 90.9551 17.9191 100.277 17.7607 103.633C17.6207 106.58 16.8067 110.189 17.1677 112.51C17.234 112.918 17.4476 114.112 17.6686 114.388C18.4052 115.294 18.2248 115.714 18.7736 116.421C19.2156 116.974 19.9485 117.305 19.8785 117.526C19.7717 117.791 19.2892 118.134 18.5231 117.78C18.0776 117.541 17.698 117.196 17.4181 116.775C17.4181 116.775 17.4992 117.88 18.5231 119.559C19.4844 121.169 19.7681 122.849 17.0903 122.539C15.5765 122.366 14.4641 121.939 13.4844 118.034C13.2118 116.955 12.9908 114.996 12.7772 113.585C12.1474 109.515 11.7348 106.266 11.9595 103.887Z" fill="#FFBDA7"/>
<path d="M19.0019 81.4111C19.0019 81.4111 15.7938 82.041 14.8988 85.0244C14.1621 87.5438 13.5507 89.8127 12.7551 95.1018C13.5905 95.8659 14.627 96.3751 15.7422 96.5696C16.8575 96.7641 18.0051 96.6356 19.0498 96.1994C19.0498 96.1994 20.7441 89.3007 20.9136 86.1994C21.0977 82.8034 19.0019 81.4111 19.0019 81.4111Z" fill="#ED7600"/>
<path opacity="0.5" d="M19.0019 81.4111C19.0019 81.4111 15.7938 82.041 14.8988 85.0244C14.1621 87.5438 13.5507 89.8127 12.7551 95.1018C13.5905 95.8659 14.627 96.3751 15.7422 96.5696C16.8575 96.7641 18.0051 96.6356 19.0498 96.1994C19.0498 96.1994 20.7441 89.3007 20.9136 86.1994C21.0977 82.8034 19.0019 81.4111 19.0019 81.4111Z" fill="black"/>
</g>
<path d="M50.8623 103.157L48.7297 101.938C48.636 101.867 48.5618 101.773 48.5142 101.665C48.4665 101.558 48.4469 101.44 48.4571 101.323V87.1164C48.4783 86.7354 48.6059 86.3679 48.8254 86.0557L50.947 87.2785C50.7357 87.5903 50.617 87.9555 50.6045 88.3319V102.535C50.5879 102.652 50.6031 102.772 50.6484 102.881C50.6938 102.99 50.7676 103.086 50.8623 103.157Z" fill="#ED7600"/>
<path opacity="0.55" d="M50.8623 103.157L48.7297 101.938C48.636 101.867 48.5618 101.773 48.5142 101.665C48.4665 101.558 48.4469 101.44 48.4571 101.323V87.1164C48.4783 86.7354 48.6059 86.3679 48.8254 86.0557L50.947 87.2785C50.7357 87.5903 50.617 87.9555 50.6045 88.3319V102.535C50.5879 102.652 50.6031 102.772 50.6484 102.881C50.6938 102.99 50.7676 103.086 50.8623 103.157Z" fill="white"/>
<path d="M51.5436 86.6601L81.2934 69.4813C81.8274 69.1719 82.2584 69.4224 82.2584 70.0375V84.277C82.2407 84.6116 82.144 84.9372 81.9763 85.2272C81.8086 85.5172 81.5745 85.7634 81.2934 85.9455L51.5436 103.095C51.0096 103.401 50.5786 103.15 50.5786 102.535V88.3286C50.5963 87.994 50.693 87.6684 50.8607 87.3784C51.0284 87.0884 51.2625 86.8422 51.5436 86.6601Z" fill="#ED7600"/>
<path opacity="0.7" d="M51.5436 86.6601L81.2934 69.4813C81.8274 69.1719 82.2584 69.4224 82.2584 70.0375V84.277C82.2407 84.6116 82.144 84.9372 81.9763 85.2272C81.8086 85.5172 81.5745 85.7634 81.2934 85.9455L51.5436 103.095C51.0096 103.401 50.5786 103.15 50.5786 102.535V88.3286C50.5963 87.994 50.693 87.6684 50.8607 87.3784C51.0284 87.0884 51.2625 86.8422 51.5436 86.6601Z" fill="white"/>
<path d="M79.8421 68.2067L81.9416 69.4038C81.8348 69.364 81.7199 69.351 81.607 69.3658C81.494 69.3805 81.3863 69.4227 81.2933 69.4885L51.5399 86.6599C51.2885 86.8154 51.0767 87.0272 50.9211 87.2787L48.7996 86.0558C48.9509 85.8068 49.1592 85.5972 49.4073 85.4444L79.1607 68.2656C79.2919 68.1856 79.4417 68.1412 79.5953 68.1367C79.6824 68.1377 79.7675 68.1619 79.8421 68.2067Z" fill="#ED7600"/>
<path opacity="0.85" d="M79.8421 68.2067L81.9416 69.4038C81.8348 69.364 81.7199 69.351 81.607 69.3658C81.494 69.3805 81.3863 69.4227 81.2933 69.4885L51.5399 86.6599C51.2885 86.8154 51.0767 87.0272 50.9211 87.2787L48.7996 86.0558C48.9509 85.8068 49.1592 85.5972 49.4073 85.4444L79.1607 68.2656C79.2919 68.1856 79.4417 68.1412 79.5953 68.1367C79.6824 68.1377 79.7675 68.1619 79.8421 68.2067Z" fill="white"/>
<path d="M53.8678 87.9708L78.9692 73.4587C79.2234 73.3114 79.4296 73.4145 79.4296 73.6908C79.4188 73.8462 79.3715 73.997 79.2915 74.1307C79.2115 74.2645 79.1011 74.3775 78.9692 74.4606L53.8678 88.9726C53.6136 89.12 53.4073 89.0168 53.4073 88.7406C53.4187 88.5853 53.4663 88.4347 53.5462 88.3011C53.6262 88.1674 53.7363 88.0543 53.8678 87.9708Z" fill="#ED7600"/>
<path d="M53.8678 98.1152L78.9692 83.5995C79.2234 83.4522 79.4296 83.559 79.4296 83.8352C79.4183 83.9901 79.3707 84.1401 79.2907 84.2731C79.2107 84.4062 79.1006 84.5186 78.9692 84.6013L53.8678 99.1171C53.6136 99.2644 53.4073 99.1576 53.4073 98.8814C53.4187 98.7265 53.4663 98.5765 53.5463 98.4434C53.6262 98.3104 53.7364 98.1979 53.8678 98.1152Z" fill="#ED7600"/>
<path d="M53.8678 93.0434L78.9692 78.5202C79.2234 78.3729 79.4296 78.476 79.4296 78.7523C79.4183 78.9076 79.3707 79.0581 79.2908 79.1918C79.2108 79.3255 79.1007 79.4386 78.9692 79.5221L53.8678 94.0342C53.6136 94.1815 53.4073 94.0784 53.4073 93.7984C53.4204 93.6455 53.4687 93.4977 53.5486 93.3667C53.6285 93.2356 53.7378 93.125 53.8678 93.0434Z" fill="#ED7600"/>
<path d="M53.8678 95.5772L78.9692 81.0652C79.2234 80.9178 79.4296 81.021 79.4296 81.2972C79.4188 81.4527 79.3715 81.6034 79.2915 81.7372C79.2115 81.871 79.1011 81.984 78.9692 82.067L53.8678 96.568C53.6136 96.7154 53.4073 96.6122 53.4073 96.336C53.4204 96.1826 53.4687 96.0342 53.5486 95.9026C53.6285 95.771 53.7377 95.6596 53.8678 95.5772Z" fill="#ED7600"/>
<path d="M53.8678 90.5088L78.9692 75.993C79.2234 75.8457 79.4296 75.9525 79.4296 76.2288C79.4183 76.3836 79.3707 76.5336 79.2907 76.6667C79.2107 76.7998 79.1006 76.9122 78.9692 76.9949L53.8678 91.5106C53.6136 91.658 53.4073 91.5512 53.4073 91.2749C53.4187 91.1201 53.4663 90.9701 53.5463 90.837C53.6262 90.7039 53.7364 90.5915 53.8678 90.5088Z" fill="#ED7600"/>
<path d="M50.8218 81.8715L48.7996 80.7297C48.7051 80.6593 48.6304 80.5657 48.5827 80.4579C48.5349 80.3502 48.5158 80.2319 48.5271 80.1146V42.3059C48.5469 41.9245 48.6746 41.5567 48.8954 41.2451L50.8696 42.3869C50.6688 42.6918 50.5554 43.046 50.5418 43.4109V81.2491C50.5277 81.3685 50.5462 81.4894 50.5955 81.5991C50.6449 81.7087 50.7231 81.8029 50.8218 81.8715Z" fill="#263238"/>
<path d="M81.7612 24.4349C81.5826 24.4189 81.4037 24.463 81.2529 24.5601L51.4995 41.7388C51.2391 41.9018 51.0207 42.1239 50.8623 42.3871L48.8844 41.2453C49.0382 40.9982 49.246 40.7891 49.4921 40.6339L79.2456 23.4588C79.3747 23.3766 79.5235 23.3308 79.6765 23.3262C79.7639 23.3255 79.8501 23.347 79.927 23.3888L81.7612 24.4349Z" fill="#37474F"/>
<path d="M51.4995 41.7384L81.2492 24.5597C81.7833 24.254 82.2142 24.5008 82.2142 25.1195V62.9909C82.1965 63.3254 82.0999 63.6511 81.9321 63.9411C81.7644 64.2311 81.5304 64.4772 81.2492 64.6594L51.4958 81.805C50.9654 82.1144 50.5308 81.8639 50.5308 81.2488V43.4106C50.5497 43.0755 50.6473 42.7495 50.8156 42.459C50.9839 42.1685 51.2181 41.9217 51.4995 41.7384Z" fill="#455A64"/>
<path d="M53.028 42.9104L79.7317 27.4922C80.2106 27.216 80.5973 27.4406 80.5973 27.9931V61.986C80.5811 62.2863 80.4943 62.5786 80.3439 62.8391C80.1935 63.0996 79.9838 63.3209 79.7317 63.4851L53.028 78.8885C52.5492 79.1647 52.1625 78.9401 52.1625 78.3876V44.4131C52.1787 44.1123 52.2654 43.8195 52.4158 43.5584C52.5662 43.2973 52.7759 43.0753 53.028 42.9104Z" fill="#F0F0F0"/>
<mask id="mask2_7215_7837" style="mask-type:luminance" maskUnits="userSpaceOnUse" x="52" y="27" width="29" height="53">
<path d="M53.0279 42.9094L79.7316 27.4912C80.2104 27.215 80.5972 27.4397 80.5972 27.9921V61.985C80.581 62.2854 80.4942 62.5777 80.3438 62.8381C80.1934 63.0986 79.9836 63.3199 79.7316 63.4841L53.0279 78.8875C52.5491 79.1638 52.1624 78.9391 52.1624 78.3866V44.4085C52.1788 44.1082 52.2657 43.816 52.4161 43.5556C52.5665 43.2951 52.7761 43.0737 53.0279 42.9094Z" fill="white"/>
</mask>
<g mask="url(#mask2_7215_7837)">
<path d="M75.4001 73.2338C71.4479 59.3 71.4037 57.0274 71.6395 55.3847C75.227 54.5191 76.796 56.9795 77.7537 61.1269C78.2141 63.1195 79.5401 70.7034 80.3614 73.8746C81.0981 76.6555 81.9895 79.639 83.0723 81.6095C83.1602 81.7764 83.2865 81.9199 83.4409 82.0281C83.5952 82.1364 83.7732 82.2063 83.96 82.232C84.9655 82.3756 85.2639 82.9392 86.0816 83.3591C86.7224 83.6832 87.1865 83.6022 87.1681 83.8268C87.1206 84.0768 86.9983 84.3064 86.8175 84.4853C86.6366 84.6642 86.4057 84.7839 86.1552 84.8287C85.7523 84.8721 85.3449 84.846 84.9508 84.7513C85.4356 85.3861 86.0292 85.9299 86.704 86.3572C88.2805 87.3775 88.7703 88.9355 86.041 89.7053C84.9692 90.0037 82.9729 89.6648 80.5972 86.4567C79.806 85.3081 79.1497 84.0722 78.6414 82.7734C77.2896 79.3517 76.1883 76.0183 75.4001 73.2338Z" fill="#FFA8A7"/>
<path d="M65.8051 56.987C65.8051 56.987 61.8935 58.3756 60.8843 58.8507C63.4626 61.9447 60.376 70.3867 60.376 70.3867L62.0224 76.0737L74.3982 71.7385C76.4461 66.5819 76.8475 64.243 76.6671 62.8286C76.2582 59.6242 74.3429 57.5211 71.6394 55.3848L65.8051 56.987Z" fill="#ED7600"/>
<path d="M75.0981 53.5545L68.645 55.5803C67.6612 55.8894 66.6185 55.9627 65.6011 55.7944C64.5838 55.626 63.6203 55.2207 62.7885 54.6112C61.9567 54.0017 61.2799 53.2051 60.8128 52.2857C60.3458 51.3663 60.1016 50.35 60.0999 49.3188V47.9486C60.0999 43.3224 63.3485 38.7036 67.3559 37.6355L67.8973 37.4918C71.9047 36.4163 75.1534 39.2966 75.1534 43.9228V45.2156C75.1534 49.3556 75.0981 53.5545 75.0981 53.5545Z" fill="#37474F"/>
<path d="M62.5971 39.5543C62.1993 39.1639 61.5326 39.3112 61.1053 39.8821L61.9009 40.6704C61.7125 40.648 61.5218 40.6854 61.3558 40.7772C61.0676 40.939 60.8352 41.1844 60.6892 41.4809C60.5433 41.7774 60.4906 42.1112 60.5381 42.4383L62.6044 41.3812C62.5936 41.3338 62.5801 41.2871 62.5639 41.2413C62.9543 40.674 62.9801 39.9337 62.5971 39.5543Z" fill="#37474F"/>
<path d="M72.3282 41.0977C73.0648 41.5802 74.0961 42.4457 74.0004 47.3113C73.9193 51.4329 72.7665 52.7552 72.1882 53.2046C71.6099 53.6539 70.4939 53.7718 69.411 53.8528V56.4532C69.411 56.4532 71.2858 58.2285 71.19 59.3998C71.0943 60.5711 69.411 61.5324 66.8696 59.9744C65.9747 59.3779 65.2206 58.5936 64.6596 57.676L64.6817 52.1143C64.6817 52.1143 64.0445 52.9983 62.9653 52.1953C62.5096 51.8343 62.2055 51.3158 62.1128 50.7419C62.0201 50.168 62.1455 49.5802 62.4644 49.094C62.6039 48.8776 62.7882 48.6936 63.0049 48.5545C63.2215 48.4153 63.4655 48.3242 63.7204 48.2874C63.8697 48.2804 64.019 48.3038 64.1591 48.3562C64.2991 48.4086 64.4271 48.4889 64.5353 48.5922C64.6434 48.6955 64.7294 48.8197 64.7881 48.9573C64.8469 49.0948 64.8771 49.2428 64.8769 49.3924V49.6981C64.8769 49.6981 65.6651 49.8196 65.7167 48.28C65.7462 47.4255 66.7664 46.0701 67.7646 45.2156C69.4626 43.7533 71.6246 43.7349 72.3282 41.0977Z" fill="#FFA8A7"/>
<path d="M69.5842 47.0573C69.5907 47.1989 69.5536 47.3392 69.4778 47.4591C69.4021 47.579 69.2913 47.6727 69.1606 47.7276C68.9138 47.8087 68.7039 47.6356 68.6928 47.3593C68.686 47.2171 68.723 47.0763 68.7987 46.9558C68.8745 46.8352 68.9853 46.7408 69.1164 46.6853C69.3595 46.5932 69.5731 46.7626 69.5842 47.0573Z" fill="#263238"/>
<path d="M69.8825 50.5898L71.1974 50.7224C71.1648 50.9302 71.0617 51.1205 70.9054 51.2613C70.7492 51.4021 70.5493 51.485 70.3392 51.4959C69.9783 51.4591 69.772 51.0539 69.8825 50.5898Z" fill="#F28F8F"/>
<path d="M73.4516 44.8181L72.5492 44.3356C72.7113 43.9931 73.0501 43.8236 73.2858 43.9673C73.4143 44.0631 73.5025 44.2034 73.5331 44.3607C73.5637 44.518 73.5347 44.6811 73.4516 44.8181Z" fill="#263238"/>
<path d="M68.3061 46.1547L69.2085 45.186C69.0428 44.9355 68.7076 44.9429 68.4719 45.2118C68.3487 45.3316 68.2663 45.4871 68.2366 45.6564C68.2068 45.8257 68.2312 46 68.3061 46.1547Z" fill="#263238"/>
<path d="M73.3448 46.2874C73.3526 46.4298 73.3161 46.5711 73.2402 46.6918C73.1644 46.8126 73.0529 46.9068 72.9212 46.9614C72.6744 47.0425 72.4645 46.8694 72.4534 46.5931C72.4461 46.4508 72.4829 46.3098 72.5587 46.1891C72.6345 46.0685 72.7456 45.9742 72.877 45.9191C73.1201 45.8233 73.3337 45.9964 73.3448 46.2874Z" fill="#263238"/>
<path d="M71.1975 46.4346L71.2675 49.5211L72.6819 48.6372L71.1975 46.4346Z" fill="#F28F8F"/>
<path d="M69.4111 53.8424C68.2693 53.975 65.9194 53.8424 65.551 52.8516C65.6799 53.3209 65.9726 53.7286 66.3761 54.0007C67.0796 54.5053 69.4111 54.6637 69.4111 54.6637V53.8424Z" fill="#F28F8F"/>
<path d="M54.144 81.1206C55.3631 67.8056 56.0592 60.3028 60.8843 58.8516C61.6026 59.1131 62.2692 60.6932 62.3945 61.8387C62.6118 63.7761 62.3503 67.1205 61.1495 68.8369C61.1495 68.8369 59.6357 76.8148 59.0501 81.4079C58.6449 84.5865 57.772 89.1648 57.9745 91.7431C58.0705 92.2089 58.2749 92.6456 58.5712 93.0175L59.3889 94.3767C59.55 94.6618 59.7348 94.9329 59.9414 95.187C60.1293 95.4043 60.3466 95.5921 60.5491 95.7947C60.7002 95.942 60.8475 96.163 60.7223 96.3398C60.6737 96.3971 60.6098 96.4392 60.5381 96.4614C60.2981 96.5521 60.0406 96.5867 59.7852 96.5624C59.5298 96.5382 59.2834 96.4557 59.0648 96.3214C58.7922 96.152 58.5712 95.9052 58.2876 95.7579C58.3111 96.2332 58.4461 96.6962 58.6817 97.1096C58.8438 97.4448 59.0059 97.7837 59.1863 98.1152C59.381 98.4471 59.5532 98.7916 59.702 99.1465C59.8551 99.5016 59.8924 99.896 59.8088 100.274C59.7151 100.562 59.5426 100.818 59.3109 101.013C59.0792 101.208 58.7974 101.335 58.4976 101.379C57.8951 101.456 57.2837 101.336 56.7554 101.036C54.9395 100.097 54.3318 98.2109 54.1034 96.3177C53.8817 94.7432 53.7587 93.1563 53.7351 91.5663C53.8051 87.36 53.9082 83.7136 54.144 81.1206Z" fill="#FFA8A7"/>
<path d="M64.6744 57.293C63.8885 57.461 63.1397 57.7705 62.4645 58.2064C62.4645 58.2064 64.203 61.5656 67.1864 62.0517C70.1699 62.5379 70.3835 60.5306 70.3835 60.5306C68.5161 60.6079 66.6303 59.7976 64.6744 57.293Z" fill="#455A64"/>
<path d="M69.4111 55.9448V56.4531C70.6782 58.1032 71.0649 59.5286 70.3651 60.5305C70.3651 60.5305 72.4535 61.2413 72.8218 59.7091C73.1902 58.1769 70.5382 55.6943 70.5382 55.6943C70.1523 55.7224 69.7726 55.8067 69.4111 55.9448Z" fill="#455A64"/>
</g>
<path d="M42.2065 15.9853L39.9966 17.2634C40.0081 17.1656 40.0142 17.0672 40.015 16.9687V16.3315C40.015 15.1897 39.2157 14.7293 38.2286 15.2965C37.8022 15.5575 37.4377 15.9082 37.1604 16.3242C37.0021 14.8877 35.875 14.3573 34.5122 15.1455C33.733 15.6518 33.0846 16.3351 32.6199 17.1398C32.1552 17.9444 31.8873 18.8475 31.8381 19.7754V20.733C31.8288 21.1136 31.9056 21.4913 32.0628 21.838L30.2212 22.8988C29.9331 23.0876 29.6932 23.3411 29.5205 23.6391C29.3479 23.9372 29.2472 24.2714 29.2267 24.6152C29.2267 25.2487 29.6724 25.5065 30.2212 25.1898L42.2065 18.2763C42.4939 18.0871 42.7331 17.8334 42.9051 17.5354C43.0771 17.2374 43.1772 16.9034 43.1973 16.5599C43.201 15.9264 42.759 15.6722 42.2065 15.9853Z" fill="#E3E3E3"/>
<path d="M27.5987 10.1145L26.3685 10.5823V7.89716C26.3685 5.76824 24.6705 5.25626 22.8289 6.32073C20.9873 7.38887 19.4882 9.97821 19.4882 12.1071V12.4976C19.2286 12.4163 18.9538 12.3956 18.685 12.4371C18.4162 12.4786 18.1605 12.5812 17.9375 12.737C17.2381 13.1929 16.6561 13.8075 16.2388 14.5307C15.8215 15.2539 15.5807 16.0653 15.536 16.8991V17.0759L13.8454 18.0556C13.3846 18.3558 13.0011 18.7604 12.7259 19.2365C12.4508 19.7126 12.2917 20.2469 12.2616 20.796C12.2616 21.8052 12.9725 22.214 13.8454 21.7094L27.5987 13.7683C28.059 13.4679 28.442 13.0632 28.7165 12.5871C28.9911 12.1109 29.1495 11.5768 29.1788 11.0279C29.1788 10.0114 28.4717 9.60988 27.5987 10.1145Z" fill="#E3E3E3"/>
<path d="M104.339 86.9919C103.82 86.5647 103.021 86.4763 102.063 86.8336C100.144 87.5444 98.31 89.7581 97.9637 91.7728C97.7906 92.782 98.0264 93.5518 98.542 93.9828L133.736 125.519C134.45 126.193 135.607 126.359 137.014 125.839C139.695 124.845 142.262 121.755 142.741 118.933C142.995 117.46 142.62 116.355 141.82 115.769L104.339 86.9919Z" fill="#ED7600"/>
<path opacity="0.15" d="M103.458 92.1514C105.058 90.2227 105.451 87.9094 104.337 86.9846C103.222 86.0598 101.021 86.8738 99.4209 88.8025C97.8208 90.7313 97.4272 93.0446 98.5419 93.9694C99.6566 94.8942 101.857 94.0802 103.458 92.1514Z" fill="black"/>
<path d="M91.0871 79.3717C90.4681 79.639 89.9211 80.049 89.4909 80.5682C89.0608 81.0873 88.7595 81.701 88.6119 82.3588C88.546 82.5918 88.5433 82.8381 88.6042 83.0725C88.665 83.3068 88.7872 83.5207 88.9582 83.6922L99.6875 92.5946C99.8869 92.7321 100.119 92.8138 100.361 92.8313C100.602 92.8488 100.844 92.8014 101.061 92.6941C101.681 92.4265 102.228 92.0165 102.659 91.4974C103.089 90.9783 103.391 90.3649 103.54 89.707C103.606 89.4731 103.609 89.2259 103.547 88.9908C103.486 88.7557 103.363 88.5414 103.19 88.3699L92.4646 79.4712C92.2647 79.3334 92.0316 79.2515 91.7894 79.234C91.5472 79.2165 91.3047 79.2641 91.0871 79.3717Z" fill="#263238"/>
<path opacity="0.1" d="M102.52 93.0957L138.852 124.809C138.286 125.228 137.667 125.57 137.01 125.825C135.603 126.345 134.432 126.194 133.728 125.501L98.5604 93.9907C99.0834 94.4217 99.8753 94.5027 100.837 94.1491C101.453 93.8957 102.022 93.5395 102.52 93.0957Z" fill="black"/>
<path d="M109.901 45.0028C109.901 44.6345 109.872 44.2662 109.842 43.8979C109.813 43.5295 109.798 43.1796 109.761 42.826C109.761 42.5866 109.717 42.3546 109.688 42.1152C109.625 41.5001 109.537 40.8886 109.433 40.3104C109.389 40.0452 109.341 39.7763 109.29 39.5111C109.238 39.2459 109.187 39.0102 109.135 38.7744C108.98 38.1041 108.815 37.4485 108.627 36.8186C108.527 36.5203 108.435 36.2219 108.336 35.931C108.316 35.8873 108.301 35.8416 108.292 35.7947C108.185 35.5037 108.082 35.2238 107.971 34.9475C107.861 34.6713 107.721 34.314 107.573 34.012C107.47 33.7873 107.374 33.57 107.257 33.3527C107.19 33.1898 107.111 33.0322 107.021 32.8812C106.93 32.6872 106.829 32.4979 106.719 32.314C106.697 32.2705 106.673 32.2287 106.645 32.1888C106.557 32.0267 106.454 31.8609 106.358 31.6989C106.262 31.5368 106.222 31.4926 106.159 31.3895C105.695 30.6552 105.172 29.9604 104.594 29.3121C104.494 29.2016 104.395 29.0911 104.306 28.9843L104.06 28.7265C103.96 28.6197 103.85 28.5202 103.739 28.4097C103.442 28.1087 103.127 27.8259 102.796 27.5626C102.641 27.43 102.479 27.3047 102.314 27.1942C102.148 27.0838 101.99 26.9512 101.816 26.8259C101.557 26.635 101.286 26.4592 101.006 26.2992L100.789 26.1629L100.745 26.1261L95.6653 23.1427L95.5917 23.0985C93.1153 21.7191 90.3191 21.0165 87.4848 21.0616C83.2675 21.0616 78.5124 22.4428 73.47 25.3452C56.1586 35.3453 42.1217 59.6586 42.1217 79.655C42.1217 89.6293 45.6098 96.6422 51.2488 99.913L51.3004 99.9388L56.387 102.915L56.4459 102.948L56.5196 102.989L56.6006 103.033C56.8437 103.173 57.0868 103.302 57.3373 103.423C57.5877 103.545 57.9634 103.714 58.2802 103.836C58.5622 103.959 58.8512 104.066 59.1458 104.156C59.2954 104.21 59.4478 104.255 59.6025 104.292C59.7654 104.354 59.9329 104.404 60.1034 104.44C60.2706 104.49 60.4402 104.532 60.6117 104.565C60.7325 104.6 60.8555 104.627 60.98 104.646C61.1973 104.69 61.4331 104.738 61.6614 104.768C61.7116 104.783 61.7636 104.792 61.8161 104.793C62.085 104.837 62.3612 104.878 62.6301 104.904C67.3005 105.394 72.7296 104.075 78.5418 100.723C95.8532 90.7269 109.905 66.4026 109.905 46.4135C109.927 45.9494 109.916 45.478 109.901 45.0028ZM52.7663 92.1855C52.0413 89.511 51.6845 86.7501 51.7056 83.9792C51.7056 65.0324 65.5694 41.0139 81.9783 31.5405C84.3743 30.1217 86.9601 29.0514 89.6579 28.3618C90.9513 28.042 92.2778 27.8751 93.6101 27.8646C94.2811 27.8615 94.9512 27.9133 95.6138 28.0193H95.669C99.0282 31.9935 99.5217 38.3582 99.5217 41.7616C99.5217 60.7083 85.6726 84.7269 69.2563 94.1965C65.0795 96.6054 61.0647 97.8798 57.6209 97.8798C56.9061 97.8847 56.1939 97.7943 55.503 97.6109C54.2292 96.0087 53.2977 94.1622 52.7663 92.1855Z" fill="#ED7600"/>
<path opacity="0.15" d="M105.419 45.0875C105.419 55.1538 101.507 66.6456 95.3781 76.6347C95.0908 77.1098 94.7961 77.5739 94.4941 78.0417C94.2399 78.4431 93.9784 78.8446 93.7059 79.2424C93.1313 80.0969 92.5493 80.9404 91.9379 81.7654C91.6506 82.1596 91.3596 82.55 91.0613 82.933C90.7629 83.3161 90.413 83.7765 90.0815 84.1927C89.4517 84.9883 88.7998 85.7618 88.1368 86.5169C87.7021 87.0215 87.2565 87.515 86.8071 87.9902C83.1975 91.8723 79.2527 95.1504 75.1496 97.5151C74.365 97.9681 73.5915 98.3807 72.8217 98.7527C70.3261 100.02 67.6223 100.828 64.8401 101.136C64.3908 101.18 63.9488 101.198 63.5215 101.198C63.2931 101.198 63.0758 101.198 62.8585 101.18H62.8327C62.4155 101.162 61.9998 101.119 61.5878 101.051C61.3852 101.022 61.1863 100.988 60.9948 100.944C60.8023 100.907 60.6117 100.86 60.4239 100.804C58.4805 100.311 56.753 99.1926 55.5067 97.6219C56.1963 97.8052 56.9074 97.8957 57.6209 97.8908C61.0648 97.8908 65.0795 96.6201 69.2563 94.2075C85.6727 84.7378 99.5217 60.7193 99.5217 41.7725C99.5217 38.3692 99.0282 32.0045 95.669 28.0303H95.6138C99.8938 28.7154 102.328 31.6251 103.699 34.988C104.087 35.9441 104.4 36.9294 104.634 37.9346C104.634 37.9898 104.66 38.0451 104.671 38.1003C104.715 38.2808 104.759 38.4687 104.793 38.6454C104.826 38.8222 104.862 39.0138 104.896 39.1758C104.907 39.2208 104.915 39.2663 104.921 39.3121C104.958 39.5036 104.991 39.6915 105.021 39.8757C105.128 40.5792 105.216 41.2643 105.275 41.9199C105.275 42.1114 105.308 42.2882 105.319 42.4724C105.33 42.6565 105.341 42.7486 105.349 42.8812C105.349 42.9365 105.349 42.9954 105.349 43.0506C105.349 43.198 105.367 43.3416 105.374 43.4853C105.374 43.5258 105.374 43.5626 105.374 43.6068C105.374 43.7873 105.374 43.9751 105.393 44.1409C105.415 44.4576 105.419 44.7818 105.419 45.0875Z" fill="black"/>
<path opacity="0.1" d="M55.9524 102.683L51.2452 99.9171C45.6061 96.6206 42.118 89.604 42.118 79.6592C42.118 70.7383 44.9136 60.9666 49.5398 51.9941L54.899 55.077C50.2691 64.0495 47.201 73.7217 47.201 82.6389C47.201 92.3885 50.5196 99.3057 55.9524 102.683Z" fill="black"/>
<path opacity="0.4" d="M100.793 26.1628L100.748 26.1259L95.6728 23.1425H95.6543L95.5844 23.0983C93.1099 21.7207 90.3166 21.0182 87.4849 21.0615C83.2712 21.0615 78.5124 22.439 73.47 25.3451C63.8935 30.87 55.2858 40.8148 49.5288 51.9972L54.8622 55.1353L54.748 55.3563C60.5123 44.3065 69.0612 34.3138 78.5529 28.3322C87.146 22.9178 95.3008 22.8442 100.995 26.3064L100.793 26.1628Z" fill="white"/>
<path opacity="0.3" d="M102.689 43.4812C102.689 62.4279 88.8256 86.4465 72.4166 95.9199C70.0206 97.3387 67.4348 98.409 64.737 99.0985C63.4437 99.4186 62.1172 99.5855 60.7848 99.5958C59.4161 99.6132 58.0556 99.381 56.7701 98.9107C54.7332 97.2016 53.503 94.7265 52.7664 92.185C52.0414 89.5105 51.6845 86.7497 51.7056 83.9787C51.7056 65.032 65.5694 41.0134 81.9784 31.5401C84.3743 30.1212 86.9602 29.0509 89.658 28.3614C90.9513 28.0415 92.2778 27.8747 93.6101 27.8642C94.9785 27.8471 96.3387 28.078 97.6249 28.5456C99.6654 30.2546 100.896 32.7334 101.632 35.2749C102.354 37.9499 102.71 40.7105 102.689 43.4812Z" fill="white"/>
<mask id="mask3_7215_7837" style="mask-type:luminance" maskUnits="userSpaceOnUse" x="51" y="27" width="49" height="71">
<path d="M69.2563 94.2159C85.6726 84.7462 99.5217 60.7276 99.5217 41.7809C99.5217 38.3775 99.0282 32.0129 95.669 28.0386H95.6138C94.9512 27.9326 94.2811 27.8808 93.6101 27.8839C92.2778 27.8944 90.9513 28.0613 89.6579 28.3812C86.9636 29.0656 84.3804 30.1296 81.9857 31.5414C65.5767 41.0148 51.7129 65.0333 51.7129 83.9801C51.6918 86.751 52.0487 89.5119 52.7737 92.1864C53.3141 94.2071 54.2769 96.0902 55.5988 97.7113C56.2689 97.8279 56.9481 97.8846 57.6282 97.8807C61.0647 97.8954 65.0795 96.6247 69.2563 94.2159Z" fill="white"/>
</mask>
<g mask="url(#mask3_7215_7837)">
<path d="M94.9176 16.0372C94.6586 16.0168 94.3999 16.0814 94.181 16.2214L50.4606 41.4591C50.0789 41.6985 49.7585 42.024 49.5251 42.4094L46.6263 40.7335C46.8501 40.3692 47.1552 40.0615 47.5177 39.8348L91.2233 14.6044C91.4131 14.4836 91.632 14.4162 91.8569 14.4092C91.9854 14.4082 92.1122 14.4399 92.2252 14.5013L94.9176 16.0372Z" fill="#37474F"/>
<path d="M50.4643 41.4552L94.17 16.2249C94.9508 15.7718 95.588 16.1365 95.588 17.0425V72.6599C95.5609 73.1514 95.4184 73.6296 95.172 74.0558C94.9256 74.4819 94.5823 74.8441 94.17 75.1129L50.4643 100.318C49.6798 100.767 49.0463 100.402 49.0463 99.4961V43.8972C49.0748 43.4076 49.218 42.9314 49.4643 42.5073C49.7106 42.0831 50.0532 41.7227 50.4643 41.4552Z" fill="#455A64"/>
<path d="M52.7074 43.1794L91.9305 20.531C92.6303 20.1258 93.2013 20.4537 93.2013 21.2677V71.198C93.1786 71.6405 93.0517 72.0713 92.8309 72.4554C92.61 72.8394 92.3015 73.1658 91.9305 73.408L52.7037 96.0159C52.0002 96.421 51.4293 96.0932 51.4293 95.2792V45.371C51.4562 44.9312 51.5858 44.5038 51.8078 44.1232C52.0297 43.7426 52.3379 43.4193 52.7074 43.1794Z" fill="#F0F0F0"/>
<mask id="mask4_7215_7837" style="mask-type:luminance" maskUnits="userSpaceOnUse" x="51" y="20" width="43" height="77">
<path d="M52.7074 43.1794L91.9305 20.531C92.6303 20.1258 93.2013 20.4537 93.2013 21.2677V71.198C93.1786 71.6405 93.0517 72.0713 92.8309 72.4554C92.61 72.8394 92.3015 73.1658 91.9305 73.408L52.7037 96.0159C52.0002 96.421 51.4293 96.0932 51.4293 95.2792V45.371C51.4562 44.9312 51.5858 44.5038 51.8078 44.1232C52.0297 43.7426 52.3379 43.4193 52.7074 43.1794Z" fill="white"/>
</mask>
<g mask="url(#mask4_7215_7837)">
<path d="M85.5695 87.729C79.7647 67.2611 79.702 63.9093 80.0446 61.5115C85.3153 60.2408 87.61 63.8504 89.0244 69.9462C89.7058 72.8928 91.6506 84.0236 92.8587 88.6719C93.9194 92.7567 95.2491 97.1434 96.8366 100.061C96.9664 100.305 97.1523 100.514 97.379 100.673C97.6056 100.831 97.8666 100.933 98.1405 100.97C99.6138 101.18 100.056 102.013 101.26 102.624C102.203 103.107 102.899 102.992 102.855 103.317C102.786 103.685 102.606 104.023 102.339 104.286C102.073 104.549 101.732 104.725 101.363 104.79C100.859 104.878 100.468 104.79 99.599 104.672C100.311 105.608 101.184 106.408 102.177 107.037C104.49 108.536 105.212 110.841 101.201 111.954C99.6285 112.388 96.693 111.891 93.2086 107.184C92.0469 105.498 91.0829 103.683 90.3356 101.777C88.3467 96.7125 86.7334 91.8174 85.5695 87.729Z" fill="#FFA8A7"/>
<path d="M71.481 63.8575C71.481 63.8575 65.7351 65.898 64.247 66.5979C68.0113 71.1393 63.5104 83.5409 63.5104 83.5409L65.9303 91.8982C63.3262 96.4434 83.7389 88.005 84.1109 85.5262C87.1164 77.9276 87.7021 74.5169 87.4258 72.4395C86.8291 67.7323 84.0151 64.642 80.0593 61.5039L71.481 63.8575Z" fill="#ED7600"/>
<path d="M65.923 91.8981C70.8291 91.7692 81.8899 87.5335 84.1036 85.5261C87.1091 77.9275 87.6948 74.5168 87.4185 72.4395" fill="#ED7600"/>
<path d="M85.1275 58.8113L75.6505 61.7874C74.2045 62.2417 72.6718 62.3494 71.1765 62.1016C69.6812 61.8538 68.2653 61.2575 67.0431 60.361C65.821 59.4645 64.827 58.2929 64.1417 56.941C63.4563 55.5891 63.0987 54.0949 63.0979 52.5792V50.6013C63.0979 43.8056 67.8677 37.0174 73.7536 35.4409L74.5492 35.2273C80.4424 33.6472 85.2085 37.8793 85.2085 44.6786V46.5755C85.2085 52.6455 85.1275 58.8113 85.1275 58.8113Z" fill="#37474F"/>
<path d="M66.7627 38.2474C66.1845 37.6765 65.201 37.8791 64.5712 38.7299L65.7425 39.8865C65.465 39.857 65.185 39.9122 64.9395 40.0449C64.5158 40.2824 64.1744 40.6432 63.9606 41.0794C63.7468 41.5156 63.6707 42.0065 63.7425 42.4869L66.7775 40.9362C66.7615 40.8649 66.7406 40.7947 66.7149 40.7263C67.2931 39.8939 67.3263 38.8036 66.7627 38.2474Z" fill="#37474F"/>
<path d="M81.0576 40.5205C82.1625 41.224 83.6579 42.4947 83.5143 49.644C83.3964 55.6993 81.7021 57.644 80.855 58.2996C80.0078 58.9553 78.3651 59.1321 76.7739 59.2536V63.0731C76.7739 63.0731 79.5253 65.6846 79.389 67.3789C79.2528 69.0732 76.7739 70.5097 73.0428 68.2224C71.7329 67.3444 70.6284 66.1935 69.8052 64.8485L69.8383 56.6753C69.8383 56.6753 68.9028 57.9792 67.3153 56.8005C66.6458 56.2694 66.1991 55.5071 66.0628 54.6634C65.9265 53.8198 66.1105 52.9556 66.5786 52.2407C66.7827 51.9229 67.0528 51.6528 67.3706 51.4488C67.6884 51.2448 68.0464 51.1116 68.4203 51.0583C68.6409 51.045 68.8619 51.0776 69.0694 51.1541C69.2768 51.2306 69.4661 51.3492 69.6253 51.5026C69.7845 51.6559 69.9102 51.8406 69.9944 52.045C70.0786 52.2494 70.1196 52.469 70.1146 52.69V53.1394C70.1146 53.1394 71.2748 53.3199 71.3521 51.0583C71.3963 49.8023 72.8954 47.8171 74.3614 46.5574C76.8586 44.4174 80.0262 44.3916 81.0576 40.5205Z" fill="#FFA8A7"/>
<path d="M77.028 49.2682C77.0385 49.4772 76.9843 49.6844 76.873 49.8617C76.7616 50.0389 76.5984 50.1776 76.4056 50.259C76.0372 50.3768 75.7352 50.1227 75.7168 49.6917C75.7077 49.4834 75.7624 49.2772 75.8736 49.1008C75.9849 48.9244 76.1473 48.7862 76.3393 48.7046C76.7002 48.5868 77.0096 48.8409 77.028 49.2682Z" fill="#263238"/>
<path d="M77.4663 54.4609L79.3963 54.6562C79.2343 55.3376 78.6597 55.8458 78.1403 55.7906C77.621 55.7353 77.3042 55.1423 77.4663 54.4609Z" fill="#F28F8F"/>
<path d="M82.7223 45.9823L81.3964 45.2752C81.6395 44.7705 82.133 44.5385 82.5013 44.719C82.8697 44.8995 82.9507 45.4777 82.7223 45.9823Z" fill="#263238"/>
<path d="M75.1496 47.9491L76.4755 46.531C76.2324 46.1627 75.7389 46.1627 75.3705 46.5642C75.1932 46.7427 75.0765 46.9725 75.0369 47.221C74.9972 47.4695 75.0366 47.7242 75.1496 47.9491Z" fill="#263238"/>
<path d="M82.5529 48.1412C82.5634 48.3503 82.5092 48.5575 82.3979 48.7347C82.2865 48.912 82.1233 49.0507 81.9305 49.132C81.5621 49.2462 81.2601 48.9957 81.2417 48.5648C81.2326 48.3564 81.2873 48.1503 81.3986 47.9739C81.5098 47.7975 81.6722 47.6593 81.8642 47.5777C82.2251 47.4598 82.5345 47.714 82.5529 48.1412Z" fill="#263238"/>
<path d="M79.3964 48.3584L79.5032 52.8925L81.5805 51.5923L79.3964 48.3584Z" fill="#F28F8F"/>
<path d="M76.7739 59.2537C75.0943 59.4489 71.6431 59.2279 71.1053 57.7988C71.2954 58.4876 71.7251 59.0858 72.3171 59.4858C73.3485 60.2224 76.7739 60.4618 76.7739 60.4618V59.2537Z" fill="#F28F8F"/>
<path d="M54.3611 99.3087C56.1549 79.7469 57.1751 68.7376 64.2617 66.5977C65.3188 66.966 66.2986 69.3159 66.4717 70.9844C66.7885 73.8279 66.4054 78.7451 64.6301 81.2755C64.6301 81.2755 62.4201 92.9956 61.5472 99.7397C60.9505 104.41 59.6687 111.139 59.967 114.926C60.026 115.64 60.4827 116.197 60.8437 116.797L62.0444 118.79C62.2815 119.21 62.5538 119.609 62.8584 119.983C63.131 120.303 63.4514 120.58 63.7498 120.874C63.9708 121.092 64.1881 121.43 64.0039 121.677C63.9332 121.761 63.8398 121.822 63.735 121.854C63.3804 121.99 62.9993 122.042 62.6212 122.007C62.2431 121.972 61.8781 121.85 61.5545 121.651C61.1531 121.401 60.8179 121.036 60.409 120.823C60.4438 121.52 60.6432 122.199 60.991 122.804C61.2267 123.302 61.4625 123.799 61.7276 124.278C62.02 124.761 62.2797 125.263 62.5048 125.78C62.7288 126.304 62.7841 126.885 62.6632 127.442C62.5225 127.863 62.2675 128.237 61.9267 128.522C61.5859 128.806 61.1727 128.991 60.7332 129.055C59.8474 129.166 58.9496 128.987 58.1733 128.547C55.5103 127.169 54.6189 124.399 54.2801 121.618C53.9607 119.305 53.7872 116.974 53.7607 114.638C53.8491 108.484 53.9928 103.114 54.3611 99.3087Z" fill="#FFA8A7"/>
<path d="M69.8051 64.3066C68.6451 64.5523 67.5394 65.0066 66.5417 65.6473C66.5417 65.6473 69.0979 70.5829 73.481 71.2975C77.8641 72.012 78.1735 69.0617 78.1735 69.0617C75.4589 69.1759 72.6854 67.9899 69.8051 64.3066Z" fill="#455A64"/>
<path d="M76.7738 62.3144V63.051C78.6339 65.4746 79.2048 67.5667 78.1734 69.04C78.1734 69.04 81.2453 70.0824 81.783 67.8356C82.3208 65.5888 78.4313 61.9424 78.4313 61.9424C77.8636 61.9847 77.3051 62.11 76.7738 62.3144Z" fill="#455A64"/>
</g>
</g>
<path d="M127.507 79.9932C130.06 79.7096 131.04 80.4573 131.99 82.5715C132.896 84.5899 135.673 90.6747 135.533 92.0927C135.393 93.5108 129.588 99.5477 129.588 99.5477L127.935 97.5366L131.522 91.5034L128.668 85.415L127.507 79.9932Z" fill="#FFA8A7"/>
<path d="M122.38 78.0116L122.859 83.0208L127.334 82.7409L126.977 77.1865L122.38 78.0116Z" fill="#FFA8A7"/>
<path d="M116.645 68.3837C116.607 68.1483 116.607 67.9082 116.645 67.6728C116.702 67.3683 116.823 67.0795 117.002 66.8265C117.181 66.5736 117.412 66.3624 117.68 66.2076C117.949 66.0528 118.247 65.9581 118.556 65.93C118.864 65.9019 119.175 65.9411 119.467 66.0448C119.38 65.5849 119.45 65.1093 119.666 64.694C119.882 64.2786 120.23 63.9476 120.656 63.7538C120.987 63.6283 121.34 63.5707 121.694 63.5846C122.048 63.5985 122.395 63.6837 122.715 63.8349C123.1 63.9698 123.419 64.2447 123.61 64.6047C123.837 64.2251 124.17 63.9204 124.568 63.7283C124.966 63.5362 125.412 63.4652 125.85 63.524C126.288 63.5828 126.699 63.7689 127.032 64.0592C127.366 64.3496 127.606 64.7313 127.725 65.1572C128.406 65.0061 129.367 65.3082 129.673 65.9859C130.019 66.7557 129.596 67.7097 129.754 68.5163C129.857 69.0393 130.082 69.5292 130.178 70.0596C130.275 70.6503 130.331 71.2473 130.343 71.846C130.443 74.3174 124.701 75.9233 124.819 77.6213L121.765 73.8976C121.765 73.7429 121.33 73.3561 121.235 73.2272C121.051 72.9804 120.888 72.7189 120.719 72.4611C120.193 71.7084 119.462 71.1228 118.612 70.7741C118.012 70.4979 117.492 70.0732 117.102 69.5402C116.864 69.1943 116.708 68.7988 116.645 68.3837Z" fill="#263238"/>
<path d="M119.058 72.5156C119.058 72.5156 118.067 73.9889 118.196 74.1436C118.428 74.2957 118.685 74.4055 118.955 74.4678L119.058 72.5156Z" fill="#F28F8F"/>
<path d="M122.086 67.8382C121.124 68.3281 119.459 69.2305 119.028 72.7222C118.59 76.3024 119.397 77.5473 119.898 78.0151C120.233 78.3319 121.964 78.446 122.866 78.1735C123.994 77.8272 126.443 76.6412 127.588 74.7922C128.936 72.6154 129.216 69.7167 127.658 68.5823C125.467 66.9948 122.903 67.4368 122.086 67.8382Z" fill="#FFA8A7"/>
<path d="M119.99 78.0927C120.395 78.3137 121.548 78.4058 122.406 78.2805L122.377 77.6396C122.008 77.7979 121.626 77.9212 121.235 78.008C120.826 78.098 120.407 78.1266 119.99 78.0927Z" fill="#F28F8F"/>
<path d="M121.666 67.743C121.256 67.8924 120.876 68.1118 120.542 68.3913C120.375 68.5304 120.239 68.7037 120.144 68.8996C120.072 69.0818 120.044 69.2789 120.063 69.4742C120.092 69.7429 120.19 69.9994 120.349 70.2185C120.507 70.4375 120.72 70.6113 120.966 70.7228C120.835 70.8991 120.745 71.1024 120.703 71.3178C120.661 71.5331 120.668 71.7552 120.723 71.9677C120.899 72.4625 121.204 72.9012 121.607 73.2385C121.627 73.2619 121.652 73.2808 121.68 73.2937C121.709 73.2983 121.738 73.2964 121.765 73.2881C121.793 73.2798 121.818 73.2654 121.839 73.2458C122.443 72.8407 122.819 72.1408 123.68 72.4245C124.804 72.7928 124.749 74.1777 123.868 75.0396C123.554 75.3573 123.138 75.5542 122.693 75.5957C122.467 75.601 122.247 75.5238 122.074 75.3784C122.074 75.3784 122.108 77.1832 123.677 77.9015C124.771 78.22 125.931 78.234 127.032 77.942C127.625 77.1869 128.62 76.2256 129.437 75.3637C132.13 72.5313 132.284 68.4171 128.31 67.1169C128.174 67.0727 128.038 67.0322 127.898 66.9953C126.62 66.6617 125.281 66.6327 123.99 66.9106C123.353 67.0478 122.735 67.2592 122.148 67.5404L121.666 67.743Z" fill="#263238"/>
<path d="M121.537 74.5019C121.432 74.4669 121.336 74.4112 121.254 74.3383C121.172 74.2653 121.105 74.1766 121.057 74.0773C121.01 73.978 120.983 73.8702 120.978 73.7603C120.973 73.6504 120.99 73.5406 121.028 73.4375C121.106 73.228 121.264 73.0578 121.467 72.964C121.67 72.8702 121.901 72.8603 122.111 72.9365L121.537 74.5019Z" fill="#263238"/>
<path d="M121.979 143.194C122.139 143.686 122.275 144.185 122.384 144.69C122.498 145.246 122.66 146.163 122.465 146.59C122.27 147.018 121.511 147.279 120.336 147.268C119.577 147.268 118.391 147.78 117.577 148.233C116.763 148.686 114.999 148.889 114.108 148.782C113.062 148.66 111.979 148.045 111.809 147.622C111.64 147.198 111.5 146.594 114.329 145.688C114.354 145.688 117.754 144.583 118.947 143.257L121.979 143.194Z" fill="#263238"/>
<path d="M121.979 143.271L121.437 143.205L118.947 143.257C117.754 144.572 114.354 145.68 114.329 145.688L113.876 145.839C113.386 146.236 113.802 146.91 114.981 147.014C116.159 147.117 119.787 145.909 120.594 145.507C121.016 145.308 121.372 144.991 121.618 144.595C121.864 144.198 121.989 143.738 121.979 143.271Z" fill="#FFA8A7"/>
<path d="M121.979 142.203C121.979 142.203 121.979 142.885 121.979 143.271C121.979 143.658 121.522 144.24 120.332 144.199C119.496 144.17 118.914 143.945 118.947 143.257V142.266L121.979 142.203Z" fill="#FFA8A7"/>
<path d="M129.971 138.719C130.185 138.807 130.229 139.22 130.24 140.041C130.24 140.66 130.351 141.747 129.618 141.942C128.885 142.137 127.828 142.001 127.375 141.404C126.815 140.667 126.439 140.004 125.636 139.095C124.936 138.303 124.163 137.562 123.916 136.469C123.68 135.485 123.916 135.065 124.586 134.8C125.257 134.535 125.872 134.752 126.796 135.537C127.058 135.711 127.337 135.858 127.629 135.975C128.251 136.159 129.758 138.631 129.971 138.719Z" fill="#263238"/>
<path d="M129.99 137.961L129.964 138.966C129.964 138.966 129.29 140.285 127.419 138.966C127.378 138.87 127.213 136.922 127.213 136.922L129.99 137.961Z" fill="#FFA8A7"/>
<path d="M127.636 135.979C127.344 135.862 127.065 135.715 126.804 135.54C126.067 135.297 124.461 135.577 125.179 136.671C125.773 137.574 126.533 138.355 127.419 138.973C128.266 139.389 128.564 138.874 128.564 138.874L128.262 136.513C128.097 136.289 127.883 136.107 127.636 135.979Z" fill="#FFA8A7"/>
<path d="M131.342 124.038C131.168 122.267 130.797 120.522 130.237 118.833C130.237 118.833 130.87 114.391 131.367 110.126C132.539 100.122 131.758 99.9639 130.344 96.4979C130.344 96.4979 117.518 94.8478 116.984 100.181C116.314 106.811 116.616 119.703 116.73 122.06C116.844 124.417 117.032 125.482 117.732 130.417C118.266 134.174 118.771 142.384 118.771 142.384C120.45 143.353 122.086 142.218 122.086 142.218C122.086 142.218 123.692 132.119 123.655 129.401C123.629 127.391 123.343 125.392 122.804 123.456C122.804 123.456 123.909 112.631 124.17 110.911C124.17 110.911 124.48 114.362 124.594 116.719C124.708 119.076 125.331 121.338 125.909 125.725C126.395 129.529 127.205 137.471 127.205 137.471C128.889 138.439 130.064 138.001 130.064 138.001C130.064 138.001 131.728 127.338 131.342 124.038Z" fill="#ED7600"/>
<g opacity="0.4">
<path d="M131.342 124.038C131.168 122.267 130.797 120.522 130.237 118.833C130.237 118.833 130.87 114.391 131.367 110.126C132.539 100.122 131.758 99.9639 130.344 96.4979C130.344 96.4979 117.518 94.8478 116.984 100.181C116.314 106.811 116.616 119.703 116.73 122.06C116.844 124.417 117.032 125.482 117.732 130.417C118.266 134.174 118.771 142.384 118.771 142.384C120.45 143.353 122.086 142.218 122.086 142.218C122.086 142.218 123.692 132.119 123.655 129.401C123.629 127.391 123.343 125.392 122.804 123.456C122.804 123.456 123.909 112.631 124.17 110.911C124.17 110.911 124.48 114.362 124.594 116.719C124.708 119.076 125.331 121.338 125.909 125.725C126.395 129.529 127.205 137.471 127.205 137.471C128.889 138.439 130.064 138.001 130.064 138.001C130.064 138.001 131.728 127.338 131.342 124.038Z" fill="black"/>
</g>
<path opacity="0.15" d="M124.17 110.892L124.789 106.214C126.597 106.211 128.35 105.6 129.769 104.479C129.769 104.479 128.929 106.189 125.522 106.936L124.855 111.75L124.616 117.054C124.503 114.982 124.354 112.928 124.17 110.892Z" fill="black"/>
<path d="M130.793 82.0778C130.358 80.7887 129.47 80.0299 127.507 80.0078H127.161C127.021 80.7445 124.719 81.3854 122.631 80.6487C122.343 80.7003 121.349 80.8108 120.892 80.8734L119.894 81.017C118.376 81.5143 117.706 84.1552 117.559 88.3357C117.411 92.5162 116.789 101.463 116.789 101.463C116.789 101.463 120.056 103.216 125.209 102.538C129.824 101.931 131.872 99.2234 131.714 99.5623C131.015 97.2573 130.133 95.012 129.076 92.8477C131.507 86.8918 131.441 83.9968 130.793 82.0778Z" fill="#455A64"/>
<path d="M122.656 102.701C123.51 102.711 124.363 102.66 125.209 102.55C129.419 101.997 131.533 99.6913 131.71 99.5513C131.02 97.2509 130.139 95.0123 129.076 92.8588C130.307 89.8422 130.896 87.6139 131.095 85.8975C130.896 87.1498 129.047 91.997 126.627 93.4482C126.627 93.4482 127.99 93.6618 129.157 95.264C130.325 96.8662 129.367 102.358 122.656 102.701Z" fill="#37474F"/>
<path d="M120.892 80.8848C118.881 81.1389 117.29 81.5588 116.41 83.4631C114.936 86.7154 113.312 89.3857 112.141 90.6417C110.888 91.9824 105.754 94.325 104.597 94.1519C103.441 93.9788 102.288 92.6344 101.691 92.9769C101.095 93.3195 102.2 94.6123 102.126 94.9033C102.052 95.1943 99.9564 95.0396 98.9656 94.3397C97.9748 93.6399 97.6065 95.0764 98.8883 96.5865C100.17 98.0967 102.572 98.2072 105.198 97.6915C107.824 97.1758 112.756 95.7873 114.774 94.1335C117.209 92.1298 118.038 90.6123 119.073 88.8148C122.811 84.9548 120.892 80.8848 120.892 80.8848Z" fill="#FFA8A7"/>
</svg>