<svg width="162" height="152" viewBox="0 0 162 152" fill="none" xmlns="http://www.w3.org/2000/svg">
<path d="M9.39838 118.185H157.149" stroke="#263238" stroke-width="0.0795578" stroke-miterlimit="10"/>
<path d="M9.39838 90.2139H157.149" stroke="#263238" stroke-width="0.0795578" stroke-miterlimit="10"/>
<path d="M9.39838 62.2402H157.149" stroke="#263238" stroke-width="0.0795578" stroke-miterlimit="10"/>
<path d="M9.39838 34.2666H157.149" stroke="#263238" stroke-width="0.0795578" stroke-miterlimit="10"/>
<path d="M42.9919 18.3828V118.254" stroke="#263238" stroke-width="0.0795578" stroke-miterlimit="10"/>
<path d="M131.8 18.3828V118.254" stroke="#263238" stroke-width="0.0795578" stroke-miterlimit="10"/>
<path d="M46.2875 55.4033L45.1914 56.5617" stroke="#263238" stroke-width="0.0795578" stroke-miterlimit="10"/>
<path d="M65.0161 35.6523L47.6145 54.0071" stroke="#263238" stroke-width="0.0795578" stroke-miterlimit="10"/>
<path d="M66.1012 38.6396L56.3245 48.6877" stroke="#263238" stroke-width="0.0795578" stroke-miterlimit="10"/>
<path d="M135.598 55.4033L134.502 56.5617" stroke="#263238" stroke-width="0.0795578" stroke-miterlimit="10"/>
<path d="M154.326 35.6523L136.925 54.0071" stroke="#263238" stroke-width="0.0795578" stroke-miterlimit="10"/>
<path d="M155.412 38.6396L145.635 48.6877" stroke="#263238" stroke-width="0.0795578" stroke-miterlimit="10"/>
<path d="M7.18055 111.894L6.08447 113.052" stroke="#263238" stroke-width="0.0795578" stroke-miterlimit="10"/>
<path d="M25.9092 92.1387L8.50757 110.497" stroke="#263238" stroke-width="0.0795578" stroke-miterlimit="10"/>
<path d="M26.9943 95.126L17.2175 105.174" stroke="#263238" stroke-width="0.0795578" stroke-miterlimit="10"/>
<path d="M21.5762 31.5059L20.4764 32.6643" stroke="#263238" stroke-width="0.0795578" stroke-miterlimit="10"/>
<path d="M40.3012 11.751L22.8996 30.1057" stroke="#263238" stroke-width="0.0795578" stroke-miterlimit="10"/>
<path d="M41.39 14.7383L31.6132 24.7863" stroke="#263238" stroke-width="0.0795578" stroke-miterlimit="10"/>
<path d="M102.957 31.5059L101.858 32.6643" stroke="#263238" stroke-width="0.0795578" stroke-miterlimit="10"/>
<path d="M121.682 11.751L104.281 30.1057" stroke="#263238" stroke-width="0.0795578" stroke-miterlimit="10"/>
<path d="M122.771 14.7383L112.994 24.7863" stroke="#263238" stroke-width="0.0795578" stroke-miterlimit="10"/>
<path d="M77.7915 84.4629L76.6954 85.6213" stroke="#263238" stroke-width="0.0795578" stroke-miterlimit="10"/>
<path d="M96.5202 64.7109L79.1185 83.0657" stroke="#263238" stroke-width="0.0795578" stroke-miterlimit="10"/>
<path d="M97.6052 67.6982L87.8285 77.7462" stroke="#263238" stroke-width="0.0795578" stroke-miterlimit="10"/>
<path d="M67.6739 46.7881H88.1805C89.9791 46.7881 91.7041 47.5026 92.9759 48.7744C94.2478 50.0462 94.9623 51.7712 94.9623 53.5698V112.776H60.8922V53.5662C60.8931 51.7682 61.6081 50.0442 62.8798 48.7731C64.1515 47.5021 65.8759 46.7881 67.6739 46.7881Z" fill="#263238" stroke="#263238" stroke-width="0.0795578" stroke-linecap="round" stroke-linejoin="round"/>
<path d="M98.98 147.422L80.9845 142.129V136.238H79.9691V114.488H76.7725V136.238H75.757V141.971L57.7615 147.422V148.283H58.0035C57.8646 148.537 57.7927 148.823 57.7945 149.112C57.7934 149.416 57.8715 149.715 58.0212 149.98C58.1708 150.245 58.3868 150.466 58.648 150.623C58.9091 150.779 59.2064 150.864 59.5106 150.87C59.8147 150.877 60.1153 150.804 60.3826 150.658C60.65 150.513 60.875 150.301 61.0355 150.043C61.1959 149.784 61.2863 149.488 61.2978 149.184C61.3093 148.88 61.2414 148.579 61.1008 148.309C60.9603 148.039 60.7519 147.81 60.4962 147.646L60.5329 147.609L77.0291 145.626V148.001C76.8179 148.258 76.684 148.569 76.6429 148.898C76.6019 149.228 76.6553 149.563 76.7971 149.863C76.9389 150.163 77.1631 150.417 77.4437 150.595C77.7243 150.773 78.0496 150.867 78.3818 150.867C78.7139 150.867 79.0393 150.773 79.3198 150.595C79.6004 150.417 79.8246 150.163 79.9664 149.863C80.1082 149.563 80.1616 149.228 80.1206 148.898C80.0795 148.569 79.9456 148.258 79.7344 148.001V145.626L96.194 147.605C95.898 147.78 95.6598 148.037 95.5091 148.346C95.3583 148.655 95.3017 149.001 95.3461 149.342C95.3905 149.682 95.5341 150.002 95.759 150.262C95.9839 150.522 96.2802 150.71 96.611 150.802C96.9418 150.895 97.2925 150.888 97.6196 150.783C97.9467 150.678 98.2357 150.479 98.4506 150.211C98.6655 149.943 98.7969 149.618 98.8285 149.276C98.86 148.934 98.7904 148.59 98.6281 148.287H98.9946L98.98 147.422Z" fill="#263238" stroke="#263238" stroke-width="0.0795578" stroke-linecap="round" stroke-linejoin="round"/>
<path d="M93.9065 112.74H62.5784C61.1046 112.74 59.9097 113.935 59.9097 115.409V118.096C59.9097 119.57 61.1046 120.765 62.5784 120.765H93.9065C95.3804 120.765 96.5752 119.57 96.5752 118.096V115.409C96.5752 113.935 95.3804 112.74 93.9065 112.74Z" fill="white" stroke="#263238" stroke-width="0.0795578" stroke-linecap="round" stroke-linejoin="round"/>
<path d="M91.2817 99.7266H65.8153V113.888H91.2817V99.7266Z" fill="white" stroke="#263238" stroke-width="0.0795578" stroke-linecap="round" stroke-linejoin="round"/>
<path d="M76.2152 58.9697L72.3148 60.4984C72.3148 60.4984 73.7262 69.2633 75.6141 73.787C77.502 78.3106 84.379 85.4919 84.379 85.4919C84.379 85.4919 87.9422 80.2901 89.1849 76.1624C90.4276 72.0347 89.1299 60.4397 89.1299 60.4397C88.2407 59.922 87.262 59.5763 86.2449 59.4206C84.4743 59.1384 76.2152 58.9697 76.2152 58.9697Z" fill="white" stroke="#263238" stroke-width="0.0795578" stroke-linecap="round" stroke-linejoin="round"/>
<path d="M80.0057 65.1356L81.8093 68.5998L78.818 75.202L83.6239 82.4383L86.5639 75.8215L83.0007 68.4715L84.8666 65.2456L82.2089 62.5879L80.0057 65.1356Z" fill="#263238" stroke="#263238" stroke-width="0.0795578" stroke-linecap="round" stroke-linejoin="round"/>
<path d="M76.7835 58.5742L75.5371 58.9151L74.3494 61.0047L77.282 69.3187L82.0916 64.3442L87.3483 69.7146C87.3483 69.7146 87.9715 61.3456 87.9715 60.3851C87.9715 59.4247 87.1247 59.0838 86.5052 58.9188C85.8857 58.7538 76.7835 58.5742 76.7835 58.5742Z" fill="white" stroke="#263238" stroke-width="0.0795578" stroke-linecap="round" stroke-linejoin="round"/>
<path d="M75.5371 58.915C75.5371 58.915 76.0759 66.4336 79.2029 73.0504C80.8195 76.4596 83.8401 81.2509 83.8401 81.0822C83.8401 80.9136 86.8351 72.035 86.9488 69.0364C87.0624 66.0377 87.6269 59.6482 87.6269 59.6482C87.6269 59.6482 93.4263 61.9577 94.8119 62.7605C96.9601 64.0032 99.6728 64.2855 99.6178 65.7555C99.5958 66.2907 99.9624 69.7879 100.428 74.0512C100.501 74.7294 104.141 80.547 104.218 81.2509C104.999 88.3516 102.349 91.3429 102.217 91.3759C101.993 91.4308 97.2974 91.3759 97.2974 91.3759C97.2974 91.3759 99.8451 102.967 100.23 103.59L100.626 104.21H80.4236L79.5805 101.666L78.829 104.21H58.0621L60.8335 91.5995H57.7799C57.7799 91.5995 56.988 90.0158 58.0621 84.0772C59.1362 78.1386 62.758 63.2664 62.758 62.7605C62.758 62.2546 74.3493 60.1578 75.5371 58.915Z" fill="#ED7600" stroke="#263238" stroke-width="0.0795578" stroke-linecap="round" stroke-linejoin="round"/>
<path d="M79.8554 88.2959L79.5805 101.665" stroke="#263238" stroke-width="0.0795578" stroke-linecap="round" stroke-linejoin="round"/>
<path d="M87.6379 83.2303C90.9775 80.1217 92.4475 73.9008 92.4475 73.9008L89.4488 72.5994L92.3338 71.1844L89.8411 60.5535C88.4297 59.3365 87.6013 59.3695 87.6416 59.6371C87.6416 59.6371 87.077 66.0266 86.9634 69.0252C86.8498 72.0239 83.8475 80.9135 83.8475 81.0821C83.8475 81.2507 80.5226 76.5878 79.2102 73.0503C76.1529 64.8169 75.5664 59.8534 75.4784 58.9039C75.4774 58.8882 75.4723 58.873 75.4635 58.86C75.4546 58.8469 75.4425 58.8365 75.4283 58.8298C75.414 58.823 75.3982 58.8202 75.3826 58.8217C75.3669 58.8231 75.3519 58.8287 75.3391 58.8379C74.9175 59.0872 73.8728 59.2925 73.1396 59.9377C72.9343 61.404 72.6704 63.5302 72.4871 65.869C72.1498 70.224 72.1498 72.1448 72.1498 72.1448L76.0503 73.109L73.2789 74.6926C73.2789 74.6926 76.3325 77.8012 78.8766 80.1217C81.4207 82.4421 83.1143 83.2853 83.1143 83.2853L79.8554 88.2964C79.8554 88.2964 84.302 86.3426 87.6379 83.2303Z" fill="#ED7600" stroke="#263238" stroke-width="0.0795578" stroke-linecap="round" stroke-linejoin="round"/>
<path d="M76.2153 54.8418V59.7063C76.2153 59.7063 77.4617 63.7754 81.8716 64.0577C86.5089 64.3583 87.3007 59.875 87.3007 59.875V55.575C87.3007 55.575 78.7154 57.6681 76.2153 54.8418Z" fill="white" stroke="#263238" stroke-width="0.0795578" stroke-linecap="round" stroke-linejoin="round"/>
<path d="M88.3747 48.2805C88.3747 48.2805 88.5434 46.0811 89.8997 46.0811C91.2561 46.0811 91.2597 48.6251 90.9188 49.6442C90.5779 50.6633 88.8256 51.3965 88.2611 50.6047" fill="white"/>
<path d="M88.3747 48.2805C88.3747 48.2805 88.5434 46.0811 89.8997 46.0811C91.2561 46.0811 91.2597 48.6251 90.9188 49.6442C90.5779 50.6633 88.8256 51.3965 88.2611 50.6047" stroke="#263238" stroke-width="0.0795578" stroke-linecap="round" stroke-linejoin="round"/>
<path d="M82.7477 37.2717C82.7477 37.2717 77.7512 37.0885 76.0246 38.3715C74.298 39.6545 74.6609 43.0967 74.6609 44.1855C74.6609 45.2742 75.4784 54.6331 76.0246 55.9967C76.5708 57.3604 80.5482 59.4353 84.0161 58.6361C87.484 57.837 88.558 55.3662 88.7377 54.0942C88.9173 52.8221 88.921 43.0967 88.7377 40.56C88.5544 38.0232 85.1965 37.543 82.7477 37.2717Z" fill="white" stroke="#263238" stroke-width="0.0795578" stroke-linecap="round" stroke-linejoin="round"/>
<path d="M88.789 41.5534C88.789 41.1502 88.7597 40.8203 88.7377 40.5417C88.5581 37.9976 85.1965 37.543 82.7441 37.2717C82.7441 37.2717 77.7476 37.0885 76.021 38.3715C74.2944 39.6545 74.6573 43.0967 74.6573 44.1855C74.6573 44.6217 74.7893 46.385 74.9835 48.4232C75.071 48.4725 75.1687 48.5007 75.269 48.5056C75.3693 48.5105 75.4694 48.4919 75.5612 48.4513C75.653 48.4107 75.7341 48.3493 75.798 48.2718C75.8619 48.1944 75.9069 48.1031 75.9293 48.0053C76.2959 47.0045 75.7497 46.099 76.2043 44.827C76.6588 43.555 76.8384 42.7375 77.9309 42.0996C78.6156 41.7072 79.3473 41.403 80.1084 41.1942C80.1084 41.1942 77.8392 43.8262 82.8357 43.7346C86.08 43.6613 87.9092 42.9868 88.789 41.5534Z" fill="#263238" stroke="#263238" stroke-width="0.0795578" stroke-linecap="round" stroke-linejoin="round"/>
<path d="M83.7375 46.1904C83.7375 46.1904 84.5843 50.2045 83.7925 50.5894C83.0007 50.9743 82.4948 51.099 81.813 49.7426" stroke="#263238" stroke-width="0.0795578" stroke-linecap="round" stroke-linejoin="round"/>
<path d="M79.3276 50.542C79.3276 50.542 79.1553 52.4116 82.9457 52.1256" stroke="#263238" stroke-width="0.0795578" stroke-linecap="round" stroke-linejoin="round"/>
<path d="M80.5153 46.2749C80.5153 46.6635 80.3503 46.9824 80.1487 46.9824C79.9471 46.9824 79.7821 46.6635 79.7821 46.2749C79.7821 45.8863 79.9471 45.5674 80.1487 45.5674C80.3503 45.5674 80.5153 45.8826 80.5153 46.2749Z" fill="#263238"/>
<path d="M86.1973 46.2749C86.1973 46.6635 86.0323 46.9824 85.8307 46.9824C85.6291 46.9824 85.4641 46.6635 85.4641 46.2749C85.4641 45.8863 85.6291 45.5674 85.8307 45.5674C86.0323 45.5674 86.1973 45.8826 86.1973 46.2749Z" fill="#263238"/>
<path d="M81.3804 47.9429H78.3085C78.1493 47.9423 77.9954 47.8864 77.873 47.7848C77.7506 47.6831 77.6674 47.542 77.6376 47.3857L77.2344 45.2266H82.3225L82.0586 47.3454C82.0372 47.5103 81.9567 47.6618 81.8319 47.7718C81.7072 47.8817 81.5467 47.9425 81.3804 47.9429Z" stroke="#263238" stroke-width="0.159116" stroke-linecap="round" stroke-linejoin="round"/>
<path d="M87.9422 47.9429H84.8702C84.7109 47.943 84.5566 47.8874 84.4341 47.7856C84.3115 47.6838 84.2285 47.5423 84.1994 47.3857L83.7925 45.2266H88.8843L88.613 47.3454C88.5919 47.5091 88.5124 47.6596 88.3891 47.7694C88.2659 47.8791 88.1072 47.9408 87.9422 47.9429Z" stroke="#263238" stroke-width="0.159116" stroke-linecap="round" stroke-linejoin="round"/>
<path d="M82.3225 45.2266H83.7925" stroke="#263238" stroke-width="0.159116" stroke-linecap="round" stroke-linejoin="round"/>
<path d="M77.2343 45.2266L74.8039 46.3006" stroke="#263238" stroke-width="0.159116" stroke-linecap="round" stroke-linejoin="round"/>
<path d="M75.3685 48.2805C75.3685 48.2805 75.1999 46.0811 73.8398 46.0811C72.4798 46.0811 72.4835 48.6251 72.8244 49.6442C73.1653 50.6633 74.9139 51.3965 75.4821 50.6047" fill="white"/>
<path d="M75.3685 48.2805C75.3685 48.2805 75.1999 46.0811 73.8398 46.0811C72.4798 46.0811 72.4835 48.6251 72.8244 49.6442C73.1653 50.6633 74.9139 51.3965 75.4821 50.6047" stroke="#263238" stroke-width="0.0795578" stroke-linecap="round" stroke-linejoin="round"/>
<path d="M90.0134 76.4999C89.2486 75.7782 88.3164 75.258 87.3007 74.9859C86.9721 74.8725 86.6202 74.8448 86.2779 74.9052C85.8234 74.9052 83.5689 74.0914 83.0043 73.9228C82.4398 73.7542 82.0989 74.3187 82.2712 74.9419C82.4435 75.5651 83.6495 76.0929 84.1041 76.2066C84.5586 76.3202 84.3644 76.3312 84.3644 76.3312C84.3644 76.3312 85.0975 78.1421 84.7603 78.8203C84.423 79.4985 83.2316 81.0198 83.6275 82.1012C84.0234 83.1826 84.6466 83.7398 85.8893 83.7398C87.1321 83.7398 87.8689 83.7948 88.1511 83.7398C88.4334 83.6849 93.4666 86.1703 92.9167 86.2289C92.3668 86.2876 92.6894 81.1958 92.6894 81.1958L90.0134 76.4999Z" fill="white" stroke="#263238" stroke-width="0.0795578" stroke-linecap="round" stroke-linejoin="round"/>
<path d="M78.5907 79.4979C78.5907 79.4979 81.2484 78.1965 82.5498 76.8952C83.8511 75.5938 84.302 75.2565 84.7493 75.1429C85.1965 75.0293 87.0111 74.5197 87.462 74.1238C87.9129 73.7279 88.2538 74.4647 87.5756 75.0293C87.0798 75.4324 86.5499 75.7917 85.992 76.1033C85.7097 76.2756 85.4274 77.0674 85.4274 77.0674C85.4274 77.0674 88.1988 75.8797 89.1592 76.162C90.1197 76.4443 91.0728 77.3021 91.0141 77.8079C90.9555 78.3138 90.7795 78.0719 90.1563 78.0132C89.5332 77.9546 88.6497 77.687 87.9569 77.9692C87.264 78.2515 86.4905 78.9333 86.4905 79.2156C86.4905 79.4979 87.2824 79.6665 87.9055 79.6115C88.5287 79.5565 88.9796 79.3842 89.5991 79.4979C90.2187 79.6115 90.7319 79.9488 90.7869 80.2897C90.8419 80.6306 90.5633 80.627 89.8814 80.6856C89.1996 80.7443 88.0155 80.7992 87.6196 81.0815C87.2237 81.3638 85.1892 82.3242 85.5301 82.6652C85.871 83.0061 86.0726 83.0061 86.7508 83.0061C87.429 83.0061 88.1548 82.4855 88.5507 82.5149C89.0823 82.5552 89.3682 82.5955 89.3682 82.5955C89.3682 82.5955 90.3103 82.6358 90.226 83.0061C90.094 83.5999 89.7788 83.6183 88.4114 83.6806C87.341 83.7319 87.0551 83.6256 86.0946 83.8529C85.271 84.118 84.4151 84.2696 83.5505 84.3038C81.9083 84.4174 78.9683 83.6256 78.9683 83.6256L78.5907 79.4979Z" fill="white" stroke="#263238" stroke-width="0.0795578" stroke-linecap="round" stroke-linejoin="round"/>
<path d="M89.2619 75.8072C89.2619 75.8072 88.1182 74.7405 87.462 74.7075C86.8058 74.6745 84.8043 76.4268 84.5294 77.0829C84.2544 77.7391 84.8959 77.4898 85.4275 77.3286C85.959 77.1673 87.3924 76.5074 87.8836 76.3058C88.285 76.108 88.7439 76.06 89.1776 76.1702" fill="white"/>
<path d="M89.2619 75.8072C89.2619 75.8072 88.1182 74.7405 87.462 74.7075C86.8058 74.6745 84.8043 76.4268 84.5294 77.0829C84.2544 77.7391 84.8959 77.4898 85.4275 77.3286C85.959 77.1673 87.3924 76.5074 87.8836 76.3058C88.285 76.108 88.7439 76.06 89.1776 76.1702" stroke="#263238" stroke-width="0.0795578" stroke-linecap="round" stroke-linejoin="round"/>
<path d="M90.7355 78.138C90.7355 78.138 89.1006 77.3205 88.0778 77.7714C87.0551 78.2223 85.7867 79.1241 85.7867 79.531C85.7867 79.9379 85.992 79.8609 86.8864 79.8169C87.7809 79.7729 89.3975 79.5127 89.6138 79.5017C89.9377 79.5389 90.2578 79.6039 90.5706 79.696" fill="white"/>
<path d="M90.7355 78.138C90.7355 78.138 89.1006 77.3205 88.0778 77.7714C87.0551 78.2223 85.7867 79.1241 85.7867 79.531C85.7867 79.9379 85.992 79.8609 86.8864 79.8169C87.7809 79.7729 89.3975 79.5127 89.6138 79.5017C89.9377 79.5389 90.2578 79.6039 90.5706 79.696" stroke="#263238" stroke-width="0.0795578" stroke-linecap="round" stroke-linejoin="round"/>
<path d="M67.7912 73.2222L66.3762 80.7994C66.3762 80.7994 78.6494 78.3653 79.1003 78.7062C79.5512 79.0471 79.9617 88.0394 79.9617 88.0394C79.9617 88.0394 64.1144 90.8071 62.2485 91.4303C60.3826 92.0535 58.458 92.1634 57.7799 91.5989C57.1017 91.0344 57.0467 89.6194 57.5526 86.8333C58.0585 84.0473 62.9267 63.8193 62.9267 63.8193" fill="#ED7600"/>
<path d="M67.7912 73.2222L66.3762 80.7994C66.3762 80.7994 78.6494 78.3653 79.1003 78.7062C79.5512 79.0471 79.9617 88.0394 79.9617 88.0394C79.9617 88.0394 64.1144 90.8071 62.2485 91.4303C60.3826 92.0535 58.458 92.1634 57.7799 91.5989C57.1017 91.0344 57.0467 89.6194 57.5526 86.8333C58.0585 84.0473 62.9267 63.8193 62.9267 63.8193" stroke="#263238" stroke-width="0.0795578" stroke-linecap="round" stroke-linejoin="round"/>
<path d="M96.2343 72.7129L96.7438 81.3642L92.6711 81.1956L92.2789 88.3659C92.2789 88.3659 103.504 90.9797 104.127 91.2986C104.75 91.6175 104.636 90.9613 105.369 89.8836C106.103 88.8058 106.73 86.4927 106.671 85.4846C106.612 84.4765 104.295 81.0856 104.24 81.2432" fill="#ED7600"/>
<path d="M96.2343 72.7129L96.7438 81.3642L92.6711 81.1956L92.2789 88.3659C92.2789 88.3659 103.504 90.9797 104.127 91.2986C104.75 91.6175 104.636 90.9613 105.369 89.8836C106.103 88.8058 106.73 86.4927 106.671 85.4846C106.612 84.4765 104.295 81.0856 104.24 81.2432" stroke="#263238" stroke-width="0.0795578" stroke-linecap="round" stroke-linejoin="round"/>
<path d="M96.7438 81.3643H100.534" stroke="#263238" stroke-width="0.0795578" stroke-linecap="round" stroke-linejoin="round"/>
<path d="M66.3762 80.7998L61.343 82.5521" stroke="#263238" stroke-width="0.0795578" stroke-linecap="round" stroke-linejoin="round"/>
<path d="M67.5786 142.11C67.5786 142.11 66.7574 145.641 65.61 146.876C64.4626 148.111 63.4105 148.929 63.4765 149.911L63.5572 150.897H75.3684V147.935C75.3684 146.213 74.6353 143.17 74.6353 141.949C74.6353 140.728 67.2523 142.03 67.2523 142.03" fill="#263238"/>
<path d="M67.5786 142.11C67.5786 142.11 66.7574 145.641 65.61 146.876C64.4626 148.111 63.4105 148.929 63.4765 149.911L63.5572 150.897H75.3684V147.935C75.3684 146.213 74.6353 143.17 74.6353 141.949C74.6353 140.728 67.2523 142.03 67.2523 142.03" stroke="#263238" stroke-width="0.0795578" stroke-linecap="round" stroke-linejoin="round"/>
<path d="M63.7588 148.922C63.5582 149.209 63.4589 149.555 63.4766 149.904L63.5572 150.89H75.3685V148.922H63.7588Z" fill="#586166" stroke="#263238" stroke-width="0.0795578" stroke-linecap="round" stroke-linejoin="round"/>
<path d="M77.8319 110.779C77.8319 110.779 78.9793 103.48 77.0107 100.119C75.0422 96.757 68.1505 96.6727 64.2977 98.9675C60.4449 101.262 58.9456 105.027 60.3386 109.866C61.7316 114.705 64.9539 114.8 64.9539 114.8C64.9539 114.8 64.1327 121.443 64.1327 124.067C64.1327 126.692 66.9224 143.016 66.9224 143.016H75.0495C75.0495 143.016 77.6669 114.225 77.8319 110.779Z" fill="#586166" stroke="#263238" stroke-width="0.0795578" stroke-linecap="round" stroke-linejoin="round"/>
<path d="M64.9539 114.8L65.7713 108.073" stroke="#263238" stroke-width="0.0795578" stroke-linecap="round" stroke-linejoin="round"/>
<path d="M91.454 142.11C91.454 142.11 92.2752 145.641 93.4226 146.876C94.57 148.111 95.6221 148.929 95.5561 149.911L95.4754 150.897H83.6642V147.935C83.6642 146.213 84.3973 143.17 84.3973 141.949C84.3973 140.728 91.7803 142.03 91.7803 142.03" fill="#263238"/>
<path d="M91.454 142.11C91.454 142.11 92.2752 145.641 93.4226 146.876C94.57 148.111 95.6221 148.929 95.5561 149.911L95.4754 150.897H83.6642V147.935C83.6642 146.213 84.3973 143.17 84.3973 141.949C84.3973 140.728 91.7803 142.03 91.7803 142.03" stroke="#263238" stroke-width="0.0795578" stroke-linecap="round" stroke-linejoin="round"/>
<path d="M95.2702 148.922C95.4718 149.209 95.5724 149.554 95.5561 149.904L95.4754 150.89H83.6642V148.922H95.2702Z" fill="#586166" stroke="#263238" stroke-width="0.0795578" stroke-linecap="round" stroke-linejoin="round"/>
<path d="M81.2008 110.779C81.2008 110.779 80.0534 103.48 82.0219 100.119C83.9905 96.757 90.8822 96.6727 94.735 98.9675C98.5878 101.262 100.12 105.027 98.7234 109.866C97.3267 114.705 94.0788 114.8 94.0788 114.8C94.0788 114.8 94.8999 121.443 94.8999 124.067C94.8999 126.692 92.1103 143.016 92.1103 143.016H83.9905C83.9905 143.016 81.3657 114.225 81.2008 110.779Z" fill="#586166" stroke="#263238" stroke-width="0.0795578" stroke-linecap="round" stroke-linejoin="round"/>
<path d="M94.0788 114.8L93.2576 108.073" stroke="#263238" stroke-width="0.0795578" stroke-linecap="round" stroke-linejoin="round"/>
<path d="M98.0048 23.873H114.23C114.689 23.873 115.129 24.0553 115.453 24.3798C115.778 24.7043 115.96 25.1444 115.96 25.6033V33.1329C115.96 33.5918 115.778 34.0319 115.453 34.3564C115.129 34.6809 114.689 34.8632 114.23 34.8632H109.358L110.63 38.309L106.623 34.8632H98.0048C97.7776 34.8632 97.5526 34.8184 97.3427 34.7315C97.1327 34.6445 96.942 34.5171 96.7813 34.3564C96.6207 34.1957 96.4932 34.005 96.4062 33.795C96.3193 33.5851 96.2745 33.3601 96.2745 33.1329V25.6033C96.2745 25.3761 96.3193 25.1511 96.4062 24.9412C96.4932 24.7312 96.6207 24.5405 96.7813 24.3798C96.942 24.2192 97.1327 24.0917 97.3427 24.0048C97.5526 23.9178 97.7776 23.873 98.0048 23.873Z" fill="#263238" stroke="#263238" stroke-width="0.0795578" stroke-linecap="round" stroke-linejoin="round"/>
<path d="M110.179 30.1049C110.699 30.1049 111.121 29.6831 111.121 29.1628C111.121 28.6425 110.699 28.2207 110.179 28.2207C109.659 28.2207 109.237 28.6425 109.237 29.1628C109.237 29.6831 109.659 30.1049 110.179 30.1049Z" fill="#ED7600"/>
<path d="M105.666 30.1049C106.187 30.1049 106.608 29.6831 106.608 29.1628C106.608 28.6425 106.187 28.2207 105.666 28.2207C105.146 28.2207 104.724 28.6425 104.724 29.1628C104.724 29.6831 105.146 30.1049 105.666 30.1049Z" fill="#ED7600"/>
<path d="M101.157 30.1049C101.678 30.1049 102.1 29.6831 102.1 29.1628C102.1 28.6425 101.678 28.2207 101.157 28.2207C100.637 28.2207 100.215 28.6425 100.215 29.1628C100.215 29.6831 100.637 30.1049 101.157 30.1049Z" fill="#ED7600"/>
<path d="M34.9711 85.1396L32.1228 91.1553H40.1986L43.0469 85.4329L34.9711 85.1396Z" fill="#263238" stroke="#263238" stroke-width="0.0795578" stroke-linecap="round" stroke-linejoin="round"/>
<path d="M52.7027 85.1396H34.9711L37.8231 91.1553H55.551L52.7027 85.1396Z" fill="white" stroke="#263238" stroke-width="0.0795578" stroke-linecap="round" stroke-linejoin="round"/>
<path d="M21.1913 99.4404H17.1956V150.868H21.1913V99.4404Z" fill="#A3A3A3" stroke="#263238" stroke-width="0.0795578" stroke-linecap="round" stroke-linejoin="round"/>
<path d="M149.092 99.5723H145.096V151H149.092V99.5723Z" fill="#A3A3A3" stroke="#263238" stroke-width="0.0795578" stroke-linecap="round" stroke-linejoin="round"/>
<path d="M150.848 90.9902H16.3268V140.556H150.848V90.9902Z" fill="#A3A3A3" stroke="#263238" stroke-width="0.0795578" stroke-linecap="round" stroke-linejoin="round"/>
<path d="M150.848 90.9902H16.3268V96.148H150.848V90.9902Z" fill="#263238" stroke="#263238" stroke-width="0.0795578" stroke-linecap="round" stroke-linejoin="round"/>
<path d="M154.275 90.9902H12.9029V94.0658H154.275V90.9902Z" fill="white" stroke="#263238" stroke-width="0.0795578" stroke-linecap="round" stroke-linejoin="round"/>
<path d="M18.4823 136.403C18.4823 136.403 9.40208 117.062 11.378 116.501C13.3538 115.94 17.4962 119.023 17.4962 119.023C17.4962 119.023 5.34769 86.4963 8.4893 83.9889C11.6309 81.4815 17.4962 94.3595 17.4962 94.3595C17.4962 94.3595 11.2313 74.4578 11.9682 66.8878C12.705 59.3179 20.6635 66.6092 20.6635 66.6092C20.6635 66.6092 14.2886 39.4199 20.2052 38.0159C26.1219 36.6119 25.9276 69.1313 25.9276 69.1313C25.9276 69.1313 27.8705 45.868 30.2423 52.3126C32.614 58.7571 27.6285 80.3451 27.6285 80.3451C27.6285 80.3451 30.8801 73.0574 32.6874 79.7842C34.4946 86.511 29.0949 113.697 29.0949 113.697C29.0949 113.697 33.6845 109.213 34.1134 114.818C34.5423 120.423 24.6152 137.818 24.6152 137.818L18.9992 138.364L18.4823 136.403Z" fill="#ED7600"/>
<path opacity="0.6" d="M18.4823 136.403C18.4823 136.403 9.40208 117.062 11.378 116.501C13.3538 115.94 17.4962 119.023 17.4962 119.023C17.4962 119.023 5.34769 86.4963 8.4893 83.9889C11.6309 81.4815 17.4962 94.3595 17.4962 94.3595C17.4962 94.3595 11.2313 74.4578 11.9682 66.8878C12.705 59.3179 20.6635 66.6092 20.6635 66.6092C20.6635 66.6092 14.2886 39.4199 20.2052 38.0159C26.1219 36.6119 25.9276 69.1313 25.9276 69.1313C25.9276 69.1313 27.8705 45.868 30.2423 52.3126C32.614 58.7571 27.6285 80.3451 27.6285 80.3451C27.6285 80.3451 30.8801 73.0574 32.6874 79.7842C34.4946 86.511 29.0949 113.697 29.0949 113.697C29.0949 113.697 33.6845 109.213 34.1134 114.818C34.5423 120.423 24.6152 137.818 24.6152 137.818L18.9992 138.364L18.4823 136.403Z" fill="white"/>
<path d="M20.4288 137.242C20.4288 137.242 12.8589 123.788 14.2629 121.266C15.6669 118.744 19.8606 124.621 19.8606 124.621C19.8606 124.621 10.3295 100.793 11.7335 98.5566C13.1375 96.3204 17.5988 106.123 17.5988 106.123C17.5988 106.123 15.9199 73.3284 18.7206 74.4501C21.5212 75.5719 21.8218 91.2616 21.8218 91.2616C21.8218 91.2616 20.1392 53.9802 22.665 55.102C25.1907 56.2237 24.9048 97.7061 24.9048 97.7061C24.9048 97.7061 29.96 81.7305 30.7921 89.0328C31.6242 96.3351 24.3439 115.94 24.3439 115.94C24.3439 115.94 31.353 100.525 32.1924 108.652C33.0319 116.779 26.5874 131.915 26.5874 131.915C26.5874 131.915 29.1095 125.75 29.1095 129.115C29.1095 132.48 27.1483 136.681 27.1483 136.681" stroke="#263238" stroke-width="0.0795578" stroke-linecap="round" stroke-linejoin="round"/>
<path d="M30.6528 137.136H14.6295V151H30.6528V137.136Z" fill="#263238" stroke="#263238" stroke-width="0.0795578" stroke-miterlimit="10"/>
<path d="M118.596 43.3054C118.596 43.3054 116.953 46.0145 116.708 47.2425C116.462 48.4706 116.873 48.9654 116.543 49.8672C116.213 50.769 114.824 50.7727 114.824 51.6745C114.824 52.5763 115.806 53.3974 116.136 53.643C116.466 53.8886 115.887 54.9554 116.462 56.5134C117.038 58.0713 117.283 60.0399 118.266 60.0399C119.283 59.9862 120.296 59.8761 121.301 59.71L121.792 62.7049L128.57 62.0891C128.57 62.0891 128.49 59.1564 130.293 57.9064C132.097 56.6563 135.667 49.6216 133.534 45.0284C131.4 40.4351 122.449 39.5333 118.596 43.3054Z" fill="white" stroke="#263238" stroke-width="0.0795578" stroke-linecap="round" stroke-linejoin="round"/>
<path d="M116.349 39.9039C116.126 40.6247 116.037 41.3799 116.085 42.1327C116.186 43.5799 116.637 44.981 117.397 46.2164C118.233 47.5984 120.234 48.4782 120.729 49.9519C120.891 50.4431 121.301 51.7555 122.448 52.0854C123.596 52.4153 123.354 52.4117 123.024 54.6258C122.694 56.84 123.68 59.0541 125.649 59.6297C126.576 59.8988 127.555 59.9349 128.5 59.7348C129.444 59.5346 130.325 59.1044 131.063 58.4822C132.621 57.2505 135.572 52.166 135.656 47.5728C135.799 39.4457 127.79 35.4756 120.564 36.4653C119.601 36.5608 118.688 36.9379 117.938 37.5494C117.189 38.161 116.636 38.9799 116.349 39.9039Z" fill="#263238" stroke="#263238" stroke-width="0.0795578" stroke-linecap="round" stroke-linejoin="round"/>
<path d="M125.037 60.6051C123.943 60.623 122.866 60.8729 121.877 61.3382C120.96 61.8221 117.775 64.8647 116.953 65.3706C116.132 65.8765 114.574 65.6162 115.487 66.0268C116.4 66.4374 117.045 66.518 118.603 65.9462C120.161 65.3743 123.442 64.2232 124.424 64.2232C125.407 64.2232 129.018 64.7145 129.348 64.7988C129.677 64.8831 131.807 65.8619 131.807 65.8619C131.807 65.8619 130.741 63.5671 129.513 62.4197C128.284 61.2723 126.759 60.5208 125.037 60.6051Z" fill="white" stroke="#263238" stroke-width="0.0795578" stroke-linecap="round" stroke-linejoin="round"/>
<path d="M122.372 50.3992C122.198 50.4684 122.052 50.5935 121.957 50.7548C121.862 50.9161 121.823 51.1044 121.847 51.29C121.987 52.372 121.968 53.4685 121.792 54.5452C121.466 55.9382 123.207 55.9382 123.589 53.6544C123.838 52.1441 123.266 50.0802 122.372 50.3992Z" fill="white" stroke="#263238" stroke-width="0.0795578" stroke-linecap="round" stroke-linejoin="round"/>
<path d="M108.669 69.3076C108.669 69.3076 107.686 69.7988 107.606 72.178C107.525 74.5571 103.419 91.2915 103.174 93.9162C102.928 96.541 104.325 98.2602 106.7 99.1657C109.076 100.071 113.592 101.541 114.398 101.134C115.205 100.727 116.777 92.274 117.349 88.5825C117.921 84.891 111.033 72.0863 110.707 71.6061C110.381 71.1259 109.244 69.3919 108.669 69.3076Z" fill="white" stroke="#263238" stroke-width="0.0795578" stroke-linecap="round" stroke-linejoin="round"/>
<path d="M114.002 88.9121L109.49 95.6389" stroke="#263238" stroke-width="0.0795578" stroke-linecap="round" stroke-linejoin="round"/>
<path d="M122.705 118.774L128.402 150.3C128.42 150.398 128.459 150.492 128.516 150.574C128.573 150.657 128.647 150.726 128.733 150.778C128.819 150.829 128.915 150.862 129.015 150.874C129.114 150.886 129.215 150.876 129.311 150.846C129.468 150.794 129.602 150.69 129.691 150.55C129.779 150.41 129.816 150.244 129.795 150.08L125.59 118.092L122.705 118.774Z" fill="white" stroke="#263238" stroke-width="0.0795578" stroke-linecap="round" stroke-linejoin="round"/>
<path d="M116.382 111.885C116.382 111.885 114.248 140.673 114.248 141.494C114.248 142.315 112.049 150.926 112.049 150.926H117.94C117.94 150.926 118.511 149.779 118.511 147.4C118.511 145.021 118.761 139.936 118.761 139.445C118.761 138.954 125.323 113.524 125.323 113.524C125.323 113.524 124.993 110.98 121.792 109.492C118.592 108.003 116.873 111.229 116.382 111.885Z" fill="white" stroke="#263238" stroke-width="0.0795578" stroke-linecap="round" stroke-linejoin="round"/>
<path d="M118.511 147.4C118.511 145.226 118.717 140.802 118.753 139.673C116.022 138.14 114.329 140.182 114.329 140.182C114.281 140.915 114.252 141.392 114.252 141.487C114.252 142.308 112.052 150.919 112.052 150.919H117.94C117.94 150.919 118.511 149.779 118.511 147.4Z" fill="#263238" stroke="#263238" stroke-width="0.0795578" stroke-linecap="round" stroke-linejoin="round"/>
<path d="M117.94 150.927C117.94 150.927 118.511 149.78 118.511 147.401C118.511 146.517 118.548 145.256 118.588 143.999C118.02 143.335 116.792 142.32 115.48 143.874C114.904 144.552 113.39 148.834 112.668 150.927H117.94Z" fill="#4F4F4F" stroke="#263238" stroke-width="0.0795578" stroke-linecap="round" stroke-linejoin="round"/>
<path d="M115.48 143.874L115.971 150.927H117.437L118.673 143.709C118.673 143.709 117.038 141.74 115.48 143.874Z" fill="#263238" stroke="#263238" stroke-width="0.0795578" stroke-linecap="round" stroke-linejoin="round"/>
<path d="M104.405 108.125C104.405 108.125 101.861 110.914 101.616 113.293C101.37 115.673 110.146 140.853 110.146 140.853C109.929 141.911 109.45 142.898 108.753 143.723C107.521 145.281 105.798 147.496 105.553 148.973C105.307 150.45 105.553 150.941 105.553 150.941H111.378C111.378 150.941 113.427 145.692 114.248 144.38C115.069 143.067 114.574 140.523 114.329 139.376C114.083 138.228 111.869 111.735 111.869 111.735C111.869 111.735 110.146 106.141 104.405 108.125Z" fill="white" stroke="#263238" stroke-width="0.0795578" stroke-linecap="round" stroke-linejoin="round"/>
<path d="M114.248 144.365C114.959 143.225 114.684 141.161 114.435 139.885C114.129 139.63 113.767 139.45 113.379 139.359C112.991 139.268 112.587 139.268 112.199 139.361C110.476 139.771 110.146 140.827 110.146 140.827C109.929 141.885 109.45 142.872 108.753 143.697C107.521 145.255 105.798 147.47 105.553 148.947C105.307 150.424 105.553 150.915 105.553 150.915H111.378C111.378 150.915 113.427 145.677 114.248 144.365Z" fill="#263238" stroke="#263238" stroke-width="0.0795578" stroke-linecap="round" stroke-linejoin="round"/>
<path d="M108.383 150.927H111.378C111.378 150.927 113.211 146.256 114.098 144.625C113.658 144.222 112.327 143.192 111.048 144.2C109.49 145.432 109.325 148.467 108.918 149.614C108.724 150.153 108.529 150.6 108.383 150.927Z" fill="#4F4F4F" stroke="#263238" stroke-width="0.0795578" stroke-linecap="round" stroke-linejoin="round"/>
<path d="M111.048 144.2L111.378 150.927H112.441L114.244 144.365C114.244 144.365 112.606 142.726 111.048 144.2Z" fill="#263238" stroke="#263238" stroke-width="0.0795578" stroke-linecap="round" stroke-linejoin="round"/>
<path d="M111.026 80.4258C112.39 85.0301 113.614 93.6631 113.614 94.4695C113.614 95.9359 109.325 104.415 109.325 104.415C109.325 104.415 104.559 106.875 103.419 108.598C102.89 109.359 102.58 110.251 102.522 111.177C102.465 112.102 102.662 113.026 103.093 113.847C103.914 115.486 105.142 116.226 107.859 116.717C110.575 117.209 135.744 116.717 135.744 116.717C135.744 116.717 138.369 113.517 137.137 108.433C136.566 106.065 135.942 104.008 135.253 101.134C135.253 101.134 137.959 101.215 139.927 99.5724C141.896 97.9301 141.98 95.3897 141.98 93.5054C141.98 91.6212 140.741 75.8655 140.741 74.3112C140.741 72.7569 140.668 70.7847 139.201 69.6336C137.735 68.4826 134.26 66.701 131.137 65.044C128.68 63.75 126.873 63.9773 124.905 63.9773C122.936 63.9773 120.557 65.4436 120.557 65.4436C120.557 65.4436 109.647 68.3139 108.826 68.8052C108.005 69.2964 108.298 69.7949 108.599 71.6058" fill="white"/>
<path d="M111.026 80.4258C112.39 85.0301 113.614 93.6631 113.614 94.4695C113.614 95.9359 109.325 104.415 109.325 104.415C109.325 104.415 104.559 106.875 103.419 108.598C102.89 109.359 102.58 110.251 102.522 111.177C102.465 112.102 102.662 113.026 103.093 113.847C103.914 115.486 105.142 116.226 107.859 116.717C110.575 117.209 135.744 116.717 135.744 116.717C135.744 116.717 138.369 113.517 137.137 108.433C136.566 106.065 135.942 104.008 135.253 101.134C135.253 101.134 137.959 101.215 139.927 99.5724C141.896 97.9301 141.98 95.3897 141.98 93.5054C141.98 91.6212 140.741 75.8655 140.741 74.3112C140.741 72.7569 140.668 70.7847 139.201 69.6336C137.735 68.4826 134.26 66.701 131.137 65.044C128.68 63.75 126.873 63.9773 124.905 63.9773C122.936 63.9773 120.557 65.4436 120.557 65.4436C120.557 65.4436 109.647 68.3139 108.826 68.8052C108.005 69.2964 108.298 69.7949 108.599 71.6058" stroke="#263238" stroke-width="0.0795578" stroke-linecap="round" stroke-linejoin="round"/>
<path d="M136.558 73.9004C136.558 73.9004 133.2 93.4099 133.2 94.4766C133.2 95.5434 135.246 101.134 135.246 101.134" stroke="#263238" stroke-width="0.0795578" stroke-linecap="round" stroke-linejoin="round"/>
<path d="M113.438 95.2939C112.631 97.8857 109.325 104.415 109.325 104.415C109.325 104.415 104.559 106.874 103.419 108.597C102.89 109.359 102.58 110.251 102.522 111.176C102.465 112.102 102.662 113.025 103.093 113.847C103.914 115.485 105.142 116.226 107.859 116.717C110.575 117.208 135.744 116.717 135.744 116.717C135.744 116.717 138.369 113.517 137.137 108.432C136.566 106.064 135.942 104.008 135.253 101.134L133.2 95.2939H113.438Z" fill="#263238" stroke="#263238" stroke-width="0.0795578" stroke-miterlimit="10"/>
<path d="M106.374 118.44L102.133 150.205C102.119 150.304 102.128 150.405 102.157 150.501C102.186 150.597 102.236 150.686 102.302 150.761C102.368 150.837 102.45 150.897 102.542 150.938C102.633 150.979 102.732 151.001 102.833 151C102.997 151.001 103.157 150.944 103.284 150.839C103.411 150.733 103.496 150.587 103.526 150.425L109.325 118.686L106.374 118.44Z" fill="white" stroke="#263238" stroke-width="0.0795578" stroke-linecap="round" stroke-linejoin="round"/>
<path d="M134.436 118.44L138.677 150.205C138.69 150.304 138.682 150.405 138.653 150.501C138.623 150.597 138.574 150.686 138.508 150.761C138.441 150.837 138.36 150.897 138.268 150.938C138.177 150.979 138.077 151.001 137.977 151C137.812 151.001 137.652 150.944 137.526 150.839C137.399 150.733 137.313 150.587 137.284 150.425L131.503 118.686L134.436 118.44Z" fill="white" stroke="#263238" stroke-width="0.0795578" stroke-linecap="round" stroke-linejoin="round"/>
<path d="M117.94 118.44L113.698 150.205C113.685 150.304 113.693 150.405 113.723 150.501C113.752 150.597 113.801 150.686 113.868 150.761C113.934 150.837 114.016 150.897 114.107 150.938C114.199 150.979 114.298 151.001 114.398 151C114.563 151 114.722 150.943 114.849 150.838C114.975 150.733 115.061 150.586 115.091 150.425L120.891 118.686L117.94 118.44Z" fill="white" stroke="#263238" stroke-width="0.0795578" stroke-linecap="round" stroke-linejoin="round"/>
<path d="M139.018 82.0977H112.525C112.525 82.0977 111.792 88.3295 112.199 93.6633C112.606 98.9971 113.511 105.801 113.346 110.159C113.181 114.518 110.722 116.886 110.722 116.886H104.816C104.676 116.886 104.537 116.913 104.408 116.966C104.279 117.019 104.161 117.098 104.062 117.196C103.963 117.295 103.884 117.412 103.83 117.542C103.777 117.671 103.749 117.809 103.749 117.949C103.749 118.089 103.777 118.228 103.83 118.358C103.884 118.487 103.963 118.605 104.062 118.704C104.161 118.803 104.278 118.881 104.408 118.935C104.537 118.989 104.676 119.016 104.816 119.016H136.709C138.642 115.898 139.585 112.267 139.414 108.602C139.168 102.37 136.708 95.3129 137.526 90.3091C138.343 85.3052 139.018 82.0977 139.018 82.0977Z" fill="#ED7600" stroke="#263238" stroke-width="0.0795578" stroke-linecap="round" stroke-linejoin="round"/>
<path d="M132.005 44.0063C132.005 44.0063 130.367 44.6624 130.282 46.2057C130.198 47.7491 129.71 53.0938 127.742 56.1291C125.773 59.1644 127.742 64.0033 132.581 64.7401C137.42 65.4769 141.357 58.1783 139.546 50.6341C137.735 43.0898 133.648 43.3501 132.005 44.0063Z" fill="#263238" stroke="#263238" stroke-width="0.0795578" stroke-linecap="round" stroke-linejoin="round"/>
<path d="M1 151H161.317" stroke="#263238" stroke-width="0.0795578" stroke-linecap="round" stroke-linejoin="round"/>
</svg>