<svg width="100" height="100" viewBox="0 0 100 100" fill="none" xmlns="http://www.w3.org/2000/svg">
<path d="M21.3737 95.1314C29.6099 95.1314 36.2866 91.2763 36.2866 86.5208C36.2866 81.7653 29.6099 77.9102 21.3737 77.9102C13.1376 77.9102 6.46094 81.7653 6.46094 86.5208C6.46094 91.2763 13.1376 95.1314 21.3737 95.1314Z" fill="#E0E0E0"/>
<path d="M70.034 99.9998C69.4865 100.006 68.9466 99.8719 68.4663 99.6091L28.4718 76.5171C28.1762 76.3752 27.9266 76.1526 27.752 75.875C27.5773 75.5974 27.4846 75.2761 27.4846 74.9482C27.4846 74.6202 27.5773 74.2989 27.752 74.0213C27.9266 73.7437 28.1762 73.5211 28.4718 73.3792L52.6042 59.4469C53.0869 59.1887 53.6258 59.0537 54.1731 59.0537C54.7205 59.0537 55.2594 59.1887 55.7421 59.4469L95.7365 82.5364C96.3646 82.8984 97.1532 83.2436 97.1532 84.1066C97.1532 84.9695 96.3646 85.3052 95.7365 85.6743L71.6042 99.6019C71.1236 99.8672 70.5829 100.004 70.034 99.9998Z" fill="#E0E0E0"/>
<path d="M89.9712 74.4022L87.0155 72.6978C87.0155 72.6978 86.0566 68.0856 86.7039 63.4591C87.7898 55.5748 92.0711 54.3954 93.706 54.9539C95.3409 55.5125 95.8227 57.411 93.1283 61.3088C91.5318 63.6077 89.5949 68.3949 89.9712 74.4022Z" fill="#37474F"/>
<path d="M88.1135 71.8252H88.1326C88.1709 71.8192 88.2052 71.7986 88.2285 71.7677C88.2518 71.7369 88.2621 71.6981 88.2573 71.6598C87.3967 65.5901 89.8155 58.9284 92.5506 56.2363C92.564 56.223 92.5747 56.2071 92.5819 56.1896C92.5892 56.1721 92.5929 56.1534 92.5929 56.1345C92.5929 56.1155 92.5892 56.0968 92.5819 56.0793C92.5747 56.0618 92.564 56.046 92.5506 56.0326C92.5374 56.0189 92.5216 56.008 92.5041 56.0005C92.4866 55.9931 92.4678 55.9893 92.4488 55.9893C92.4297 55.9893 92.4109 55.9931 92.3934 56.0005C92.3759 56.008 92.3601 56.0189 92.3469 56.0326C89.5614 58.7726 87.0947 65.5446 87.9672 71.7029C87.9725 71.7376 87.9903 71.7692 88.0172 71.7917C88.0441 71.8142 88.0784 71.8261 88.1135 71.8252Z" fill="white"/>
<path d="M95.4487 77.5468C95.7796 77.7122 96.6473 76.9595 96.887 76.7773C97.3064 76.459 97.6367 76.0379 97.8459 75.5547C98.0776 75.0068 98.1338 74.4004 98.0065 73.8192C97.9391 73.5121 97.8502 73.2101 97.7404 72.9155L97.4456 72.0333C97.3258 71.7531 97.2653 71.4511 97.2682 71.1463C97.3113 70.5327 97.8291 70.0796 98.299 69.6865C98.8192 69.2502 99.3561 68.6845 99.313 67.9533C99.2457 67.3888 98.9927 66.8626 98.5938 66.4575C98.2223 66.0332 97.786 65.664 97.4432 65.2133C97.1781 64.9001 97.0269 64.5064 97.0141 64.0963C97.0355 63.8448 97.1072 63.6003 97.2251 63.3771C97.4648 62.8977 97.774 62.4326 97.925 61.9124C98.0761 61.3923 98.0161 60.7546 97.599 60.4094C97.2538 60.1265 96.7648 60.1122 96.3237 60.1697C95.91 60.2442 95.5173 60.4078 95.1731 60.6491C94.0488 61.3563 93.4591 62.7682 92.2533 63.3292C91.7883 63.5473 91.2705 63.6168 90.7815 63.775C90.2924 63.9333 89.801 64.2113 89.5949 64.6836C89.1466 65.7167 90.2061 66.702 89.4558 67.7064C89.2161 68.018 88.9212 68.2697 88.6743 68.567C87.9768 69.4108 87.6675 70.2953 87.8641 71.6641C87.9316 72.1572 88.1058 72.6297 88.3744 73.0487C88.6431 73.4676 88.9999 73.823 89.4199 74.0901C89.4199 74.0901 95.3984 77.518 95.4487 77.5468Z" fill="#455A64"/>
<path d="M92.2509 75.8887C92.2893 75.885 92.3247 75.8664 92.3494 75.8367C92.3741 75.8071 92.386 75.7689 92.3827 75.7305C91.8361 70.0036 94.2022 63.5217 96.072 61.5752C96.0869 61.5617 96.0989 61.5453 96.1072 61.5269C96.1155 61.5086 96.12 61.4888 96.1203 61.4686C96.1206 61.4485 96.1167 61.4285 96.1089 61.41C96.1011 61.3914 96.0896 61.3747 96.075 61.3608C96.0605 61.3469 96.0432 61.3361 96.0243 61.3292C96.0054 61.3223 95.9853 61.3194 95.9652 61.3206C95.9451 61.3218 95.9255 61.3272 95.9075 61.3363C95.8896 61.3455 95.8738 61.3582 95.861 61.3738C93.9553 63.3587 91.5461 69.9485 92.095 75.7568C92.0966 75.7758 92.1018 75.7942 92.1105 75.8111C92.1191 75.8279 92.131 75.8429 92.1455 75.8552C92.16 75.8674 92.1768 75.8767 92.1948 75.8825C92.2129 75.8882 92.232 75.8903 92.2509 75.8887Z" fill="white"/>
<path d="M92.7951 68.8217H92.8382C94.1784 68.3745 95.5634 68.0747 96.9685 67.9275C97.0065 67.9233 97.0413 67.9044 97.0655 67.8748C97.0897 67.8452 97.1014 67.8074 97.098 67.7693C97.0968 67.7503 97.0918 67.7317 97.0832 67.7147C97.0747 67.6976 97.0627 67.6825 97.0482 67.6702C97.0336 67.6579 97.0167 67.6486 96.9985 67.643C96.9803 67.6374 96.9611 67.6355 96.9422 67.6375C95.5118 67.7881 94.102 68.0935 92.7375 68.5484C92.7018 68.5624 92.673 68.5898 92.6573 68.6247C92.6417 68.6597 92.6403 68.6994 92.6536 68.7354C92.6651 68.7628 92.685 68.7859 92.7104 68.8014C92.7358 68.8169 92.7654 68.824 92.7951 68.8217Z" fill="white"/>
<path d="M13.6479 82.4234L15.5201 81.7498C15.7363 79.5007 15.6937 77.2341 15.393 74.9946C14.6331 69.9653 10.987 65.6864 7.8707 65.0823C3.85304 64.3104 4.46671 68.0428 6.72725 69.7088C10.3326 72.3673 13.0941 76.349 13.6479 82.4234Z" fill="#ED7600"/>
<g opacity="0.2">
<path d="M13.6479 82.4234L15.5201 81.7498C15.7363 79.5007 15.6937 77.2341 15.393 74.9946C14.6331 69.9653 10.987 65.6864 7.8707 65.0823C3.85304 64.3104 4.46671 68.0428 6.72725 69.7088C10.3326 72.3673 13.0941 76.349 13.6479 82.4234Z" fill="black"/>
</g>
<path d="M14.566 82.1907H14.5444C14.5161 82.1847 14.4893 82.1732 14.4656 82.1568C14.4418 82.1404 14.4215 82.1194 14.4059 82.0951C14.3903 82.0708 14.3797 82.0436 14.3746 82.0152C14.3696 81.9867 14.3703 81.9576 14.3766 81.9294C15.381 77.3268 11.8116 68.6418 6.78716 66.0649C6.73503 66.0382 6.69564 65.9919 6.67766 65.9361C6.65968 65.8804 6.66457 65.8198 6.69128 65.7676C6.71798 65.7155 6.7643 65.6761 6.82004 65.6581C6.87579 65.6401 6.93639 65.645 6.98853 65.6717C12.1664 68.3278 15.8413 77.2813 14.8057 82.0229C14.7932 82.0753 14.7619 82.1213 14.7177 82.1522C14.6735 82.1832 14.6196 82.1968 14.566 82.1907Z" fill="white"/>
<path d="M14.8439 81.9922C14.935 81.448 14.9902 80.6473 15.007 80.4508C15.0693 79.756 14.9877 79.0558 14.7672 78.394C14.4758 77.5186 13.8928 76.7697 13.1156 76.2725C12.6937 76.0112 12.1975 75.817 11.917 75.3999C11.6773 75.0404 11.6773 74.5897 11.6365 74.1654C11.5718 73.4702 11.3752 72.7271 10.8335 72.2956C10.2917 71.8641 9.5414 71.8162 8.85102 71.8785C7.85619 71.9552 6.93328 72.0631 6.01037 71.5836C5.28134 71.1715 4.52714 70.8056 3.75223 70.4881C2.77179 70.119 0.563993 69.57 0.0581898 70.9484C0.000127698 71.1393 -0.014723 71.3407 0.0147151 71.5381C0.0441531 71.7354 0.117142 71.9238 0.228389 72.0894C0.452793 72.4189 0.725998 72.7123 1.03863 72.9596L2.55125 74.2948C2.73236 74.4353 2.88734 74.6065 3.00911 74.8006C3.29677 75.3232 3.06424 75.9705 3.11458 76.5649C3.14943 76.868 3.24982 77.1599 3.40878 77.4202C3.56774 77.6806 3.78145 77.9033 4.0351 78.0728C4.54414 78.4105 5.14876 78.5744 5.75867 78.5402C6.56891 78.5091 7.91612 77.9241 8.37638 78.895C8.50585 79.2238 8.57722 79.5726 8.58733 79.9258C8.59807 80.2805 8.70406 80.6258 8.89417 80.9254C9.2058 81.3377 9.76194 81.4696 10.2749 81.5367C10.9941 81.6326 11.7324 81.6589 12.3988 81.9418C12.6721 82.0569 12.8375 82.4212 12.9933 82.661C13.4991 82.4836 14.0601 82.2966 14.8439 81.9922Z" fill="#ED7600"/>
<path d="M13.9594 82.4999C13.9219 82.4962 13.886 82.4822 13.856 82.4593C13.8259 82.4365 13.8028 82.4057 13.7892 82.3705C11.9578 77.5306 7.60213 73.6616 1.5253 71.4753C1.47607 71.4565 1.43621 71.419 1.41427 71.3711C1.39233 71.3232 1.39006 71.2686 1.40794 71.219C1.42583 71.1694 1.46246 71.1288 1.50995 71.1059C1.55744 71.083 1.61201 71.0797 1.66194 71.0966C7.85144 73.3235 12.291 77.2765 14.1656 82.229C14.1836 82.279 14.1814 82.334 14.1595 82.3824C14.1375 82.4307 14.0976 82.4686 14.0481 82.4879C14.0196 82.4975 13.9895 82.5015 13.9594 82.4999Z" fill="white"/>
<path d="M69.4993 97.6583L29.5048 74.5664C29.2151 74.3776 28.9741 74.1231 28.8012 73.8236C28.6283 73.5241 28.5286 73.1881 28.51 72.8428V67.6002C28.5286 67.2549 28.6283 66.9189 28.8012 66.6194C28.9741 66.3199 29.2151 66.0654 29.5048 65.8766L53.6372 51.9442C53.9452 51.787 54.2862 51.7051 54.632 51.7051C54.9778 51.7051 55.3188 51.787 55.6268 51.9442L95.6213 75.0338C95.911 75.2226 96.152 75.4771 96.3249 75.7766C96.4977 76.0761 96.5975 76.4121 96.6161 76.7574V82C96.5975 82.3453 96.4977 82.6813 96.3249 82.9808C96.152 83.2803 95.911 83.5348 95.6213 83.7236L71.4889 97.6583C71.1805 97.8144 70.8397 97.8957 70.4941 97.8957C70.1484 97.8957 69.8077 97.8144 69.4993 97.6583Z" fill="#A8A8A8"/>
<path opacity="0.2" d="M96.6161 76.7575V82.0025C96.5974 82.3474 96.4975 82.683 96.3247 82.9821C96.1518 83.2812 95.9108 83.5352 95.6213 83.7237L71.489 97.656C71.1834 97.8199 70.8408 97.9024 70.4941 97.8957V90.3542C70.8407 90.3601 71.1831 90.2776 71.489 90.1145L95.6213 76.1822C96.1367 75.8849 96.1703 75.4175 95.722 75.0986C95.984 75.2923 96.1999 75.5413 96.3545 75.8281C96.5091 76.1149 96.5984 76.4322 96.6161 76.7575Z" fill="black"/>
<path opacity="0.1" d="M70.4941 90.3542V97.8957C70.1474 97.9027 69.8047 97.8201 69.4993 97.656L29.5048 74.5664C29.2151 74.3783 28.9739 74.1243 28.801 73.8252C28.6281 73.5261 28.5284 73.1903 28.51 72.8453V67.5979C28.5286 67.2731 28.6183 66.9564 28.7728 66.6702C28.9273 66.3839 29.1429 66.1351 29.4042 65.9414C28.9583 66.2602 28.9942 66.7277 29.5048 67.0249L69.5017 90.1169C69.8071 90.2787 70.1485 90.3604 70.4941 90.3542Z" fill="black"/>
<path d="M95.6214 76.1821L71.4891 90.1168C71.1807 90.2729 70.8399 90.3542 70.4942 90.3542C70.1486 90.3542 69.8078 90.2729 69.4994 90.1168L29.505 67.0249C28.956 66.7084 28.956 66.193 29.505 65.8766L53.6373 51.9442C53.9454 51.787 54.2863 51.7051 54.6321 51.7051C54.978 51.7051 55.3189 51.787 55.627 51.9442L95.6214 75.0338C96.1703 75.3502 96.1703 75.8704 95.6214 76.1821Z" fill="#A8A8A8"/>
<path d="M44.0847 75.5899C43.5597 75.2854 43.0707 75.2734 42.6727 75.506C42.5385 75.5827 41.98 75.8991 41.8361 75.9854C41.4022 76.2539 41.0834 76.8196 40.9588 77.6251C40.8168 77.4079 40.6458 77.2111 40.4506 77.0401L40.5944 76.9586C40.882 76.7908 41.0187 76.3689 41.0187 75.8008C41.0187 74.4152 40.3762 73.5762 39.5612 73.1064L38.0941 72.2746L37.4062 72.6701V71.8766L36.3274 71.2558L35.522 71.7208V73.3988L34.4361 70.1579L33.3573 69.537L32.5615 69.9925V70.7787C32.1491 69.4243 31.3868 68.2521 30.5119 67.7463C30.3103 67.6074 30.075 67.5254 29.8307 67.5089C29.5865 67.4925 29.3423 67.5422 29.1239 67.6528L29.0928 67.6696L28.3041 68.1227C27.8942 68.324 27.3188 69.0504 27.3188 70.6109C27.3188 72.7372 28.3065 74.957 29.716 75.7649C30.2602 76.0789 30.7468 76.0957 31.1375 75.8679C31.2718 75.7888 31.7944 75.4868 31.9238 75.4149C32.2143 75.2384 32.4411 74.9739 32.5711 74.6598V77.2823L33.6498 77.9031L34.4552 77.4381V75.7601L35.522 78.9867L36.6007 79.6075L37.2887 79.212V80.0055L39.0842 81.041C39.5253 81.2975 39.8824 81.3359 40.1413 81.1897C40.2828 81.1129 40.8269 80.7941 40.9612 80.7102C41.0566 80.6567 41.1386 80.5821 41.2009 80.4921C41.5916 81.8609 42.3467 83.0475 43.2888 83.594C43.8138 83.8961 44.286 83.92 44.6696 83.7187C44.8206 83.6396 45.3648 83.3135 45.4942 83.2392C46.0959 82.9108 46.4747 82.0143 46.4747 80.7174C46.4651 78.6055 45.3983 76.3498 44.0847 75.5899ZM30.7396 73.792C30.6563 73.7662 30.5759 73.7317 30.4999 73.6889C29.6177 73.1783 29.2797 71.8982 29.2797 70.8123C29.2692 70.4364 29.331 70.0621 29.4619 69.7096C29.5459 69.7326 29.6264 69.7665 29.7016 69.8103C30.5383 70.2897 30.917 71.5986 30.917 72.6869C30.9259 73.063 30.8657 73.4375 30.7396 73.792ZM39.1729 78.8884V78.2028C39.3732 78.449 39.4846 78.7556 39.4893 79.0729L39.1729 78.8884ZM44.322 81.6355C44.2382 81.6099 44.1577 81.5745 44.0823 81.53C43.2001 81.0218 42.8621 79.7394 42.8621 78.6534C42.8516 78.2776 42.9134 77.9032 43.0443 77.5507C43.1275 77.576 43.2078 77.6097 43.284 77.6514C44.123 78.1309 44.4994 79.4397 44.4994 80.528C44.5083 80.9049 44.4481 81.2803 44.322 81.6355Z" fill="#A8A8A8"/>
<path d="M68.6987 93.1302L69.4849 92.6844L70.1969 91.9077C69.7846 90.9009 69.2069 90.0882 68.3751 89.6088C67.8788 89.3235 67.433 89.3019 67.0686 89.4937C66.9176 89.5752 66.3494 89.9036 66.2152 89.9851C65.9367 90.1663 65.7201 90.428 65.5943 90.7355V88.1369L64.5156 87.5137L63.7102 87.9787V89.6567L62.617 86.4181L61.5383 85.7973L60.8479 86.1976V85.4017L59.7716 84.7809L58.9662 85.2435V86.0801C58.5466 84.7545 57.7676 83.6278 56.9094 83.1268L55.5382 82.3358L54.7351 82.8008V88.0602L53.7523 85.6774L54.1359 85.4593C54.4691 85.2723 54.6728 84.7881 54.6728 83.997C54.6728 82.5587 54.0064 81.4488 53.129 80.943L51.439 79.9674L50.6312 80.4252V84.4093L49.3415 78.7472L48.3443 78.1719L47.5388 78.6369L45.6211 84.8192L46.7789 85.488L47.5844 85.023L47.7114 84.5675L48.9292 85.2723L49.2792 86.9287L50.437 87.5976L50.6216 87.4921V87.7054L51.7003 88.3263L52.5058 87.8612V87.5184L53.1434 89.1605L54.5146 89.9516L54.728 89.8293V90.069L56.0967 90.8625C56.6337 91.1717 57.1347 91.2005 57.535 90.98L58.3693 90.5005C58.6264 90.3379 58.8305 90.1038 58.9566 89.8269V92.5213L60.0329 93.1422L60.7209 92.7467V93.5401L61.7996 94.1634L62.6051 93.6984V92.0203L63.691 95.2589L64.7697 95.8822L65.5752 95.4171V94.6428C65.9779 95.9733 66.709 97.1335 67.5504 97.6201C68.0299 97.8982 68.5357 97.9749 68.9408 97.7448C69.0774 97.6681 69.5928 97.3612 69.7223 97.2917C70.1082 97.088 70.4127 96.6157 70.5397 95.7839V94.2042L68.6987 93.1302ZM52.6376 83.8867L52.513 83.8124V83.0621C52.663 83.3269 52.7369 83.6281 52.7263 83.9323V83.9539L52.6376 83.8867ZM56.6169 85.5983C57.0872 86.2869 57.3379 87.1017 57.3361 87.9356C57.3462 88.2942 57.2783 88.6508 57.1371 88.9807C57.0157 88.9557 56.8991 88.9111 56.7919 88.8489L56.6265 88.7506L56.6169 85.5983ZM68.6483 95.3141C68.6503 95.4569 68.6342 95.5995 68.6004 95.7384C68.5403 95.718 68.4824 95.6915 68.4278 95.6592C68.1019 95.4351 67.846 95.1235 67.6895 94.7603L68.6483 95.3141ZM68.3655 92.9385L67.56 93.4107V94.4726C67.3414 93.9175 67.2276 93.3266 67.2244 92.7299C67.2109 92.3189 67.2869 91.9099 67.4474 91.5313C67.508 91.5504 67.5666 91.5753 67.6223 91.6056C68.0347 91.8453 68.3918 92.3008 68.6651 93.1134L68.3655 92.9385Z" fill="#A8A8A8"/>
<path opacity="0.2" d="M43.279 76.0547C44.5927 76.8122 45.6594 79.0703 45.6594 81.1966C45.6594 82.4935 45.2807 83.39 44.6766 83.7185C44.8468 83.6274 45.3598 83.3229 45.4844 83.2534C46.0861 82.925 46.4649 82.0285 46.4649 80.7316C46.4649 78.6053 45.3981 76.3472 44.0845 75.5896C43.5595 75.2852 43.0705 75.2732 42.6725 75.5058C42.5383 75.5825 41.9798 75.8989 41.8359 75.9852C42.2339 75.7383 42.7373 75.7407 43.279 76.0547Z" fill="black"/>
<path opacity="0.3" d="M39.1727 78.8889V78.2033C39.0354 78.0516 38.8733 77.9243 38.6932 77.827L38.3552 77.6328V79.354L38.6932 79.5482C39.2038 79.843 39.4843 79.7663 39.4843 79.1934C39.4843 79.1502 39.4843 79.1119 39.4843 79.0711L39.1727 78.8889Z" fill="black"/>
<path opacity="0.2" d="M35.5123 76.2208L35.5219 76.228V73.3897L34.436 70.1511L33.3573 69.5303L32.5542 69.9953L33.6305 70.6162L35.5123 76.2208Z" fill="black"/>
<path opacity="0.1" d="M33.6304 70.6154L34.4358 70.1504L35.5217 73.389V76.2272L33.6304 70.6154Z" fill="black"/>
<path opacity="0.3" d="M39.1704 75.8342C39.1734 75.5931 39.1072 75.3562 38.9798 75.1514C38.8523 74.9467 38.6689 74.7827 38.4513 74.6788L38.365 74.6309V76.201L38.4513 76.2514C38.9163 76.5198 39.1704 76.4431 39.1704 75.8342Z" fill="black"/>
<path opacity="0.2" d="M40.9516 77.6299C40.8118 77.4118 40.6414 77.2148 40.4458 77.045L40.5944 76.9587C40.8773 76.7909 41.0139 76.3714 41.0139 75.8057C41.0139 74.4201 40.3714 73.5811 39.5564 73.1113L38.0941 72.2747L37.4062 72.6702V71.8767L36.3274 71.2559L35.522 71.7209L36.6007 72.3418V79.6244L37.2887 79.2289V72.7277L38.7558 73.5763C39.5708 74.0558 40.2132 74.8828 40.2132 76.2707C40.2132 76.9396 40.0239 77.4046 39.6211 77.4909C40.2132 77.9919 40.6303 78.735 40.6303 79.9097C40.6303 80.5761 40.4554 81.0243 40.1341 81.1993C40.2756 81.1226 40.8197 80.8038 40.954 80.7199C41.0494 80.6664 41.1314 80.5918 41.1937 80.5018C41.0009 79.8339 40.9017 79.1425 40.8988 78.4474C40.8957 78.174 40.9133 77.9007 40.9516 77.6299Z" fill="black"/>
<path opacity="0.3" d="M44.0845 81.5301C43.2023 81.0219 42.8643 79.7394 42.8643 78.6535C42.8537 78.2777 42.9156 77.9033 43.0465 77.5508C43.0824 77.5628 43.1184 77.5748 43.1567 77.5916C42.4112 77.2632 42.0588 78.0902 42.0588 79.1186C42.0588 80.2045 42.3968 81.487 43.279 81.9952C43.804 82.2972 44.1396 82.0887 44.3218 81.6356C44.2388 81.6098 44.1592 81.5744 44.0845 81.5301Z" fill="black"/>
<path opacity="0.2" d="M30.5021 67.7459C29.9867 67.4486 29.5097 67.4319 29.1166 67.6476L29.071 67.674L28.3015 68.1151C28.4328 68.0417 28.5768 67.9937 28.7258 67.9736C29.0686 67.9436 29.4116 68.0279 29.7015 68.2133C31.0127 68.9732 32.0795 71.229 32.0795 73.3577C32.0795 74.6426 31.7055 75.5343 31.1206 75.8699C31.2548 75.7908 31.775 75.4888 31.9045 75.4168C32.1958 75.2406 32.4233 74.9761 32.5541 74.6617V70.7759C32.1394 69.4215 31.3747 68.2493 30.5021 67.7459Z" fill="black"/>
<path opacity="0.3" d="M29.282 70.8124C29.2715 70.4365 29.3333 70.0621 29.4642 69.7097C29.5009 69.7203 29.5369 69.7331 29.5721 69.748C28.8265 69.422 28.4766 70.2466 28.4766 71.2774C28.4766 72.3633 28.8146 73.6434 29.6967 74.154C30.2193 74.4561 30.5549 74.2451 30.7395 73.792C30.6561 73.7663 30.5758 73.7317 30.4998 73.689C29.62 73.1784 29.282 71.8983 29.282 70.8124Z" fill="black"/>
<path opacity="0.2" d="M53.7549 85.6769L54.136 85.4587C54.4692 85.2717 54.673 84.7875 54.673 83.9964C54.673 82.5581 54.0066 81.4483 53.1292 80.9424L51.4392 79.9668L50.6313 80.4247L52.3238 81.4003C53.1987 81.9061 53.8651 83.0232 53.8651 84.4543C53.8651 85.5474 53.4744 86.0556 52.9063 86.0029L54.5339 89.9534L54.7473 89.8312V88.0525L53.7549 85.6769Z" fill="black"/>
<path opacity="0.3" d="M67.4498 91.5356L67.5289 91.5643C66.9104 91.2982 66.4214 91.9934 66.4214 93.1944C66.4214 94.3954 66.9608 95.7474 67.62 96.1309C68.0419 96.3707 68.459 96.2724 68.598 95.745C68.5379 95.7246 68.4801 95.6981 68.4254 95.6659C68.0996 95.4417 67.8436 95.1301 67.6871 94.7669L67.5576 94.6902V94.4721C67.339 93.9169 67.2253 93.326 67.222 92.7293C67.2107 92.3196 67.2884 91.9123 67.4498 91.5356Z" fill="black"/>
<path opacity="0.2" d="M56.9118 83.127L55.5406 82.3359L54.7375 82.801L56.1063 83.5921C57.4032 84.34 58.4915 86.4878 58.4915 88.6069C58.4915 89.9062 58.0864 90.7404 57.4751 91.0257L57.547 90.9945L58.3812 90.5151C58.6384 90.3525 58.8425 90.1184 58.9686 89.8415V86.0803C58.5491 84.7547 57.7772 83.628 56.9118 83.127Z" fill="black"/>
<path opacity="0.3" d="M56.6194 88.7571V85.6048C56.4516 85.3616 56.2343 85.1565 55.9818 85.0031L55.814 84.9072V89.2221L55.9818 89.318C56.4948 89.6153 56.9023 89.4595 57.13 88.9872C57.0086 88.9621 56.892 88.9176 56.7848 88.8554L56.6194 88.7571Z" fill="black"/>
<path opacity="0.3" d="M51.71 88.3356L52.5154 87.8705V87.5277L51.71 85.459V88.3356Z" fill="black"/>
<path opacity="0.2" d="M61.8115 86.885L63.6909 92.492L63.7029 92.4992V89.6609L62.617 86.4199L61.5383 85.7991L60.8503 86.197V85.4011L59.774 84.7803L58.9685 85.2453L60.0448 85.8662V93.1488L60.7328 92.7533V86.2641L61.8115 86.885Z" fill="black"/>
<path opacity="0.3" d="M47.1386 84.2412L46.7886 85.4949L47.594 85.0323L47.7211 84.5768L47.1386 84.2412Z" fill="black"/>
<path opacity="0.3" d="M48.0327 81.1826L47.5054 82.9973L48.5721 83.6133L48.0447 81.1898L48.0327 81.1826Z" fill="black"/>
<path opacity="0.3" d="M61.8118 89.6494V94.1681V94.1705L62.6172 93.7054V92.0226L61.8238 89.6566L61.8118 89.6494Z" fill="black"/>
<path opacity="0.2" d="M65.5873 90.7331V88.1369L64.5086 87.5137L63.7031 87.9787L64.7819 88.602V95.8846L65.5873 95.4195V94.6453C65.3748 93.9571 65.2641 93.2416 65.2589 92.5214C65.2395 91.9087 65.3515 91.2989 65.5873 90.7331Z" fill="black"/>
<path opacity="0.2" d="M49.3439 78.7594L48.3443 78.1816L47.5413 78.6467L48.5385 79.222L50.4466 87.6073L50.6312 87.5018V84.4167L49.3439 78.7594Z" fill="black"/>
<path opacity="0.3" d="M52.5154 83.8193V83.0618C52.3442 82.8064 52.1096 82.5999 51.8346 82.4625L51.71 82.3906V84.3084L51.8346 84.3803C52.2373 84.62 52.7192 84.8597 52.7288 83.9656L52.6401 83.9176L52.5154 83.8193Z" fill="black"/>
<path opacity="0.2" d="M68.6987 93.1297L69.485 92.6839L70.1969 91.9072C69.7846 90.9004 69.2069 90.0877 68.3751 89.6083C67.8789 89.323 67.433 89.3014 67.0686 89.4932C66.932 89.5675 66.4526 89.8456 66.2632 89.9559C66.63 89.7641 67.0734 89.7881 67.5696 90.0733C68.4015 90.5528 68.9792 91.3654 69.3915 92.3698L68.6867 93.1561C68.6817 93.1437 68.6777 93.1308 68.6747 93.1177L68.3751 92.9451L67.5601 93.4102L69.7439 94.6711V96.246C69.6192 97.0707 69.3172 97.5429 68.936 97.7491H68.9504C69.0871 97.6724 69.6024 97.3655 69.7319 97.296C70.1178 97.0922 70.4223 96.62 70.5493 95.7882V94.2084L68.6987 93.1297Z" fill="black"/>
<path opacity="0.1" d="M32.5614 74.6551V70.7765C32.5087 70.5991 32.4464 70.4241 32.3816 70.2539L31.5762 70.7142C31.9051 71.5548 32.0782 72.4484 32.0868 73.351C32.0868 74.6359 31.7128 75.5277 31.1279 75.8633C31.2622 75.7842 31.7848 75.4821 31.9142 75.4102C32.2047 75.2337 32.4314 74.9692 32.5614 74.6551Z" fill="black"/>
<path opacity="0.1" d="M36.6006 72.3293L37.406 71.8643V72.6577L37.2886 72.7272V79.214L36.6006 79.6119V72.3293Z" fill="black"/>
<path opacity="0.1" d="M48.5386 79.2214L49.344 78.7588L50.6313 84.4161V87.5013L50.4467 87.6068L48.5386 79.2214Z" fill="black"/>
<path opacity="0.1" d="M53.7547 85.6768L53.3448 85.9165C53.2125 86.0031 53.0526 86.0373 52.8965 86.0124L54.5242 89.9629L54.7375 89.8406V88.0619L53.7547 85.6768Z" fill="black"/>
<path opacity="0.1" d="M60.8504 85.4014L60.0449 85.8664V93.149L60.7329 92.7535V86.2643L60.8504 86.1972V85.4014Z" fill="black"/>
<path opacity="0.1" d="M61.8118 86.886L62.6172 86.4209L63.7031 89.6619V92.5001L61.8118 86.886Z" fill="black"/>
<path opacity="0.1" d="M69.3842 92.3703L70.1897 91.9053L69.4849 92.6915L68.6794 93.1566L69.3842 92.3703Z" fill="black"/>
<path opacity="0.1" d="M69.7463 96.2466C69.6217 97.0712 69.3196 97.5434 68.9385 97.7496H68.9529C69.0895 97.6729 69.6049 97.3661 69.7343 97.2965C70.1203 97.0928 70.4247 96.6205 70.5518 95.7887V94.209L69.7463 94.674V96.2466Z" fill="black"/>
<path opacity="0.1" d="M58.4915 88.6064C58.4915 89.9056 58.0864 90.7399 57.4751 91.0251L57.547 90.994L58.3812 90.5145C58.6384 90.3519 58.8425 90.1178 58.9685 89.8409V86.0798C58.923 85.9383 58.875 85.7993 58.8223 85.665L58.0169 86.1277C58.3237 86.9184 58.4846 87.7582 58.4915 88.6064Z" fill="black"/>
<path opacity="0.1" d="M46.4651 80.732C46.4547 79.8643 46.2924 79.0051 45.9856 78.1934L45.1802 78.6584C45.487 79.4701 45.6492 80.3293 45.6596 81.197C45.6596 82.4939 45.2808 83.3904 44.6768 83.7188C44.847 83.6277 45.36 83.3233 45.4846 83.2538C46.0863 82.9254 46.4651 82.0288 46.4651 80.732Z" fill="black"/>
<path opacity="0.1" d="M40.6303 79.9095C40.6303 80.576 40.4554 81.0242 40.1341 81.1992C40.2756 81.1225 40.8197 80.8037 40.954 80.7198C41.0494 80.6663 41.1314 80.5917 41.1937 80.5016C41.0009 79.8338 40.9017 79.1424 40.8988 78.4473C40.8981 78.1737 40.9181 77.9004 40.9588 77.6298C40.819 77.4117 40.6486 77.2147 40.453 77.0449L39.8033 77.4213H39.7793C39.7689 77.4283 39.7577 77.4339 39.7458 77.4381C39.7076 77.4588 39.6663 77.4733 39.6235 77.4812C40.2132 77.9918 40.6303 78.7469 40.6303 79.9095Z" fill="black"/>
<path opacity="0.3" d="M33.6304 73.3799V77.8986L34.4358 77.4335V75.7531L33.6424 73.3847L33.6304 73.3799Z" fill="black"/>
<path opacity="0.1" d="M64.7817 88.6018V95.8844L65.5872 95.4193V94.645C65.3746 93.9569 65.264 93.2413 65.2588 92.5211C65.2397 91.9092 65.3517 91.3003 65.5872 90.7353V88.1367L64.7817 88.6018Z" fill="black"/>
<path d="M29.6967 68.2111C31.0104 68.971 32.0771 71.2268 32.0771 73.3555C32.0771 75.4842 31.0559 76.5437 29.6967 75.7526C28.2992 74.9448 27.2996 72.725 27.2996 70.5987C27.2996 68.4724 28.3951 67.4608 29.6967 68.2111ZM29.6967 74.1537C30.5573 74.6499 30.9121 73.7702 30.9121 72.6843C30.9121 71.5983 30.5333 70.2871 29.6967 69.8076C28.8601 69.3282 28.4766 70.1888 28.4766 71.2747C28.4766 72.3606 28.8146 73.6431 29.6967 74.1537Z" fill="#A8A8A8"/>
<path d="M33.6305 77.8981L32.5518 77.2772V69.9922L33.6305 70.6154L35.5099 76.22V71.7086L36.5886 72.3294V79.612L35.5099 78.9912L33.6305 73.3842V77.8981Z" fill="#A8A8A8"/>
<path d="M38.7556 73.5761C39.5707 74.0556 40.2131 74.8826 40.2131 76.2706C40.2131 76.9394 40.0237 77.4044 39.621 77.4907C40.2131 77.9917 40.6302 78.7349 40.6302 79.9095C40.6302 81.0841 40.0645 81.6139 39.0841 81.0457L37.2886 80.0101V72.7275L38.7556 73.5761ZM38.4536 76.2514C38.9163 76.5199 39.1728 76.4432 39.1728 75.8343C39.1757 75.5931 39.1095 75.3562 38.9821 75.1514C38.8546 74.9467 38.6713 74.7827 38.4536 74.6788L38.3673 74.6309V76.201L38.4536 76.2514ZM38.6933 79.5475C39.2039 79.8423 39.4844 79.7656 39.4844 79.1927C39.5001 78.9126 39.4337 78.634 39.2931 78.3913C39.1525 78.1485 38.9441 77.9521 38.6933 77.8263L38.3553 77.6322V79.3533L38.6933 79.5475Z" fill="#A8A8A8"/>
<path d="M43.279 76.0552C44.5927 76.8127 45.6594 79.0708 45.6594 81.1971C45.6594 83.3234 44.6382 84.3877 43.279 83.5943C41.8815 82.7888 40.8962 80.5667 40.8962 78.4404C40.8962 76.3141 41.9798 75.3025 43.279 76.0552ZM43.279 81.9954C44.1396 82.4916 44.4944 81.6118 44.4944 80.5259C44.4944 79.44 44.118 78.1287 43.279 77.6493C42.44 77.1699 42.0589 78.0304 42.0589 79.1164C42.0589 80.2023 42.3897 81.4872 43.279 81.9954Z" fill="#A8A8A8"/>
<path d="M50.4468 87.6169L49.2889 86.9481L48.939 85.2916L47.1387 84.2512L46.7887 85.5074L45.6309 84.8386L47.5486 78.6562L48.5458 79.2316L50.4468 87.6169ZM48.0496 81.1997H48.0376L47.5102 83.0143L48.577 83.6304L48.0496 81.1997Z" fill="#A8A8A8"/>
<path d="M52.3238 81.4076C53.1987 81.9135 53.8652 83.0305 53.8652 84.4616C53.8652 85.5548 53.4744 86.063 52.9063 86.0102L54.534 89.9608L53.1628 89.1697L51.7245 85.4589V88.3355L50.6458 87.7146V80.4248L52.3238 81.4076ZM51.8443 84.3562C52.2519 84.5959 52.7385 84.8356 52.7385 83.9199C52.7385 83.0042 52.259 82.6853 51.8443 82.4504L51.7197 82.3785V84.2962L51.8443 84.3562Z" fill="#A8A8A8"/>
<path d="M56.1063 83.5918C57.4032 84.3398 58.4915 86.4876 58.4915 88.6067C58.4915 90.7258 57.408 91.6272 56.1063 90.8745L54.7375 90.0834V82.8008L56.1063 83.5918ZM55.9817 89.3187C56.7775 89.779 57.3217 89.1581 57.3289 87.9427C57.3361 86.7273 56.7727 85.4592 55.9817 85.0038L55.8139 84.9079V89.2228L55.9817 89.3187Z" fill="#A8A8A8"/>
<path d="M60.0448 93.149L58.9685 92.5282V85.2432L60.0448 85.8664V93.149Z" fill="#A8A8A8"/>
<path d="M61.8068 94.1705L60.728 93.5473V86.2646L61.8068 86.8975L63.6861 92.5045H63.6981V87.9786L64.7769 88.6019V95.8845L63.6981 95.2612L61.8187 89.6567H61.8068V94.1705Z" fill="#A8A8A8"/>
<path d="M69.7463 96.2466C69.4874 97.9438 68.4902 98.1643 67.5625 97.6177C66.2896 96.8818 65.2588 94.5997 65.2588 92.5166C65.2588 90.4334 66.232 89.3019 67.5625 90.069C68.3943 90.5485 68.972 91.3611 69.3843 92.3655L68.6796 93.1518C68.4039 92.3128 68.0443 91.8477 67.6248 91.6056C66.9608 91.2221 66.4262 91.9268 66.4262 93.1902C66.4262 94.4535 66.9656 95.7431 67.6248 96.1267C68.1426 96.4239 68.6508 96.2058 68.6508 95.3141L67.5601 94.6908V93.4107L69.7439 94.6716L69.7463 96.2466Z" fill="#A8A8A8"/>
<path opacity="0.1" d="M48.5385 73.1494C54.8166 73.1494 59.9059 70.2108 59.9059 66.5859C59.9059 62.961 54.8166 60.0225 48.5385 60.0225C42.2605 60.0225 37.1711 62.961 37.1711 66.5859C37.1711 70.2108 42.2605 73.1494 48.5385 73.1494Z" fill="black"/>
<path opacity="0.1" d="M69.744 85.7131C76.7992 85.7131 82.5185 82.4108 82.5185 78.337C82.5185 74.2633 76.7992 70.9609 69.744 70.9609C62.6888 70.9609 56.9695 74.2633 56.9695 78.337C56.9695 82.4108 62.6888 85.7131 69.744 85.7131Z" fill="black"/>
<path d="M27.3979 0.0832085L35.9174 4.98303C36.0165 5.04766 36.099 5.13473 36.1581 5.23719C36.2173 5.33965 36.2514 5.45461 36.2578 5.57273V17.2062C36.2514 17.324 36.2169 17.4385 36.1573 17.5402C36.0977 17.6419 36.0146 17.728 35.9151 17.7911L34.6997 18.4743C34.5935 18.5269 34.4766 18.5543 34.3581 18.5543C34.2396 18.5543 34.1227 18.5269 34.0165 18.4743L25.4993 13.5697C25.3998 13.5055 25.3171 13.4185 25.2579 13.316C25.1987 13.2134 25.1648 13.0983 25.1589 12.98V1.34652C25.1653 1.22904 25.1995 1.11475 25.2587 1.01307C25.3179 0.911379 25.4003 0.825196 25.4993 0.761608L26.7171 0.078414C26.8231 0.026034 26.9399 -0.000813721 27.0581 1.87861e-05C27.1763 0.000851293 27.2927 0.0293411 27.3979 0.0832085Z" fill="#ED7600"/>
<path d="M34.3449 18.2734V6.63997C34.3382 6.52169 34.3033 6.40672 34.2433 6.30458C34.1833 6.20245 34.0998 6.11609 33.9997 6.05266L25.4993 1.15044C25.31 1.04257 25.1589 1.13127 25.1589 1.34701V12.9805C25.1648 13.0988 25.1987 13.2139 25.2579 13.3165C25.3171 13.419 25.3998 13.506 25.4993 13.5702L33.9997 18.47C34.1939 18.5779 34.3449 18.4916 34.3449 18.2734Z" fill="#ED7600"/>
<path opacity="0.2" d="M33.9998 18.469C34.1061 18.5211 34.2229 18.5481 34.3414 18.5481C34.4598 18.5481 34.5766 18.5211 34.683 18.469L35.8983 17.7858C35.9979 17.7226 36.0809 17.6366 36.1406 17.5349C36.2002 17.4331 36.2347 17.3186 36.2411 17.2009V5.5698C36.2351 5.44743 36.198 5.32861 36.1332 5.22461L34.2395 6.30573C34.3013 6.4062 34.336 6.52102 34.3402 6.63894V18.2724C34.3449 18.4714 34.2059 18.5769 33.9998 18.469Z" fill="black"/>
<path opacity="0.4" d="M25.1638 1.28417C25.1902 1.11397 25.3292 1.04445 25.4994 1.14993L33.9998 6.05215C34.1004 6.11456 34.1831 6.20214 34.2395 6.30625L36.1357 5.22512C36.0769 5.12654 35.9945 5.04415 35.896 4.98541L27.398 0.0807902C27.2924 0.0276679 27.1758 0 27.0576 0C26.9394 0 26.8228 0.0276679 26.7172 0.0807902L25.4994 0.763985C25.4096 0.821709 25.3332 0.898 25.2753 0.987725C25.2174 1.07745 25.1794 1.17853 25.1638 1.28417Z" fill="white"/>
<path d="M37.176 14.1999C37.3894 14.0729 38.9883 13.1715 39.041 13.1428C39.0801 13.1182 39.1133 13.0855 39.1384 13.0468C39.1634 13.008 39.1797 12.9643 39.1861 12.9187C39.1925 12.873 39.1889 12.8265 39.1754 12.7824C39.1619 12.7383 39.139 12.6976 39.1082 12.6633L36.2172 9.05078L34.345 10.1127L37.236 13.7229C37.2656 13.7572 37.2877 13.7973 37.3008 13.8407C37.3139 13.8841 37.3178 13.9298 37.3121 13.9747C37.3065 14.0197 37.2914 14.063 37.268 14.1018C37.2446 14.1406 37.2132 14.174 37.176 14.1999Z" fill="#ED7600"/>
<path opacity="0.4" d="M37.176 14.1999C37.3894 14.0729 38.9883 13.1715 39.041 13.1428C39.0801 13.1182 39.1133 13.0855 39.1384 13.0468C39.1634 13.008 39.1797 12.9643 39.1861 12.9187C39.1925 12.873 39.1889 12.8265 39.1754 12.7824C39.1619 12.7383 39.139 12.6976 39.1082 12.6633L36.2172 9.05078L34.345 10.1127L37.236 13.7229C37.2656 13.7572 37.2877 13.7973 37.3008 13.8407C37.3139 13.8841 37.3178 13.9298 37.3121 13.9747C37.3065 14.0197 37.2914 14.063 37.268 14.1018C37.2446 14.1406 37.2132 14.174 37.176 14.1999Z" fill="white"/>
<path d="M34.345 10.1152L37.236 13.711C37.2776 13.7522 37.3065 13.8047 37.3191 13.8619C37.3318 13.9192 37.3276 13.9789 37.307 14.0339C37.2865 14.0888 37.2506 14.1367 37.2035 14.1717C37.1565 14.2067 37.1003 14.2273 37.0418 14.2312L34.345 14.5236V10.1152Z" fill="#ED7600"/>
<path d="M28.9009 7.93173C28.9009 7.26052 29.2557 6.92012 29.6919 7.17182C30.1282 7.42352 30.4806 8.17144 30.4806 8.84984C30.4806 9.52824 30.1282 9.86145 29.6919 9.60974C29.2557 9.35804 28.9009 8.60293 28.9009 7.93173Z" fill="#FAFAFA"/>
<path d="M30.6438 13.8937L28.7261 12.7862C28.5781 12.667 28.4616 12.5133 28.3868 12.3386C28.312 12.1639 28.2812 11.9736 28.297 11.7842L28.3881 10.7486C28.4528 10.0007 28.8891 9.66269 29.4045 9.95994L29.9654 10.2836C30.4808 10.5832 30.9243 11.4222 30.9818 12.2468L31.0729 13.3879C31.1233 13.805 30.9123 14.0447 30.6438 13.8937Z" fill="#FAFAFA"/>
<path d="M30.9553 7.83046C30.9553 7.09213 31.3437 6.71817 31.8231 6.99625C32.3025 7.27432 32.6909 8.09655 32.6909 8.83248C32.6909 9.56841 32.3025 9.94477 31.8231 9.66909C31.3437 9.39342 30.9553 8.56879 30.9553 7.83046Z" fill="#FAFAFA"/>
<path d="M32.8227 14.3484L31.5546 13.6148L31.4635 12.4786C31.3965 11.644 31.0865 10.8473 30.5718 10.1869C30.6179 10.1159 30.6781 10.0551 30.7487 10.0083C30.8193 9.96147 30.8988 9.92967 30.9821 9.91483C31.0655 9.9 31.151 9.90245 31.2334 9.92203C31.3158 9.94161 31.3933 9.9779 31.4611 10.0287L32.082 10.3858C32.6477 10.7143 33.1248 11.6348 33.1967 12.5433L33.2974 13.7946C33.3333 14.2621 33.1104 14.5138 32.8227 14.3484Z" fill="#FAFAFA"/>
<path d="M28.5511 6.7112C28.5511 6.00883 28.1819 5.22735 27.7265 4.96606C27.271 4.70477 26.9019 5.05715 26.9019 5.75952C26.9019 6.46189 27.271 7.24098 27.7265 7.50467C28.1819 7.76835 28.5511 7.41357 28.5511 6.7112Z" fill="#FAFAFA"/>
<path d="M28.9154 9.37433C28.4671 9.39351 28.1315 9.83219 28.0668 10.5729L27.9805 11.551L26.7819 10.8558C26.6249 10.7324 26.5012 10.5717 26.4221 10.3883C26.3429 10.2049 26.3109 10.0047 26.3288 9.80582L26.4247 8.72949C26.4918 7.94561 26.9473 7.59563 27.4843 7.90486L28.0716 8.24526C28.4678 8.5202 28.7639 8.91646 28.9154 9.37433Z" fill="#FAFAFA"/>
<path d="M87.32 21.4105V18.0233L84.4601 17.7836C84.4187 17.7787 84.3767 17.7871 84.3403 17.8076C84.23 17.8675 81.9263 19.1931 81.8904 19.2147C81.8637 19.2307 81.8409 19.2524 81.8237 19.2783C81.8065 19.3042 81.7953 19.3337 81.7909 19.3645C81.7865 19.3953 81.7891 19.4266 81.7984 19.4563C81.8078 19.486 81.8236 19.5132 81.8448 19.5359L84.8749 22.8249L87.32 21.4105Z" fill="#ED7600"/>
<path d="M84.8748 22.8156L81.8448 19.5363C81.8161 19.5055 81.7974 19.4667 81.7911 19.425C81.7849 19.3834 81.7914 19.3408 81.8098 19.3029C81.8282 19.265 81.8577 19.2336 81.8943 19.2128C81.931 19.192 81.973 19.1827 82.015 19.1863L84.8748 19.426V22.8156Z" fill="#ED7600"/>
<path d="M87.3176 18.0239L84.8749 19.4286L82.015 19.1889C81.9816 19.1861 81.948 19.191 81.9167 19.2033C82.1445 19.069 84.2372 17.8656 84.3403 17.8105C84.3767 17.79 84.4187 17.7816 84.4601 17.7865L87.3176 18.0239Z" fill="#ED7600"/>
<path opacity="0.5" d="M87.3176 18.0239L84.8749 19.4286L82.015 19.1889C81.9816 19.1861 81.948 19.191 81.9167 19.2033C82.1445 19.069 84.2372 17.8656 84.3403 17.8105C84.3767 17.79 84.4187 17.7816 84.4601 17.7865L87.3176 18.0239Z" fill="white"/>
<path d="M87.0802 13.471L95.5878 18.3708C95.6865 18.4359 95.7686 18.523 95.8277 18.6254C95.8868 18.7278 95.9212 18.8425 95.9282 18.9605V30.594C95.9221 30.7118 95.8878 30.8265 95.8282 30.9283C95.7685 31.0301 95.6852 31.116 95.5854 31.1789L94.3676 31.8621C94.2619 31.9147 94.1454 31.942 94.0272 31.942C93.9091 31.942 93.7926 31.9147 93.6868 31.8621L85.1793 26.9671C85.0805 26.9027 84.9982 26.816 84.9391 26.714C84.88 26.612 84.8456 26.4975 84.8389 26.3798V14.7415C84.8455 14.6238 84.8801 14.5094 84.9397 14.4077C84.9993 14.306 85.0822 14.2199 85.1817 14.1566L86.3994 13.4758C86.5047 13.4219 86.621 13.3934 86.7393 13.3926C86.8575 13.3918 86.9742 13.4186 87.0802 13.471Z" fill="#ED7600"/>
<path d="M94.0272 31.6635V20.0277C94.0207 19.9102 93.9868 19.7958 93.9281 19.6938C93.8694 19.5918 93.7876 19.505 93.6892 19.4404L85.1793 14.5381C84.9923 14.4303 84.8389 14.519 84.8389 14.7347V26.3706C84.8442 26.4899 84.8778 26.6063 84.937 26.7101C84.9962 26.8139 85.0792 26.9021 85.1793 26.9675L93.6892 31.8601C93.8738 31.968 94.0272 31.8793 94.0272 31.6635Z" fill="#ED7600"/>
<path opacity="0.2" d="M93.6892 31.8601C93.7953 31.9116 93.9117 31.9384 94.0296 31.9384C94.1475 31.9384 94.2639 31.9116 94.37 31.8601L95.5878 31.1769C95.6869 31.1138 95.7696 31.0281 95.8292 30.9268C95.8888 30.8256 95.9235 30.7116 95.9306 30.5944V18.9609C95.9254 18.8373 95.8873 18.7173 95.8203 18.6133L93.9289 19.6944C93.9908 19.7949 94.0255 19.9097 94.0296 20.0276V31.6611C94.0272 31.8601 93.8858 31.9751 93.6892 31.8601Z" fill="black"/>
<path opacity="0.4" d="M84.8438 14.6749C84.8701 14.5023 85.0116 14.4352 85.1794 14.5383L93.6893 19.4405C93.7889 19.5042 93.8712 19.5915 93.929 19.6946L95.8228 18.6135C95.7642 18.5148 95.6818 18.4323 95.5831 18.3738L87.0803 13.4715C86.9745 13.419 86.858 13.3916 86.7399 13.3916C86.6218 13.3916 86.5053 13.419 86.3995 13.4715L85.1818 14.1547C85.0918 14.2126 85.0151 14.2888 84.9569 14.3785C84.8986 14.4682 84.86 14.5692 84.8438 14.6749Z" fill="white"/>
<path d="M85.9487 22.2237L86.3059 23.4223C86.3194 23.4558 86.3408 23.4855 86.3684 23.5089C86.3959 23.5323 86.4288 23.5486 86.4641 23.5565L87.1688 23.7267C87.2433 23.7463 87.3075 23.7934 87.3486 23.8585C87.4604 24.0863 87.587 24.3065 87.7274 24.5178C87.7643 24.5726 87.7789 24.6395 87.7681 24.7047L87.5404 25.479C87.5358 25.5118 87.539 25.5452 87.5499 25.5764C87.5607 25.6077 87.5788 25.6359 87.6027 25.6588L88.4273 26.5314C88.4406 26.5497 88.4595 26.5631 88.4812 26.5696C88.5029 26.5761 88.526 26.5753 88.5472 26.5673C88.5539 26.563 88.5597 26.5573 88.564 26.5506L88.9499 25.9633C88.9763 25.9201 89.0458 25.9249 89.1081 25.9633C89.1705 26.0016 89.2616 26.0615 89.3359 26.1047C89.4102 26.1478 89.4941 26.1934 89.5756 26.2317C89.6467 26.2648 89.7049 26.3204 89.741 26.39L90.1461 27.4807C90.1624 27.5115 90.186 27.538 90.2148 27.5576C90.2436 27.5772 90.2768 27.5895 90.3115 27.5933L91.0618 27.6676C91.0842 27.6766 91.109 27.6766 91.1314 27.6676C91.1439 27.6603 91.1537 27.6491 91.1593 27.6357C91.1649 27.6223 91.1661 27.6074 91.1625 27.5933L90.9228 26.5194C90.9178 26.4913 90.9231 26.4623 90.9376 26.4377C90.9521 26.4131 90.9749 26.3944 91.0019 26.3852C91.1202 26.3392 91.2303 26.2744 91.3279 26.1934C91.3551 26.1789 91.3864 26.1739 91.4167 26.1791C91.4471 26.1843 91.4749 26.1994 91.4957 26.2222L92.2628 26.9221C92.2849 26.9455 92.3147 26.96 92.3467 26.9629H92.3755C92.3836 26.9574 92.3902 26.95 92.3947 26.9413L92.7375 26.1862C92.7451 26.1552 92.7449 26.1227 92.7369 26.0918C92.729 26.0609 92.7135 26.0323 92.6919 26.0088L91.9728 25.1362C91.928 25.0832 91.9034 25.0162 91.9032 24.9469C91.9212 24.7411 91.9212 24.5342 91.9032 24.3284C91.9029 24.3142 91.9055 24.3002 91.9108 24.2871C91.9161 24.2739 91.9241 24.2621 91.9342 24.2522C91.9444 24.2423 91.9564 24.2346 91.9696 24.2295C91.9829 24.2245 91.997 24.2223 92.0111 24.2229L92.656 24.187C92.7207 24.187 92.7614 24.1342 92.7423 24.0791L92.3875 22.8805C92.3737 22.8474 92.352 22.8182 92.3245 22.7952C92.297 22.7723 92.2643 22.7563 92.2293 22.7487L91.5245 22.5785C91.4498 22.558 91.3855 22.51 91.3447 22.4442C91.2329 22.2173 91.1064 21.9979 90.966 21.7874C90.9294 21.7324 90.9149 21.6656 90.9252 21.6004L91.1649 20.8237C91.1674 20.7905 91.1629 20.7572 91.1517 20.7258C91.1406 20.6944 91.123 20.6657 91.1002 20.6415L90.2756 19.7714C90.2276 19.721 90.1653 19.7114 90.1365 19.7546L89.753 20.3395C89.7266 20.3826 89.6571 20.3778 89.5924 20.3395C89.4454 20.2373 89.2907 20.1468 89.1297 20.0686C89.0581 20.0364 88.9997 19.9805 88.9643 19.9104L88.5592 18.8197C88.5429 18.7888 88.5194 18.7624 88.4905 18.7428C88.4617 18.7231 88.4285 18.7108 88.3938 18.707L87.6435 18.6327C87.6209 18.625 87.5965 18.625 87.574 18.6327C87.5604 18.639 87.5495 18.65 87.5433 18.6636C87.5372 18.6773 87.5361 18.6927 87.5404 18.707L87.7801 19.781C87.7848 19.8087 87.7796 19.8373 87.7657 19.8617C87.7517 19.8862 87.7297 19.9051 87.7034 19.9152C87.5841 19.9606 87.4731 20.0254 87.375 20.107C87.3479 20.1219 87.3165 20.1271 87.2861 20.1219C87.2556 20.1167 87.2278 20.1013 87.2072 20.0782L86.4401 19.3782C86.3993 19.3423 86.3586 19.3303 86.3298 19.3447C86.3205 19.3493 86.3129 19.3569 86.3082 19.3662L85.9679 20.1214C85.9604 20.1526 85.9604 20.1852 85.9679 20.2164C85.9754 20.2477 85.9901 20.2767 86.011 20.3011L86.7301 21.1689C86.7747 21.2229 86.7992 21.2907 86.7997 21.3607C86.7997 21.4638 86.7853 21.5716 86.7853 21.6795C86.7853 21.7874 86.7853 21.8785 86.8021 21.9792C86.8021 21.9934 86.7992 22.0075 86.7936 22.0207C86.788 22.0338 86.7798 22.0456 86.7695 22.0555C86.7592 22.0653 86.747 22.073 86.7336 22.078C86.7203 22.083 86.706 22.0853 86.6918 22.0846L86.0494 22.1206C86.0343 22.1178 86.0189 22.1178 86.0038 22.1206C85.9933 22.1236 85.9836 22.1287 85.9751 22.1355C85.9666 22.1424 85.9596 22.1509 85.9545 22.1605C85.9493 22.1701 85.9462 22.1806 85.9452 22.1915C85.9442 22.2023 85.9454 22.2133 85.9487 22.2237ZM88.7725 24.4147C88.003 23.6044 87.6387 22.3747 87.9575 21.6723C88.0044 21.5473 88.0838 21.437 88.1874 21.3527C88.291 21.2685 88.4152 21.2133 88.5472 21.1929H88.576H88.6023H88.6359C88.8198 21.1893 89.0021 21.2287 89.1681 21.308C89.2333 21.3356 89.2966 21.3676 89.3574 21.4038C89.5675 21.5298 89.7588 21.6847 89.9256 21.8641C90.4797 22.4409 90.8095 23.1967 90.8557 23.9952C90.8567 24.0681 90.8527 24.141 90.8437 24.2133C90.8296 24.3489 90.7948 24.4814 90.7406 24.6065C90.6849 24.7484 90.5876 24.8702 90.4614 24.9558C90.3351 25.0414 90.186 25.0867 90.0335 25.0859H89.9639H89.8848L89.8201 25.0739H89.7889H89.7482C89.3675 24.9503 89.0293 24.7218 88.7725 24.4147Z" fill="white"/>
<path d="M66.8172 23.4316C65.235 23.7433 64.2114 24.5775 63.871 27.0562C63.4659 30.0335 62.8187 34.6097 62.8187 34.6097C62.8187 34.6097 60.7164 40.5666 59.6448 41.9043C59.3366 42.2616 58.9946 42.5883 58.6236 42.8799C57.6384 44.1144 55.3467 44.9367 56.3871 45.6319C57.1853 46.164 58.3911 46.2695 59.5322 45.6319C61.0735 44.7737 61.704 43.7836 62.4687 42.5155C63.4276 40.9358 66.7189 35.0244 66.7189 35.0244L66.8172 23.4316Z" fill="#B16668"/>
<path d="M60.026 41.3174C59.8222 41.6578 59.1199 41.7417 58.4511 41.8759C57.7822 42.0102 57.2693 42.4033 56.8042 42.4992C56.4039 42.5807 56.5189 43.0577 57.2333 43.0961C57.9477 43.1344 58.7891 42.5903 58.9281 43.0961C59.0671 43.6019 60.388 42.2235 60.026 41.3174Z" fill="#B16668"/>
<path d="M61.4235 38.0859L60.9968 39.0784C61.68 39.1239 63.3413 39.9533 63.6337 40.5167L64.221 39.4955L61.4235 38.0859Z" fill="#EBEBEB"/>
<path d="M66.8172 23.4319C66.8172 23.4319 65.2087 23.3815 64.432 24.7623C63.6553 26.1431 62.694 34.5907 62.694 34.5907L61.1431 38.5245C61.7975 38.4789 63.8015 39.5001 64.0604 40.121L66.7644 35.691L66.8172 23.4319Z" fill="#37474F"/>
<path d="M76.5546 74.8027H74.2078V78.8204H76.5546V74.8027Z" fill="#B16668"/>
<path d="M67.1982 73.0748L64.8538 73.154L64.7363 68.9038L67.1982 68.8223V73.0748Z" fill="#B16668"/>
<path d="M76.4681 40.8426C76.4681 43.084 76.377 61.396 76.377 61.396C76.4322 62.0408 77.053 63.1891 77.0962 65.5119C77.1681 68.868 76.6503 76.8122 76.6503 76.8122C76.2451 77.0115 75.8012 77.1196 75.3497 77.1287C74.8983 77.1378 74.4503 77.0478 74.0374 76.8649C74.0374 76.8649 72.194 65.6414 71.7721 62.3093C71.4053 59.3991 70.3841 46.3489 70.3841 46.3489L68.5886 58.7615C68.8611 59.9849 68.9595 61.2406 68.8811 62.4915C68.7708 64.0329 67.3421 71.7566 67.3421 71.7566C66.9335 71.9878 66.479 72.1263 66.0109 72.1623C65.5428 72.1984 65.0725 72.131 64.6333 71.9651C64.6333 71.9651 64.4943 59.8402 64.4655 58.4259C64.4343 56.8126 64.8035 40.3584 64.8035 40.3584L76.4681 40.8426Z" fill="#37474F"/>
<path d="M74.2078 77.6625V77.3269C74.0807 77.3269 74.004 77.4492 73.956 77.7512C73.9201 77.967 73.8889 78.1324 73.817 78.4152C73.7137 78.8254 73.5765 79.2263 73.4071 79.6138C73.0763 80.4313 72.7982 80.7357 72.0383 81.6922C71.782 81.9572 71.5419 82.2374 71.3192 82.5312C71.1777 82.7829 71.1274 83.4901 71.3671 83.6483C72.2541 84.238 73.5989 84.2548 74.5505 83.9743C74.9058 83.876 75.2251 83.6775 75.4704 83.4024C75.7157 83.1273 75.8766 82.7874 75.9337 82.4233C75.9673 82.2076 75.9553 81.9846 75.9793 81.7665C76.0626 81.272 76.2641 80.8049 76.5666 80.4049C76.7437 80.1741 76.8956 79.9249 77.0196 79.6618C77.2162 79.1823 77.058 78.6382 76.9309 78.1564C76.8231 77.7416 76.7056 77.2862 76.5642 77.3245C76.5642 77.3749 76.5642 77.581 76.5642 77.581C76.394 77.7704 75.9217 77.9574 75.3896 77.9766C75.0372 77.9933 74.2054 77.9238 74.2078 77.6625Z" fill="#263238"/>
<path d="M64.8299 72.4302C64.8299 72.4925 64.6118 72.6843 64.3505 72.9096C64.0934 73.1316 63.8245 73.3397 63.545 73.5329C62.9737 73.9501 62.3738 74.3266 61.7496 74.6596C61.0088 75.0671 60.34 75.314 59.4531 75.7143C59.3624 75.752 59.2808 75.8084 59.2133 75.8797C59.1589 75.9426 59.1217 76.0186 59.1055 76.1002C59.0793 76.2676 59.1001 76.439 59.1658 76.5953C59.2314 76.7515 59.3391 76.8863 59.477 76.9848C59.7546 77.1796 60.0697 77.3143 60.4023 77.3803C61.1545 77.5923 61.9473 77.6162 62.7108 77.4499C63.3394 77.2616 63.933 76.9717 64.468 76.5917C64.9436 76.2559 65.4841 76.0232 66.0549 75.9085C66.5535 75.8366 67.1648 75.8605 67.5963 75.5633C68.0757 75.2325 67.8839 74.5277 67.7497 73.9212C67.6011 73.2596 67.4165 72.2264 67.1959 72.272V72.5117C66.9155 72.9384 65.458 73.1134 64.8395 72.7993L64.8299 72.4302Z" fill="#263238"/>
<path d="M70.3889 46.3486C69.1746 45.9676 68.0586 45.3253 67.1191 44.4668C67.1191 44.4668 67.7496 45.6486 69.6266 46.7465L68.7181 58.0732L70.3889 46.3486Z" fill="#263238"/>
<path d="M72.3979 23.6495C73.1962 23.8413 74.8071 24.105 75.1666 25.6967C75.6005 27.6144 75.742 31.7663 75.742 31.7663L75.8906 41.0242C74.2749 42.2012 68.0039 42.8413 64.6023 40.3578C64.6023 40.3578 65.3526 29.2421 65.3526 27.5114C65.3526 25.7806 66.3115 23.7046 68.9699 23.5488L72.3979 23.6495Z" fill="#F5F5F5"/>
<path d="M68.9987 23.3716C68.3841 24.1245 67.9349 24.9985 67.6802 25.9365C67.359 27.3365 67.0546 43.2249 67.0546 43.2249C67.0546 43.2249 65.2399 43.0044 64.4632 42.3955C64.4632 42.3955 64.305 29.41 64.6286 27.3916C65.2064 23.8222 65.1632 23.4674 68.9987 23.1318V23.3716Z" fill="#455A64"/>
<path d="M73.0978 23.1318C73.0978 23.1318 70.8852 24.491 70.8612 29.9062C70.8396 34.5855 70.9116 43.8961 70.9116 43.8961C70.9116 43.8961 74.584 44.1359 76.9045 42.7383C76.9045 42.7383 76.4251 36.8269 76.3891 33.5212C77.348 28.8275 78.187 24.2513 76.8374 23.8798C75.4878 23.5082 73.0978 23.1318 73.0978 23.1318Z" fill="#455A64"/>
<path d="M73.3448 26.0996L72.3332 27.3533L72.839 28.782L71.5085 32.1932L73.1147 28.782L72.5513 27.4348L73.3448 26.0996Z" fill="#37474F"/>
<path d="M66.201 25.6973L66.4216 26.9941L65.5442 28.1352L66.7643 31.9779L65.8199 28.1783L66.6301 27.1116L66.201 25.6973Z" fill="#37474F"/>
<path d="M71.8272 15.5406C71.8277 16.1789 71.6389 16.8029 71.2846 17.3339C70.9303 17.8648 70.4266 18.2787 69.837 18.5233C69.2475 18.7679 68.5987 18.8321 67.9726 18.7079C67.3466 18.5837 66.7714 18.2765 66.3199 17.8254C65.8684 17.3742 65.5609 16.7993 65.4362 16.1734C65.3115 15.5474 65.3753 14.8985 65.6194 14.3088C65.8635 13.7191 66.2771 13.215 66.8078 12.8604C67.3384 12.5057 67.9624 12.3164 68.6006 12.3164C69.4559 12.3164 70.2763 12.656 70.8813 13.2606C71.4864 13.8652 71.8266 14.6853 71.8272 15.5406Z" fill="#263238"/>
<path d="M74.1765 17.834C74.1765 17.834 73.6539 20.2887 73.443 20.6914C73.304 20.9412 73.0738 21.1276 72.8005 21.2116L72.8389 19.4832L74.1765 17.834Z" fill="#263238"/>
<path d="M73.5196 14.3156C73.7009 14.296 73.8843 14.3175 74.0561 14.3785C74.2279 14.4395 74.3838 14.5385 74.5121 14.668C74.9436 15.1091 74.7014 16.4851 74.1669 17.8347L73.1816 17.9474L73.5196 14.3156Z" fill="#263238"/>
<path d="M72.8964 17.9472C73.093 18.0647 73.3759 17.6859 73.6156 17.4318C73.8553 17.1777 74.6535 16.8301 75.0539 17.6715C75.4542 18.5129 74.7039 19.6468 74.0782 19.8434C72.9995 20.1814 72.8389 19.491 72.8389 19.491L72.7574 23.8946C72.0119 24.8535 70.3386 25.9753 69.4373 25.8123C68.7181 25.6829 68.5599 24.4675 69.2479 23.6717V22.0919C68.7696 22.171 68.2842 22.1983 67.8 22.1734C67.0066 22.0512 66.5056 21.4255 66.2682 20.5673C65.9039 19.2561 65.7888 17.7842 66.0621 15.3631C66.4001 12.3882 69.8784 12.3618 71.7434 13.5364C73.6084 14.711 72.8964 17.9472 72.8964 17.9472Z" fill="#B16668"/>
<path d="M72.8964 18.2803C72.9947 18.2803 73.3758 17.6547 73.6155 17.4317C73.9559 17.1225 73.5173 14.3154 73.5173 14.3154C73.6343 14.0684 73.674 13.7919 73.6312 13.522C73.5884 13.2521 73.4652 13.0014 73.2775 12.8028C72.8125 12.2874 72.1605 11.6617 70.0461 11.911C68.5359 12.0908 66.8939 12.5607 65.5682 11.911C65.4459 12.3435 65.4553 12.8026 65.5954 13.2297C65.7355 13.6567 65.9998 14.0322 66.3545 14.3082C66.3545 14.3082 66.8339 14.6174 68.0972 14.7709C69.2634 14.8589 70.4352 14.8364 71.5971 14.7037C71.9639 14.6558 72.0406 15.0106 72.2396 15.979C72.4193 16.83 72.5632 18.2731 72.8964 18.2803Z" fill="#263238"/>
<path d="M73.5173 14.5338L74.7159 13.8937C74.6777 13.8134 74.6236 13.7416 74.5569 13.6828C74.4902 13.6239 74.4122 13.5792 74.3277 13.5514C74.2432 13.5236 74.1539 13.5133 74.0653 13.521C73.9767 13.5288 73.8905 13.5545 73.8121 13.5965C73.6533 13.6862 73.5344 13.8329 73.4797 14.0069C73.4249 14.181 73.4384 14.3693 73.5173 14.5338Z" fill="#263238"/>
<path d="M69.2502 22.0865C69.2502 22.0865 71.0218 21.7293 71.6474 21.4009C72.0106 21.2112 72.308 20.9162 72.5008 20.5547C72.4095 20.9159 72.2465 21.255 72.0214 21.5519C71.5683 22.1296 69.2622 22.5923 69.2622 22.5923L69.2502 22.0865Z" fill="#9A4A4D"/>
<path d="M69.0826 17.4048C69.0859 17.4741 69.1094 17.541 69.1504 17.5971C69.1913 17.6532 69.2478 17.696 69.3128 17.7203C69.3779 17.7446 69.4486 17.7493 69.5163 17.7338C69.584 17.7183 69.6456 17.6832 69.6936 17.633C69.7415 17.5828 69.7737 17.5196 69.7861 17.4513C69.7985 17.3829 69.7905 17.3125 69.7632 17.2486C69.736 17.1848 69.6905 17.1303 69.6326 17.092C69.5747 17.0537 69.5068 17.0333 69.4374 17.0332C69.3411 17.0357 69.2498 17.0762 69.1834 17.1458C69.1169 17.2154 69.0807 17.3085 69.0826 17.4048Z" fill="#263238"/>
<path d="M69.387 16.3645L70.1445 16.784C70.1982 16.6788 70.2087 16.5568 70.1738 16.4439C70.1389 16.3311 70.0613 16.2363 69.9575 16.1799C69.908 16.1539 69.8539 16.1381 69.7982 16.1334C69.7426 16.1286 69.6866 16.135 69.6334 16.1522C69.5803 16.1694 69.5311 16.197 69.4888 16.2335C69.4465 16.2699 69.4118 16.3145 69.387 16.3645Z" fill="#263238"/>
<path d="M69.4108 19.9561L68.6006 20.2557C68.6184 20.3101 68.6469 20.3603 68.6845 20.4035C68.7221 20.4466 68.7679 20.4817 68.8194 20.5068C68.8708 20.5318 68.9268 20.5463 68.9839 20.5493C69.041 20.5523 69.0982 20.5437 69.1519 20.5242C69.2593 20.4803 69.3459 20.397 69.394 20.2915C69.4422 20.1859 69.4482 20.0659 69.4108 19.9561Z" fill="#9A4A4D"/>
<path d="M66.1963 16.6282L66.9921 16.2686C66.9724 16.2147 66.9419 16.1654 66.9024 16.1238C66.8629 16.0822 66.8152 16.0491 66.7624 16.0267C66.7096 16.0042 66.6528 15.9928 66.5954 15.9932C66.538 15.9936 66.4813 16.0057 66.4288 16.0289C66.3191 16.0782 66.2332 16.1687 66.1897 16.2808C66.1462 16.393 66.1486 16.5177 66.1963 16.6282Z" fill="#263238"/>
<path d="M66.3616 17.4048C66.3649 17.4741 66.3885 17.541 66.4294 17.5971C66.4704 17.6532 66.5268 17.696 66.5919 17.7203C66.6569 17.7446 66.7277 17.7493 66.7954 17.7338C66.863 17.7183 66.9247 17.6832 66.9726 17.633C67.0206 17.5828 67.0527 17.5196 67.0651 17.4513C67.0775 17.3829 67.0696 17.3125 67.0423 17.2486C67.015 17.1848 66.9696 17.1303 66.9117 17.092C66.8538 17.0537 66.7859 17.0333 66.7164 17.0332C66.6202 17.0357 66.5289 17.0762 66.4624 17.1458C66.3959 17.2154 66.3597 17.3085 66.3616 17.4048Z" fill="#263238"/>
<path d="M68.0469 17.2139L67.9318 19.3474L66.8171 18.9662L68.0469 17.2139Z" fill="#9A4A4D"/>
<path d="M68.1477 25.5624C68.3658 26.0778 68.7662 26.2815 69.4949 26.3702C69.8605 26.3961 70.2275 26.3474 70.5736 26.227C70.9198 26.1067 71.2378 25.9173 71.5085 25.6702L70.8206 24.9847L69.4542 25.6343L69.0826 24.7617L68.1477 25.5624Z" fill="#37474F"/>
<path d="M68.7181 25.29C68.6134 25.5982 68.5727 25.9245 68.5982 26.2489C68.6325 26.5421 68.7442 26.821 68.9218 27.0568C69.0367 27.1304 69.1671 27.1763 69.3027 27.1908C69.4383 27.2054 69.5755 27.1882 69.7033 27.1407C69.9369 26.9406 70.1244 26.6924 70.2531 26.4132C70.3817 26.1339 70.4485 25.8301 70.4488 25.5226L69.454 25.6352L68.7181 25.29Z" fill="#455A64"/>
<path d="M68.9218 27.0566C68.1475 30.0915 67.6801 35.255 67.7736 35.7752C67.867 36.2953 68.4496 38.1723 68.8978 38.1723C69.3461 38.1723 70.1348 36.3145 70.0748 35.8399C69.9622 34.9361 69.5163 27.0518 69.7033 27.1334L68.9218 27.0566Z" fill="#455A64"/>
<path d="M69.7034 27.1405C69.5772 27.1963 69.4385 27.218 69.3014 27.2032C69.1642 27.1885 69.0333 27.138 68.9219 27.0566L68.8955 27.1573C68.9926 27.2587 69.116 27.3311 69.252 27.3662C69.3879 27.4014 69.5309 27.3979 69.665 27.3563L69.7034 27.1405Z" fill="#37474F"/>
<path d="M69.4541 25.6345C70.8588 24.9273 72.556 23.8941 72.7814 22.7579L72.7934 22.125C72.7934 22.125 73.3447 22.3 73.4885 23.2277C73.3687 24.6181 72.4026 26.0468 71.1465 26.7635L70.4489 25.529L69.4541 25.6345Z" fill="#E0E0E0"/>
<path d="M69.2526 22.5234C69.0262 22.6164 68.8302 22.7709 68.6869 22.9693C67.8455 24.0912 67.9246 26.0089 67.9246 26.0089L68.7181 25.2898L69.454 25.6446C69.1794 25.0267 69.1072 24.3378 69.2478 23.6765L69.2526 22.5234Z" fill="#E0E0E0"/>
<path d="M76.8348 23.8896C77.9327 24.1725 78.6591 24.2612 79.4118 25.6971C80.0662 26.946 83.0867 32.1695 83.7267 33.4232C84.0479 34.0441 84.3668 34.7536 83.5182 35.6142C82.8374 36.2998 78.357 40.5068 77.6259 41.226C77.1001 41.7834 76.3858 42.1252 75.6219 42.1849C74.4832 42.2855 73.9271 41.8828 73.7257 41.6359C72.5271 40.1521 74.8284 39.9267 75.6219 39.4353C75.9892 39.2106 76.3178 38.9281 76.5951 38.5987L76.5472 37.8124C76.5472 37.8124 77.3862 37.8124 77.6547 37.5991C77.9231 37.3857 80.3131 34.279 80.3131 34.279C80.3131 34.279 76.8948 29.7795 76.4561 28.8374C76.0174 27.8953 75.5188 24.6136 76.8348 23.8896Z" fill="#B16668"/>
<path d="M78.2684 36.6924L77.7195 37.4451C77.6978 37.9249 77.8569 38.3954 78.1654 38.7635C78.4841 39.1728 78.8947 39.5013 79.364 39.7224L80.0831 39.0296L78.2684 36.6924Z" fill="#EBEBEB"/>
<path d="M77.952 36.9805C77.952 36.9805 78.1294 38.951 79.829 39.4952C79.829 39.4952 83.8706 35.6381 84.2493 35.1155C84.6281 34.5929 84.3644 34.044 83.5518 32.6177C82.7391 31.1914 79.5461 25.3686 79.0163 24.7621C78.4865 24.1557 77.6308 24.043 76.401 23.7793C75.7998 24.8813 75.6184 26.1639 75.8904 27.3894C76.3698 29.3599 76.8085 29.8825 76.8085 29.8825L79.9464 34.3293L77.952 36.9805Z" fill="#37474F"/>
<path d="M45.8681 62.1365C45.8827 62.3844 45.8198 62.6307 45.6883 62.8413C45.3585 63.3897 44.9695 63.9002 44.5281 64.3635C43.9072 65.0323 42.9771 65.821 42.3107 66.4011C41.9416 66.7247 41.9272 67.2138 42.457 67.384C43.4439 67.6265 44.4862 67.4815 45.3695 66.9788C46.0311 66.6241 46.9732 64.982 47.527 64.7327C48.1574 64.4474 48.5122 64.3036 48.7256 64.0135C49.0444 63.5773 49.1259 63.2512 48.8526 62.743C48.5554 62.1893 48.1071 61.3335 47.9225 61.427L47.98 61.6044C47.8362 62.0574 46.6017 62.5848 45.9688 62.4578L45.8681 62.1365Z" fill="#37474F"/>
<path d="M50.701 65.205V64.9005C50.6411 65.3632 50.0274 66.7847 49.1884 67.5518C48.5196 68.1607 47.6086 68.863 47.3761 69.5414C47.1436 70.2198 48.4524 70.5291 49.3154 70.4428C50.1544 70.3398 50.9272 69.9351 51.4897 69.3041C52.0386 68.6761 52.029 68.2446 52.2855 67.8994C52.542 67.5542 53.1317 67.1634 53.2708 66.7631C53.3475 66.5426 53.2564 66.0607 53.1485 65.6532C53.0406 65.2457 52.9447 64.867 52.8177 64.9005V65.1402C52.5157 65.3769 52.1418 65.503 51.7581 65.4974C51.4489 65.5022 50.6986 65.4399 50.701 65.205Z" fill="#37474F"/>
<path d="M54.172 43.0283C54.4812 39.9958 55.1021 35.1847 54.4117 31.7879C50.907 31.2581 47.4359 30.7835 43.8929 30.3496C43.0395 34.7508 42.632 46.473 43.0803 48.1151C44.322 53.1491 44.9572 56.9079 45.698 61.9276C45.7665 62.2633 45.7085 62.6125 45.535 62.908C45.2541 63.3972 44.9179 63.8525 44.5329 64.2648C44.2357 64.5812 43.9552 64.9336 43.634 65.2429C43.602 65.2737 43.5771 65.3111 43.5609 65.3524C43.5448 65.3938 43.5378 65.4382 43.5405 65.4826C43.6004 65.962 44.2932 65.8853 44.7775 65.7223C45.3906 65.4926 45.9214 65.0853 46.3021 64.5525C46.6257 64.1402 47.2609 63.3946 47.5965 62.9536C47.7303 62.7846 47.8475 62.6032 47.9465 62.4118C48.0595 62.1603 48.0824 61.8775 48.0112 61.6111C47.998 61.5414 47.9884 61.471 47.9825 61.4002C47.9633 60.7122 48.6489 53.2234 48.4451 51.5142C48.2222 49.6588 47.9657 49.1315 47.3448 47.5805C47.7811 44.3851 48.1934 40.9955 48.6201 37.7521C48.6944 41.2567 48.7088 45.2552 49.1595 48.6185C49.5191 51.3105 49.6941 53.1731 49.9793 55.81C50.2526 58.339 50.5834 63.0015 50.6146 63.6943C50.6412 64.1316 50.6283 64.5705 50.5762 65.0055C50.3662 65.975 49.8858 66.8652 49.1907 67.5729C49.03 67.7191 48.8551 67.8702 48.6801 68.0236C48.3253 68.4191 48.426 68.7643 49.2602 68.8362C50.0944 68.9081 50.8303 68.4047 51.4632 67.6376C51.746 67.2924 52.8176 65.5233 52.8176 65.1637C52.8176 65.0583 52.8176 64.96 52.8176 64.8737C52.8242 64.2149 52.8827 63.5576 52.9926 62.908C53.3426 60.8369 54.0953 57.1021 54.2199 55.4456C54.4189 52.8087 54.2199 51.5358 53.5511 49.4527C53.8052 46.8637 53.8699 45.9744 54.172 43.0283Z" fill="#FFA8A7"/>
<path d="M44.3674 28.4922C43.7692 30.7477 43.3642 33.0502 43.1569 35.3745C42.8524 39.0565 42.5336 46.5453 42.6774 47.2836C42.8213 48.022 44.9811 57.2846 44.9811 57.2846C45.5527 57.5638 46.1979 57.6553 46.8245 57.5459C47.3497 57.4327 47.8459 57.2123 48.282 56.8987C48.282 56.8987 48.7471 52.6869 48.5745 51.0448C48.4019 49.4027 47.5796 47.449 47.5796 47.449L48.6224 37.7381C48.6224 37.7381 48.493 43.5153 48.8142 46.8929C49.1354 50.2705 50.2046 58.1404 50.2046 58.1404C50.4119 58.369 50.6662 58.5501 50.95 58.6713C51.2338 58.7925 51.5405 58.851 51.849 58.8428C52.5318 58.8338 53.2028 58.6638 53.8075 58.3466C53.8075 58.3466 54.1863 56.5918 54.3445 55.2063C54.5677 53.313 54.3712 51.3938 53.7691 49.5849C53.7691 49.5849 54.5674 40.375 54.8479 38.3637C55.1283 36.3525 55.8523 32.7448 53.5534 29.4055C53.3305 29.312 44.3674 28.4922 44.3674 28.4922Z" fill="#37474F"/>
<path d="M48.6224 37.7381V37.3042C48.6224 37.3042 46.465 36.6282 45.427 35.293C45.427 35.293 45.9232 36.5611 48.0639 37.7381C48.0639 37.7381 48.0183 43.4242 48.0231 43.3642C48.0279 43.3043 48.6224 37.7381 48.6224 37.7381Z" fill="#263238"/>
<path d="M43.1737 19.15C42.4042 21.4154 41.1193 27.9237 41.1193 27.9237C41.1193 27.9237 38.7222 31.4212 37.9023 32.4256C37.4924 32.9314 36.6055 33.9358 36.6055 33.9358L38.6119 35.5131C40.0646 33.8351 42.2556 31.6081 43.1665 30.4527C43.598 29.899 43.9576 29.4243 44.0727 28.9377L44.986 23.1485C44.986 23.1485 44.986 18.522 45.7051 17.9131C46.4243 17.3042 46.6161 17.1796 46.6161 17.1796C45.6884 17.1148 43.7778 17.3785 43.1737 19.15Z" fill="#FFA8A7"/>
<path d="M47.0163 17.1155C45.765 16.9717 44.1637 16.9957 43.3822 18.3956C42.6007 19.7956 41.2991 27.0063 41.2991 27.0063C41.2991 27.0063 42.5288 27.9651 43.8593 27.9484L47.0163 17.1155Z" fill="#455A64"/>
<path d="M43.5382 23.8516C43.7644 24.9291 43.8522 26.0311 43.7995 27.1309C43.6988 28.5692 42.6704 31.2301 42.6704 31.2301C42.6704 31.2301 43.4807 31.966 45.6861 31.6208C47.4791 31.3403 46.8463 25.9275 45.8155 24.8799C45.2143 24.2607 44.4003 23.893 43.5382 23.8516Z" fill="#37474F"/>
<path d="M50.2215 17.218C50.2215 17.218 53.218 17.5632 53.5775 17.7239C50.7681 19.6991 53.043 24.0979 53.043 24.0979L51.9666 27.4708C52.657 28.3577 53.2947 29.0337 53.8316 29.7744C54.2501 30.3326 54.5882 30.9466 54.8361 31.5987C55.5552 33.4757 47.5367 36.4578 43.1594 33.001C43.3344 31.9151 43.6125 30.786 43.8618 29.7744C44.2046 28.3721 44.497 27.1903 44.3988 26.6413C43.1402 22.7651 43.0635 22.0675 43.2865 21.2021C43.9145 18.769 46.4028 17.127 47.0069 17.127L50.2215 17.218Z" fill="#ED7600"/>
<path d="M50.2214 17.2178C50.2214 17.2178 53.0261 17.4575 53.5775 17.7236C54.1288 17.9897 55.0421 19.5646 54.2223 21.8635C53.4025 24.1624 52.6618 26.8616 52.7457 27.4058C52.8296 27.9499 54.7833 30.7618 54.7833 30.7618C54.2151 31.1286 53.6134 31.5097 52.9854 31.6248L51.9786 29.4314L52.2183 31.7542C52.2183 31.7542 50.418 32.1905 49.1307 32.0802C49.1283 32.0802 48.1766 23.1676 50.2214 17.2178Z" fill="#455A64"/>
<path d="M43.1091 16.3818H47.7501C48.476 16.3818 49.1948 16.2388 49.8655 15.961C50.5362 15.6832 51.1455 15.276 51.6589 14.7627C52.1722 14.2494 52.5794 13.64 52.8572 12.9694C53.135 12.2987 53.2779 11.5799 53.2779 10.8539C53.2773 9.50566 52.7414 8.21279 51.788 7.25942C50.8347 6.30605 49.5418 5.77017 48.1935 5.76953C47.5258 5.76953 46.8647 5.90104 46.2478 6.15656C45.6309 6.41207 45.0704 6.78659 44.5983 7.25872C44.1262 7.73085 43.7517 8.29135 43.4962 8.90822C43.2406 9.52509 43.1091 10.1862 43.1091 10.8539V16.3818Z" fill="#263238"/>
<path d="M45.0532 8.06543C44.5138 8.38186 43.8546 9.74345 43.917 12.5649C43.9721 14.9621 44.7512 15.5566 45.1419 15.7292C45.5326 15.9018 46.2854 15.7963 47.0165 15.6741V17.1124C47.0165 17.1124 46.0049 18.287 46.0576 18.9486C46.1104 19.6102 47.5175 19.7636 48.4548 19.1188C49.3921 18.474 50.1999 17.2154 50.1999 17.2154L50.1856 13.9049C50.1856 13.9049 50.6147 14.322 51.3458 13.6844C51.9499 13.157 52.1536 12.2677 51.6838 11.7882C51.5618 11.6739 51.4142 11.5903 51.2535 11.5443C51.0927 11.4983 50.9232 11.4913 50.7592 11.5239C50.5952 11.5565 50.4413 11.6277 50.3102 11.7316C50.1792 11.8355 50.0748 11.9691 50.0058 12.1214C50.0058 12.1214 49.5982 10.9924 47.9106 10.4434C46.4124 9.94721 45.5854 9.37189 45.0532 8.06543Z" fill="#FFA8A7"/>
<path d="M46.6616 11.8652C46.6612 11.9244 46.6782 11.9824 46.7105 12.032C46.7429 12.0816 46.789 12.1207 46.8433 12.1443C46.8977 12.1678 46.9577 12.175 47.016 12.1647C47.0743 12.1544 47.1284 12.1272 47.1713 12.0865C47.2143 12.0458 47.2444 11.9934 47.2578 11.9357C47.2713 11.878 47.2674 11.8177 47.2468 11.7622C47.2263 11.7066 47.1898 11.6584 47.142 11.6234C47.0942 11.5885 47.0372 11.5683 46.9781 11.5655C46.8964 11.5636 46.8174 11.594 46.7581 11.6501C46.6988 11.7063 46.6641 11.7836 46.6616 11.8652Z" fill="#263238"/>
<path d="M46.5154 13.9961L45.8154 14.219C45.8278 14.2661 45.8496 14.3101 45.8795 14.3485C45.9093 14.3869 45.9467 14.4188 45.9893 14.4424C46.0319 14.4659 46.0788 14.4806 46.1272 14.4854C46.1756 14.4903 46.2245 14.4853 46.2709 14.4707C46.3653 14.4389 46.4437 14.3715 46.4893 14.2829C46.5349 14.1944 46.5443 14.0915 46.5154 13.9961Z" fill="#F28F8F"/>
<path d="M44.219 11.1458L44.8302 10.7215C44.8048 10.6804 44.7712 10.645 44.7315 10.6174C44.6918 10.5897 44.6469 10.5705 44.5996 10.5609C44.5522 10.5512 44.5034 10.5513 44.4561 10.5612C44.4087 10.5711 44.364 10.5906 44.3244 10.6184C44.2427 10.6761 44.1861 10.763 44.1665 10.8611C44.1469 10.9592 44.1657 11.0611 44.219 11.1458Z" fill="#263238"/>
<path d="M47.4743 11.2592L46.863 10.8349C46.889 10.794 46.9229 10.7588 46.9628 10.7313C47.0027 10.7039 47.0477 10.6848 47.0952 10.6751C47.1426 10.6655 47.1916 10.6656 47.239 10.6753C47.2864 10.6851 47.3314 10.7043 47.3712 10.7318C47.4526 10.7899 47.5086 10.8769 47.5278 10.975C47.547 11.0731 47.5278 11.1748 47.4743 11.2592Z" fill="#263238"/>
<path d="M44.3794 11.7978C44.379 11.8569 44.396 11.9148 44.4282 11.9644C44.4604 12.0139 44.5065 12.0529 44.5607 12.0766C44.6148 12.1002 44.6747 12.1074 44.733 12.0973C44.7912 12.0872 44.8452 12.0603 44.8883 12.0198C44.9314 11.9793 44.9616 11.9271 44.9753 11.8696C44.989 11.8121 44.9855 11.7518 44.9652 11.6963C44.945 11.6408 44.9089 11.5924 44.8615 11.5572C44.814 11.5219 44.7572 11.5014 44.6982 11.4981C44.6164 11.4962 44.537 11.5265 44.4774 11.5826C44.4177 11.6387 44.3825 11.716 44.3794 11.7978Z" fill="#263238"/>
<path d="M45.8345 11.5703L45.7866 13.3874L44.8301 13.0901L45.8345 11.5703Z" fill="#F28F8F"/>
<path d="M47.0164 15.6742C47.7882 15.5711 49.3776 15.1156 49.6245 14.4756C49.525 14.7929 49.3309 15.0722 49.0683 15.2762C48.5889 15.6838 47.0164 16.1416 47.0164 16.1416V15.6742Z" fill="#F28F8F"/>
<path d="M57.3699 28.1659C57.5905 26.8426 57.3699 26.4111 56.9025 25.1143L54.3015 26.6341C54.3015 26.6341 54.6827 27.6097 54.6515 28.1659C54.6299 28.5446 54.1122 32.3345 53.6231 33.6554C53.5348 33.8884 53.3643 34.0811 53.1437 34.1971C52.5516 34.5136 52.2975 34.8612 51.842 35.2783C51.4825 35.6043 51.1924 35.6714 51.2284 35.7865C51.2845 35.9136 51.3865 36.0148 51.5141 36.07C51.6416 36.1251 51.7853 36.13 51.9164 36.0837C52.2083 35.9905 52.4883 35.8634 52.7506 35.705C52.5184 36.2036 52.2076 36.6617 51.8301 37.0618C50.9695 37.9799 50.8928 38.5768 52.4965 38.7014C53.4985 38.7781 54.3447 38.222 55.2508 36.0645C55.533 35.2712 55.7652 34.461 55.946 33.6386C56.4302 31.7376 57.147 29.4939 57.3699 28.1659Z" fill="#FFA8A7"/>
<path d="M53.5752 17.7236C54.7042 18.2318 55.0854 19.2075 55.6679 20.7393C56.2121 22.1776 57.4178 26.5716 57.4178 26.5716C57.4178 26.5716 56.0515 27.9212 54.4837 27.5305L52.4845 22.6522C52.4845 22.6522 51.5448 19.464 53.5752 17.7236Z" fill="#37474F"/>
<path d="M13.07 82.4754C12.8998 82.5401 12.8015 82.8637 12.7248 83.6524C12.6768 84.1318 12.5114 84.7863 13.2569 85.1818C13.5294 85.3224 13.8322 85.3943 14.1388 85.3914C14.4454 85.3885 14.7467 85.3108 15.0165 85.165C15.6613 84.7647 15.8627 83.8514 16.6202 83.2473C17.2842 82.7271 18.3509 82.2069 18.7225 81.4038C19.0293 80.7422 19.0293 79.7953 17.929 79.8457C16.589 79.908 15.8291 80.9652 14.9206 80.9867C14.4124 81.0059 13.2426 82.413 13.07 82.4754Z" fill="#263238"/>
<path d="M13.0723 82.0869V82.8828C13.0723 83.2711 14.7263 83.8417 15.189 82.9619C15.2249 82.8852 15.4047 81.7969 15.4047 81.7969L13.0723 82.0869Z" fill="#FFBDA7"/>
<path d="M20.736 87.1074C20.736 87.1074 20.422 87.1074 20.2997 88.3899C20.2518 88.8693 20.1343 89.8809 20.2997 90.2453C20.4651 90.6097 21.3713 90.7679 22.3853 90.859C23.1428 90.9261 23.8236 91.2929 24.5259 91.6884C25.1899 92.063 25.9357 92.2688 26.6978 92.2877C27.6566 92.2877 28.4693 92.1918 29.1525 91.6501C29.5169 91.3624 29.9771 90.7559 29.6319 90.3005C29.4915 90.1613 29.313 90.067 29.1189 90.0296C28.6922 89.8714 28.2631 89.7251 27.8268 89.5885C27.1767 89.3972 26.542 89.1568 25.9283 88.8693C25.0341 88.4283 24.0369 87.9344 23.3609 87.1793L20.736 87.1074Z" fill="#263238"/>
<path d="M20.741 86.4434C20.741 86.4434 20.741 87.0331 20.741 87.3711C20.741 87.7091 21.1341 88.2125 22.1649 88.1813C22.884 88.1597 23.3946 87.968 23.3635 87.3711V86.5105L20.741 86.4434Z" fill="#FFBDA7"/>
<path d="M12.6096 71.5301C12.7923 70.1227 13.1135 68.7368 13.5685 67.3926C13.5685 67.3926 13.3024 63.816 13.185 60.4264C13.0787 56.9534 13.1755 53.4771 13.475 50.0154C13.475 50.0154 24.9815 48.9223 25.1804 53.1557C25.3794 57.3892 25.0965 68.1549 24.9407 70.0127C24.7849 71.8705 24.6435 73.6084 24.2503 77.0699C23.9123 80.0472 23.3658 86.51 23.3658 86.51C22.9548 86.7174 22.499 86.8197 22.0389 86.808C21.5788 86.7963 21.1287 86.6709 20.7289 86.4429C20.7289 86.4429 19.8611 77.7651 19.77 75.622C19.6406 72.8413 20.2902 71.3071 20.2902 71.3071C20.2902 71.3071 20.0505 69.5596 19.6142 65.9638C19.3121 63.4228 18.9094 60.5294 18.9094 60.5294C18.9094 60.5294 18.5163 64.1108 18.2766 66.1077C18.056 67.9583 17.6797 69.4206 17.1235 72.8701C16.6441 75.8642 15.328 82.1975 15.328 82.1975C13.9736 82.9166 13.0675 82.0872 13.0675 82.0872C13.0675 82.0872 12.2309 74.1262 12.6096 71.5301Z" fill="#37474F"/>
<path d="M18.9141 60.5269L18.37 56.9935C18.37 56.9935 16.1286 56.2743 14.9875 54.9463C14.9875 54.9463 15.5964 56.4997 17.6844 57.3435L18.521 60.3208L18.6648 62.7779L18.9141 60.5269Z" fill="#263238"/>
<path d="M15.8435 35.8366C14.048 35.4027 12.9117 36.2729 12.2477 38.7132C11.6796 40.8083 10.8478 45.1424 10.5241 46.7605C10.4043 47.3598 10.1694 48.0478 11.4303 48.8029C13.2588 49.861 15.146 50.8142 17.0828 51.6579L17.7732 49.0762L14.9877 43.3637L15.8435 35.8366Z" fill="#ED7600"/>
<path opacity="0.25" d="M15.8435 35.8366C14.048 35.4027 12.9117 36.2729 12.2477 38.7132C11.6796 40.8083 10.8478 45.1424 10.5241 46.7605C10.4043 47.3598 10.1694 48.0478 11.4303 48.8029C13.2588 49.861 15.146 50.8142 17.0828 51.6579L17.7732 49.0762L14.9877 43.3637L15.8435 35.8366Z" fill="black"/>
<path d="M20.8055 34.6883L20.2685 38.4686L16.8669 38.3511L17.1954 33.9355L20.8055 34.6883Z" fill="#FFBDA7"/>
<path d="M23.2458 30.0234C23.2458 30.0234 24.1592 31.3611 24.0585 31.4953C23.9578 31.6295 23.3058 31.759 23.3058 31.759L23.2458 30.0234Z" fill="#F0997A"/>
<path d="M21.8197 29.8023C21.8164 29.5828 21.8783 29.3673 21.9975 29.183C22.1167 28.9987 22.2878 28.8538 22.4893 28.7668C22.6908 28.6797 22.9136 28.6544 23.1296 28.694C23.3455 28.7335 23.5448 28.8362 23.7023 28.9891C23.8599 29.1419 23.9686 29.3381 24.0146 29.5527C24.0607 29.7673 24.0421 29.9908 23.9612 30.1948C23.8803 30.3988 23.7407 30.5743 23.5601 30.699C23.3794 30.8237 23.1659 30.8921 22.9464 30.8954C22.8006 30.8977 22.6558 30.8711 22.5203 30.8174C22.3848 30.7637 22.2612 30.6838 22.1566 30.5823C22.052 30.4807 21.9684 30.3596 21.9106 30.2258C21.8528 30.092 21.8219 29.9481 21.8197 29.8023ZM22.0594 29.8023C22.0623 29.973 22.1157 30.1389 22.2129 30.2792C22.3101 30.4195 22.4467 30.5279 22.6054 30.5905C22.7642 30.6532 22.9379 30.6674 23.1048 30.6313C23.2716 30.5952 23.4239 30.5105 23.5426 30.3878C23.6612 30.2651 23.7409 30.11 23.7714 29.9421C23.8019 29.7742 23.7819 29.601 23.714 29.4444C23.6461 29.2878 23.5332 29.1549 23.3898 29.0624C23.2463 28.97 23.0787 28.9221 22.908 28.925C22.6808 28.9306 22.465 29.0257 22.3075 29.1895C22.1499 29.3533 22.0634 29.5727 22.0666 29.7999L22.0594 29.8023Z" fill="#263238"/>
<path d="M20.7145 26.3221C22.522 26.6744 23.0566 27.4583 23.2699 30.3206C23.4952 33.3098 23.2052 34.2543 22.8192 34.6642C22.5579 34.9399 21.0837 35.0118 20.3358 34.82C19.4009 34.5803 17.2842 33.8612 16.275 32.3749C15.0764 30.6226 14.7456 28.2278 15.9705 27.2234C17.6989 25.8091 19.9786 26.1806 20.7145 26.3221Z" fill="#FFBDA7"/>
<path d="M20.7769 34.8963C21.5559 34.9802 22.6011 34.8963 22.8192 34.6565C21.9491 34.7117 20.8823 34.2754 20.8823 34.2754L20.7769 34.8963Z" fill="#F0997A"/>
<path d="M23.5504 27.0436L23.4953 27.1011C23.1381 27.4511 22.6778 27.6764 22.2967 28.0072C21.8902 28.3756 21.6003 28.8547 21.4625 29.3856C21.345 29.8219 21.3043 30.3445 20.8344 30.5458C20.8344 30.5458 20.518 29.3928 19.5447 29.5534C18.5715 29.714 18.454 30.9701 19.0845 31.7109C19.7149 32.4516 20.2831 32.1591 20.2831 32.1591C20.2831 32.1591 20.2831 33.8156 19.5639 34.7625C19.5639 34.7625 18.7345 35.0453 17.1955 34.7433C16.2366 34.5563 14.8966 33.4009 14.3189 32.1615C13.0916 29.539 12.9717 27.1658 14.6449 26.4251C14.8079 25.2073 15.7572 24.6464 16.8455 24.3779C18.4732 23.9776 20.017 24.9221 21.6255 24.5361C21.9635 24.4546 22.2895 24.3276 22.6323 24.2796C22.6707 24.2688 22.7114 24.2688 22.7498 24.2796C22.8337 24.3204 22.8289 24.4378 22.8073 24.5193C22.725 24.8444 22.5664 25.1452 22.3446 25.3967C22.9643 25.4237 23.5836 25.3359 24.1713 25.1378C24.2146 25.4816 24.1814 25.8307 24.0741 26.1602C23.9667 26.4896 23.7879 26.7913 23.5504 27.0436Z" fill="#263238"/>
<path d="M14.8893 27.024L13.801 26.4055C13.8416 26.3341 13.8959 26.2713 13.9608 26.2208C14.0257 26.1703 14.0998 26.1331 14.1791 26.1113C14.2583 26.0895 14.3411 26.0835 14.4226 26.0937C14.5042 26.1039 14.583 26.13 14.6544 26.1706C14.7259 26.2112 14.7886 26.2655 14.8391 26.3304C14.8896 26.3952 14.9268 26.4694 14.9486 26.5486C14.9704 26.6279 14.9764 26.7107 14.9663 26.7922C14.9561 26.8738 14.93 26.9525 14.8893 27.024Z" fill="#263238"/>
<path d="M20.8584 31.1933L20.8057 29.942C20.8878 29.9385 20.9699 29.9513 21.0471 29.9795C21.1243 30.0077 21.1953 30.0509 21.2558 30.1066C21.3163 30.1622 21.3653 30.2292 21.4 30.3038C21.4346 30.3784 21.4542 30.4591 21.4577 30.5413C21.4612 30.6234 21.4484 30.7055 21.4202 30.7827C21.3919 30.8599 21.3487 30.9308 21.2931 30.9914C21.2374 31.0519 21.1704 31.1009 21.0958 31.1356C21.0212 31.1702 20.9406 31.1898 20.8584 31.1933Z" fill="#263238"/>
<path d="M23.9314 29.5391L20.585 30.0257L20.724 30.2582L23.9362 29.7908L23.9314 29.5391Z" fill="#263238"/>
<path d="M13.1131 37.8139C13.5111 36.2605 14.072 35.7547 15.4216 35.7188C16.1183 35.7662 16.8115 35.855 17.4976 35.9848C17.639 36.6393 19.3338 37.0851 21.0478 36.7304C21.5584 36.879 22.908 37.2481 23.3299 37.4016C24.5429 37.8402 25.1326 39.1012 25.2117 43.0996C25.2117 43.0996 25.4514 52.5829 25.2117 54.2201C22.1529 55.4187 18.979 55.3588 17.2243 54.968C13.5758 54.1506 13.1491 52.6332 13.1491 52.6332C13.1491 52.6332 13.3409 48.8265 13.4631 45.9331C13.281 44.0897 13.0053 42.7041 12.907 41.2322C12.8171 40.0887 12.8865 38.9383 13.1131 37.8139Z" fill="#ED7600"/>
<path d="M33.8152 37.16C34.11 36.4121 34.5343 35.0792 35.2391 34.1683C35.9439 33.2574 36.198 32.5886 36.4689 32.9865C36.8332 33.5139 36.011 34.5686 36.1932 34.6645C36.3754 34.7604 37.061 36.158 37.1305 36.9299C37.2 37.7017 35.1552 39.6435 35.1552 39.6435L33.8152 37.16Z" fill="#FFBDA7"/>
<path d="M23.3298 37.4022C23.9546 37.5222 24.539 37.7976 25.0294 38.2029C25.8804 38.922 30.1761 42.2781 30.1761 42.2781L34.0356 36.6807L35.9245 38.8549C35.9245 38.8549 33.0959 44.2389 31.9117 46.2526C31.5425 46.883 30.6076 47.0005 28.9943 46.0704C27.6519 45.2961 23.2411 42.5274 23.2411 42.5274C23.2411 42.5274 22.1408 39.3271 23.3298 37.4022Z" fill="#FFBDA7"/>
<path d="M23.0974 37.3223C23.5432 37.3477 23.9794 37.4627 24.3798 37.6603C25.0199 37.9863 30.1762 42.1813 30.1762 42.1813L31.4922 40.3763C32.5542 40.6447 33.3333 41.1314 34.1483 42.2029C34.1483 42.2029 32.71 45.2737 32.1059 46.3069C31.5018 47.34 30.9793 47.1171 29.8334 46.6233C28.6876 46.1295 23.9627 43.3631 23.9627 43.3631C23.9627 43.3631 22.6179 42.445 22.407 40.9108C22.0138 37.9935 23.0974 37.3223 23.0974 37.3223Z" fill="#ED7600"/>
<path opacity="0.1" d="M23.0974 37.3223C23.5432 37.3477 23.9794 37.4627 24.3798 37.6603C25.0199 37.9863 30.1762 42.1813 30.1762 42.1813L31.4922 40.3763C32.5542 40.6447 33.3333 41.1314 34.1483 42.2029C34.1483 42.2029 32.71 45.2737 32.1059 46.3069C31.5018 47.34 30.9793 47.1171 29.8334 46.6233C28.6876 46.1295 23.9627 43.3631 23.9627 43.3631C23.9627 43.3631 22.6179 42.445 22.407 40.9108C22.0138 37.9935 23.0974 37.3223 23.0974 37.3223Z" fill="black"/>
<path opacity="0.1" d="M30.1763 42.1818C30.5608 42.5558 30.9249 42.9503 31.267 43.3636C31.267 43.3636 31.2382 42.6252 30.404 41.8701L30.1763 42.1818Z" fill="black"/>
<path d="M31.4922 40.3766L32.1634 39.4033C32.7206 39.4909 33.2503 39.7049 33.712 40.029C34.1382 40.2973 34.4895 40.6693 34.7332 41.1101L34.1483 42.2032C33.4352 41.3755 32.5202 40.7463 31.4922 40.3766Z" fill="#ED7600"/>
<path opacity="0.25" d="M31.4922 40.3766L32.1634 39.4033C32.7206 39.4909 33.2503 39.7049 33.712 40.029C34.1382 40.2973 34.4895 40.6693 34.7332 41.1101L34.1483 42.2032C33.4352 41.3755 32.5202 40.7463 31.4922 40.3766Z" fill="black"/>
<path d="M34.3281 41.2325C34.3281 41.2802 34.3091 41.3259 34.2754 41.3597C34.2417 41.3934 34.196 41.4123 34.1483 41.4123C34.1006 41.4123 34.0549 41.3934 34.0212 41.3597C33.9875 41.3259 33.9685 41.2802 33.9685 41.2325C33.9685 41.1848 33.9875 41.1391 34.0212 41.1054C34.0549 41.0717 34.1006 41.0527 34.1483 41.0527C34.196 41.0527 34.2417 41.0717 34.2754 41.1054C34.3091 41.1391 34.3281 41.1848 34.3281 41.2325Z" fill="#455A64"/>
<path d="M17.1163 35.0018L17.0875 35.3662C17.0875 35.3662 17.2673 35.8792 18.2861 36.071C20.0216 36.3946 20.6281 35.8552 20.6281 35.8552L20.6713 35.5436C20.6713 35.5436 20.8391 35.4741 21.1195 35.6898C21.5465 36.1348 21.9468 36.6046 22.3181 37.097C22.3181 37.097 21.9873 36.9987 20.9038 37.4613C19.8217 37.8821 18.6296 37.9269 17.519 37.5884C17.2097 37.4853 16.933 37.3028 16.7163 37.0593C16.4997 36.8157 16.3508 36.5196 16.2844 36.2004C16.2605 35.884 16.8166 34.8772 17.1163 35.0018Z" fill="#ED7600"/>
<path opacity="0.25" d="M17.1163 35.0018L17.0875 35.3662C17.0875 35.3662 17.2673 35.8792 18.2861 36.071C20.0216 36.3946 20.6281 35.8552 20.6281 35.8552L20.6713 35.5436C20.6713 35.5436 20.8391 35.4741 21.1195 35.6898C21.5465 36.1348 21.9468 36.6046 22.3181 37.097C22.3181 37.097 21.9873 36.9987 20.9038 37.4613C19.8217 37.8821 18.6296 37.9269 17.519 37.5884C17.2097 37.4853 16.933 37.3028 16.7163 37.0593C16.4997 36.8157 16.3508 36.5196 16.2844 36.2004C16.2605 35.884 16.8166 34.8772 17.1163 35.0018Z" fill="black"/>
<path d="M36.1355 34.5548C36.1355 34.5548 38.607 34.3414 38.969 34.5548C39.3309 34.7681 39.2207 35.8373 38.969 36.4941C38.7173 37.1509 37.4563 37.5776 36.2865 38.3687C36.2841 38.2512 36.1355 34.5548 36.1355 34.5548Z" fill="#FFBDA7"/>
<path d="M36.2866 38.3642C36.7661 38.0118 36.7661 37.5803 36.8667 36.8923C36.9674 36.2044 38.8492 35.454 38.9091 35.9766C38.9691 36.4992 39.1488 36.9187 38.5591 37.5396C37.9694 38.1604 37.152 38.8269 36.2866 38.3642Z" fill="#FFA8A7"/>
<path d="M36.4184 33.9359C35.9678 34.5208 35.8911 35.2112 35.6537 35.5923C35.4164 35.9735 35.0545 36.4122 35.577 36.4817C36.0996 36.5512 36.7349 35.8704 37.0153 35.2496C37.1605 34.9003 37.433 34.6192 37.7776 34.4633C37.5379 34.3794 37.6602 33.3941 37.4876 33.2647C37.4948 33.2599 36.6054 33.6219 36.4184 33.9359Z" fill="#FFA8A7"/>
</svg>