<svg width="167" height="151" viewBox="0 0 167 151" fill="none" xmlns="http://www.w3.org/2000/svg">
<path d="M24.3123 138.299C56.7267 155.235 109.288 155.235 141.703 138.299C174.117 121.363 174.121 93.9063 141.703 76.9704C109.285 60.0346 56.7267 60.0346 24.3123 76.9704C-8.10216 93.9063 -8.10602 121.363 24.3123 138.299Z" fill="#E3E3E3"/>
<path d="M108.34 134.014C118.115 134.014 126.039 130.237 126.039 125.579C126.039 120.92 118.115 117.144 108.34 117.144C98.565 117.144 90.6408 120.92 90.6408 125.579C90.6408 130.237 98.565 134.014 108.34 134.014Z" fill="#E0E0E0"/>
<path d="M139.694 114.777C147.236 114.777 153.349 111.863 153.349 108.269C153.349 104.675 147.236 101.762 139.694 101.762C132.153 101.762 126.039 104.675 126.039 108.269C126.039 111.863 132.153 114.777 139.694 114.777Z" fill="#E0E0E0"/>
<path d="M42.37 106.447C41.5989 102.376 38.7769 96.5736 35.3342 93.3391C32.0226 90.2318 27.1073 89.1485 25.1488 90.5827C23.1904 92.0168 24.4742 95.1164 28.2754 98.8945C32.5662 103.154 40.8048 114.974 42.37 121.671V106.447Z" fill="#ED7600"/>
<g opacity="0.2">
<path d="M42.37 106.447C41.5989 102.376 38.7769 96.5736 35.3342 93.3391C32.0226 90.2318 27.1073 89.1485 25.1488 90.5827C23.1904 92.0168 24.4742 95.1164 28.2754 98.8945C32.5662 103.154 40.8048 114.974 42.37 121.671V106.447Z" fill="black"/>
</g>
<path d="M42.37 116.243C42.3217 116.242 42.2753 116.224 42.2398 116.191C42.2042 116.158 42.1819 116.114 42.1772 116.066C41.2057 105.811 34.035 94.2839 27.142 91.8821C27.0938 91.8646 27.0544 91.8291 27.0321 91.783C27.0098 91.7369 27.0063 91.684 27.0225 91.6354C27.0399 91.5873 27.0755 91.5478 27.1216 91.5255C27.1676 91.5032 27.2206 91.4997 27.2692 91.5159C34.4167 94.0025 41.5681 105.46 42.5704 116.031C42.5748 116.082 42.5591 116.133 42.5267 116.172C42.4943 116.212 42.4478 116.237 42.397 116.243H42.37Z" fill="white"/>
<path d="M42.37 126.593C42.37 126.593 41.0361 127.657 36.5872 127.241C32.1383 126.825 29.8445 123.644 29.8445 122.279C29.8445 120.915 33.9348 120.679 34.8215 117.295C33.9196 118.261 32.7197 118.898 31.4135 119.103C29.1004 119.538 27.2422 118.798 26.714 114.584C27.8541 114.751 29.0172 114.655 30.1143 114.303C31.9455 113.713 32.3812 112.707 31.9031 112.491C31.4251 112.275 28.873 112.491 27.2384 111.87C25.6038 111.25 26.8528 102.737 27.9246 102.132C28.9963 101.527 34.0659 102.953 35.0528 103.717C35.9318 104.395 37.1655 105.571 36.5949 108.058C37.2708 107.426 37.7975 106.651 38.137 105.791C38.615 104.634 38.962 104.904 39.6791 105.347C40.1096 105.59 40.4834 105.922 40.7753 106.321C41.0672 106.72 41.2704 107.177 41.3715 107.66C41.545 108.74 41.2635 112.464 39.7446 113.675C39.7446 113.675 41.2018 113.86 42.3931 111.4C42.3931 111.4 44.7062 112.333 45.2305 113.844C45.7548 115.355 46.3254 122.754 42.37 126.593Z" fill="#ED7600"/>
<path d="M42.7632 127.434C42.7161 127.434 42.6707 127.416 42.6353 127.385C42.5999 127.354 42.5769 127.311 42.5704 127.265C41.5526 118.933 35.2186 107.989 29.0079 103.879C28.9649 103.85 28.9351 103.806 28.925 103.755C28.9149 103.705 28.9253 103.652 28.9539 103.609C28.9825 103.566 29.027 103.536 29.0776 103.526C29.1283 103.516 29.1808 103.527 29.2237 103.555C35.5116 107.738 41.9459 118.795 42.9521 127.218C42.9586 127.269 42.9449 127.32 42.9138 127.361C42.8827 127.401 42.8369 127.427 42.7863 127.434H42.7632Z" fill="white"/>
<path d="M43.1526 128.598C42.9226 128.439 42.733 128.228 42.5991 127.983C42.4652 127.737 42.3907 127.463 42.3815 127.184V35.0792C42.3973 34.7894 42.4812 34.5074 42.6266 34.2562C42.772 34.0049 42.9747 33.7916 43.2181 33.6335L101.046 0.23989C101.288 0.088284 101.566 0.00543531 101.851 0.000258423C102.137 -0.00491846 102.418 0.0677714 102.665 0.210508C102.912 0.353245 103.115 0.560628 103.253 0.810346C103.391 1.06006 103.458 1.34267 103.448 1.62776L44.7718 128.568C44.5233 128.7 44.2472 128.771 43.9658 128.777C43.6845 128.782 43.4059 128.721 43.1526 128.598Z" fill="#E0E0E0"/>
<path d="M43.9352 36.8293L67.4249 21.4587L65.8597 20.5527L43.2066 33.6334C42.9631 33.7915 42.7605 34.0048 42.6151 34.256C42.4697 34.5072 42.3857 34.7893 42.37 35.0791V35.9234L43.9352 36.8293Z" fill="#37474F"/>
<path opacity="0.2" d="M43.9352 36.8293L67.4249 21.4587L65.8597 20.5527L43.2066 33.6334C42.9631 33.7915 42.7605 34.0048 42.6151 34.256C42.4697 34.5072 42.3857 34.7893 42.37 35.0791V35.9234L43.9352 36.8293Z" fill="#37474F"/>
<path d="M51.7805 39.5395L42.6129 34.2656C42.4635 34.5143 42.3799 34.7969 42.37 35.0868V127.176C42.36 127.46 42.4278 127.743 42.5661 127.992C42.7043 128.241 42.9078 128.448 43.1547 128.59C43.4016 128.732 43.6825 128.805 43.9674 128.799C44.2523 128.794 44.5304 128.711 44.7718 128.56L51.7805 124.531V39.5395Z" fill="#263238"/>
<path opacity="0.4" d="M51.7805 39.5395L42.6129 34.2656C42.4635 34.5143 42.3799 34.7969 42.37 35.0868V127.176C42.36 127.46 42.4278 127.743 42.5661 127.992C42.7043 128.241 42.9078 128.448 43.1547 128.59C43.4016 128.732 43.6825 128.805 43.9674 128.799C44.2523 128.794 44.5304 128.711 44.7718 128.56L51.7805 124.531V39.5395Z" fill="#263238"/>
<path d="M44.7718 128.568L102.6 95.1742C102.843 95.0161 103.046 94.8028 103.191 94.5516C103.336 94.3003 103.42 94.0183 103.436 93.7285V1.62801C103.436 1.096 103.051 0.880106 102.6 1.14611L44.7718 34.5398C44.5283 34.6978 44.3256 34.9112 44.1803 35.1624C44.0349 35.4136 43.9509 35.6956 43.9352 35.9855V128.086C43.9352 128.618 44.3091 128.834 44.7718 128.568Z" fill="#455A64"/>
<path opacity="0.1" d="M44.7718 128.568L102.6 95.1742C102.843 95.0161 103.046 94.8028 103.191 94.5516C103.336 94.3003 103.42 94.0183 103.436 93.7285V1.62801C103.436 1.096 103.051 0.880106 102.6 1.14611L44.7718 34.5398C44.5283 34.6978 44.3256 34.9112 44.1803 35.1624C44.0349 35.4136 43.9509 35.6956 43.9352 35.9855V128.086C43.9352 128.618 44.3091 128.834 44.7718 128.568Z" fill="#455A64"/>
<path d="M48.7388 57.2579L62.6174 49.2391C63.5388 48.7071 64.2867 49.0849 64.2867 50.0834C64.2455 50.6441 64.073 51.1871 63.783 51.6686C63.493 52.1502 63.0937 52.5567 62.6174 52.8553L48.7388 60.8741C47.8135 61.4061 47.0695 61.0283 47.0695 60.0298C47.1097 59.469 47.2819 58.9256 47.572 58.4439C47.8621 57.9622 48.2619 57.5559 48.7388 57.2579Z" fill="#ED7600"/>
<path d="M48.7388 62.9482L57.9257 57.6434C58.8471 57.1114 59.595 57.4892 59.595 58.4877C59.5538 59.0483 59.3812 59.5914 59.0912 60.0729C58.8012 60.5545 58.4019 60.961 57.9257 61.2596L48.7388 66.5644C47.8135 67.0964 47.0695 66.7186 47.0695 65.7201C47.1097 65.1592 47.2819 64.6158 47.572 64.1341C47.8621 63.6525 48.2619 63.2461 48.7388 62.9482Z" fill="#ED7600"/>
<path d="M47.7364 72.6861L49.5329 71.6491C49.9184 71.4371 50.1999 71.6105 50.1999 72.0346V74.1087C50.1874 74.3403 50.1205 74.5657 50.0046 74.7667C49.8887 74.9676 49.7271 75.1384 49.5329 75.2653L47.7364 76.2869C47.3509 76.5028 47.0695 76.3293 47.0695 75.9014V73.8273C47.0846 73.5984 47.1528 73.3762 47.2685 73.1781C47.3842 72.9801 47.5444 72.8117 47.7364 72.6861Z" fill="#ED7600"/>
<path opacity="0.2" d="M47.7364 72.6861L49.5329 71.6491C49.9184 71.4371 50.1999 71.6105 50.1999 72.0346V74.1087C50.1874 74.3403 50.1205 74.5657 50.0046 74.7667C49.8887 74.9676 49.7271 75.1384 49.5329 75.2653L47.7364 76.2869C47.3509 76.5028 47.0695 76.3293 47.0695 75.9014V73.8273C47.0846 73.5984 47.1528 73.3762 47.2685 73.1781C47.3842 72.9801 47.5444 72.8117 47.7364 72.6861Z" fill="black"/>
<path d="M47.7364 79.9229L49.5329 78.8858C49.9184 78.67 50.1999 78.8434 50.1999 79.2714V81.3455C50.1865 81.5769 50.1192 81.8019 50.0034 82.0027C49.8876 82.2035 49.7265 82.3745 49.5329 82.502L47.7364 83.5391C47.3509 83.7511 47.0695 83.5776 47.0695 83.1535V81.0795C47.0814 80.8477 47.148 80.6221 47.2639 80.421C47.3799 80.22 47.5418 80.0493 47.7364 79.9229Z" fill="#ED7600"/>
<g opacity="0.2">
<path d="M47.7364 79.9229L49.5329 78.8858C49.9184 78.67 50.1999 78.8434 50.1999 79.2714V81.3455C50.1865 81.5769 50.1192 81.8019 50.0034 82.0027C49.8876 82.2035 49.7265 82.3745 49.5329 82.502L47.7364 83.5391C47.3509 83.7511 47.0695 83.5776 47.0695 83.1535V81.0795C47.0814 80.8477 47.148 80.6221 47.2639 80.421C47.3799 80.22 47.5418 80.0493 47.7364 79.9229Z" fill="black"/>
</g>
<path d="M52.6017 78.0179L63.4579 71.7455C63.9205 71.4795 64.2944 71.6684 64.2944 72.1696C64.2735 72.4498 64.1868 72.7211 64.0415 72.9615C63.8961 73.202 63.6962 73.4048 63.4579 73.5536L52.6017 79.826C52.139 80.092 51.7651 79.9031 51.7651 79.4019C51.786 79.1217 51.8727 78.8504 52.018 78.61C52.1634 78.3695 52.3633 78.1667 52.6017 78.0179Z" fill="#ED7600"/>
<path opacity="0.2" d="M52.6017 78.0179L63.4579 71.7455C63.9205 71.4795 64.2944 71.6684 64.2944 72.1696C64.2735 72.4498 64.1868 72.7211 64.0415 72.9615C63.8961 73.202 63.6962 73.4048 63.4579 73.5536L52.6017 79.826C52.139 80.092 51.7651 79.9031 51.7651 79.4019C51.786 79.1217 51.8727 78.8504 52.018 78.61C52.1634 78.3695 52.3633 78.1667 52.6017 78.0179Z" fill="black"/>
<path d="M47.7364 87.1553L49.5329 86.1183C49.9184 85.9024 50.1999 86.0759 50.1999 86.5038V88.5779C50.1868 88.8094 50.1196 89.0345 50.0038 89.2354C49.888 89.4362 49.7267 89.6071 49.5329 89.7344L47.7364 90.7715C47.3509 90.9835 47.0695 90.81 47.0695 90.386V88.3119C47.0814 88.0801 47.148 87.8545 47.2639 87.6534C47.3799 87.4524 47.5418 87.2817 47.7364 87.1553Z" fill="#E0E0E0"/>
<path d="M52.6017 85.2504L63.4579 78.9857C63.9205 78.7197 64.2944 78.9086 64.2944 79.4098C64.2741 79.6901 64.1877 79.9617 64.0423 80.2022C63.8969 80.4428 63.6966 80.6455 63.4579 80.7938L52.6017 87.0662C52.139 87.3322 51.7651 87.1433 51.7651 86.6421C51.7848 86.3606 51.8709 86.0878 52.0163 85.8459C52.1617 85.604 52.3623 85.4 52.6017 85.2504Z" fill="#CCCCCC"/>
<path d="M47.7364 94.4073L49.5329 93.3702C49.9184 93.1543 50.1999 93.3278 50.1999 93.7557V95.8298C50.1868 96.0613 50.1196 96.2865 50.0038 96.4873C49.888 96.6882 49.7267 96.8591 49.5329 96.9864L47.7364 98.0234C47.3509 98.2355 47.0695 98.062 47.0695 97.6379V95.5638C47.0814 95.3321 47.148 95.1064 47.2639 94.9054C47.3799 94.7044 47.5418 94.5337 47.7364 94.4073Z" fill="#E0E0E0"/>
<path d="M52.6017 92.5022L63.4579 86.2336C63.9205 85.9638 64.2944 86.1565 64.2944 86.6539C64.2741 86.9347 64.1877 87.2068 64.0423 87.448C63.897 87.6891 63.6967 87.8926 63.4579 88.0417L52.6017 94.3103C52.139 94.5763 51.7651 94.3874 51.7651 93.8862C51.786 93.606 51.8727 93.3347 52.018 93.0942C52.1634 92.8538 52.3633 92.651 52.6017 92.5022Z" fill="#CCCCCC"/>
<path d="M47.7364 101.639L49.5329 100.602C49.9184 100.386 50.1999 100.559 50.1999 100.987V103.061C50.1868 103.293 50.1196 103.518 50.0038 103.719C49.888 103.92 49.7267 104.091 49.5329 104.218L47.7364 105.255C47.3509 105.467 47.0695 105.293 47.0695 104.869V102.795C47.0814 102.564 47.148 102.338 47.2639 102.137C47.3799 101.936 47.5418 101.765 47.7364 101.639Z" fill="#E0E0E0"/>
<path d="M52.6017 99.7346L63.4579 93.4661C63.9205 93.1962 64.2944 93.389 64.2944 93.8863C64.2741 94.1671 64.1877 94.4392 64.0423 94.6804C63.897 94.9215 63.6967 95.125 63.4579 95.2741L52.6017 101.543C52.139 101.809 51.7651 101.62 51.7651 101.119C51.786 100.838 51.8727 100.567 52.018 100.327C52.1634 100.086 52.3633 99.8834 52.6017 99.7346Z" fill="#CCCCCC"/>
<path d="M47.9022 108.756L55.6126 104.295C56.0752 104.029 56.4491 104.218 56.4491 104.719C56.4282 105 56.3415 105.271 56.1962 105.511C56.0508 105.752 55.8509 105.955 55.6126 106.103L47.9022 110.564C47.4434 110.83 47.0695 110.641 47.0695 110.144C47.0897 109.863 47.1756 109.591 47.3203 109.35C47.4649 109.109 47.6643 108.906 47.9022 108.756Z" fill="#ED7600"/>
<path d="M47.9022 112.372L63.4579 103.393C63.9205 103.127 64.2944 103.316 64.2944 103.813C64.2741 104.094 64.1877 104.366 64.0423 104.607C63.897 104.849 63.6967 105.052 63.4579 105.201L47.9022 114.18C47.4434 114.446 47.0695 114.257 47.0695 113.76C47.0897 113.479 47.1756 113.208 47.3203 112.966C47.4649 112.725 47.6643 112.522 47.9022 112.372Z" fill="#ED7600"/>
<path opacity="0.8" d="M47.9022 112.372L63.4579 103.393C63.9205 103.127 64.2944 103.316 64.2944 103.813C64.2741 104.094 64.1877 104.366 64.0423 104.607C63.897 104.849 63.6967 105.052 63.4579 105.201L47.9022 114.18C47.4434 114.446 47.0695 114.257 47.0695 113.76C47.0897 113.479 47.1756 113.208 47.3203 112.966C47.4649 112.725 47.6643 112.522 47.9022 112.372Z" fill="white"/>
<path d="M47.9022 112.372L58.7622 106.104C59.221 105.838 59.595 106.027 59.595 106.528C59.5741 106.808 59.4879 107.079 59.3433 107.319C59.1987 107.559 58.9997 107.763 58.7622 107.912L47.9022 114.181C47.4434 114.447 47.0695 114.258 47.0695 113.76C47.0897 113.48 47.1756 113.208 47.3203 112.967C47.4649 112.726 47.6643 112.522 47.9022 112.372Z" fill="#ED7600"/>
<path d="M47.9022 115.996L55.6126 111.536C56.0752 111.27 56.4491 111.458 56.4491 111.96C56.4282 112.24 56.3415 112.511 56.1962 112.752C56.0508 112.992 55.8509 113.195 55.6126 113.344L47.9022 117.804C47.4434 118.07 47.0695 117.881 47.0695 117.384C47.0897 117.103 47.1756 116.832 47.3203 116.591C47.4649 116.35 47.6643 116.146 47.9022 115.996Z" fill="#ED7600"/>
<path d="M52.6017 70.7826L63.4579 64.5141C63.9205 64.248 64.2944 64.4369 64.2944 64.9381C64.2735 65.2183 64.1868 65.4896 64.0415 65.7301C63.8961 65.9705 63.6962 66.1733 63.4579 66.3221L52.6017 72.5907C52.139 72.8567 51.7651 72.6678 51.7651 72.1705C51.7854 71.8896 51.8718 71.6175 52.0172 71.3764C52.1626 71.1352 52.3628 70.9318 52.6017 70.7826Z" fill="#ED7600"/>
<path opacity="0.2" d="M52.6017 70.7826L63.4579 64.5141C63.9205 64.248 64.2944 64.4369 64.2944 64.9381C64.2735 65.2183 64.1868 65.4896 64.0415 65.7301C63.8961 65.9705 63.6962 66.1733 63.4579 66.3221L52.6017 72.5907C52.139 72.8567 51.7651 72.6678 51.7651 72.1705C51.7854 71.8896 51.8718 71.6175 52.0172 71.3764C52.1626 71.1352 52.3628 70.9318 52.6017 70.7826Z" fill="black"/>
<path d="M47.9022 115.996L55.6126 111.536C56.0752 111.27 56.4491 111.458 56.4491 111.96C56.4282 112.24 56.3415 112.511 56.1962 112.752C56.0508 112.992 55.8509 113.195 55.6126 113.344L47.9022 117.804C47.4434 118.07 47.0695 117.881 47.0695 117.384C47.0897 117.103 47.1756 116.832 47.3203 116.591C47.4649 116.35 47.6643 116.146 47.9022 115.996Z" fill="#ED7600"/>
<path d="M47.9022 119.6L63.4579 110.622C63.9205 110.356 64.2944 110.544 64.2944 111.042C64.2741 111.323 64.1877 111.595 64.0423 111.836C63.897 112.077 63.6967 112.281 63.4579 112.43L47.9022 121.393C47.4434 121.663 47.0695 121.47 47.0695 120.973C47.092 120.695 47.1791 120.426 47.3236 120.188C47.4682 119.95 47.6663 119.749 47.9022 119.6Z" fill="#ED7600"/>
<path opacity="0.8" d="M47.9022 119.6L63.4579 110.622C63.9205 110.356 64.2944 110.544 64.2944 111.042C64.2741 111.323 64.1877 111.595 64.0423 111.836C63.897 112.077 63.6967 112.281 63.4579 112.43L47.9022 121.393C47.4434 121.663 47.0695 121.47 47.0695 120.973C47.092 120.695 47.1791 120.426 47.3236 120.188C47.4682 119.95 47.6663 119.749 47.9022 119.6Z" fill="white"/>
<path d="M47.9022 119.6L61.8927 111.504C62.3553 111.238 62.7292 111.427 62.7292 111.928C62.7083 112.209 62.6216 112.48 62.4763 112.72C62.3309 112.961 62.131 113.164 61.8927 113.312L47.9022 121.408C47.4434 121.678 47.0695 121.485 47.0695 120.988C47.0897 120.708 47.1756 120.436 47.3203 120.195C47.4649 119.954 47.6643 119.75 47.9022 119.6Z" fill="#ED7600"/>
<path d="M102.607 1.14534L67.4249 21.4583V115.486L102.607 95.1773C102.851 95.0192 103.053 94.8059 103.199 94.5547C103.344 94.3034 103.428 94.0214 103.444 93.7316V1.62724C103.44 1.11064 103.055 0.879333 102.607 1.14534Z" fill="#E0E0E0"/>
<path opacity="0.6" d="M102.607 1.14534L67.4249 21.4583V115.486L102.607 95.1773C102.851 95.0192 103.053 94.8059 103.199 94.5547C103.344 94.3034 103.428 94.0214 103.444 93.7316V1.62724C103.44 1.11064 103.055 0.879333 102.607 1.14534Z" fill="white"/>
<path d="M67.4248 25.0747V32.307L64.2944 35.9232H67.4248V43.1555L100.31 24.1687V6.08789L67.4248 25.0747Z" fill="#ED7600"/>
<g opacity="0.6">
<path d="M71.7272 25.3256L85.0508 17.6153C85.6946 17.2297 86.2073 17.5459 86.2073 18.2899C86.1861 18.6942 86.0704 19.0878 85.8696 19.4393C85.6687 19.7908 85.3883 20.0903 85.0508 20.3139L71.7272 28.005C71.0796 28.3905 70.5707 28.0744 70.5707 27.3303C70.594 26.9292 70.7107 26.539 70.9115 26.191C71.1123 25.8429 71.3916 25.5466 71.7272 25.3256Z" fill="white"/>
</g>
<path d="M70.9755 31.1815L96.7629 16.2928C96.9942 16.1617 97.1792 16.2542 97.1792 16.5048C97.1693 16.6451 97.1264 16.781 97.054 16.9016C96.9817 17.0222 96.8819 17.124 96.7629 17.1988L70.9755 32.0682C70.7442 32.1993 70.5591 32.1068 70.5591 31.8562C70.572 31.7193 70.6163 31.5872 70.6885 31.4702C70.7607 31.3532 70.8589 31.2544 70.9755 31.1815Z" fill="#ED7600"/>
<path d="M70.9755 31.1815L96.7629 16.2928C96.9942 16.1617 97.1792 16.2542 97.1792 16.5048C97.1693 16.6451 97.1264 16.781 97.054 16.9016C96.9817 17.0222 96.8819 17.124 96.7629 17.1988L70.9755 32.0682C70.7442 32.1993 70.5591 32.1068 70.5591 31.8562C70.572 31.7193 70.6163 31.5872 70.6885 31.4702C70.7607 31.3532 70.8589 31.2544 70.9755 31.1815Z" fill="#ED7600"/>
<path opacity="0.6" d="M70.9755 31.1815L96.7629 16.2928C96.9942 16.1617 97.1792 16.2542 97.1792 16.5048C97.1693 16.6451 97.1264 16.781 97.054 16.9016C96.9817 17.0222 96.8819 17.124 96.7629 17.1988L70.9755 32.0682C70.7442 32.1993 70.5591 32.1068 70.5591 31.8562C70.572 31.7193 70.6163 31.5872 70.6885 31.4702C70.7607 31.3532 70.8589 31.2544 70.9755 31.1815Z" fill="white"/>
<path d="M70.9755 33.8805L96.7629 18.9918C96.9942 18.8568 97.1792 18.9532 97.1792 19.2038C97.1693 19.3435 97.1263 19.4789 97.054 19.5989C96.9816 19.7188 96.8818 19.8199 96.7629 19.8939L70.9755 34.7826C70.7442 34.9176 70.5591 34.8212 70.5591 34.5706C70.5691 34.4308 70.612 34.2955 70.6844 34.1755C70.7568 34.0556 70.8565 33.9545 70.9755 33.8805Z" fill="#ED7600"/>
<path opacity="0.6" d="M70.9755 33.8805L96.7629 18.9918C96.9942 18.8568 97.1792 18.9532 97.1792 19.2038C97.1693 19.3435 97.1263 19.4789 97.054 19.5989C96.9816 19.7188 96.8818 19.8199 96.7629 19.8939L70.9755 34.7826C70.7442 34.9176 70.5591 34.8212 70.5591 34.5706C70.5691 34.4308 70.612 34.2955 70.6844 34.1755C70.7568 34.0556 70.8565 33.9545 70.9755 33.8805Z" fill="white"/>
<path opacity="0.6" d="M70.9755 36.579L96.7629 21.6903C96.9942 21.5592 97.1792 21.6517 97.1792 21.9023C97.1693 22.0425 97.1264 22.1785 97.054 22.299C96.9817 22.4196 96.8819 22.5214 96.7629 22.5962L70.9755 37.485C70.7442 37.616 70.5591 37.5235 70.5591 37.2729C70.5691 37.1327 70.612 36.9968 70.6843 36.8762C70.7567 36.7556 70.8564 36.6538 70.9755 36.579Z" fill="white"/>
<path d="M71.947 44.1738L73.7551 43.1329C74.1406 42.917 74.422 43.0905 74.422 43.5184V45.5925C74.4092 45.8241 74.3422 46.0494 74.2263 46.2503C74.1105 46.4512 73.9491 46.622 73.7551 46.7491L71.9586 47.7861C71.5731 47.9982 71.2916 47.8247 71.2916 47.4006V45.3304C71.3022 45.0996 71.3671 44.8747 71.481 44.6737C71.5949 44.4728 71.7545 44.3015 71.947 44.1738Z" fill="#ED7600"/>
<path opacity="0.2" d="M71.947 44.1738L73.7551 43.1329C74.1406 42.917 74.422 43.0905 74.422 43.5184V45.5925C74.4092 45.8241 74.3422 46.0494 74.2263 46.2503C74.1105 46.4512 73.9491 46.622 73.7551 46.7491L71.9586 47.7861C71.5731 47.9982 71.2916 47.8247 71.2916 47.4006V45.3304C71.3022 45.0996 71.3671 44.8747 71.481 44.6737C71.5949 44.4728 71.7545 44.3015 71.947 44.1738Z" fill="white"/>
<path d="M76.8122 42.2689L87.6684 35.9965C88.1311 35.7305 88.505 35.9194 88.505 36.4205C88.4841 36.7007 88.3974 36.972 88.2521 37.2125C88.1067 37.4529 87.9068 37.6558 87.6684 37.8046L76.8122 44.0769C76.3496 44.343 75.9756 44.1541 75.9756 43.6529C75.9966 43.3727 76.0833 43.1014 76.2286 42.8609C76.3739 42.6205 76.5739 42.4176 76.8122 42.2689Z" fill="#ED7600"/>
<path opacity="0.8" d="M76.8122 42.2689L87.6684 35.9965C88.1311 35.7305 88.505 35.9194 88.505 36.4205C88.4841 36.7007 88.3974 36.972 88.2521 37.2125C88.1067 37.4529 87.9068 37.6558 87.6684 37.8046L76.8122 44.0769C76.3496 44.343 75.9756 44.1541 75.9756 43.6529C75.9966 43.3727 76.0833 43.1014 76.2286 42.8609C76.3739 42.6205 76.5739 42.4176 76.8122 42.2689Z" fill="white"/>
<path d="M71.6964 50.6507L99.0682 34.8444C99.2996 34.7095 99.4846 34.8059 99.4846 35.0526C99.4749 35.1929 99.4322 35.329 99.3598 35.4496C99.2874 35.5702 99.1875 35.672 99.0682 35.7465L71.6964 51.5528C71.4651 51.6877 71.28 51.5914 71.28 51.3408C71.29 51.201 71.3329 51.0656 71.4053 50.9457C71.4776 50.8257 71.5774 50.7247 71.6964 50.6507Z" fill="#ED7600"/>
<path d="M71.6964 53.3608L99.0682 37.5545C99.2996 37.4234 99.4846 37.516 99.4846 37.7665C99.4746 37.9068 99.4317 38.0427 99.3594 38.1633C99.287 38.2839 99.1873 38.3857 99.0682 38.4605L71.6964 54.2668C71.4651 54.3978 71.28 54.3053 71.28 54.0547C71.29 53.9145 71.3329 53.7785 71.4052 53.658C71.4776 53.5374 71.5773 53.4356 71.6964 53.3608Z" fill="#ED7600"/>
<path d="M71.6964 56.0745L99.0682 40.2682C99.2996 40.1333 99.4846 40.2297 99.4846 40.4764C99.4749 40.6168 99.4322 40.7528 99.3598 40.8734C99.2874 40.994 99.1875 41.0958 99.0682 41.1704L71.6964 56.9766C71.4651 57.1116 71.28 57.0152 71.28 56.7685C71.2897 56.6281 71.3325 56.4921 71.4048 56.3715C71.4772 56.2508 71.5771 56.1491 71.6964 56.0745Z" fill="#ED7600"/>
<path d="M71.6964 58.7924L99.0682 42.9862C99.2996 42.8551 99.4846 42.9476 99.4846 43.1982C99.4746 43.3384 99.4317 43.4744 99.3594 43.5949C99.287 43.7155 99.1873 43.8173 99.0682 43.8921L71.6964 59.6984C71.4651 59.8295 71.28 59.737 71.28 59.4864C71.29 59.3461 71.3329 59.2102 71.4052 59.0896C71.4776 58.969 71.5773 58.8672 71.6964 58.7924Z" fill="#ED7600"/>
<path d="M71.6964 50.6507L99.0682 34.8444C99.2996 34.7095 99.4846 34.8059 99.4846 35.0526C99.4749 35.1929 99.4322 35.329 99.3598 35.4496C99.2874 35.5702 99.1875 35.672 99.0682 35.7465L71.6964 51.5528C71.4651 51.6877 71.28 51.5914 71.28 51.3408C71.29 51.201 71.3329 51.0656 71.4053 50.9457C71.4776 50.8257 71.5774 50.7247 71.6964 50.6507Z" fill="#E0E0E0"/>
<path d="M71.6964 53.3608L99.0682 37.5545C99.2996 37.4234 99.4846 37.516 99.4846 37.7665C99.4746 37.9068 99.4317 38.0427 99.3594 38.1633C99.287 38.2839 99.1873 38.3857 99.0682 38.4605L71.6964 54.2668C71.4651 54.3978 71.28 54.3053 71.28 54.0547C71.29 53.9145 71.3329 53.7785 71.4052 53.658C71.4776 53.5374 71.5773 53.4356 71.6964 53.3608Z" fill="#E0E0E0"/>
<path d="M71.6964 56.0745L99.0682 40.2682C99.2996 40.1333 99.4846 40.2297 99.4846 40.4764C99.4749 40.6168 99.4322 40.7528 99.3598 40.8734C99.2874 40.994 99.1875 41.0958 99.0682 41.1704L71.6964 56.9766C71.4651 57.1116 71.28 57.0152 71.28 56.7685C71.2897 56.6281 71.3325 56.4921 71.4048 56.3715C71.4772 56.2508 71.5771 56.1491 71.6964 56.0745Z" fill="#E0E0E0"/>
<path d="M71.6964 58.7924L99.0682 42.9862C99.2996 42.8551 99.4846 42.9476 99.4846 43.1982C99.4746 43.3384 99.4317 43.4744 99.3594 43.5949C99.287 43.7155 99.1873 43.8173 99.0682 43.8921L71.6964 59.6984C71.4651 59.8295 71.28 59.737 71.28 59.4864C71.29 59.3461 71.3329 59.2102 71.4052 59.0896C71.4776 58.969 71.5773 58.8672 71.6964 58.7924Z" fill="#E0E0E0"/>
<path opacity="0.8" d="M71.6964 50.6507L99.0682 34.8444C99.2996 34.7095 99.4846 34.8059 99.4846 35.0526C99.4749 35.1929 99.4322 35.329 99.3598 35.4496C99.2874 35.5702 99.1875 35.672 99.0682 35.7465L71.6964 51.5528C71.4651 51.6877 71.28 51.5914 71.28 51.3408C71.29 51.201 71.3329 51.0656 71.4053 50.9457C71.4776 50.8257 71.5774 50.7247 71.6964 50.6507Z" fill="#E0E0E0"/>
<path opacity="0.8" d="M71.6964 53.3608L99.0682 37.5545C99.2996 37.4234 99.4846 37.516 99.4846 37.7665C99.4746 37.9068 99.4317 38.0427 99.3594 38.1633C99.287 38.2839 99.1873 38.3857 99.0682 38.4605L71.6964 54.2668C71.4651 54.3978 71.28 54.3053 71.28 54.0547C71.29 53.9145 71.3329 53.7785 71.4052 53.658C71.4776 53.5374 71.5773 53.4356 71.6964 53.3608Z" fill="#E0E0E0"/>
<path opacity="0.8" d="M71.6964 56.0745L99.0682 40.2682C99.2996 40.1333 99.4846 40.2297 99.4846 40.4764C99.4749 40.6168 99.4322 40.7528 99.3598 40.8734C99.2874 40.994 99.1875 41.0958 99.0682 41.1704L71.6964 56.9766C71.4651 57.1116 71.28 57.0152 71.28 56.7685C71.2897 56.6281 71.3325 56.4921 71.4048 56.3715C71.4772 56.2508 71.5771 56.1491 71.6964 56.0745Z" fill="#E0E0E0"/>
<path opacity="0.8" d="M71.6964 58.7924L99.0682 42.9862C99.2996 42.8551 99.4846 42.9476 99.4846 43.1982C99.4746 43.3384 99.4317 43.4744 99.3594 43.5949C99.287 43.7155 99.1873 43.8173 99.0682 43.8921L71.6964 59.6984C71.4651 59.8295 71.28 59.737 71.28 59.4864C71.29 59.3461 71.3329 59.2102 71.4052 59.0896C71.4776 58.969 71.5773 58.8672 71.6964 58.7924Z" fill="#E0E0E0"/>
<path d="M71.6964 70.3118L99.0682 54.5055C99.2996 54.3706 99.4846 54.467 99.4846 54.7137C99.4749 54.8541 99.4322 54.9901 99.3598 55.1107C99.2874 55.2313 99.1875 55.3331 99.0682 55.4077L71.6964 71.2139C71.4651 71.3489 71.28 71.2525 71.28 71.0019C71.29 70.8622 71.3329 70.7268 71.4053 70.6068C71.4776 70.4869 71.5774 70.3858 71.6964 70.3118Z" fill="#E0E0E0"/>
<path d="M71.6964 73.0219L99.0682 57.2156C99.2996 57.0846 99.4846 57.1771 99.4846 57.4277C99.4746 57.5679 99.4317 57.7039 99.3594 57.8244C99.287 57.945 99.1873 58.0468 99.0682 58.1216L71.6964 73.9279C71.4651 74.059 71.28 73.9664 71.28 73.7159C71.29 73.5756 71.3329 73.4397 71.4052 73.3191C71.4776 73.1985 71.5773 73.0967 71.6964 73.0219Z" fill="#E0E0E0"/>
<path d="M71.6964 75.7357L99.0682 59.9294C99.2996 59.7944 99.4846 59.8908 99.4846 60.1376C99.4749 60.2779 99.4322 60.4139 99.3598 60.5345C99.2874 60.6552 99.1875 60.7569 99.0682 60.8315L71.6964 76.6378C71.4651 76.7727 71.28 76.6763 71.28 76.4296C71.2897 76.2893 71.3325 76.1532 71.4048 76.0326C71.4772 75.912 71.5771 75.8102 71.6964 75.7357Z" fill="#E0E0E0"/>
<path d="M71.6964 78.4536L99.0682 62.6473C99.2996 62.5162 99.4846 62.6087 99.4846 62.8593C99.4746 62.9996 99.4317 63.1355 99.3594 63.2561C99.287 63.3766 99.1873 63.4785 99.0682 63.5533L71.6964 79.3595C71.4651 79.4906 71.28 79.3981 71.28 79.1475C71.29 79.0073 71.3329 78.8713 71.4052 78.7508C71.4776 78.6302 71.5773 78.5284 71.6964 78.4536Z" fill="#E0E0E0"/>
<path opacity="0.8" d="M71.6964 70.3118L99.0682 54.5055C99.2996 54.3706 99.4846 54.467 99.4846 54.7137C99.4749 54.8541 99.4322 54.9901 99.3598 55.1107C99.2874 55.2313 99.1875 55.3331 99.0682 55.4077L71.6964 71.2139C71.4651 71.3489 71.28 71.2525 71.28 71.0019C71.29 70.8622 71.3329 70.7268 71.4053 70.6068C71.4776 70.4869 71.5774 70.3858 71.6964 70.3118Z" fill="#E0E0E0"/>
<path opacity="0.8" d="M71.6964 73.0219L99.0682 57.2156C99.2996 57.0846 99.4846 57.1771 99.4846 57.4277C99.4746 57.5679 99.4317 57.7039 99.3594 57.8244C99.287 57.945 99.1873 58.0468 99.0682 58.1216L71.6964 73.9279C71.4651 74.059 71.28 73.9664 71.28 73.7159C71.29 73.5756 71.3329 73.4397 71.4052 73.3191C71.4776 73.1985 71.5773 73.0967 71.6964 73.0219Z" fill="#E0E0E0"/>
<path opacity="0.8" d="M71.6964 75.7357L99.0682 59.9294C99.2996 59.7944 99.4846 59.8908 99.4846 60.1376C99.4749 60.2779 99.4322 60.4139 99.3598 60.5345C99.2874 60.6552 99.1875 60.7569 99.0682 60.8315L71.6964 76.6378C71.4651 76.7727 71.28 76.6763 71.28 76.4296C71.2897 76.2893 71.3325 76.1532 71.4048 76.0326C71.4772 75.912 71.5771 75.8102 71.6964 75.7357Z" fill="#E0E0E0"/>
<path opacity="0.8" d="M71.6964 78.4536L99.0682 62.6473C99.2996 62.5162 99.4846 62.6087 99.4846 62.8593C99.4746 62.9996 99.4317 63.1355 99.3594 63.2561C99.287 63.3766 99.1873 63.4785 99.0682 63.5533L71.6964 79.3595C71.4651 79.4906 71.28 79.3981 71.28 79.1475C71.29 79.0073 71.3329 78.8713 71.4052 78.7508C71.4776 78.6302 71.5773 78.5284 71.6964 78.4536Z" fill="#E0E0E0"/>
<path d="M71.6964 90.3587L99.0682 74.5524C99.2996 74.4175 99.4846 74.5139 99.4846 74.7606C99.4749 74.9009 99.4322 75.037 99.3598 75.1576C99.2874 75.2782 99.1875 75.38 99.0682 75.4545L71.6964 91.2608C71.4651 91.3957 71.28 91.2994 71.28 91.0488C71.29 90.909 71.3329 90.7737 71.4053 90.6537C71.4776 90.5338 71.5774 90.4327 71.6964 90.3587Z" fill="#E0E0E0"/>
<path d="M71.6964 93.0688L99.0682 77.2625C99.2996 77.1314 99.4846 77.224 99.4846 77.4746C99.4746 77.6148 99.4317 77.7507 99.3594 77.8713C99.287 77.9919 99.1873 78.0937 99.0682 78.1685L71.6964 93.9748C71.4651 94.1058 71.28 94.0133 71.28 93.7627C71.29 93.6225 71.3329 93.4866 71.4052 93.366C71.4776 93.2454 71.5773 93.1436 71.6964 93.0688Z" fill="#E0E0E0"/>
<path d="M71.6964 95.7835L99.0682 79.9772C99.2996 79.8423 99.4846 79.9387 99.4846 80.1854C99.4749 80.3257 99.4322 80.4618 99.3598 80.5824C99.2874 80.703 99.1875 80.8048 99.0682 80.8793L71.6964 96.6856C71.4651 96.8206 71.28 96.7242 71.28 96.4774C71.2897 96.3371 71.3325 96.2011 71.4048 96.0804C71.4772 95.9598 71.5771 95.8581 71.6964 95.7835Z" fill="#E0E0E0"/>
<path d="M71.6964 98.5014L99.0682 82.6951C99.2996 82.5641 99.4846 82.6566 99.4846 82.9072C99.4746 83.0474 99.4317 83.1834 99.3594 83.3039C99.287 83.4245 99.1873 83.5263 99.0682 83.6011L71.6964 99.4074C71.4651 99.5385 71.28 99.4459 71.28 99.1954C71.29 99.0551 71.3329 98.9192 71.4052 98.7986C71.4776 98.678 71.5773 98.5762 71.6964 98.5014Z" fill="#E0E0E0"/>
<path opacity="0.8" d="M71.6964 90.3587L99.0682 74.5524C99.2996 74.4175 99.4846 74.5139 99.4846 74.7606C99.4749 74.9009 99.4322 75.037 99.3598 75.1576C99.2874 75.2782 99.1875 75.38 99.0682 75.4545L71.6964 91.2608C71.4651 91.3957 71.28 91.2994 71.28 91.0488C71.29 90.909 71.3329 90.7737 71.4053 90.6537C71.4776 90.5338 71.5774 90.4327 71.6964 90.3587Z" fill="#E0E0E0"/>
<path opacity="0.8" d="M71.6964 93.0688L99.0682 77.2625C99.2996 77.1314 99.4846 77.224 99.4846 77.4746C99.4746 77.6148 99.4317 77.7507 99.3594 77.8713C99.287 77.9919 99.1873 78.0937 99.0682 78.1685L71.6964 93.9748C71.4651 94.1058 71.28 94.0133 71.28 93.7627C71.29 93.6225 71.3329 93.4866 71.4052 93.366C71.4776 93.2454 71.5773 93.1436 71.6964 93.0688Z" fill="#E0E0E0"/>
<path opacity="0.8" d="M71.6964 95.7835L99.0682 79.9772C99.2996 79.8423 99.4846 79.9387 99.4846 80.1854C99.4749 80.3257 99.4322 80.4618 99.3598 80.5824C99.2874 80.703 99.1875 80.8048 99.0682 80.8793L71.6964 96.6856C71.4651 96.8206 71.28 96.7242 71.28 96.4774C71.2897 96.3371 71.3325 96.2011 71.4048 96.0804C71.4772 95.9598 71.5771 95.8581 71.6964 95.7835Z" fill="#E0E0E0"/>
<path opacity="0.8" d="M71.6964 98.5014L99.0682 82.6951C99.2996 82.5641 99.4846 82.6566 99.4846 82.9072C99.4746 83.0474 99.4317 83.1834 99.3594 83.3039C99.287 83.4245 99.1873 83.5263 99.0682 83.6011L71.6964 99.4074C71.4651 99.5385 71.28 99.4459 71.28 99.1954C71.29 99.0551 71.3329 98.9192 71.4052 98.7986C71.4776 98.678 71.5773 98.5762 71.6964 98.5014Z" fill="#E0E0E0"/>
<path d="M71.947 64.0621L73.7551 63.0251C74.1406 62.813 74.422 62.9865 74.422 63.4106V65.4924C74.4101 65.7241 74.3435 65.9498 74.2276 66.1508C74.1116 66.3519 73.9497 66.5226 73.7551 66.6489L71.9586 67.686C71.5731 67.898 71.2916 67.7284 71.2916 67.3005V65.2264C71.3013 64.9944 71.3658 64.768 71.4797 64.5656C71.5936 64.3633 71.7537 64.1908 71.947 64.0621Z" fill="#ED7600"/>
<path opacity="0.2" d="M71.947 64.0621L73.7551 63.0251C74.1406 62.813 74.422 62.9865 74.422 63.4106V65.4924C74.4101 65.7241 74.3435 65.9498 74.2276 66.1508C74.1116 66.3519 73.9497 66.5226 73.7551 66.6489L71.9586 67.686C71.5731 67.898 71.2916 67.7284 71.2916 67.3005V65.2264C71.3013 64.9944 71.3658 64.768 71.4797 64.5656C71.5936 64.3633 71.7537 64.1908 71.947 64.0621Z" fill="white"/>
<path d="M76.8122 62.1577L87.6684 55.8892C88.1311 55.6232 88.505 55.8121 88.505 56.3094C88.4847 56.5902 88.3983 56.8623 88.2529 57.1035C88.1075 57.3446 87.9073 57.5481 87.6684 57.6972L76.8122 63.9504C76.3496 64.2164 75.9756 64.0275 75.9756 63.5302C75.9984 63.252 76.0858 62.983 76.2311 62.7447C76.3764 62.5064 76.5754 62.3053 76.8122 62.1577Z" fill="#ED7600"/>
<path opacity="0.8" d="M76.8122 62.1577L87.6684 55.8892C88.1311 55.6232 88.505 55.8121 88.505 56.3094C88.4847 56.5902 88.3983 56.8623 88.2529 57.1035C88.1075 57.3446 87.9073 57.5481 87.6684 57.6972L76.8122 63.9504C76.3496 64.2164 75.9756 64.0275 75.9756 63.5302C75.9984 63.252 76.0858 62.983 76.2311 62.7447C76.3764 62.5064 76.5754 62.3053 76.8122 62.1577Z" fill="white"/>
<path d="M71.947 83.9551L73.7551 82.9181C74.1406 82.7022 74.422 82.8757 74.422 83.3036V85.3777C74.4098 85.6094 74.3431 85.8349 74.2272 86.0359C74.1113 86.2369 73.9495 86.4076 73.7551 86.5342L71.9586 87.5713C71.5731 87.7833 71.2916 87.6098 71.2916 87.1858V85.1117C71.3022 84.8809 71.3671 84.656 71.481 84.455C71.5949 84.2541 71.7545 84.0828 71.947 83.9551Z" fill="#ED7600"/>
<path opacity="0.2" d="M71.947 83.9551L73.7551 82.9181C74.1406 82.7022 74.422 82.8757 74.422 83.3036V85.3777C74.4098 85.6094 74.3431 85.8349 74.2272 86.0359C74.1113 86.2369 73.9495 86.4076 73.7551 86.5342L71.9586 87.5713C71.5731 87.7833 71.2916 87.6098 71.2916 87.1858V85.1117C71.3022 84.8809 71.3671 84.656 71.481 84.455C71.5949 84.2541 71.7545 84.0828 71.947 83.9551Z" fill="white"/>
<path d="M76.8122 82.0706L87.6684 75.7982C88.1311 75.5322 88.505 75.7211 88.505 76.2223C88.4844 76.5031 88.3978 76.775 88.2525 77.0162C88.1072 77.2573 87.9071 77.4608 87.6684 77.6102L76.8122 83.8787C76.3496 84.1447 75.9756 83.9558 75.9756 83.4546C75.9966 83.1745 76.0833 82.9031 76.2286 82.6627C76.3739 82.4222 76.5739 82.2194 76.8122 82.0706Z" fill="#ED7600"/>
<path opacity="0.8" d="M76.8122 82.0706L87.6684 75.7982C88.1311 75.5322 88.505 75.7211 88.505 76.2223C88.4844 76.5031 88.3978 76.775 88.2525 77.0162C88.1072 77.2573 87.9071 77.4608 87.6684 77.6102L76.8122 83.8787C76.3496 84.1447 75.9756 83.9558 75.9756 83.4546C75.9966 83.1745 76.0833 82.9031 76.2286 82.6627C76.3739 82.4222 76.5739 82.2194 76.8122 82.0706Z" fill="white"/>
<path d="M74.503 101.465L76.2995 100.428C76.685 100.216 76.9703 100.39 76.9703 100.814V102.888C76.9577 103.12 76.8903 103.346 76.7737 103.547C76.6572 103.748 76.4947 103.918 76.2995 104.045L74.503 105.082C74.1368 105.297 73.8361 105.124 73.8361 104.696V102.622C73.8495 102.391 73.9168 102.166 74.0325 101.965C74.1483 101.764 74.3094 101.593 74.503 101.465Z" fill="#ED7600"/>
<path d="M71.6964 108.512L79.1099 104.233C79.3412 104.102 79.5263 104.195 79.5263 104.445C79.5163 104.586 79.4734 104.721 79.4011 104.842C79.3287 104.963 79.229 105.064 79.1099 105.139L71.6964 109.418C71.4651 109.55 71.28 109.457 71.28 109.206C71.29 109.066 71.3329 108.93 71.4052 108.81C71.4776 108.689 71.5773 108.587 71.6964 108.512Z" fill="#E0E0E0"/>
<path d="M84.4763 95.7057L86.2729 94.6686C86.6391 94.4566 86.9398 94.6301 86.9398 95.0541V97.1282C86.9273 97.3598 86.8604 97.5853 86.7445 97.7862C86.6286 97.9871 86.4671 98.1579 86.2729 98.2848L84.4763 99.3218C84.0908 99.5339 83.8055 99.3642 83.8055 98.9363V96.8622C83.8185 96.6303 83.886 96.4046 84.0025 96.2037C84.1191 96.0027 84.2814 95.8321 84.4763 95.7057Z" fill="#ED7600"/>
<path d="M81.6659 102.753L89.0795 98.4742C89.3108 98.3393 89.4958 98.4356 89.4958 98.6862C89.4859 98.826 89.443 98.9613 89.3706 99.0813C89.2982 99.2012 89.1984 99.3024 89.0795 99.3763L81.6659 103.659C81.4346 103.794 81.2496 103.698 81.2496 103.451C81.2586 103.31 81.3011 103.173 81.3735 103.052C81.4459 102.931 81.5462 102.828 81.6659 102.753Z" fill="#E0E0E0"/>
<path d="M94.4459 89.9463L96.2424 88.9093C96.6086 88.6934 96.9093 88.8669 96.9093 89.2948V91.3689C96.8962 91.6004 96.8291 91.8256 96.7133 92.0264C96.5974 92.2272 96.4362 92.3982 96.2424 92.5255L94.4459 93.5625C94.0604 93.7745 93.7789 93.6011 93.7789 93.177V91.1029C93.7908 90.8711 93.8575 90.6455 93.9734 90.4445C94.0893 90.2434 94.2513 90.0727 94.4459 89.9463Z" fill="#ED7600"/>
<path opacity="0.2" d="M74.503 101.465L76.2995 100.428C76.685 100.216 76.9703 100.39 76.9703 100.814V102.888C76.9577 103.12 76.8903 103.346 76.7737 103.547C76.6572 103.748 76.4947 103.918 76.2995 104.045L74.503 105.082C74.1368 105.297 73.8361 105.124 73.8361 104.696V102.622C73.8495 102.391 73.9168 102.166 74.0325 101.965C74.1483 101.764 74.3094 101.593 74.503 101.465Z" fill="white"/>
<path opacity="0.2" d="M84.4763 95.7057L86.2729 94.6686C86.6391 94.4566 86.9398 94.6301 86.9398 95.0541V97.1282C86.9273 97.3598 86.8604 97.5853 86.7445 97.7862C86.6286 97.9871 86.4671 98.1579 86.2729 98.2848L84.4763 99.3218C84.0908 99.5339 83.8055 99.3642 83.8055 98.9363V96.8622C83.8185 96.6303 83.886 96.4046 84.0025 96.2037C84.1191 96.0027 84.2814 95.8321 84.4763 95.7057Z" fill="white"/>
<path opacity="0.2" d="M94.4459 89.9463L96.2424 88.9093C96.6086 88.6934 96.9093 88.8669 96.9093 89.2948V91.3689C96.8962 91.6004 96.8291 91.8256 96.7133 92.0264C96.5974 92.2272 96.4362 92.3982 96.2424 92.5255L94.4459 93.5625C94.0604 93.7745 93.7789 93.6011 93.7789 93.177V91.1029C93.7908 90.8711 93.8575 90.6455 93.9734 90.4445C94.0893 90.2434 94.2513 90.0727 94.4459 89.9463Z" fill="white"/>
<path d="M91.6355 96.9938L99.049 92.7145C99.2803 92.5796 99.4654 92.676 99.4654 92.9227C99.4557 93.063 99.4129 93.1991 99.3406 93.3197C99.2682 93.4403 99.1683 93.5421 99.049 93.6167L91.6355 97.8959C91.408 98.0308 91.2191 97.9345 91.2191 97.6839C91.23 97.5444 91.2733 97.4093 91.3456 97.2895C91.4178 97.1697 91.5171 97.0684 91.6355 96.9938Z" fill="#E0E0E0"/>
<mask id="mask0_7215_8449" style="mask-type:luminance" maskUnits="userSpaceOnUse" x="47" y="31" width="16" height="21">
<path d="M54.8993 32.6703C50.5738 35.1068 47.0695 41.1787 47.0695 46.229C47.0695 51.2793 50.5738 53.3534 54.8993 50.8553C59.2249 48.3571 62.7292 42.289 62.7292 37.2927C62.7292 32.2964 59.221 30.23 54.8993 32.6703Z" fill="white"/>
</mask>
<g mask="url(#mask0_7215_8449)">
<path d="M54.8993 32.6703C50.5738 35.1068 47.0695 41.1787 47.0695 46.229C47.0695 51.2793 50.5738 53.3534 54.8993 50.8553C59.2249 48.3571 62.7292 42.289 62.7292 37.2927C62.7292 32.2964 59.221 30.23 54.8993 32.6703Z" fill="white"/>
<path d="M58.6928 48.2342L52.4243 49.915C52.3164 49.9502 52.2014 49.958 52.0897 49.9375C51.978 49.917 51.8732 49.869 51.7848 49.7978C51.6963 49.7266 51.627 49.6344 51.5832 49.5297C51.5394 49.425 51.5224 49.3109 51.5338 49.198V38.5268C51.5559 37.6435 51.8509 36.7887 52.3783 36.0798C52.9056 35.3709 53.6395 34.8426 54.4791 34.5675L56.6226 33.9931C58.2534 33.5574 59.5757 34.6215 59.5757 36.3679V47.0429C59.5687 47.3081 59.4802 47.5647 59.3223 47.7778C59.1643 47.991 58.9445 48.1503 58.6928 48.2342Z" fill="#37474F"/>
<path d="M58.9935 50.9942L58.3343 48.0835C58.3343 48.0835 58.3343 44.1551 57.7753 43.7927C57.2163 43.4303 57.0544 43.3609 57.0544 43.3609C57.7714 43.1142 59.2827 42.9291 59.753 44.3093C60.2041 45.6123 60.8787 48.8237 61.1987 50.4043L58.9935 50.9942Z" fill="#F28F8F"/>
<path d="M58.9396 51.009L56.7036 43.395C57.6943 43.0095 58.9665 42.6895 59.5834 43.7111C60.1385 44.6287 61.0252 49.4361 61.1987 50.4037L58.9396 51.009Z" fill="#ED7600"/>
<g opacity="0.4">
<path d="M58.9396 51.009L56.7036 43.395C57.6943 43.0095 58.9665 42.6895 59.5834 43.7111C60.1385 44.6287 61.0252 49.4361 61.1987 50.4037L58.9396 51.009Z" fill="black"/>
</g>
<path d="M59.2403 50.9281L57.0428 51.5179C57.1313 50.8868 57.3394 50.2784 57.6558 49.7252C58.0956 49.0915 58.7285 48.6168 59.4601 48.3721C59.3017 49.2146 59.2281 50.0709 59.2403 50.9281Z" fill="#ED7600"/>
<path d="M59.2403 50.9281L57.0428 51.5179C57.1313 50.8868 57.3394 50.2784 57.6558 49.7252C58.0956 49.0915 58.7285 48.6168 59.4601 48.3721C59.3017 49.2146 59.2281 50.0709 59.2403 50.9281Z" fill="#ED7600"/>
<g opacity="0.7">
<path d="M59.2403 50.9281L57.0428 51.5179C57.1313 50.8868 57.3394 50.2784 57.6558 49.7252C58.0956 49.0915 58.7285 48.6168 59.4601 48.3721C59.3017 49.2146 59.2281 50.0709 59.2403 50.9281Z" fill="black"/>
</g>
<path d="M58.77 51.0559L52.6017 52.7021L51.9232 50.601C51.9232 50.601 53.7235 46.3873 51.4991 45.304C51.7805 45.0919 54.1515 44.1667 54.1515 44.1667L56.6997 43.3957C57.1855 43.2646 59.1478 44.1359 59.6451 46.0673C59.8224 46.7497 59.7608 47.3626 58.7623 50.9171C58.7738 50.9634 58.77 51.0097 58.77 51.0559Z" fill="#ED7600"/>
<path d="M58.2611 35.3037C58.6852 35.4579 59.2095 36.4603 59.1594 38.8775C59.1169 40.9284 58.5001 41.5761 58.1917 41.8228C57.7298 42.0541 57.2202 42.1742 56.7036 42.1737V43.3958C56.7036 43.3958 57.5055 44.1668 57.4554 44.7528C57.4052 45.3388 56.2988 45.7551 55.5509 45.4082C55.0046 45.1002 54.5322 44.6765 54.1669 44.1668V41.3525C54.1106 41.4174 54.0419 41.4704 53.9649 41.5085C53.8879 41.5466 53.804 41.569 53.7183 41.5744C53.6325 41.5798 53.5466 41.568 53.4654 41.5399C53.3842 41.5117 53.3095 41.4677 53.2455 41.4103C53.1251 41.3279 53.0225 41.2222 52.9436 41.0994C52.8648 40.9766 52.8114 40.8393 52.7866 40.6955C52.7618 40.5517 52.7661 40.4044 52.7992 40.2623C52.8324 40.1202 52.8937 39.9862 52.9795 39.8683C53.365 39.3632 54.0397 39.29 54.3018 39.795C54.6281 39.0029 55.2122 38.3441 55.9595 37.9252C57.1778 37.185 57.8409 36.5258 58.2611 35.3037Z" fill="#FFA8A7"/>
<path d="M57.0389 38.9347C57.0406 39.0078 57.0197 39.0796 56.979 39.1404C56.9382 39.2011 56.8798 39.2478 56.8115 39.274C56.7825 39.284 56.7515 39.2868 56.7212 39.2822C56.6909 39.2776 56.6622 39.2656 56.6375 39.2474C56.6128 39.2292 56.5929 39.2052 56.5796 39.1776C56.5663 39.15 56.5598 39.1196 56.5609 39.0889C56.5592 39.0158 56.5802 38.944 56.6209 38.8833C56.6616 38.8225 56.7201 38.7759 56.7884 38.7497C56.8173 38.7396 56.8483 38.7368 56.8787 38.7414C56.909 38.746 56.9377 38.758 56.9624 38.7762C56.987 38.7944 57.0069 38.8184 57.0203 38.846C57.0336 38.8736 57.04 38.9041 57.0389 38.9347Z" fill="#37474F"/>
<path d="M57.1007 40.6465L57.6558 40.685C57.6395 40.7697 57.5954 40.8464 57.5304 40.903C57.4654 40.9596 57.3833 40.9928 57.2973 40.9973C57.1431 40.9857 57.0544 40.82 57.1007 40.6465Z" fill="#F28F8F"/>
<path d="M58.9974 37.6244L58.5155 37.397C58.5442 37.3224 58.5994 37.2611 58.6706 37.2248C58.7418 37.1885 58.8238 37.1798 58.901 37.2004C58.9355 37.2216 58.9654 37.2495 58.989 37.2824C59.0125 37.3154 59.0293 37.3527 59.0383 37.3922C59.0472 37.4316 59.0482 37.4725 59.0412 37.5124C59.0342 37.5523 59.0193 37.5904 58.9974 37.6244Z" fill="#37474F"/>
<path d="M56.345 38.5268L56.8269 38.0372C56.8014 38.0112 56.7706 37.9909 56.7366 37.9776C56.7027 37.9644 56.6663 37.9585 56.6298 37.9603C56.5934 37.9621 56.5578 37.9716 56.5253 37.9882C56.4929 38.0048 56.4643 38.028 56.4414 38.0564C56.3745 38.1124 56.3286 38.1894 56.3111 38.2748C56.2936 38.3602 56.3055 38.449 56.345 38.5268Z" fill="#37474F"/>
<path d="M58.8856 38.257C58.8879 38.3302 58.8671 38.4023 58.8264 38.4631C58.7856 38.524 58.7267 38.5705 58.6582 38.5962C58.6289 38.6064 58.5975 38.6092 58.5669 38.6044C58.5362 38.5996 58.5072 38.5873 58.4825 38.5686C58.4577 38.55 58.4379 38.5255 58.4249 38.4973C58.4118 38.4692 58.4059 38.4383 58.4076 38.4073C58.4065 38.3344 58.4276 38.2628 58.4683 38.2021C58.5089 38.1415 58.5671 38.0947 58.635 38.0681C58.6643 38.0579 58.6957 38.0551 58.7263 38.0599C58.757 38.0647 58.786 38.077 58.8107 38.0957C58.8355 38.1143 58.8553 38.1388 58.8683 38.167C58.8814 38.1951 58.8873 38.226 58.8856 38.257Z" fill="#37474F"/>
<path d="M57.7599 38.4111L57.7946 39.9416L58.5541 39.4867L57.7599 38.4111Z" fill="#F28F8F"/>
<path d="M56.7036 42.1737C56.0945 42.2508 54.8377 42.2007 54.6411 41.7227C54.7123 41.9575 54.8692 42.157 55.0805 42.2817C55.4661 42.5284 56.7036 42.5824 56.7036 42.5824V42.1737Z" fill="#F28F8F"/>
<path d="M52.6363 52.6978L52.3781 51.7803L53.0566 52.586L52.6363 52.6978Z" fill="#ED7600"/>
<path d="M52.1313 52.8335C51.8544 51.5146 51.4794 50.2182 51.0094 48.9551C50.3618 47.1779 51.0865 45.6435 51.5222 45.3043C51.9578 44.965 54.1746 44.167 54.1746 44.167C54.9764 46.4493 55.1962 49.5064 55.2155 52.0085L52.1313 52.8335Z" fill="#ED7600"/>
<path opacity="0.4" d="M52.1313 52.8335C51.8544 51.5146 51.4794 50.2182 51.0094 48.9551C50.3618 47.1779 51.0865 45.6435 51.5222 45.3043C51.9578 44.965 54.1746 44.167 54.1746 44.167C54.9764 46.4493 55.1962 49.5064 55.2155 52.0085L52.1313 52.8335Z" fill="black"/>
<path d="M51.0365 53.1259L48.8352 53.7157C48.7736 53.6743 48.7156 53.6279 48.6617 53.5769C48.6617 53.5769 49.7026 49.5598 50.0341 48.2259C50.3657 46.892 50.6201 45.9745 51.5145 45.3037C53.1221 46.3485 52.3781 49.2514 52.3781 49.2514L51.0365 53.1259Z" fill="#ED7600"/>
<path opacity="0.4" d="M51.0365 53.1259L48.8352 53.7157C48.7736 53.6743 48.7156 53.6279 48.6617 53.5769C48.6617 53.5769 49.7026 49.5598 50.0341 48.2259C50.3657 46.892 50.6201 45.9745 51.5145 45.3037C53.1221 46.3485 52.3781 49.2514 52.3781 49.2514L51.0365 53.1259Z" fill="black"/>
</g>
<path d="M18.9844 27.4534V19.8162C18.9613 18.3358 19.9251 16.8516 21.8797 15.7259C25.7349 13.4937 32.0034 13.4937 35.8663 15.7259C37.8209 16.8516 38.7847 18.3358 38.7615 19.8162V27.4264C38.7615 28.8991 37.8132 31.5322 35.8663 32.654C32.0111 34.8862 25.7426 34.8862 21.8797 32.654C19.9521 31.5437 18.9883 28.9299 18.9844 27.4688V27.4534Z" fill="#E0E0E0"/>
<path d="M28.873 10.3398L45.192 19.7619L28.873 29.184L12.554 19.7619L28.873 10.3398Z" fill="#E3E3E3"/>
<path d="M20.7077 24.4689L28.7458 19.8812C28.7789 19.8622 28.8155 19.85 28.8534 19.8451C28.8913 19.8403 28.9298 19.8429 28.9667 19.853C29.0035 19.863 29.0381 19.8802 29.0683 19.9035C29.0985 19.9269 29.1239 19.956 29.1429 19.9892C29.1618 20.0223 29.1741 20.0589 29.179 20.0968C29.1838 20.1347 29.1811 20.1732 29.1711 20.2101C29.1611 20.2469 29.1439 20.2815 29.1205 20.3117C29.0972 20.3419 29.0681 20.3673 29.0349 20.3863L21.2821 24.8005L20.7077 24.4689Z" fill="#E0E0E0"/>
<path d="M45.192 19.7617V20.4364L28.873 29.8546V29.1838L45.192 19.7617Z" fill="#E6E6E6"/>
<path d="M12.554 19.7617V20.4364L28.873 29.8546V29.1838L12.554 19.7617Z" fill="#CCCCCC"/>
<path d="M20.3029 24.9083L20.8002 25.1936C20.8754 25.0708 20.9801 24.9687 21.1047 24.8967L21.2782 24.7965L20.7115 24.4727C20.5441 24.5851 20.4044 24.7341 20.3029 24.9083Z" fill="#E0E0E0"/>
<path d="M38.7808 24.1377L28.873 30.865L18.9921 24.1531L28.873 29.8549L38.7808 24.1377Z" fill="#E0E0E0"/>
<path d="M19.6668 32.8428C19.8051 32.9141 19.9584 32.9513 20.114 32.9513C20.2696 32.9513 20.4229 32.9141 20.5612 32.8428L21.2975 37.5962C21.2975 38.4945 18.9651 38.4945 18.9651 37.5962L19.6668 32.8428Z" fill="#E3E3E3"/>
<path d="M19.6244 35.5566L19.4779 38.1627C19.4298 38.1482 19.3833 38.1288 19.3391 38.1049L19.6244 35.5566Z" fill="#E0E0E0"/>
<path d="M20.7269 38.1821L20.4185 33.9414L20.8773 38.1204C20.8284 38.144 20.7782 38.1646 20.7269 38.1821Z" fill="#E0E0E0"/>
<path d="M20.2026 38.267H20.0562L20.1333 34.9014L20.2026 38.267Z" fill="#E0E0E0"/>
<path d="M20.1101 33.2398C20.281 33.2355 20.4465 33.179 20.5843 33.0779C20.6429 33.0346 20.6827 32.9706 20.6956 32.8989C20.7085 32.8272 20.6935 32.7533 20.6537 32.6923C20.6116 32.6323 20.5478 32.5911 20.4758 32.5774C20.4038 32.5638 20.3293 32.5787 20.2682 32.6191C20.2315 32.6546 20.1824 32.6745 20.1313 32.6745C20.0802 32.6745 20.0312 32.6546 19.9945 32.6191C19.9645 32.5924 19.9293 32.5722 19.8911 32.5599C19.8529 32.5476 19.8125 32.5433 19.7726 32.5474C19.7327 32.5515 19.694 32.5639 19.6591 32.5838C19.6242 32.6036 19.5939 32.6305 19.57 32.6628C19.546 32.695 19.5291 32.7319 19.5202 32.7711C19.5113 32.8102 19.5107 32.8508 19.5184 32.8902C19.526 32.9296 19.5418 32.967 19.5647 32.9999C19.5876 33.0329 19.6171 33.0608 19.6514 33.0817C19.784 33.181 19.9445 33.2362 20.1101 33.2398Z" fill="#E0E0E0"/>
<path d="M20.1294 32.4995C20.1672 32.5 20.2047 32.493 20.2398 32.4789C20.2748 32.4648 20.3068 32.4439 20.3337 32.4173C20.3606 32.3908 20.3819 32.3591 20.3965 32.3243C20.4111 32.2894 20.4186 32.252 20.4186 32.2142V25.4753C20.419 25.3238 20.459 25.1751 20.5348 25.0438C20.6105 24.9126 20.7193 24.8035 20.8504 24.7274L29.0349 20.0627C29.0999 20.0254 29.1477 19.9641 29.1679 19.892C29.1881 19.8199 29.1791 19.7427 29.1429 19.6771C29.1248 19.6446 29.1005 19.6159 29.0712 19.5928C29.042 19.5697 29.0085 19.5527 28.9727 19.5426C28.9368 19.5326 28.8993 19.5298 28.8623 19.5343C28.8254 19.5389 28.7897 19.5507 28.7573 19.5692L20.5535 24.2417C20.3348 24.3679 20.1531 24.5494 20.0266 24.7679C19.9001 24.9865 19.8332 25.2344 19.8326 25.4869V32.2258C19.8341 32.2633 19.8429 32.3001 19.8587 32.3341C19.8744 32.3682 19.8967 32.3988 19.9243 32.4242C19.9518 32.4496 19.9841 32.4693 20.0193 32.4823C20.0545 32.4952 20.092 32.501 20.1294 32.4995Z" fill="white"/>
<path d="M20.7617 32.2142C20.7624 32.089 20.726 31.9664 20.657 31.8619C20.588 31.7574 20.4895 31.6758 20.3741 31.6274C20.2586 31.5789 20.1314 31.5658 20.0085 31.5898C19.8856 31.6138 19.7726 31.6737 19.6837 31.7619C19.5949 31.8502 19.5343 31.9629 19.5096 32.0856C19.4849 32.2084 19.4972 32.3357 19.5449 32.4514C19.5927 32.5672 19.6737 32.6662 19.7778 32.7358C19.8818 32.8054 20.0042 32.8426 20.1294 32.8426C20.2123 32.8431 20.2944 32.8273 20.3711 32.7959C20.4478 32.7646 20.5175 32.7183 20.5763 32.6599C20.635 32.6015 20.6817 32.5321 20.7135 32.4556C20.7453 32.3791 20.7617 32.2971 20.7617 32.2142Z" fill="#E3E3E3"/>
<path d="M19.5049 32.2491C19.5312 32.3143 19.5713 32.3731 19.6224 32.4214C19.6735 32.4698 19.7344 32.5065 19.801 32.5292C19.8675 32.5519 19.9382 32.56 20.0082 32.5529C20.0782 32.5458 20.1458 32.5237 20.2065 32.4881C20.2839 32.4415 20.348 32.3756 20.3924 32.2969C20.4369 32.2182 20.4603 32.1294 20.4603 32.039C20.4603 31.9486 20.4369 31.8597 20.3924 31.781C20.348 31.7023 20.2839 31.6365 20.2065 31.5898C20.3244 31.6061 20.4353 31.6556 20.5263 31.7324C20.6172 31.8093 20.6844 31.9104 20.7201 32.0239C20.7558 32.1375 20.7585 32.2589 20.7279 32.374C20.6972 32.489 20.6346 32.593 20.5471 32.6738C20.4597 32.7546 20.3511 32.8089 20.234 32.8304C20.1169 32.8519 19.9961 32.8397 19.8857 32.7952C19.7753 32.7507 19.6798 32.6757 19.6103 32.579C19.5408 32.4824 19.5002 32.3679 19.4933 32.2491H19.5049Z" fill="#E0E0E0"/>
<path d="M131.818 28.4942L128.838 26.7786L130.476 26.4316L132.107 27.5689L131.818 28.4942Z" fill="#E0E0E0"/>
<path d="M126.602 13.1388C126.602 8.51254 123.768 6.3652 120.287 8.37376L115.144 11.3423C111.675 13.3508 108.833 18.7635 108.833 23.4051C108.833 23.594 108.833 23.7907 108.833 23.9564C108.833 24.0605 108.833 24.1492 108.833 24.2494C108.833 24.3497 108.853 24.4306 108.86 24.5193C108.868 24.608 108.884 24.7236 108.899 24.8239C108.977 25.3717 109.114 25.9095 109.308 26.4276C109.389 26.6204 109.473 26.8131 109.566 26.975C109.609 27.0645 109.658 27.1508 109.712 27.2333L109.763 27.3143C109.848 27.4524 109.948 27.5816 110.059 27.6998C110.121 27.7692 110.179 27.8425 110.244 27.908L110.445 28.1008C110.514 28.1547 110.58 28.2203 110.653 28.2742C110.722 28.33 110.796 28.3803 110.873 28.4246L111.1 28.5557C111.395 28.7147 111.714 28.8229 112.045 28.8757C112.07 28.8695 112.097 28.8695 112.122 28.8757C112.211 28.8757 112.292 28.8949 112.38 28.8949C112.474 28.9026 112.568 28.9026 112.662 28.8949C112.909 28.8976 113.157 28.8704 113.398 28.814C113.542 28.7853 113.685 28.7492 113.826 28.706C114.276 28.568 114.709 28.3765 115.114 28.1355L120.256 25.167C120.609 24.9623 120.946 24.733 121.266 24.4807C121.266 24.4191 121.266 24.3651 121.266 24.3073C121.266 24.2494 121.266 24.1261 121.266 24.0567C121.266 23.9025 121.266 23.7444 121.266 23.5863C121.255 19.6425 123.63 14.9893 126.602 13.1388Z" fill="#E0E0E0"/>
<path d="M127.469 9.80438L124.482 8.08496C124.501 8.08496 124.786 10.1629 124.786 10.1629L127.003 10.4251L127.469 9.80438Z" fill="#E0E0E0"/>
<path d="M113.664 30.0089L110.904 28.4437L112.565 27.7305L113.664 30.0089Z" fill="#E0E0E0"/>
<path d="M115.144 28.1815C115.125 29.324 114.758 30.4334 114.092 31.362C113.969 31.524 114.157 31.6666 114.296 31.5934C114.926 31.2664 115.485 30.8168 115.939 30.271C116.811 29.2405 117.42 28.0144 117.716 26.6973L115.144 28.1815Z" fill="#E0E0E0"/>
<path d="M114.123 31.5862L117.111 33.3056C117.111 33.3056 118.788 31.8908 118.788 29.0264L115.545 28.8066C115.545 28.8066 115.468 30.6726 114.123 31.5862Z" fill="#E0E0E0"/>
<path d="M122.08 23.1586C122.08 23.3025 122.08 23.4413 122.08 23.5749C122.08 23.652 122.08 23.7176 122.08 23.7908C122.08 23.8641 122.08 23.9257 122.103 23.9951C122.126 24.0645 122.103 24.1493 122.13 24.2265C122.175 24.568 122.255 24.9039 122.369 25.2288C122.386 25.288 122.406 25.346 122.431 25.4023C122.459 25.4797 122.491 25.5557 122.527 25.6297C122.557 25.7014 122.592 25.7709 122.631 25.8379C122.662 25.9051 122.698 25.9696 122.739 26.0307L122.778 26.0924C122.846 26.1986 122.92 26.3003 123.001 26.3969C123.043 26.4531 123.09 26.506 123.14 26.555L123.287 26.6976C123.337 26.7445 123.389 26.7883 123.445 26.8287C123.497 26.8695 123.553 26.9069 123.61 26.9405C123.668 26.9752 123.722 27.0099 123.784 27.0407L123.961 27.1256L124.146 27.1911C124.259 27.2252 124.374 27.2536 124.489 27.2759H124.547C124.611 27.2818 124.676 27.2818 124.74 27.2759C124.809 27.2837 124.879 27.2837 124.948 27.2759C125.114 27.2758 125.279 27.2591 125.442 27.2258C125.572 27.2037 125.7 27.1741 125.827 27.1371C126.166 27.0334 126.49 26.8898 126.795 26.7092L130.65 24.4809C130.994 24.2824 131.318 24.0513 131.618 23.7908C131.726 23.6983 131.834 23.5981 131.941 23.4978C132.136 23.3168 132.32 23.125 132.493 22.9234L132.739 22.6998C132.805 22.6227 132.867 22.5417 132.932 22.4608C132.948 22.4328 132.968 22.4069 132.99 22.3837C133.247 22.0443 133.484 21.6903 133.699 21.3235C133.757 21.2271 133.811 21.1269 133.869 21.0266C133.927 20.9264 133.981 20.8262 134.035 20.7221C134.089 20.618 134.139 20.5139 134.193 20.4137L134.339 20.0975C134.39 19.9935 134.436 19.8817 134.482 19.7814C134.563 19.5964 134.636 19.3959 134.702 19.2186C134.702 19.1839 134.729 19.1492 134.74 19.1145C134.783 19.0065 134.817 18.8986 134.852 18.7906C134.922 18.5825 134.983 18.3743 135.045 18.1584C135.181 17.6517 135.282 17.1365 135.349 16.6163C135.349 16.5276 135.369 16.4428 135.38 16.3542C135.392 16.2655 135.38 16.2038 135.4 16.1267C135.419 16.0496 135.4 15.9725 135.4 15.8954C135.4 15.7515 135.4 15.6088 135.4 15.4675C135.4 11.9978 133.275 10.3748 130.662 11.8821L126.806 14.1143C124.204 15.614 122.08 19.6735 122.08 23.1586Z" fill="#E0E0E0"/>
<path d="M136.791 13.3622L133.827 11.6582L132.709 12.4485L136.167 14.5419L136.791 13.3622Z" fill="#E0E0E0"/>
<path d="M126.614 28.6555L123.633 26.94L125.97 26.2422L126.614 28.6555Z" fill="#E0E0E0"/>
<path d="M130.091 24.8545C130.091 25.4713 130.862 26.3118 131.745 26.4698C131.864 26.4929 131.833 26.7551 131.691 26.8553C131.165 27.1411 130.558 27.2416 129.968 27.1406C129.584 27.1292 129.211 27.0161 128.886 26.8128C128.561 26.6096 128.295 26.3236 128.117 25.9841L130.091 24.8545Z" fill="#ED7600"/>
<path d="M123.271 10.0894L118.124 13.0617C114.655 15.0703 111.817 20.483 111.817 25.1208C111.817 25.3135 111.817 25.5063 111.817 25.6759C111.817 25.78 111.817 25.8687 111.817 25.9689C111.817 26.0691 111.837 26.1462 111.848 26.2349C111.86 26.3236 111.871 26.4469 111.887 26.5433C111.956 27.0891 112.086 27.6256 112.272 28.1432C112.353 28.3398 112.438 28.5287 112.531 28.6945C112.573 28.7828 112.622 28.8678 112.677 28.949C112.693 28.9771 112.711 29.0041 112.731 29.0299C112.815 29.1756 112.913 29.3125 113.024 29.4386C113.086 29.508 113.147 29.5851 113.213 29.6467L113.41 29.8395C113.479 29.8935 113.548 29.959 113.618 30.013C113.688 30.0679 113.761 30.1181 113.837 30.1633L114.069 30.2944C114.362 30.4528 114.68 30.561 115.009 30.6144C115.034 30.6059 115.062 30.6059 115.087 30.6144C115.175 30.6144 115.26 30.6144 115.345 30.6144C115.439 30.6201 115.533 30.6201 115.626 30.6144C115.874 30.6155 116.121 30.5883 116.363 30.5334C116.507 30.5047 116.65 30.4687 116.791 30.4255C117.24 30.2863 117.672 30.0962 118.078 29.8588C118.059 31.0008 117.69 32.1095 117.022 33.0355C116.899 33.2012 117.087 33.3439 117.23 33.2706C117.861 32.9433 118.42 32.4923 118.872 31.9444C119.742 30.9139 120.351 29.6896 120.65 28.3745L120.264 28.5866L123.206 26.8903C123.49 26.7262 123.765 26.5447 124.027 26.3467C124.004 26.2488 123.987 26.1497 123.977 26.0499C123.977 25.9843 123.954 25.8879 123.946 25.7877C123.932 25.7022 123.923 25.616 123.919 25.5294V25.4831C123.915 25.4189 123.915 25.3546 123.919 25.2904C123.919 25.1439 123.919 24.9897 123.919 24.8355C123.919 20.934 126.232 16.5352 129.208 14.812L129.536 14.6192C129.505 10.1588 126.702 8.1078 123.271 10.0894Z" fill="#CCCCCC"/>
<path d="M133.661 13.5899L129.806 15.8182C127.196 17.3294 125.068 21.3889 125.068 24.874C125.068 25.0167 125.068 25.1555 125.068 25.2904C125.068 25.4253 125.068 25.433 125.068 25.5063C125.068 25.5795 125.068 25.6412 125.087 25.7106C125.093 25.7869 125.103 25.8628 125.118 25.9381C125.16 26.2812 125.24 26.6187 125.357 26.9443C125.372 27.004 125.392 27.0621 125.418 27.1178C125.445 27.1942 125.475 27.2688 125.511 27.3414C125.542 27.4139 125.577 27.4846 125.615 27.5534C125.647 27.6207 125.684 27.6851 125.727 27.7461C125.736 27.768 125.748 27.7887 125.762 27.8078C125.835 27.9158 125.908 28.016 125.985 28.1124C126.03 28.1677 126.077 28.2205 126.128 28.2705L126.274 28.4131C126.324 28.46 126.377 28.5038 126.432 28.5442C126.483 28.5858 126.537 28.6232 126.594 28.656C126.652 28.6907 126.706 28.7254 126.768 28.7562L126.945 28.841L127.13 28.9066C127.243 28.9407 127.358 28.969 127.473 28.9914H127.531C127.595 28.9973 127.66 28.9973 127.724 28.9914C127.794 29.0011 127.866 29.0011 127.936 28.9914C128.102 28.9923 128.267 28.9768 128.429 28.9451C128.559 28.9227 128.688 28.8931 128.815 28.8564C129.154 28.7542 129.479 28.6105 129.783 28.4285L131.086 27.6806C131.266 28.0165 131.533 28.2987 131.858 28.4984C132.183 28.6981 132.555 28.8084 132.936 28.8179C133.527 28.9174 134.134 28.8156 134.659 28.5288C134.798 28.4401 134.833 28.1779 134.709 28.1432C133.827 27.9852 133.059 27.1447 133.059 26.5279L133.645 26.1887C133.989 25.9893 134.313 25.7582 134.613 25.4986C134.721 25.4061 134.829 25.3058 134.933 25.2056C135.129 25.0246 135.314 24.8328 135.488 24.6312C135.558 24.5502 135.627 24.4731 135.696 24.3806C135.766 24.288 135.824 24.2264 135.889 24.1454L135.947 24.0683C136.204 23.7289 136.441 23.3749 136.656 23.0081L136.83 22.7113C136.888 22.611 136.942 22.5108 136.996 22.4067C137.05 22.3026 137.096 22.1985 137.15 22.0983L137.3 21.7822C137.35 21.6742 137.393 21.5663 137.439 21.466C137.52 21.281 137.597 21.0805 137.663 20.9032L137.697 20.7991C137.74 20.6912 137.778 20.5832 137.809 20.4753C137.882 20.2632 137.94 20.0589 138.006 19.843C138.141 19.3363 138.243 18.8212 138.31 18.3009C138.31 18.2123 138.329 18.1275 138.337 18.0388C138.345 17.9501 138.337 17.8846 138.356 17.8113C138.376 17.7381 138.356 17.6571 138.356 17.58C138.356 17.4374 138.356 17.2909 138.356 17.1482C138.399 13.6901 136.271 12.0825 133.661 13.5899Z" fill="#CCCCCC"/>
<path d="M102.688 64.5864C101.231 64.1315 99.7352 65.3112 98.756 67.6937C97.7768 70.0762 95.722 76.1365 95.4174 77.7519C95.1128 79.3672 102.006 82.8831 101.813 82.7906C101.62 82.6981 102.688 64.5864 102.688 64.5864Z" fill="#263238"/>
<path d="M99.4846 120.664C99.2764 120.741 99.2263 121.134 99.1955 121.913C99.1723 122.503 99.0451 123.532 99.7352 123.736C100.425 123.941 101.439 123.837 101.883 123.281C102.434 122.588 102.808 121.978 103.594 121.13C104.28 120.398 105.017 119.712 105.294 118.682C105.545 117.749 105.337 117.348 104.701 117.078C103.829 116.693 102.457 117.919 101.775 118.112C101.185 118.277 99.6889 120.587 99.4846 120.664Z" fill="#263238"/>
<path d="M99.4846 119.943V120.899C99.8435 121.128 100.258 121.256 100.684 121.267C101.11 121.279 101.531 121.174 101.902 120.964C101.944 120.872 102.152 119.596 102.152 119.596L99.4846 119.943Z" fill="#FFA8A7"/>
<path d="M107.23 126.177C107.23 126.177 106.956 127.009 106.809 127.719C106.69 128.297 106.524 129.261 106.725 129.7C106.925 130.14 107.719 130.417 108.941 130.406C109.736 130.406 110.973 130.942 111.817 131.412C112.662 131.882 114.516 132.094 115.437 131.987C116.525 131.859 117.654 131.215 117.831 130.776C118.009 130.337 117.774 129.855 115.206 128.76C115.183 128.76 111.636 127.603 110.391 126.227L107.23 126.177Z" fill="#263238"/>
<path d="M107.23 125.144C107.23 125.144 107.23 125.853 107.23 126.258C107.23 126.662 107.708 127.268 108.949 127.225C109.82 127.195 110.426 126.959 110.391 126.242V125.205L107.23 125.144Z" fill="#FFA8A7"/>
<path d="M98.8601 107.247C99.0732 105.553 99.4515 103.883 99.9897 102.263C99.9897 102.263 99.6504 97.964 99.4846 93.8891C99.3073 89.4865 99.4846 83.9504 99.4114 82.8555C99.4114 82.8555 113.618 79.9796 113.872 85.0684C114.127 90.1573 113.309 103.111 113.144 105.347C112.978 107.583 112.588 109.56 112.126 113.184C111.663 116.808 110.391 125.205 110.391 125.205C109.9 125.455 109.354 125.581 108.803 125.57C108.251 125.559 107.711 125.413 107.23 125.143C107.23 125.143 106.231 114.965 106.335 112.386C106.417 110.471 106.746 108.573 107.315 106.742L106.809 98.897C106.57 95.2461 106.32 93.4997 106.262 91.9075L105.957 91.7533C105.957 91.7533 105.645 98.0527 105.479 100.289C105.314 102.525 104.955 104.668 104.323 108.82C103.76 112.421 102.091 120.043 102.091 120.043C100.468 120.922 99.5001 119.931 99.5001 119.931C99.5001 119.931 98.4283 110.37 98.8601 107.247Z" fill="#455A64"/>
<path d="M106.262 91.9191C106.262 91.9191 102.815 90.219 101.092 88.6885C101.092 88.6885 102.692 90.9438 104.797 91.9461C104.797 91.9461 105.545 99.7683 105.541 99.6141L105.973 91.9037L106.262 91.9191Z" fill="#37474F"/>
<path d="M109.331 62.975L108.49 67.6013L104.311 67.2967L105.186 62.0498L109.331 62.975Z" fill="#FFA8A7"/>
<path d="M99.8971 66.9568C100.31 65.7 101.906 64.3314 103.502 64.6437C105.876 65.0453 108.215 65.6291 110.499 66.3901C111.96 66.9105 113.29 68.1751 113.413 72.9863L114.154 87.3122L112.384 87.6977L111.767 84.4517L111.482 87.6977C109.631 88.1604 106.42 87.7787 104.311 87.3122C99.9164 86.3523 99.3883 84.5288 99.3883 84.5288C99.3883 84.5288 99.3304 76.4676 99.4615 72.9863C99.5849 70.0101 99.6119 67.805 99.8971 66.9568Z" fill="#37474F"/>
<path d="M112.423 57.4922C112.423 57.4922 113.437 58.9919 113.305 59.1499C113.071 59.3079 112.81 59.4216 112.534 59.4853L112.423 57.4922Z" fill="#FFA8A7"/>
<path d="M109.331 52.7432C110.306 53.2367 111.991 54.1465 112.454 57.7126C112.932 61.375 112.303 62.5547 111.81 63.0405C111.474 63.3681 109.655 63.3874 108.745 63.1137C107.588 62.7706 105.036 61.7952 103.864 59.9139C102.484 57.701 102.176 54.7364 103.733 53.5567C105.919 51.899 108.506 52.3269 109.331 52.7432Z" fill="#FFA8A7"/>
<path d="M112.658 53.9687C112.338 54.8477 111.798 56.9989 109.554 57.8971C109.554 57.8971 109.234 56.5247 108.082 56.6712C106.929 56.8177 106.732 58.2865 107.442 59.2002C108.151 60.1138 108.837 59.7823 108.837 59.7823C108.837 59.7823 108.991 61.7485 107.681 62.639C107.681 62.639 106.096 63.6413 104.419 62.8703C103.648 62.5233 102.596 60.7153 101.971 59.231C100.645 56.0929 100.456 53.5754 102.457 52.7813C102.704 51.3549 103.347 50.819 104.639 50.553C107.419 49.9786 109.52 51.8059 111.856 51.4859C113.078 51.3163 113.024 52.9663 112.658 53.9687Z" fill="#37474F"/>
<path d="M102.411 53.2599L101.1 52.4503C101.151 52.3595 101.219 52.2799 101.302 52.2163C101.384 52.1527 101.479 52.1065 101.579 52.0804C101.68 52.0542 101.785 52.0488 101.888 52.0643C101.991 52.0798 102.089 52.116 102.178 52.1707C102.267 52.2254 102.343 52.2974 102.403 52.3825C102.463 52.4676 102.505 52.5639 102.527 52.6656C102.549 52.7674 102.55 52.8725 102.53 52.9747C102.51 53.0768 102.469 53.1738 102.411 53.2599Z" fill="#37474F"/>
<path d="M109.022 64.6594L109.5 66.0434C109.5 66.0434 109.15 66.6602 107.658 66.6911C106.166 66.7219 104.573 66.2477 104.08 65.6116C103.968 65.4871 103.884 65.3391 103.836 65.1784C103.788 65.0177 103.777 64.8483 103.802 64.6825C103.802 64.6825 104.396 63.3718 104.959 63.4296L104.866 64.0002C104.866 64.0002 104.994 64.4666 106.347 64.8252C108.452 65.3842 109.022 64.6594 109.022 64.6594Z" fill="#455A64"/>
<path d="M121.012 73.8577C121.613 73.1676 121.845 71.6371 122.647 70.5885C123.448 69.5399 123.745 68.7727 124.061 69.2314C124.482 69.8367 123.533 71.0511 123.745 71.159C123.957 71.267 124.74 72.8784 124.821 73.7651C124.902 74.6518 122.55 76.8878 122.55 76.8878L121.012 73.8577Z" fill="#FFA8A7"/>
<path d="M109.022 64.6593C109.119 64.6574 109.215 64.6818 109.299 64.73C109.383 64.7782 109.453 64.8484 109.5 64.933C109.736 65.3587 109.947 65.7977 110.133 66.2476L109.5 66.0433L109.022 64.6593Z" fill="#455A64"/>
<path d="M123.68 71.0354C123.68 71.0354 126.521 70.7887 126.934 71.0354C127.346 71.2822 127.223 72.512 126.934 73.2676C126.644 74.0232 125.195 74.5128 123.849 75.4226C123.849 75.2839 123.68 71.0354 123.68 71.0354Z" fill="#FFA8A7"/>
<path d="M110.133 66.2627C111.355 66.6906 112.423 67.1802 113.564 69.3237C115.029 72.0763 117.805 76.4789 117.805 76.4789L121 73.6608C121 73.6608 121.482 73.1943 122.381 74.6786C122.644 75.0781 122.81 75.5335 122.867 76.0085C122.924 76.4836 122.87 76.9654 122.708 77.4158C122.708 77.4158 119.019 81.7451 118.313 82.4044C117.608 83.0636 116.44 82.5509 115.68 81.5138C114.921 80.4768 110.121 74.482 110.121 74.482C110.121 74.482 107.515 71.02 110.133 66.2627Z" fill="#37474F"/>
<path d="M143.098 59.0654H133.996C133.653 59.0654 133.323 58.929 133.08 58.686C132.837 58.4431 132.701 58.1136 132.701 57.7701V43.3093C132.701 42.1713 133.153 41.0799 133.958 40.2752C134.762 39.4705 135.854 39.0184 136.992 39.0184H140.114C141.25 39.0215 142.339 39.4749 143.141 40.2793C143.943 41.0836 144.394 42.1733 144.394 43.3093V57.7701C144.394 58.1136 144.257 58.4431 144.014 58.686C143.771 58.929 143.442 59.0654 143.098 59.0654Z" fill="#37474F"/>
<path d="M132.462 54.1311C131.579 56.7334 130.099 64.2201 130.099 64.2201C130.099 64.2201 127.015 67.9905 126.008 68.9042C125.457 69.4131 124.216 70.3268 124.216 70.3268L126.471 71.9845C128.507 70.4182 130.42 68.6976 132.192 66.8378C132.586 66.4184 132.863 65.9024 132.994 65.342L134.536 58.7265C134.536 58.7265 134.536 53.4063 135.349 52.7085C136.163 52.0107 136.398 51.8642 136.398 51.8642C135.353 51.7871 133.156 52.084 132.462 54.1311Z" fill="#F28F8F"/>
<path d="M136.88 51.7871C135.442 51.6213 133.599 51.6522 132.701 53.2598C131.803 54.8674 130.307 63.1792 130.307 63.1792C130.307 63.1792 131.722 64.2779 133.248 64.2586L136.88 51.7871Z" fill="#ED7600"/>
<path d="M132.882 59.5322C133.141 60.7713 133.241 62.0383 133.179 63.3026C133.067 64.968 131.918 67.8749 131.918 67.8749C131.918 67.8749 132.817 68.8618 135.349 68.4647C137.412 68.1447 136.683 61.9109 135.5 60.7158C134.81 60.0027 133.873 59.5794 132.882 59.5322Z" fill="#ED7600"/>
<path opacity="0.3" d="M132.882 59.5322C133.141 60.7713 133.241 62.0383 133.179 63.3026C133.067 64.968 131.918 67.8749 131.918 67.8749C131.918 67.8749 132.817 68.8618 135.349 68.4647C137.412 68.1447 136.683 61.9109 135.5 60.7158C134.81 60.0027 133.873 59.5794 132.882 59.5322Z" fill="black"/>
<path d="M137.647 103.559C137.664 103.843 137.592 104.126 137.443 104.368C137.062 104.998 136.613 105.585 136.105 106.118C135.392 106.889 134.324 107.795 133.557 108.462C133.133 108.848 133.117 109.395 133.726 109.592C134.862 109.868 136.06 109.702 137.077 109.125C137.848 108.717 138.919 106.812 139.552 106.542C140.28 106.215 140.685 106.053 140.932 105.717C141.118 105.527 141.235 105.278 141.262 105.013C141.289 104.748 141.226 104.481 141.082 104.256C140.739 103.616 140.222 102.633 140.01 102.745L140.076 102.946C139.91 103.466 138.491 104.071 137.763 103.929L137.647 103.559Z" fill="#37474F"/>
<path d="M145.076 81.8068C145.404 78.3372 146.344 72.7548 145.381 68.6221L132.581 69.3006C132.227 73.3755 131.81 86.0977 132.258 87.5549C132.774 89.2743 137.389 101.175 137.655 103.569C137.673 103.85 137.602 104.13 137.451 104.367C137.07 104.999 136.621 105.587 136.113 106.122C135.766 106.507 135.342 106.893 134.895 107.278C134.857 107.333 134.835 107.397 134.829 107.463C134.829 107.849 135.801 107.968 136.371 107.802C137.083 107.551 137.696 107.08 138.121 106.457C138.449 106.021 139.185 105.185 139.663 104.556C139.823 104.362 139.959 104.15 140.068 103.924C140.196 103.642 140.218 103.323 140.13 103.026L140.099 102.929C139.849 102.149 139.694 101.341 139.636 100.524C139.459 97.8984 139.008 91.8342 138.592 90.2189C138.303 89.0418 137.863 87.9067 137.285 86.8417L138.746 75.4727C138.746 75.4727 138.9 85.4962 139.355 88.0522C139.714 90.0993 139.852 92.6592 140.273 96.1713C140.658 99.533 141.105 105.455 141.105 105.455C141.117 105.457 141.128 105.457 141.14 105.455V108.284H143.534V106.642C143.534 105.9 143.596 105.16 143.719 104.429C144.105 102.193 144.906 97.0772 145.072 95.3463C145.334 92.6014 144.344 89.151 144.344 89.151C144.344 89.151 144.756 85.1917 145.076 81.8068Z" fill="#FFA8A7"/>
<path d="M140.566 51.9067C140.566 51.9067 144.008 52.2922 144.421 52.4889C141.19 54.7596 143.808 59.8137 143.808 59.8137L142.57 63.6959C143.947 65.4577 145.134 66.5063 145.87 68.4378C146.688 70.5967 147.412 73.8081 147.22 80.3889C144.135 82.702 134.752 82.4514 131.097 80.3889C131.097 80.3889 131.714 74.5791 132.443 70.0647C132.925 67.0846 134.062 63.8385 133.869 62.7398C132.419 58.2832 132.327 57.4813 132.589 56.4867C133.31 53.6878 136.163 51.7949 136.865 51.7949L140.566 51.9067Z" fill="#ED7600"/>
<path opacity="0.6" d="M140.566 51.9067C140.566 51.9067 144.008 52.2922 144.421 52.4889C141.19 54.7596 143.808 59.8137 143.808 59.8137L142.57 63.6959C143.947 65.4577 145.134 66.5063 145.87 68.4378C146.688 70.5967 147.412 73.8081 147.22 80.3889C144.135 82.702 134.752 82.4514 131.097 80.3889C131.097 80.3889 131.714 74.5791 132.443 70.0647C132.925 67.0846 134.062 63.8385 133.869 62.7398C132.419 58.2832 132.327 57.4813 132.589 56.4867C133.31 53.6878 136.163 51.7949 136.865 51.7949L140.566 51.9067Z" fill="white"/>
<path d="M141.117 107.086V106.742C140.816 107.895 140.215 108.948 139.374 109.792C138.603 110.49 137.562 111.299 137.292 112.082C137.023 112.864 138.53 113.215 139.525 113.115C140.488 112.997 141.376 112.533 142.023 111.808C142.655 111.083 142.643 110.59 142.936 110.189C143.229 109.788 143.912 109.349 144.07 108.886C144.119 108.454 144.072 108.017 143.931 107.606C143.819 107.178 143.696 106.704 143.546 106.742V107.008C143.199 107.281 142.769 107.427 142.327 107.421C141.992 107.429 141.113 107.355 141.117 107.086Z" fill="#37474F"/>
<path d="M143.534 107C143.187 107.273 142.757 107.419 142.316 107.413C141.961 107.413 141.098 107.355 141.101 107.085V106.742C140.801 107.895 140.199 108.947 139.359 109.792L138.777 110.312C138.368 110.767 138.484 111.164 139.444 111.245C140.404 111.326 141.248 110.748 141.973 109.857C142.591 108.962 143.114 108.004 143.534 107Z" fill="#FFA8A7"/>
<path d="M134.621 41.3818C134.004 41.7481 133.241 43.3094 133.314 46.5555C133.379 49.3158 134.274 49.9982 134.725 50.1948C135.176 50.3914 136.04 50.2719 136.88 50.1331V51.787C136.88 51.787 135.723 53.1402 135.789 53.8996C135.854 54.6591 137.47 54.8364 138.561 54.0963C139.349 53.4854 140.026 52.7449 140.566 51.9065L140.546 48.1014C140.546 48.1014 141.044 48.5795 141.884 47.847C142.578 47.2417 142.809 46.2162 142.27 45.6688C142.129 45.5371 141.96 45.4407 141.775 45.3878C141.59 45.3349 141.395 45.327 141.206 45.3647C141.018 45.4025 140.841 45.4847 140.691 45.6047C140.54 45.7246 140.421 45.8788 140.342 46.0543C140.342 46.0543 139.875 44.7551 137.936 44.1267C136.186 43.5446 135.234 42.8854 134.621 41.3818Z" fill="#FFA8A7"/>
<path d="M136.398 45.8656C136.398 45.9336 136.418 46 136.456 46.0567C136.493 46.1133 136.546 46.1578 136.609 46.1844C136.671 46.2111 136.74 46.2188 136.807 46.2066C136.874 46.1944 136.936 46.1629 136.985 46.1159C137.034 46.0689 137.068 46.0085 137.083 45.9423C137.098 45.876 137.094 45.8068 137.07 45.7432C137.046 45.6796 137.004 45.6244 136.949 45.5845C136.894 45.5445 136.828 45.5217 136.76 45.5186C136.714 45.5176 136.668 45.5258 136.624 45.5427C136.581 45.5595 136.541 45.5848 136.507 45.617C136.474 45.6493 136.447 45.6878 136.428 45.7305C136.409 45.7731 136.399 45.819 136.398 45.8656Z" fill="#37474F"/>
<path d="M136.306 48.2012L135.5 48.4595C135.514 48.5133 135.539 48.5636 135.573 48.6075C135.607 48.6514 135.65 48.688 135.698 48.715C135.747 48.742 135.801 48.7589 135.856 48.7647C135.911 48.7705 135.967 48.765 136.02 48.7486C136.129 48.7115 136.219 48.6339 136.273 48.532C136.326 48.4301 136.337 48.3116 136.306 48.2012Z" fill="#F28F8F"/>
<path d="M133.553 44.7978L134.255 44.312C134.225 44.2646 134.186 44.2237 134.14 44.1918C134.094 44.1599 134.042 44.1377 133.987 44.1265C133.932 44.1153 133.876 44.1154 133.821 44.1267C133.766 44.1381 133.714 44.1605 133.669 44.1925C133.575 44.2587 133.51 44.3588 133.488 44.4717C133.467 44.5847 133.49 44.7016 133.553 44.7978Z" fill="#37474F"/>
<path d="M137.408 45.0596L136.703 44.5738C136.732 44.5265 136.771 44.4857 136.817 44.4537C136.863 44.4218 136.915 44.3994 136.969 44.3878C137.024 44.3763 137.081 44.3759 137.135 44.3867C137.19 44.3975 137.242 44.4191 137.289 44.4505C137.382 44.518 137.446 44.6184 137.468 44.7315C137.491 44.8445 137.469 44.9618 137.408 45.0596Z" fill="#37474F"/>
<path d="M133.715 45.6108C133.714 45.6789 133.734 45.7457 133.771 45.8029C133.808 45.8601 133.861 45.9051 133.923 45.9323C133.985 45.9595 134.055 45.9678 134.122 45.9561C134.189 45.9443 134.251 45.9131 134.3 45.8662C134.35 45.8194 134.384 45.7591 134.4 45.6927C134.415 45.6264 134.411 45.5569 134.387 45.4931C134.363 45.4293 134.321 45.3739 134.266 45.3338C134.211 45.2937 134.145 45.2707 134.077 45.2677C133.984 45.2656 133.893 45.3005 133.826 45.3647C133.758 45.429 133.718 45.5174 133.715 45.6108Z" fill="#37474F"/>
<path d="M135.349 45.4141L135.295 47.5036L134.197 47.1643L135.349 45.4141Z" fill="#F28F8F"/>
<path d="M136.88 50.1333C137.767 50.0138 139.579 49.4895 139.879 48.7686C139.765 49.1337 139.542 49.4552 139.239 49.6899C138.692 50.1564 136.88 50.6846 136.88 50.6846V50.1333Z" fill="#F28F8F"/>
<path d="M143.168 61.5791L140.735 64.8714L142.57 63.6956L143.168 61.5791Z" fill="#ED7600"/>
<path d="M124.004 70.3265C123.483 70.9974 123.163 72.3004 122.889 72.7399C122.616 73.1794 122.288 73.5611 122.889 73.642C123.491 73.723 124.37 72.5471 124.698 71.8339C124.863 71.4317 125.176 71.1077 125.573 70.928C125.291 70.8316 125.438 69.702 125.241 69.5439C125.241 69.5439 124.216 69.9642 124.004 70.3265Z" fill="#F28F8F"/>
<path d="M123.849 75.4154C124.393 75.0106 124.412 74.5133 124.516 73.723C124.62 72.9327 126.799 72.0768 126.868 72.6667C126.937 73.2565 127.134 73.75 126.483 74.467C125.831 75.1841 124.844 75.9474 123.849 75.4154Z" fill="#F28F8F"/>
<path d="M140.565 51.9062C140.565 51.9062 143.788 52.1877 144.421 52.4884C145.053 52.7891 146.105 54.6087 145.165 57.2495C144.224 59.8903 143.368 62.9976 143.465 63.6222C143.561 64.2467 145.809 67.4774 145.809 67.4774C145.188 67.9351 144.487 68.2712 143.742 68.4681L142.586 65.9546L142.855 68.6262C141.694 68.9087 140.5 69.0383 139.305 69.0117C139.305 69.0117 138.214 58.7492 140.565 51.9062Z" fill="#ED7600"/>
<path d="M148.507 64.4936C148.766 62.9747 148.507 62.4774 147.975 60.9893L145.277 62.7357C145.498 63.2974 145.628 63.8908 145.662 64.4936C145.639 64.9331 145.041 69.2895 144.482 70.8084C144.382 71.0785 144.184 71.3012 143.927 71.433C143.371 71.7724 142.868 72.1906 142.431 72.6743C142.019 73.0599 141.687 73.1292 141.73 73.2603C141.794 73.4024 141.907 73.516 142.05 73.5794C142.192 73.6427 142.353 73.6512 142.501 73.6034C142.837 73.4944 143.159 73.3469 143.461 73.1639C143.193 73.7309 142.836 74.2515 142.404 74.706C141.414 75.7623 141.325 76.4486 143.176 76.5912C144.332 76.6799 145.3 76.0322 146.344 73.5456C146.668 72.634 146.935 71.7031 147.142 70.7583C147.705 68.6033 148.253 66.0241 148.507 64.4936Z" fill="#FFA8A7"/>
<path d="M144.421 52.4883C145.72 53.0704 146.09 54.2193 146.572 55.9078C147.054 57.5964 148.565 62.6621 148.565 62.6621C148.565 62.6621 147.27 64.2042 145.481 63.7724L143.168 58.1554C143.168 58.1554 142.088 54.4891 144.421 52.4883Z" fill="#ED7600"/>
</svg>