<svg width="177" height="165" viewBox="0 0 177 165" fill="none" xmlns="http://www.w3.org/2000/svg">
<path d="M1.90564 153.961V164.116H4.24817C4.12534 163.047 4.12534 161.968 4.24817 160.9C4.47069 159.706 7.0155 156.623 6.93863 153.977L1.90564 153.961Z" fill="#EBEBEB"/>
<path d="M20.6459 153.961V164.116H22.9884C22.8656 163.047 22.8656 161.968 22.9884 160.9C23.2109 159.706 25.7557 156.623 25.6789 153.977L20.6459 153.961Z" fill="#E0E0E0"/>
<path d="M38.9896 153.961V164.116H36.6431C36.7637 163.047 36.7637 161.968 36.6431 160.9C36.4165 159.706 33.8757 156.623 33.9486 153.977L38.9896 153.961Z" fill="#EBEBEB"/>
<path d="M55.2051 153.961V164.116H52.8626C52.9832 163.047 52.9832 161.968 52.8626 160.9C52.6401 159.706 50.0952 156.623 50.1721 153.977L55.2051 153.961Z" fill="#E0E0E0"/>
<path d="M56.4351 103.886H0.311523V154.284H56.4351V103.886Z" fill="#F5F5F5"/>
<path d="M41.3159 103.886L41.7326 154.284H56.4351V103.886H41.3159Z" fill="#E0E0E0"/>
<path d="M38.8682 107.597H2.83618V120.422H38.8682V107.597Z" fill="#EBEBEB"/>
<path d="M38.8682 122.975H2.83618V135.8H38.8682V122.975Z" fill="#EBEBEB"/>
<path d="M38.8682 138.355H2.83618V151.181H38.8682V138.355Z" fill="#EBEBEB"/>
<path d="M16.6486 89.4062L15.095 103.83H35.0085L36.6592 89.4062H16.6486Z" fill="#E0E0E0"/>
<path d="M17.4699 90.4424L15.9568 103.061H33.9283L35.3807 90.4424H17.4699Z" fill="white"/>
<path d="M20.4921 92.5654L19.5615 100.94H30.9019L31.4845 92.5654H20.4921Z" fill="#EBEBEB"/>
<path d="M35.9472 95.6162L40.0618 103.886L35.0085 103.829L35.9472 95.6162Z" fill="#EBEBEB"/>
<path d="M22.1711 114.676C22.1719 114.937 22.0952 115.193 21.9508 115.41C21.8063 115.628 21.6006 115.797 21.3597 115.898C21.1187 115.998 20.8534 116.025 20.5973 115.974C20.3412 115.924 20.1058 115.799 19.9209 115.614C19.7361 115.43 19.6101 115.195 19.5588 114.939C19.5076 114.683 19.5335 114.418 19.6332 114.176C19.7329 113.935 19.902 113.729 20.119 113.584C20.3359 113.439 20.5911 113.361 20.8521 113.361C21.2012 113.361 21.5361 113.5 21.7833 113.746C22.0306 113.993 22.17 114.327 22.1711 114.676Z" fill="#E0E0E0"/>
<path d="M22.1711 130.212C22.1711 130.472 22.0937 130.727 21.9488 130.944C21.8039 131.161 21.5979 131.33 21.3569 131.43C21.1159 131.53 20.8507 131.556 20.5948 131.505C20.339 131.454 20.104 131.329 19.9195 131.144C19.7351 130.96 19.6094 130.725 19.5585 130.469C19.5077 130.213 19.5338 129.948 19.6336 129.707C19.7334 129.466 19.9025 129.26 20.1194 129.115C20.3363 128.97 20.5913 128.893 20.8521 128.893C21.0255 128.892 21.1972 128.926 21.3575 128.992C21.5178 129.058 21.6634 129.155 21.786 129.278C21.9085 129.4 22.0057 129.546 22.0718 129.706C22.1379 129.866 22.1716 130.038 22.1711 130.212Z" fill="#E0E0E0"/>
<path d="M22.1711 145.744C22.1711 146.005 22.0937 146.26 21.9488 146.477C21.8039 146.693 21.5979 146.862 21.3569 146.962C21.1159 147.062 20.8507 147.088 20.5948 147.037C20.339 146.986 20.104 146.861 19.9195 146.676C19.7351 146.492 19.6094 146.257 19.5585 146.001C19.5077 145.745 19.5338 145.48 19.6336 145.239C19.7334 144.998 19.9025 144.792 20.1194 144.647C20.3363 144.502 20.5913 144.425 20.8521 144.425C21.2019 144.425 21.5374 144.564 21.7848 144.811C22.0321 145.058 22.1711 145.394 22.1711 145.744Z" fill="#E0E0E0"/>
<path d="M38.8115 21.9579L6.99121 21.6504L7.87724 63.12L39.6976 63.2373L38.8115 21.9579Z" fill="#E0E0E0"/>
<path d="M36.7602 23.8071L8.90479 23.0869L9.7099 60.6968L37.5572 61.0407L36.7602 23.8071Z" fill="#FAFAFA"/>
<path d="M32.0066 29.4266L13.5212 29.1191L14.0877 55.4088L32.5528 55.0124L32.0066 29.4266Z" fill="#EBEBEB"/>
<path d="M14.0877 55.4088L32.2655 41.5074L13.5212 29.1191L14.0877 55.4088Z" fill="#F5F5F5"/>
<path d="M175.742 0.341383L147.822 0.0703125L148.603 36.4543L176.515 36.5555L175.742 0.341383Z" fill="#E0E0E0"/>
<path d="M173.938 1.9682L149.501 1.33301L150.209 34.3266L174.638 34.626L173.938 1.9682Z" fill="#FAFAFA"/>
<path d="M169.767 6.89509L153.555 6.62402L154.049 29.6852L170.248 29.3413L169.767 6.89509Z" fill="#EBEBEB"/>
<path d="M154.049 29.6852L169.997 17.4911L153.555 6.62402L154.049 29.6852Z" fill="#F5F5F5"/>
<path d="M144.468 137.131C144.351 137.487 148.514 153.314 148.514 153.314L151.37 152.719L147.442 137.131H144.468Z" fill="#EBEBEB"/>
<path d="M166.603 134.868L160.89 153.313H164.224L169.698 136.179L166.603 134.868Z" fill="#F5F5F5"/>
<path d="M171.838 132.013L165.292 153.314H168.626L174.933 133.324L171.838 132.013Z" fill="#EBEBEB"/>
<path d="M146.491 152.007L149.825 163.55H166.603L169.698 152.007H146.491Z" fill="#E0E0E0"/>
<path d="M155.145 152.007C155.13 151.967 155.118 151.927 155.108 151.886L155.019 151.534C154.943 151.21 154.837 150.753 154.7 150.17L153.547 145.129L149.78 128.319L149.881 128.404H146.944L147.045 128.274C148.538 134.889 149.877 140.816 150.836 145.097C151.305 147.229 151.686 148.948 151.953 150.154C152.074 150.741 152.175 151.198 152.244 151.526C152.272 151.675 152.297 151.793 152.313 151.882C152.319 151.923 152.319 151.965 152.313 152.007C152.298 151.967 152.286 151.927 152.276 151.886C152.252 151.797 152.224 151.679 152.187 151.534C152.106 151.21 151.997 150.753 151.856 150.17C151.576 148.956 151.176 147.253 150.678 145.129C149.695 140.849 148.34 134.93 146.827 128.319L146.794 128.193H149.95L149.97 128.274C151.423 134.889 152.73 140.816 153.672 145.097C154.129 147.229 154.502 148.948 154.761 150.154C154.882 150.741 154.975 151.198 155.044 151.526L155.113 151.882C155.13 151.921 155.141 151.964 155.145 152.007Z" fill="#E0E0E0"/>
<path d="M171.543 164.031C171.543 164.088 133.132 164.136 85.7713 164.136C38.411 164.136 0 164.088 0 164.031C0 163.974 38.4029 163.926 85.7915 163.926C133.18 163.926 171.543 163.974 171.543 164.031Z" fill="#263238"/>
<path d="M160.498 53.6041C160.405 53.5651 160.309 53.5352 160.21 53.5151C159.921 53.45 159.621 53.45 159.332 53.5151C158.864 53.6356 158.428 53.8596 158.058 54.1705C157.554 54.6067 157.118 55.1153 156.763 55.6796C155.934 56.95 155.283 58.7059 154.522 60.7531C153.642 63.0908 152.88 65.4714 152.24 67.8858C152.121 68.1086 151.962 68.3074 151.771 68.4725C151.672 68.5623 151.555 68.6297 151.428 68.6702C151.301 68.7107 151.167 68.7233 151.034 68.7071C150.775 68.641 150.54 68.5004 150.359 68.3026C150.169 68.1286 149.991 67.9425 149.813 67.7523C149.461 67.3661 149.087 67.0013 148.692 66.66C148.31 66.2925 147.802 66.0855 147.272 66.0814C147.007 66.1266 146.754 66.227 146.53 66.3762C146.307 66.5254 146.117 66.7199 145.973 66.9472C145.686 67.4387 145.531 67.9963 145.524 68.5655C145.455 69.7226 145.791 70.8919 145.993 72.1016C146.196 73.3113 146.45 74.5533 146.685 75.8197C146.807 76.4549 146.924 77.0941 147.045 77.7414L147.227 78.7205C147.283 78.8915 147.301 79.0724 147.281 79.2511C147.261 79.4298 147.202 79.602 147.11 79.7563C147.049 79.8374 146.965 79.8983 146.869 79.9308C146.773 79.9633 146.669 79.9659 146.572 79.9383C146.397 79.8875 146.234 79.8037 146.09 79.6915L145.281 79.0766C144.731 78.6604 144.158 78.2742 143.566 77.9195C142.973 77.5506 142.326 77.2775 141.648 77.1103C141.313 77.0314 140.964 77.0314 140.629 77.1103C140.295 77.1947 140 77.3919 139.795 77.6686C139.406 78.2691 139.215 78.9767 139.249 79.6915C139.25 80.4276 139.322 81.162 139.463 81.8844C139.755 83.3693 140.168 84.828 140.697 86.2457C140.851 86.6082 140.969 86.9849 141.049 87.3705C141.069 87.4797 141.065 87.5917 141.04 87.6996C141.014 87.8075 140.966 87.9089 140.9 87.9976C140.864 88.0397 140.824 88.0789 140.782 88.1149C140.736 88.1562 140.683 88.1878 140.625 88.208C140.501 88.2264 140.375 88.1975 140.273 88.127C139.936 87.9114 139.623 87.662 139.338 87.3826L138.472 86.5735C137.905 86.0245 137.289 85.5289 136.631 85.0927C136.304 84.8773 135.945 84.7136 135.567 84.6072C135.388 84.5516 135.199 84.5347 135.013 84.5577C134.827 84.5807 134.647 84.6431 134.487 84.7407C134.175 84.9676 133.957 85.3018 133.876 85.6793C133.779 86.0656 133.73 86.4624 133.73 86.8607C133.734 87.6791 133.836 88.4941 134.034 89.2882C134.434 90.9022 135.024 92.4628 135.794 93.9368C136.56 95.4482 137.435 96.9018 138.411 98.2861C138.9 98.9885 139.427 99.6638 139.989 100.309C140.531 100.981 141.082 101.648 141.632 102.332V102.356L141.535 102.316L144.108 101.944C144.961 101.842 145.807 101.696 146.645 101.507C148.296 101.135 149.918 100.647 151.5 100.046C153.06 99.469 154.547 98.7099 155.93 97.7844C156.609 97.3349 157.23 96.8037 157.779 96.2025C158.05 95.9079 158.282 95.5803 158.471 95.2275C158.664 94.8936 158.727 94.5005 158.649 94.1229C158.597 93.9422 158.506 93.7747 158.384 93.6317C158.262 93.4886 158.111 93.3733 157.941 93.2936C157.589 93.1217 157.214 93.0018 156.828 92.9375C156.048 92.8195 155.258 92.7721 154.469 92.7959H153.288C152.882 92.8118 152.475 92.786 152.074 92.719C151.95 92.7031 151.837 92.6392 151.759 92.541C151.729 92.486 151.711 92.4253 151.706 92.363C151.7 92.3079 151.7 92.2523 151.706 92.1971C151.718 92.0875 151.752 91.9814 151.806 91.8849C151.859 91.7884 151.931 91.7034 152.018 91.6348C152.336 91.4042 152.676 91.205 153.033 91.04C154.38 90.3477 155.666 89.5453 156.881 88.6409C157.468 88.2027 158.01 87.7066 158.499 87.1601C159.004 86.6549 159.338 86.004 159.454 85.299C159.488 84.9557 159.402 84.6113 159.211 84.324C159.018 84.0389 158.76 83.8033 158.458 83.6362C157.848 83.3007 157.189 83.0644 156.504 82.9363C155.828 82.7999 155.145 82.7013 154.457 82.6409L153.438 82.5438C153.256 82.5334 153.078 82.4852 152.916 82.4022C152.825 82.3556 152.751 82.2827 152.703 82.1932C152.654 82.1037 152.634 82.0017 152.645 81.9005C152.682 81.7253 152.755 81.5598 152.861 81.4149C152.966 81.2699 153.1 81.1486 153.256 81.059L154.065 80.4602L155.622 79.2748L158.632 76.9889C159.599 76.2323 160.631 75.5931 161.359 74.6869C161.732 74.2632 161.988 73.7503 162.104 73.198C162.151 72.9326 162.141 72.6602 162.076 72.3988C162.01 72.1373 161.89 71.8927 161.723 71.6808C161.547 71.4856 161.318 71.3452 161.064 71.2762C160.81 71.2008 160.548 71.1573 160.283 71.1468C159.762 71.1331 159.24 71.152 158.721 71.2034C158.463 71.2034 158.204 71.2398 157.949 71.2439C157.683 71.2638 157.418 71.2061 157.184 71.078C157.072 71.0024 156.979 70.9037 156.909 70.7885C156.839 70.6732 156.795 70.5443 156.779 70.4104C156.75 70.1589 156.765 69.9041 156.824 69.6579C157.982 67.464 159.028 65.213 159.959 62.9135C160.769 60.8906 161.469 59.1509 161.719 57.654C161.842 57.0005 161.869 56.3328 161.8 55.6715C161.748 55.1908 161.586 54.7286 161.327 54.3202C161.17 54.0704 160.957 53.8611 160.704 53.7093C160.618 53.6566 160.527 53.6119 160.433 53.5758C160.531 53.6021 160.625 53.6416 160.712 53.6931C160.972 53.8419 161.194 54.0498 161.359 54.3C161.623 54.7116 161.791 55.1778 161.849 55.6634C161.928 56.3303 161.907 57.0052 161.788 57.6661C161.545 59.1671 160.858 60.9028 160.053 62.9257C159.141 65.2515 158.112 67.5295 156.97 69.751C156.914 69.9785 156.9 70.2144 156.929 70.4468C156.94 70.5613 156.975 70.6721 157.033 70.7719C157.09 70.8716 157.168 70.9581 157.261 71.0254C157.472 71.1371 157.711 71.1862 157.949 71.167C158.2 71.167 158.454 71.1427 158.713 71.1225C159.239 71.0695 159.767 71.0492 160.295 71.0618C160.569 71.0727 160.841 71.1175 161.104 71.1953C161.383 71.2694 161.635 71.4192 161.833 71.6282C162.009 71.8549 162.136 72.116 162.206 72.3947C162.275 72.6733 162.286 72.9635 162.237 73.2465C162.12 73.8262 161.852 74.3647 161.46 74.8082C160.712 75.7388 159.672 76.3861 158.713 77.1467L155.707 79.4366L154.154 80.618L153.365 81.2208C153.232 81.3099 153.111 81.416 153.005 81.5364C152.907 81.652 152.843 81.7918 152.819 81.941C152.812 82.0083 152.825 82.0761 152.858 82.1354C152.89 82.1947 152.94 82.2426 153.001 82.2728C153.144 82.342 153.299 82.3819 153.458 82.3901L154.477 82.4872C155.17 82.5461 155.859 82.6448 156.541 82.7825C157.249 82.913 157.931 83.1547 158.564 83.4986C158.886 83.6842 159.163 83.94 159.373 84.2471C159.584 84.5689 159.681 84.9521 159.648 85.3354C159.528 86.0813 159.178 86.7713 158.649 87.3098C158.146 87.8656 157.591 88.371 156.99 88.8189C155.768 89.7324 154.473 90.5442 153.118 91.2464C152.774 91.4025 152.446 91.5922 152.139 91.8128C152.072 91.8643 152.016 91.9289 151.974 92.0025C151.932 92.0762 151.906 92.1575 151.896 92.2416C151.892 92.282 151.892 92.3227 151.896 92.363C151.896 92.3954 151.896 92.4723 151.924 92.4682C151.976 92.5148 152.041 92.5444 152.111 92.5532C152.49 92.6145 152.875 92.6389 153.26 92.626H154.441C155.242 92.5968 156.044 92.6443 156.836 92.7676C157.244 92.8312 157.64 92.9582 158.009 93.1439C158.205 93.2372 158.378 93.3709 158.517 93.5362C158.657 93.7016 158.759 93.8947 158.819 94.1027C158.91 94.5278 158.841 94.9718 158.624 95.3488C158.429 95.7168 158.187 96.0581 157.904 96.3643C157.344 96.979 156.711 97.5225 156.019 97.9827C154.624 98.9208 153.122 99.6883 151.544 100.269C149.95 100.877 148.314 101.369 146.649 101.741C145.809 101.932 144.959 102.078 144.104 102.178L141.527 102.554H141.466L141.43 102.506H141.409L139.767 100.483C139.205 99.8365 138.677 99.1613 138.185 98.4601C137.2 97.0655 136.319 95.6011 135.547 94.0784C134.774 92.5882 134.18 91.0114 133.779 89.3812C133.574 88.5759 133.47 87.7483 133.467 86.9173C133.468 86.4999 133.52 86.0842 133.621 85.6793C133.717 85.2554 133.964 84.8811 134.317 84.6274C134.501 84.5135 134.708 84.4401 134.923 84.4122C135.138 84.3843 135.356 84.4025 135.563 84.4656C135.959 84.5777 136.336 84.7496 136.68 84.9754C137.349 85.4176 137.974 85.9215 138.549 86.4804L139.415 87.2896C139.69 87.5569 139.991 87.7967 140.313 88.0057C140.371 88.0473 140.44 88.0699 140.511 88.0704C140.511 88.0704 140.572 88.034 140.6 88.0138L140.689 87.9248C140.738 87.8565 140.773 87.779 140.791 87.6969C140.809 87.6148 140.81 87.5299 140.794 87.4474C140.718 87.0768 140.604 86.7149 140.455 86.3671C139.923 84.9388 139.509 83.4693 139.217 81.9734C139.073 81.239 139.001 80.4924 139.002 79.7441C138.97 78.9877 139.177 78.2404 139.593 77.6079C139.823 77.3008 140.152 77.0811 140.523 76.9849C140.887 76.9 141.265 76.9 141.628 76.9849C142.323 77.1493 142.988 77.4224 143.598 77.794C144.198 78.1499 144.776 78.5403 145.33 78.9633L146.139 79.5782C146.26 79.6758 146.397 79.7512 146.544 79.8008C146.609 79.8198 146.678 79.8184 146.743 79.7967C146.807 79.775 146.863 79.7341 146.904 79.6794C146.983 79.5589 147.03 79.4192 147.037 79.2748C147.041 79.114 147.024 78.9534 146.985 78.7974C146.924 78.4697 146.867 78.146 146.807 77.8224C146.685 77.175 146.568 76.5317 146.45 75.9006C146.22 74.6302 145.989 73.3922 145.767 72.1825C145.544 70.9728 145.233 69.7995 145.301 68.606C145.313 68.0145 145.478 67.4362 145.779 66.927C145.935 66.6806 146.141 66.4702 146.385 66.3098C146.628 66.1493 146.903 66.0425 147.191 65.9964C147.477 65.9729 147.765 66.0304 148.02 66.1623C148.269 66.2828 148.501 66.4336 148.712 66.6114C149.112 66.9571 149.491 67.3274 149.845 67.72C150.018 67.9088 150.196 68.0908 150.379 68.2661C150.544 68.4405 150.754 68.5653 150.986 68.6262C151.1 68.639 151.216 68.6272 151.326 68.5916C151.435 68.5561 151.536 68.4975 151.621 68.4199C151.798 68.267 151.946 68.0834 152.058 67.8777C152.706 65.4593 153.479 63.0758 154.372 60.7369C155.141 58.6937 155.804 56.9338 156.65 55.6634C157.012 55.0959 157.456 54.5859 157.969 54.1503C158.346 53.8376 158.791 53.616 159.268 53.503C159.56 53.4339 159.865 53.4339 160.158 53.503C160.276 53.5171 160.391 53.5513 160.498 53.6041Z" fill="#263238"/>
<path d="M158.374 59.1064C158.367 59.1527 158.353 59.1976 158.333 59.24L158.196 59.6203C158.062 59.9642 157.876 60.4537 157.641 61.0727C157.148 62.3471 156.448 64.1718 155.582 66.4172L148.862 84.0732C146.248 90.9511 143.853 97.2099 142.081 101.709C141.199 103.958 140.463 105.775 139.961 107.029C139.71 107.644 139.512 108.126 139.37 108.465C139.302 108.623 139.253 108.745 139.213 108.842L139.152 108.963C139.159 108.918 139.173 108.875 139.192 108.834C139.225 108.736 139.273 108.611 139.33 108.453C139.463 108.105 139.649 107.62 139.884 106.997C140.378 105.722 141.078 103.902 141.943 101.656L148.664 84.0084C151.277 77.1103 153.668 70.8757 155.444 66.3768C156.326 64.1273 157.063 62.3067 157.564 61.0565C157.815 60.4416 158.013 59.9561 158.155 59.6162C158.224 59.4625 158.272 59.3371 158.313 59.244L158.374 59.1064Z" fill="#263238"/>
<path d="M158.592 73.085C158.272 73.314 157.934 73.5156 157.581 73.6878L155.104 75.0634C154.133 75.6015 153.251 76.0829 152.6 76.4106C152.258 76.605 151.896 76.7623 151.52 76.8799C151.842 76.6551 152.18 76.4536 152.531 76.2771L154.999 74.8813C155.97 74.3432 156.856 73.8739 157.512 73.5543C157.856 73.3637 158.218 73.2066 158.592 73.085Z" fill="#263238"/>
<path d="M151.192 76.6206C151.14 76.6448 150.177 74.808 149.044 72.5181C147.911 70.2282 147.021 68.3509 147.082 68.3226C147.142 68.2943 148.097 70.1351 149.234 72.425C150.371 74.715 151.245 76.5922 151.192 76.6206Z" fill="#263238"/>
<path d="M147.656 87.3943C147.333 87.1554 147.035 86.8843 146.766 86.5852C146.24 86.0592 145.552 85.3107 144.804 84.4449C144.055 83.5791 143.448 82.7619 143.02 82.155C142.767 81.8417 142.549 81.5027 142.368 81.1436C142.646 81.4323 142.903 81.7406 143.137 82.066C143.598 82.6486 144.233 83.4456 144.966 84.3074C145.698 85.1691 146.378 85.9257 146.871 86.48C147.155 86.7646 147.418 87.0703 147.656 87.3943Z" fill="#263238"/>
<path d="M155.056 85.6543C154.711 85.7924 154.353 85.8981 153.988 85.9699C153.324 86.1357 152.402 86.3502 151.382 86.5767C150.363 86.8033 149.432 86.9813 148.761 87.127C148.4 87.2178 148.032 87.2734 147.66 87.2928C148.006 87.1559 148.363 87.0516 148.728 86.9813C149.392 86.8154 150.314 86.5767 151.338 86.3704C152.361 86.1641 153.284 85.9658 153.956 85.8242C154.316 85.7338 154.685 85.6769 155.056 85.6543Z" fill="#263238"/>
<path d="M153.142 95.5674C152.693 95.7228 152.233 95.8459 151.767 95.9356C150.909 96.1338 149.744 96.3968 148.417 96.6719C147.09 96.947 145.912 97.1898 145.051 97.3516C144.589 97.4618 144.12 97.5362 143.647 97.5741C144.095 97.4172 144.555 97.2941 145.022 97.2059C145.876 97.0077 147.045 96.7447 148.372 96.4696C149.699 96.1945 150.873 95.9517 151.734 95.7899C152.197 95.6795 152.668 95.6051 153.142 95.5674Z" fill="#263238"/>
<path d="M143.857 97.4605C143.744 97.3824 143.642 97.2899 143.554 97.1854C143.368 96.9993 143.109 96.7242 142.789 96.3762C142.154 95.6803 141.3 94.6972 140.402 93.5765C139.504 92.4558 138.731 91.4039 138.193 90.6311C137.922 90.2468 137.712 89.9312 137.57 89.7087C137.486 89.599 137.417 89.4778 137.368 89.3486C137.469 89.4412 137.559 89.5458 137.635 89.6602L138.314 90.5462C138.881 91.2947 139.67 92.3264 140.568 93.443C141.466 94.5596 142.295 95.559 142.902 96.2751C143.246 96.6488 143.565 97.0448 143.857 97.4605Z" fill="#263238"/>
<path d="M139.811 124.563C132.788 118.899 131.768 109.217 132.65 100.636C132.8 99.204 132.743 97.6787 133.512 96.465C134.281 95.2512 135.939 94.5027 137.182 95.1946C138.213 95.7691 138.589 97.0435 139.115 98.1076C139.819 99.5299 140.91 100.725 142.263 101.555C143.145 102.093 144.258 102.461 145.192 102.024C146.479 101.425 146.742 99.7259 146.831 98.2977L147.328 90.3113C147.417 88.8791 147.515 87.4226 148.053 86.0996C148.591 84.7766 149.671 83.5831 151.042 83.2918C152.414 83.0005 154.053 83.9068 154.243 85.3147C154.256 85.9092 154.229 86.504 154.162 87.0949C154.162 87.6896 154.392 88.3652 154.943 88.5675C155.493 88.7698 156.1 88.4098 156.561 88.0214C158.135 86.6822 159.26 84.8939 160.324 83.1097C161.388 81.3255 162.419 79.4968 163.868 78.016C165.316 76.5353 167.246 75.4146 169.301 75.4389C171.357 75.4631 173.444 76.8751 173.824 78.9183C174.205 80.9614 172.89 82.9317 171.498 84.4732C169.432 86.7649 167.044 88.745 164.41 90.3517C163.896 90.5837 163.47 90.9753 163.196 91.4684C162.82 92.3989 163.657 93.4063 164.576 93.7866C165.616 94.2115 166.781 94.1912 167.885 94.3895C168.99 94.5877 170.163 95.1703 170.511 96.2505C170.996 97.7515 169.669 99.1959 168.399 100.118C165.867 101.959 163.039 103.352 160.036 104.237C158.956 104.549 157.827 104.807 156.929 105.487C156.031 106.167 155.432 107.417 155.877 108.457C156.322 109.497 157.613 109.913 158.709 109.784C159.806 109.654 160.85 109.124 161.926 108.801C163.949 108.194 166.465 108.505 167.59 110.285C168.338 111.459 168.306 113.016 167.796 114.331C167.228 115.608 166.409 116.758 165.389 117.714C162.023 121.237 157.781 123.803 153.098 125.15C148.437 126.416 144.197 126.554 139.779 124.587" fill="#ED7600"/>
<g opacity="0.1">
<path d="M139.811 124.564C132.788 118.9 131.768 109.218 132.65 100.637C132.8 99.205 132.743 97.6797 133.512 96.4659C134.281 95.2522 135.939 94.5037 137.182 95.1956C138.213 95.7701 138.589 97.0445 139.115 98.1085C139.819 99.5309 140.91 100.726 142.263 101.556C143.145 102.094 144.258 102.462 145.192 102.025C146.479 101.426 146.742 99.7269 146.831 98.2987L147.328 90.3122C147.417 88.88 147.515 87.4235 148.053 86.1006C148.591 84.7776 149.671 83.5841 151.042 83.2928C152.414 83.0015 154.053 83.9077 154.243 85.3157C154.256 85.9102 154.229 86.505 154.162 87.0958C154.162 87.6906 154.392 88.3662 154.943 88.5685C155.493 88.7708 156.1 88.4107 156.561 88.0223C158.135 86.6832 159.26 84.8949 160.324 83.1107C161.388 81.3265 162.419 79.4978 163.868 78.017C165.316 76.5363 167.246 75.4156 169.301 75.4398C171.357 75.4641 173.444 76.8761 173.824 78.9192C174.205 80.9624 172.89 82.9327 171.498 84.4741C169.432 86.7658 167.044 88.7459 164.41 90.3527C163.896 90.5847 163.47 90.9763 163.196 91.4694C162.82 92.3999 163.657 93.4073 164.576 93.7876C165.616 94.2124 166.781 94.1922 167.885 94.3904C168.99 94.5887 170.163 95.1713 170.511 96.2515C170.996 97.7525 169.669 99.1969 168.399 100.119C165.867 101.96 163.039 103.353 160.036 104.238C158.956 104.549 157.827 104.808 156.929 105.488C156.031 106.168 155.432 107.418 155.877 108.458C156.322 109.498 157.613 109.914 158.709 109.785C159.806 109.655 160.85 109.125 161.926 108.802C163.949 108.195 166.465 108.506 167.59 110.286C168.338 111.46 168.306 113.017 167.796 114.332C167.228 115.609 166.409 116.759 165.389 117.715C162.023 121.238 157.781 123.804 153.098 125.151C148.437 126.417 144.197 126.555 139.779 124.588" fill="black"/>
</g>
<path d="M139.261 130.94C139.935 126.979 140.986 123.092 142.401 119.332C144.151 114.745 146.162 110.261 148.425 105.904L150.185 102.465C150.767 101.336 151.342 100.22 151.973 99.1598C153.188 97.1307 154.513 95.1696 155.942 93.2852C157.297 91.4768 158.645 89.8099 159.919 88.2603C161.193 86.7108 162.415 85.2948 163.58 84.0486C165.41 82.0733 167.394 80.2457 169.512 78.5827C170.26 77.9961 170.855 77.5592 171.263 77.2679L171.729 76.9401C171.78 76.9011 171.834 76.866 171.891 76.835C171.848 76.8833 171.799 76.9256 171.745 76.9604L171.296 77.3124C170.891 77.6158 170.313 78.0649 169.576 78.6677C167.488 80.3552 165.53 82.1972 163.718 84.1781C162.565 85.4283 161.355 86.8524 160.077 88.4019C158.798 89.9515 157.467 91.6386 156.124 93.4349C154.703 95.313 153.387 97.2688 152.183 99.2933C151.556 100.349 150.97 101.458 150.407 102.587L148.647 106.026C146.391 110.374 144.377 114.845 142.615 119.417C141.196 123.161 140.13 127.03 139.431 130.972" fill="#263238"/>
<path d="M152.05 99.1476C151.993 98.9457 151.959 98.738 151.949 98.5285C151.904 98.124 151.852 97.5494 151.799 96.8293C151.698 95.3971 151.621 93.4065 151.544 91.2177C151.467 89.029 151.362 87.0425 151.237 85.6102C151.176 84.8982 151.123 84.3196 151.079 83.9191C151.043 83.7122 151.03 83.5017 151.043 83.292C151.108 83.4906 151.154 83.6952 151.18 83.9029C151.253 84.3075 151.338 84.878 151.423 85.5941C151.597 87.0222 151.73 89.0087 151.827 91.2056C151.925 93.4025 151.961 95.3243 152.005 96.8212C152.034 97.4969 152.054 98.0633 152.074 98.5204C152.086 98.7298 152.078 98.9398 152.05 99.1476Z" fill="#263238"/>
<path d="M170.645 96.9745C170.4 97.0127 170.152 97.0263 169.904 97.0149C169.431 97.0149 168.747 97.0149 167.881 97.0716C166.19 97.1404 163.835 97.3103 161.282 97.6178C158.73 97.9252 156.399 98.3015 154.732 98.6252C153.899 98.7789 153.227 98.9246 152.762 99.0297C152.523 99.0928 152.28 99.1348 152.034 99.1552C152.261 99.0591 152.497 98.9833 152.738 98.9286C153.195 98.7991 153.862 98.6292 154.696 98.4471C156.355 98.079 158.673 97.6703 161.25 97.3588C163.45 97.0904 165.662 96.9351 167.877 96.8936C168.727 96.8936 169.415 96.8936 169.9 96.9178C170.149 96.9146 170.399 96.9336 170.645 96.9745Z" fill="#263238"/>
<path d="M142.651 119.001C142.603 118.93 142.567 118.852 142.542 118.77L142.271 118.082C142.041 117.487 141.729 116.614 141.361 115.533C140.62 113.369 139.69 110.347 138.707 107.001C137.724 103.655 136.825 100.625 136.13 98.4479C135.79 97.3879 135.507 96.518 135.3 95.8707L135.078 95.1708C135.046 95.0903 135.026 95.0059 135.017 94.9199C135.063 94.9919 135.1 95.0694 135.126 95.1505C135.199 95.3366 135.288 95.5551 135.393 95.8383C135.624 96.4331 135.935 97.307 136.308 98.3872C137.048 100.552 137.979 103.574 138.958 106.924C139.937 110.274 140.843 113.296 141.539 115.473C141.879 116.533 142.158 117.403 142.348 118.05L142.57 118.75C142.609 118.829 142.636 118.914 142.651 119.001Z" fill="#263238"/>
<path d="M167.59 112.811C167.512 112.852 167.427 112.881 167.339 112.896L166.615 113.086L163.945 113.753C161.687 114.316 158.584 115.129 155.153 116.035C151.722 116.941 148.607 117.726 146.337 118.244C145.204 118.503 144.286 118.705 143.647 118.831L142.91 118.972C142.826 118.994 142.739 119.003 142.651 119.001C142.73 118.963 142.813 118.936 142.898 118.92L143.627 118.73L146.297 118.062C148.55 117.5 151.657 116.682 155.088 115.776C158.519 114.87 161.634 114.085 163.9 113.567C165.033 113.308 165.955 113.11 166.591 112.985L167.327 112.843C167.413 112.822 167.501 112.811 167.59 112.811Z" fill="#263238"/>
<path d="M141.446 12.8799H43.3307V147.322H141.446V12.8799Z" fill="#455A64"/>
<path d="M137.566 139.328H119.396H51.5032V18.3135H137.566V124.273V139.328Z" fill="#E0E0E0"/>
<path d="M136.206 137.083H118.199H50.9166V16.7158H136.206V122.109V137.083Z" fill="#EBEBEB"/>
<path d="M127.043 127.715L117.219 135.714H49.3265V17.0176H135.389V120.946L127.043 127.715Z" fill="#FAFAFA"/>
<path d="M127.043 127.704C127.043 127.704 127.217 127.554 127.569 127.267L129.142 125.98L135.369 120.911V120.935C135.369 103.862 135.337 65.9121 135.308 17.0063L135.401 17.1034H50.0871H49.3386L49.4438 16.9982C49.4438 61.6235 49.4438 102.79 49.4196 135.694L49.3386 135.609L117.231 135.658H117.207L124.587 129.674L126.436 128.181C126.84 127.849 127.055 127.688 127.055 127.688L126.448 128.193L124.599 129.727L117.244 135.739L49.3265 135.795H49.2415V135.711C49.2415 102.806 49.2415 61.6397 49.2213 17.0144V16.9092H50.075H135.389H135.486V17.0022C135.458 65.9242 135.434 103.858 135.426 120.931L129.175 125.976L127.593 127.299L127.043 127.704Z" fill="#263238"/>
<path d="M80.7464 8.72461H104.273C105.791 8.72461 107.247 9.32776 108.321 10.4014C109.395 11.475 109.998 12.9311 109.998 14.4494V20.7973H74.7748V14.6922C74.7759 13.1091 75.4055 11.5913 76.5253 10.4722C77.645 9.35321 79.1633 8.72461 80.7464 8.72461Z" fill="#ED7600"/>
<path d="M83.4045 8.72372L82.1179 2.20996H102.4L101.271 8.72372H83.4045Z" fill="#ED7600"/>
<path d="M72.8246 50.4289H58.3285V35.9287H72.8246V50.4289ZM58.7331 50.0243H72.4201V36.3333H58.7331V50.0243Z" fill="#ED7600"/>
<path d="M124.065 39.4314C124.065 39.488 113.971 39.5366 101.526 39.5366C89.0808 39.5366 78.9824 39.488 78.9824 39.4314C78.9824 39.3747 89.0727 39.3262 101.526 39.3262C113.979 39.3262 124.065 39.3707 124.065 39.4314Z" fill="#263238"/>
<path d="M124.065 42.4431C124.065 42.5038 113.971 42.5483 101.526 42.5483C89.0808 42.5483 78.9824 42.5038 78.9824 42.4431C78.9824 42.3824 89.0727 42.3379 101.526 42.3379C113.979 42.3379 124.065 42.3864 124.065 42.4431Z" fill="#263238"/>
<path d="M124.065 45.4558C124.065 45.5124 113.971 45.561 101.526 45.561C89.0808 45.561 78.9824 45.5124 78.9824 45.4558C78.9824 45.3991 89.0727 45.3506 101.526 45.3506C113.979 45.3506 124.065 45.3991 124.065 45.4558Z" fill="#263238"/>
<path d="M124.065 48.4704C124.065 48.5271 113.971 48.5756 101.526 48.5756C89.0808 48.5756 78.9824 48.5271 78.9824 48.4704C78.9824 48.4138 89.0727 48.3652 101.526 48.3652C113.979 48.3652 124.065 48.4057 124.065 48.4704Z" fill="#263238"/>
<path d="M72.8246 72.7736H58.3285V58.2734H72.8246V72.7736ZM58.7331 72.3691H72.4201V58.678H58.7331V72.3691Z" fill="#ED7600"/>
<path d="M61.2091 65.8225L63.1349 63.7551L66.3432 66.3201L73.6864 59.1914L75.4463 61.2669L66.2016 70.3862L61.2091 65.8225Z" fill="#ED7600"/>
<path d="M124.065 61.7771C124.065 61.8337 113.971 61.8823 101.526 61.8823C89.0808 61.8823 78.9824 61.8337 78.9824 61.7771C78.9824 61.7204 89.0727 61.6719 101.526 61.6719C113.979 61.6719 124.065 61.7204 124.065 61.7771Z" fill="#263238"/>
<path d="M124.065 64.7907C124.065 64.8474 113.971 64.8959 101.526 64.8959C89.0808 64.8959 78.9824 64.8474 78.9824 64.7907C78.9824 64.7341 89.0727 64.6855 101.526 64.6855C113.979 64.6855 124.065 64.73 124.065 64.7907Z" fill="#263238"/>
<path d="M124.065 67.8015C124.065 67.8622 113.971 67.9067 101.526 67.9067C89.0808 67.9067 78.9824 67.8622 78.9824 67.8015C78.9824 67.7408 89.0727 67.6963 101.526 67.6963C113.979 67.6963 124.065 67.7448 124.065 67.8015Z" fill="#263238"/>
<path d="M124.065 70.8151C124.065 70.8718 113.971 70.9203 101.526 70.9203C89.0808 70.9203 78.9824 70.8718 78.9824 70.8151C78.9824 70.7585 89.0727 70.71 101.526 70.71C113.979 70.71 124.065 70.7585 124.065 70.8151Z" fill="#263238"/>
<path d="M72.8246 94.3986H58.3285V79.8984H72.8246V94.3986ZM58.7331 93.9941H72.4201V80.303H58.7331V93.9941Z" fill="#ED7600"/>
<path d="M61.2091 87.4475L63.1349 85.3801L66.3432 87.9451L73.6864 80.8164L75.4463 82.8919L66.2016 92.0112L61.2091 87.4475Z" fill="#ED7600"/>
<path d="M124.065 83.4021C124.065 83.4587 113.971 83.5073 101.526 83.5073C89.0808 83.5073 78.9824 83.4587 78.9824 83.4021C78.9824 83.3454 89.0727 83.2969 101.526 83.2969C113.979 83.2969 124.065 83.3414 124.065 83.4021Z" fill="#263238"/>
<path d="M124.065 86.4118C124.065 86.4725 113.971 86.517 101.526 86.517C89.0808 86.517 78.9824 86.4725 78.9824 86.4118C78.9824 86.3511 89.0727 86.3066 101.526 86.3066C113.979 86.3066 124.065 86.3552 124.065 86.4118Z" fill="#263238"/>
<path d="M124.065 89.4265C124.065 89.4872 113.971 89.5317 101.526 89.5317C89.0808 89.5317 78.9824 89.4872 78.9824 89.4265C78.9824 89.3658 89.0727 89.3213 101.526 89.3213C113.979 89.3213 124.065 89.3698 124.065 89.4265Z" fill="#263238"/>
<path d="M124.065 92.4402C124.065 92.4968 113.971 92.5454 101.526 92.5454C89.0808 92.5454 78.9824 92.4968 78.9824 92.4402C78.9824 92.3835 89.0727 92.335 101.526 92.335C113.979 92.335 124.065 92.3835 124.065 92.4402Z" fill="#263238"/>
<path d="M72.8246 115.279H58.3285V100.779H72.8246V115.279ZM58.7331 114.875H72.4201V101.184H58.7331V114.875Z" fill="#ED7600"/>
<path d="M61.2091 108.328L63.1349 106.261L66.3432 108.826L73.6864 101.697L75.4463 103.769L66.2016 112.888L61.2091 108.328Z" fill="#ED7600"/>
<path d="M124.065 104.278C124.065 104.339 113.971 104.383 101.526 104.383C89.0808 104.383 78.9824 104.339 78.9824 104.278C78.9824 104.217 89.0727 104.173 101.526 104.173C113.979 104.173 124.065 104.238 124.065 104.278Z" fill="#263238"/>
<path d="M124.065 107.293C124.065 107.349 113.971 107.398 101.526 107.398C89.0808 107.398 78.9824 107.349 78.9824 107.293C78.9824 107.236 89.0727 107.188 101.526 107.188C113.979 107.188 124.065 107.236 124.065 107.293Z" fill="#263238"/>
<path d="M124.065 110.306C124.065 110.363 113.971 110.412 101.526 110.412C89.0808 110.412 78.9824 110.363 78.9824 110.306C78.9824 110.25 89.0727 110.201 101.526 110.201C113.979 110.201 124.065 110.246 124.065 110.306Z" fill="#263238"/>
<path d="M124.065 113.316C124.065 113.377 113.971 113.421 101.526 113.421C89.0808 113.421 78.9824 113.377 78.9824 113.316C78.9824 113.255 89.0727 113.211 101.526 113.211C113.979 113.211 124.065 113.259 124.065 113.316Z" fill="#263238"/>
<path d="M119.918 116.063L110.483 135.605H117.219L119.918 116.063Z" fill="#E0E0E0"/>
<path d="M117.219 135.715L119.918 116.174L135.389 120.948L117.219 135.715Z" fill="#FAFAFA"/>
<path d="M117.219 135.714L122.422 131.43L135.324 120.866L135.361 121.044L129.385 119.207L119.906 116.266L120.031 116.185C119.222 121.849 118.53 126.724 118.041 130.18C117.551 133.542 117.3 135.277 117.232 135.714C117.23 135.685 117.23 135.655 117.232 135.625L117.268 135.358C117.3 135.103 117.345 134.747 117.405 134.294C117.531 133.343 117.709 131.98 117.935 130.248C118.405 126.765 119.06 121.865 119.825 116.141V116.027L119.934 116.06L129.438 118.989L135.409 120.834L135.595 120.89L135.446 121.012C130.223 125.223 125.655 128.905 122.386 131.531L118.571 134.594L117.551 135.403L117.292 135.609L117.219 135.714Z" fill="#263238"/>
<g opacity="0.3">
<path d="M100.996 2.20996L99.879 8.72372H101.271L102.4 2.20996H100.623" fill="black"/>
</g>
<path d="M41.5909 70.9092C42.0787 70.946 42.5689 70.8841 43.0323 70.7273C43.4956 70.5704 43.9226 70.3218 44.2878 69.9963C44.6529 69.6708 44.9488 69.2751 45.1576 68.8327C45.3664 68.3904 45.484 67.9105 45.5033 67.4217C45.5801 65.4392 45.6489 63.4366 45.6489 63.4366C45.6489 63.4366 48.6509 63.1574 48.8856 60.1999C49.1202 57.2424 49.0029 50.3726 49.0029 50.3726C47.3573 49.5424 45.5197 49.1668 43.6803 49.2849C41.8408 49.403 40.0664 50.0104 38.5404 51.0442L38.7225 61.4986V67.1263C38.7265 68.9955 39.7096 70.7676 41.5909 70.9092Z" fill="#FFBE9D"/>
<path d="M45.9078 56.558C45.6885 56.2429 45.3584 56.022 44.9834 55.9395C44.6084 55.857 44.2161 55.919 43.8848 56.113C43.5486 56.3466 43.3062 56.6921 43.201 57.0878C43.0958 57.4835 43.1345 57.9037 43.3103 58.2735C43.4635 58.5479 43.6721 58.7874 43.9228 58.9769C44.1736 59.1663 44.461 59.3016 44.7668 59.3739C45.038 59.4329 45.2783 59.5887 45.4429 59.8121C45.6075 60.0355 45.685 60.3112 45.661 60.5877C45.5364 61.3686 45.1716 62.0912 44.6171 62.6551C43.7007 63.5877 42.4809 64.1617 41.1782 64.2734C39.9119 64.4231 38.4634 64.1601 37.7271 63.1204C37.189 62.3638 37.1526 61.3726 37.1324 60.4461C37.0865 58.2559 37.0407 56.0658 36.9948 53.8757C36.9472 53.0863 36.9975 52.294 37.1445 51.517C37.2995 50.7332 37.7445 50.0368 38.3906 49.5669C39.1148 49.0895 40.0292 49.049 40.8505 48.786C41.8822 48.4502 42.7561 47.7705 43.719 47.277C44.6819 46.7834 45.8592 46.488 46.8261 46.9735C47.522 47.3215 47.9873 48.0133 48.6589 48.3976C49.6218 48.9438 50.9286 48.8022 51.3939 50.2344C51.5577 50.7241 51.5577 51.2538 51.3939 51.7435C50.7425 53.6653 48.3636 54.4421 46.6481 53.6127C46.6158 53.9364 46.9354 54.6606 46.5915 55.6882C46.4823 56.02 46.4458 56.5176 45.932 56.5297" fill="#263238"/>
<path d="M37.707 50.4294C38.1785 49.4898 38.5006 48.4824 38.6618 47.4435C38.7381 46.9232 38.6934 46.3923 38.5313 45.8921C38.3693 45.3918 38.0941 44.9356 37.7272 44.5589C37.1856 44.0886 36.4858 43.8414 35.769 43.8671C35.0881 43.9058 34.4358 44.154 33.9013 44.5777C33.3669 45.0013 32.9764 45.5798 32.7832 46.2339C32.6165 46.8933 32.6423 47.5867 32.8574 48.232C33.0725 48.8773 33.4679 49.4475 33.9969 49.8751C34.5379 50.2905 35.1789 50.5557 35.8553 50.6438C36.5316 50.7319 37.2193 50.6398 37.8486 50.3768" fill="#263238"/>
<path d="M38.2895 49.3569C38.2677 49.7201 38.1114 50.0622 37.8511 50.3165C37.5908 50.5707 37.2452 50.719 36.8816 50.7325C36.8816 50.6718 37.3185 50.5544 37.6908 50.166C38.063 49.7776 38.2329 49.3407 38.2895 49.3569Z" fill="#ED7600"/>
<path d="M37.3145 50.0854C37.0826 50.3285 36.8084 50.5272 36.5054 50.6721C36.1814 50.8567 35.8179 50.9608 35.4454 50.9755C35.2088 50.9883 34.9726 50.9443 34.7565 50.8471C34.5405 50.75 34.3508 50.6026 34.2033 50.4172C34.0728 50.222 33.9857 50.0011 33.948 49.7693C33.9103 49.5376 33.9229 49.3004 33.9848 49.074C34.0787 48.7145 34.2484 48.3793 34.4825 48.0908C34.6762 47.8174 34.9141 47.5781 35.1864 47.3828C35.0064 47.6624 34.8119 47.9325 34.6038 48.192C34.4007 48.4737 34.255 48.7926 34.175 49.1306C34.1245 49.3299 34.116 49.5374 34.1502 49.7401C34.1843 49.9428 34.2603 50.1362 34.3732 50.3079C34.5025 50.4659 34.6666 50.5918 34.8525 50.676C35.0385 50.7602 35.2413 50.8004 35.4454 50.7934C35.7911 50.7879 36.1312 50.7049 36.4406 50.5507C36.9666 50.2796 37.2943 50.053 37.3145 50.0854Z" fill="#263238"/>
<path d="M32.2653 53.439C32.3263 53.5417 32.3739 53.6519 32.4069 53.7667C32.5118 54.0698 32.6604 54.3561 32.8479 54.6163C32.9726 54.8045 33.1474 54.9542 33.3525 55.0485C33.5576 55.1429 33.785 55.1781 34.0091 55.1504C34.2772 55.0746 34.5213 54.9309 34.7177 54.7332C34.914 54.5354 35.0559 54.2903 35.1297 54.0216C35.2751 53.4557 35.3765 52.8795 35.4332 52.2981C35.4903 51.7994 35.6866 51.3269 35.9996 50.9346C36.2238 50.6765 36.5291 50.5025 36.8654 50.441C36.987 50.4113 37.1151 50.4227 37.2295 50.4734C37.2295 50.4734 37.096 50.4734 36.8816 50.5219C36.5777 50.606 36.3085 50.7845 36.1129 51.0317C35.8372 51.4119 35.6682 51.8589 35.6233 52.3264C35.5767 52.9219 35.4778 53.5121 35.328 54.0904C35.2445 54.3939 35.0817 54.6697 34.8563 54.8894C34.6309 55.1091 34.351 55.2648 34.0455 55.3405C33.7661 55.3851 33.4799 55.3308 33.2363 55.1868C33.0342 55.0641 32.8605 54.9001 32.7265 54.7053C32.541 54.427 32.4042 54.1192 32.322 53.795C32.2804 53.6811 32.2612 53.5602 32.2653 53.439Z" fill="#263238"/>
<path d="M30.8048 78.398C30.8048 78.398 29.2876 89.4916 30.8048 90.8996C32.322 92.3075 33.7744 91.8382 33.7744 91.8382L36.6591 89.4107L37.2255 78.3818L30.8048 78.398Z" fill="#FFBE9D"/>
<path d="M62.1396 47.2571L64.0655 45.1897L67.2738 47.7547L74.6169 40.626L76.3769 42.7015L67.1322 51.8207L62.1396 47.2571Z" fill="#ED7600"/>
<path d="M71.1861 47.8193L68.3945 49.6116C68.2691 48.5071 67.4275 47.4148 67.468 47.969C67.5085 48.5233 67.468 51.3999 67.468 51.3999L62.4957 61.8745C61.82 63.5333 60.4485 64.5771 59.4249 64.8239L54.7682 66.2076L56.5848 72.3532L63.0581 70.2089C63.8843 69.9351 64.6349 69.4716 65.2497 68.8554C65.8644 68.2392 66.3263 67.4876 66.5982 66.6607L71.0486 53.0991C71.3441 52.2256 71.5819 51.3336 71.7606 50.4289C71.9548 49.292 71.1861 47.8193 71.1861 47.8193Z" fill="#FFBE9D"/>
<path d="M48.315 162.385L48.2422 159.282L42.4243 159.375L42.4769 163.919L42.841 163.939C44.4594 164 51.0176 164.145 52.0857 163.805C53.2752 163.421 48.315 162.385 48.315 162.385Z" fill="#ED7600"/>
<g opacity="0.5">
<path d="M44.5889 163.842C44.4909 163.358 44.2189 162.926 43.8243 162.629C43.4357 162.326 42.9473 162.182 42.4568 162.224L42.4811 163.842H44.5889Z" fill="white"/>
</g>
<g opacity="0.4">
<path d="M50.7222 162.979C50.7222 162.979 52.4619 163.448 52.2516 163.739C52.0412 164.03 45.398 164.144 42.4607 163.917V163.788L50.2125 163.735C50.2125 163.735 50.4026 162.999 50.7222 162.979Z" fill="white"/>
</g>
<path d="M42.392 163.785H42.4932H42.7804L43.8404 163.813C44.7345 163.833 45.9685 163.842 47.332 163.813C48.6954 163.785 49.9334 163.748 50.8235 163.704L51.8835 163.643L52.1708 163.623H52.2679H52.1667H51.8795L50.8235 163.664C49.9294 163.692 48.6954 163.732 47.332 163.753C45.9685 163.773 44.7345 163.753 43.8404 163.753H42.7845H42.3799L42.392 163.785Z" fill="#263238"/>
<path d="M50.2369 163.825C50.279 163.65 50.3428 163.48 50.427 163.32C50.5289 163.172 50.6469 163.036 50.779 162.915C50.6068 162.996 50.463 163.127 50.3663 163.291C50.2696 163.454 50.2245 163.644 50.2369 163.833V163.825Z" fill="#263238"/>
<path d="M48.5052 162.979C48.5052 162.979 48.6023 162.89 48.6873 162.757C48.7722 162.623 48.8208 162.502 48.8046 162.494C48.7884 162.486 48.7075 162.583 48.6266 162.716C48.5457 162.85 48.489 162.971 48.5052 162.979Z" fill="#263238"/>
<path d="M48.0319 162.742C48.0319 162.742 48.1331 162.693 48.2342 162.6C48.3354 162.507 48.4001 162.422 48.3879 162.41C48.3758 162.398 48.2828 162.458 48.1857 162.547C48.0886 162.636 48.0157 162.725 48.0319 162.742Z" fill="#263238"/>
<path d="M47.7244 162.195C47.8214 162.23 47.9255 162.241 48.0278 162.227C48.1304 162.239 48.2344 162.227 48.3312 162.191C48.2333 162.16 48.1301 162.149 48.0278 162.158C47.9252 162.147 47.8213 162.159 47.7244 162.195Z" fill="#263238"/>
<path d="M47.6151 161.811C47.7173 161.873 47.8351 161.905 47.955 161.904C48.0749 161.921 48.1973 161.903 48.3069 161.851C48.1912 161.84 48.0747 161.84 47.959 161.851C47.8459 161.827 47.7307 161.813 47.6151 161.811Z" fill="#263238"/>
<path d="M48.6993 162.469C48.8224 162.492 48.9485 162.492 49.0716 162.469C49.209 162.451 49.3445 162.42 49.4761 162.376C49.5548 162.352 49.6307 162.319 49.7027 162.279C49.7255 162.267 49.7455 162.251 49.7616 162.23C49.7776 162.21 49.7892 162.187 49.7958 162.162C49.8005 162.134 49.7974 162.105 49.7867 162.079C49.7759 162.052 49.7581 162.029 49.7351 162.012C49.5909 161.946 49.4282 161.93 49.2742 161.969C49.1203 162.009 48.9844 162.099 48.8895 162.227C48.835 162.302 48.7952 162.387 48.7722 162.478C48.7651 162.511 48.7651 162.545 48.7722 162.579C48.8109 162.464 48.8668 162.357 48.938 162.259C49.0215 162.16 49.1307 162.086 49.2536 162.045C49.4007 161.994 49.562 162.002 49.7027 162.069C49.7593 162.113 49.7391 162.182 49.6744 162.223C49.6074 162.26 49.5369 162.291 49.464 162.316C49.3321 162.361 49.1968 162.397 49.0594 162.421C48.8369 162.457 48.6993 162.457 48.6993 162.469Z" fill="#263238"/>
<path d="M48.7925 162.498C48.838 162.42 48.8525 162.328 48.833 162.239C48.8177 162.142 48.7803 162.049 48.7237 161.968C48.6917 161.914 48.6464 161.868 48.5919 161.835C48.5374 161.803 48.4756 161.784 48.4122 161.782C48.3933 161.786 48.3753 161.794 48.3593 161.805C48.3433 161.815 48.3297 161.829 48.3191 161.845C48.3086 161.862 48.3014 161.88 48.2979 161.899C48.2944 161.918 48.2948 161.937 48.2989 161.956C48.3079 162.016 48.33 162.072 48.3637 162.122C48.4128 162.205 48.4742 162.28 48.5457 162.345C48.6034 162.412 48.6772 162.463 48.7601 162.494C48.7601 162.494 48.6873 162.43 48.5821 162.312C48.5215 162.243 48.4674 162.169 48.4203 162.09C48.3677 162.013 48.3313 161.871 48.4203 161.851C48.5093 161.831 48.6104 161.932 48.6671 162.005C48.7213 162.077 48.7598 162.16 48.7804 162.247C48.7915 162.331 48.7956 162.415 48.7925 162.498Z" fill="#263238"/>
<path d="M42.4891 162.191C42.4891 162.191 42.655 162.191 42.918 162.191C43.261 162.224 43.5878 162.353 43.8606 162.563C44.1334 162.774 44.341 163.057 44.4595 163.381C44.5525 163.627 44.5646 163.785 44.5768 163.785C44.5847 163.747 44.5847 163.707 44.5768 163.668C44.5636 163.562 44.5406 163.458 44.508 163.356C44.3958 163.018 44.1846 162.722 43.9018 162.506C43.619 162.289 43.2776 162.163 42.922 162.143C42.8158 162.131 42.7086 162.131 42.6024 162.143C42.5618 162.151 42.5233 162.168 42.4891 162.191Z" fill="#263238"/>
<path d="M43.0554 159.763C43.0192 160.159 43.0084 160.558 43.023 160.956C43.0101 161.361 43.0223 161.767 43.0594 162.17C43.0962 161.766 43.1071 161.361 43.0918 160.956C43.1016 160.558 43.0894 160.16 43.0554 159.763Z" fill="#263238"/>
<path d="M45.3091 163.263C45.5898 163.321 45.8765 163.344 46.1627 163.332C46.4483 163.344 46.7342 163.317 47.0124 163.251C47.0124 163.231 46.6078 163.251 46.1627 163.251C45.7177 163.251 45.3131 163.243 45.3091 163.263Z" fill="#263238"/>
<path d="M44.1721 163.275C44.1721 163.275 44.2045 163.356 44.2409 163.445C44.2773 163.534 44.3056 163.607 44.3259 163.607C44.3461 163.607 44.3542 163.514 44.3056 163.413C44.2571 163.312 44.1843 163.263 44.1721 163.275Z" fill="#263238"/>
<path d="M43.7312 162.748C43.7312 162.748 43.7555 162.821 43.8202 162.882C43.8849 162.943 43.9416 162.979 43.9537 162.967C43.9659 162.955 43.9294 162.89 43.8688 162.833C43.8081 162.777 43.7474 162.732 43.7312 162.748Z" fill="#263238"/>
<path d="M43.1121 162.499C43.1121 162.499 43.197 162.499 43.282 162.543C43.367 162.588 43.4276 162.616 43.4438 162.604C43.46 162.592 43.4115 162.511 43.3022 162.478C43.193 162.446 43.108 162.499 43.1121 162.499Z" fill="#263238"/>
<path d="M42.6753 162.404C42.6753 162.404 42.6996 162.453 42.7481 162.469C42.7967 162.485 42.8412 162.489 42.8493 162.469C42.8574 162.449 42.8209 162.421 42.7724 162.404C42.7238 162.388 42.6793 162.384 42.6753 162.404Z" fill="#263238"/>
<path d="M27.7786 161.394L29.7529 158.995L25.2783 155.269L22.3572 158.748L22.6161 158.999C23.7934 160.095 28.6848 164.489 29.7125 164.926C30.8655 165.415 27.7786 161.394 27.7786 161.394Z" fill="#ED7600"/>
<g opacity="0.5">
<path d="M24.0199 160.072C24.2675 159.639 24.3467 159.131 24.2425 158.644C24.1432 158.162 23.8658 157.736 23.4657 157.45L22.4016 158.692L24.0199 160.072Z" fill="white"/>
</g>
<g opacity="0.4">
<path d="M29.2309 163.425C29.2309 163.425 30.2423 164.918 29.8944 164.999C29.5465 165.08 24.4245 160.824 22.3571 158.748L22.4461 158.655L28.357 163.672C28.357 163.672 28.9598 163.219 29.2309 163.425Z" fill="white"/>
</g>
<path d="M22.3773 158.594L22.4461 158.667L22.6565 158.865L23.4414 159.577C24.1049 160.172 25.0354 160.985 26.0833 161.859C27.1312 162.733 28.1062 163.505 28.8021 164.056L29.6436 164.699L29.8742 164.869L29.9592 164.925L29.8823 164.857L29.6598 164.675L28.8506 164.015C28.1507 163.457 27.1918 162.68 26.144 161.806C25.0961 160.932 24.1615 160.127 23.4899 159.54L22.6808 158.845L22.4623 158.654L22.3773 158.594Z" fill="#263238"/>
<path d="M28.2964 163.741C28.4438 163.634 28.6042 163.545 28.7738 163.478C28.9487 163.434 29.1276 163.407 29.3078 163.397C29.1276 163.331 28.9297 163.331 28.7495 163.397C28.5618 163.453 28.4008 163.576 28.2964 163.741Z" fill="#263238"/>
<path d="M27.5358 161.969C27.5358 161.989 27.6693 161.969 27.819 161.916C27.9687 161.864 28.09 161.815 28.082 161.795C28.0739 161.775 27.9484 161.795 27.7987 161.847C27.7034 161.869 27.6137 161.91 27.5358 161.969Z" fill="#263238"/>
<path d="M27.3335 161.475C27.3335 161.475 27.4427 161.507 27.5803 161.503C27.7178 161.499 27.823 161.479 27.823 161.459C27.823 161.439 27.7098 161.426 27.5762 161.43C27.493 161.426 27.4099 161.442 27.3335 161.475Z" fill="#263238"/>
<path d="M27.4548 160.88C27.4548 160.88 27.5358 160.993 27.6652 161.102C27.7382 161.176 27.8248 161.235 27.9201 161.276C27.9201 161.276 27.8392 161.159 27.7097 161.049C27.5803 160.94 27.471 160.847 27.4548 160.88Z" fill="#263238"/>
<path d="M27.6248 160.5C27.6688 160.611 27.736 160.711 27.8218 160.794C27.9076 160.877 28.01 160.941 28.1224 160.981C28.044 160.896 27.9602 160.817 27.8715 160.743C27.738 160.613 27.6612 160.476 27.6248 160.5Z" fill="#263238"/>
<path d="M28.0132 161.689C28.0934 161.785 28.1908 161.866 28.3004 161.927C28.4152 162.002 28.5372 162.064 28.6645 162.114C28.7398 162.148 28.8184 162.173 28.8992 162.19C28.9501 162.199 29.0024 162.187 29.0448 162.158C29.0671 162.141 29.084 162.118 29.0933 162.091C29.1027 162.064 29.1041 162.036 29.0974 162.008C29.035 161.86 28.9228 161.739 28.7801 161.665C28.6375 161.591 28.4735 161.569 28.3166 161.604C28.2242 161.622 28.1371 161.661 28.0617 161.717C28.0334 161.735 28.0087 161.759 27.9889 161.786C28.0925 161.723 28.2061 161.678 28.3247 161.652C28.4531 161.63 28.5852 161.646 28.705 161.697C28.8492 161.753 28.9655 161.863 29.0287 162.004C29.0287 162.077 28.9842 162.118 28.9073 162.105C28.8327 162.089 28.7596 162.066 28.6888 162.037C28.5642 161.99 28.4437 161.934 28.3287 161.867C28.1305 161.79 28.0213 161.689 28.0132 161.689Z" fill="#263238"/>
<path d="M28.0658 161.781C28.0658 161.781 28.171 161.749 28.2681 161.611C28.3203 161.528 28.3534 161.434 28.3652 161.336C28.3745 161.273 28.3687 161.209 28.3483 161.148C28.3279 161.088 28.2935 161.033 28.2479 160.988C28.213 160.97 28.1721 160.966 28.1342 160.977C28.0963 160.988 28.0644 161.014 28.0456 161.049C28.0148 161.1 27.9955 161.156 27.989 161.215C27.9772 161.31 27.9772 161.407 27.989 161.502C27.989 161.591 28.0112 161.679 28.0537 161.757C28.0537 161.757 28.0537 161.656 28.0537 161.502C28.0526 161.41 28.0607 161.318 28.078 161.227C28.078 161.134 28.1508 161.005 28.2358 161.049C28.3207 161.094 28.3248 161.235 28.3248 161.328C28.3176 161.418 28.2913 161.505 28.2479 161.583C28.1947 161.656 28.1337 161.722 28.0658 161.781Z" fill="#263238"/>
<path d="M23.49 157.449C23.49 157.449 23.6275 157.542 23.8096 157.732C24.0466 157.983 24.2103 158.294 24.283 158.631C24.35 158.969 24.322 159.319 24.2021 159.642C24.109 159.893 24.0079 160.026 24.02 160.047C24.0504 160.02 24.0764 159.988 24.0969 159.954C24.1572 159.866 24.2074 159.773 24.2466 159.674C24.3864 159.345 24.4231 158.981 24.3517 158.631C24.2787 158.281 24.1026 157.961 23.846 157.712C23.7696 157.638 23.6855 157.571 23.5952 157.514C23.5646 157.486 23.5289 157.464 23.49 157.449Z" fill="#263238"/>
<path d="M25.5047 155.973C25.2173 156.251 24.9471 156.547 24.6955 156.859C24.4285 157.155 24.1773 157.466 23.943 157.789C24.2322 157.514 24.5025 157.219 24.7522 156.907C25.0188 156.609 25.2699 156.297 25.5047 155.973Z" fill="#263238"/>
<path d="M24.9303 160.099C25.1032 160.326 25.3044 160.53 25.5291 160.706C25.7391 160.901 25.9746 161.067 26.229 161.199C26.229 161.199 25.9337 160.956 25.5776 160.653C25.2216 160.35 24.9465 160.07 24.9303 160.099Z" fill="#263238"/>
<path d="M24.0564 159.366C24.0564 159.366 24.0281 159.447 24.0038 159.54C23.9796 159.633 23.9432 159.702 23.9593 159.714C23.9755 159.726 24.0403 159.666 24.0726 159.557C24.105 159.447 24.0767 159.362 24.0564 159.366Z" fill="#263238"/>
<path d="M24.0685 158.679C24.0483 158.679 24.0402 158.752 24.0483 158.837C24.0564 158.921 24.0766 158.99 24.0968 158.99C24.117 158.99 24.1251 158.917 24.0968 158.832C24.0685 158.747 24.0887 158.679 24.0685 158.679Z" fill="#263238"/>
<path d="M23.7529 158.096C23.7529 158.116 23.8055 158.165 23.85 158.242C23.8945 158.319 23.9148 158.395 23.935 158.395C23.9552 158.395 23.9674 158.302 23.9107 158.205C23.8541 158.108 23.761 158.08 23.7529 158.096Z" fill="#263238"/>
<path d="M23.49 157.729C23.49 157.729 23.49 157.786 23.49 157.83C23.49 157.875 23.5507 157.903 23.5669 157.895C23.583 157.887 23.5669 157.838 23.5669 157.794C23.5669 157.749 23.5062 157.721 23.49 157.729Z" fill="#263238"/>
<path d="M39.8877 96.385C39.8877 96.385 37.9497 104.582 38.4999 106.204C39.0502 107.827 42.5984 108.761 42.5984 108.761L42.477 131.211L22.8467 155.486L30.0887 161.409C30.0887 161.409 51.3454 137.098 53.2186 132.684C55.0918 128.27 52.0049 96.0088 52.0049 96.0088L39.8877 96.385Z" fill="#263238"/>
<path d="M49.9131 93.0439L50.872 161.224L40.891 161.285L35.8782 105.744C34.8182 104.732 33.3253 103.001 33.5316 99.137L33.7744 94.6501L49.9131 93.0439Z" fill="#263238"/>
<path d="M39.394 135.008C39.4086 134.972 39.4277 134.938 39.4507 134.907C39.5033 134.834 39.564 134.741 39.6408 134.627L40.3812 133.58L43.0919 129.825V129.878C42.8734 127.511 42.6105 124.642 42.3273 121.547C41.9631 117.502 41.6718 113.82 41.4979 111.154C41.4089 109.823 41.3522 108.746 41.3198 108.002C41.3198 107.646 41.2956 107.359 41.2915 107.14C41.2792 107.041 41.2792 106.94 41.2915 106.841C41.3111 106.94 41.3233 107.04 41.3279 107.14C41.3279 107.355 41.3684 107.642 41.3967 107.998C41.4574 108.763 41.5383 109.831 41.6435 111.146C41.8539 113.804 42.1695 117.473 42.5336 121.527C42.8047 124.634 43.0798 127.499 43.2618 129.878V129.906V129.93L40.4905 133.636L39.7096 134.66L39.4992 134.923C39.4143 134.988 39.394 135.012 39.394 135.008Z" fill="#455A64"/>
<path d="M42.4527 106.841C41.5595 106.793 40.6732 106.658 39.8067 106.436C38.9252 106.287 38.0606 106.052 37.2255 105.732C38.1099 105.846 38.9867 106.012 39.8512 106.23C40.7293 106.384 41.5979 106.588 42.4527 106.841Z" fill="#455A64"/>
<path d="M49.2901 130.132C48.4286 129.774 47.5219 129.538 46.5956 129.428C45.6624 129.39 44.7285 129.482 43.8202 129.699C44.0574 129.549 44.3211 129.446 44.597 129.396C45.2566 129.223 45.9404 129.163 46.6199 129.218C47.2951 129.272 47.9567 129.437 48.5781 129.707C48.8389 129.805 49.0801 129.949 49.2901 130.132Z" fill="#455A64"/>
<path d="M52.8141 133.28C52.8586 133.316 50.0508 137.087 46.539 141.699C43.0272 146.311 40.1426 150.029 40.0981 149.997C40.0536 149.965 42.8613 146.19 46.3731 141.573C49.8849 136.957 52.7695 133.243 52.8141 133.28Z" fill="#455A64"/>
<path d="M51.4627 98.1042C51.3476 98.3996 51.153 98.6572 50.9003 98.8486C50.6112 99.1019 50.2729 99.2926 49.9065 99.4088C49.5402 99.525 49.1538 99.5642 48.7715 99.5239C48.3893 99.4837 48.0196 99.3648 47.6855 99.1748C47.3514 98.9848 47.0602 98.7277 46.8302 98.4198C46.6161 98.1832 46.4755 97.8894 46.4257 97.5742C46.5814 97.8331 46.7516 98.083 46.9354 98.3227C47.3978 98.8832 48.0619 99.2396 48.7845 99.3153C49.5072 99.391 50.2307 99.1798 50.7992 98.7273C51.0311 98.5313 51.2526 98.3233 51.4627 98.1042Z" fill="#455A64"/>
<path d="M37.8162 63.0242C36.1715 61.4615 35.2017 59.3186 35.1133 57.0516C35.0249 54.7847 35.8248 52.5727 37.3428 50.8867" fill="#263238"/>
<path d="M32.2047 69.3838C32.2047 69.3838 30.0361 71.8356 29.587 81.2097C29.587 81.2097 35.765 82.383 35.8783 82.0472C35.9916 81.7114 32.2047 69.3838 32.2047 69.3838Z" fill="#ED7600"/>
<g opacity="0.3">
<path d="M32.2047 69.3838C32.2047 69.3838 30.0361 71.8356 29.587 81.2097C29.587 81.2097 35.765 82.383 35.8783 82.0472C35.9916 81.7114 32.2047 69.3838 32.2047 69.3838Z" fill="black"/>
</g>
<path d="M33.208 96.6886H52.1788L51.8713 93.7231C51.8713 93.7231 49.7028 82.4514 49.7189 82.3017L50.0588 81.5856C50.5021 80.6558 50.7391 79.6411 50.7538 78.6111C50.7685 77.5811 50.5604 76.5601 50.1438 75.618L59.4491 72.4421L57.1754 64.7793C52.9596 65.4873 46.5875 66.2843 46.5875 66.2843L45.6408 66.3612C45.6408 66.3612 39.0623 66.7051 38.9207 66.7213C36.1695 67.0571 32.9693 67.2675 31.8 70.2128C31.1729 71.7866 31.7677 74.1494 32.7913 76.585L35.2187 84.0697C36.1897 88.1843 34.6402 87.9861 33.7865 92.129C33.649 92.7521 33.1958 96.1141 33.208 96.6886Z" fill="#ED7600"/>
<g opacity="0.3">
<path d="M33.208 96.6886H52.1788L51.8713 93.7231C51.8713 93.7231 49.7028 82.4514 49.7189 82.3017L50.0588 81.5856C50.5021 80.6558 50.7391 79.6411 50.7538 78.6111C50.7685 77.5811 50.5604 76.5601 50.1438 75.618L59.4491 72.4421L57.1754 64.7793C52.9596 65.4873 46.5875 66.2843 46.5875 66.2843L45.6408 66.3612C45.6408 66.3612 39.0623 66.7051 38.9207 66.7213C36.1695 67.0571 32.9693 67.2675 31.8 70.2128C31.1729 71.7866 31.7677 74.1494 32.7913 76.585L35.2187 84.0697C36.1897 88.1843 34.6402 87.9861 33.7865 92.129C33.649 92.7521 33.1958 96.1141 33.208 96.6886Z" fill="black"/>
</g>
<path d="M59.3439 72.5684C59.2156 72.6406 59.08 72.6989 58.9393 72.7423C58.6723 72.8394 58.2798 72.9729 57.7943 73.1469C56.8233 73.4746 55.472 73.9075 53.9832 74.3849C52.4943 74.8623 51.1511 75.3357 50.2206 75.7241C49.7432 75.9183 49.3669 76.0882 49.1039 76.2015C48.9764 76.2721 48.8404 76.3265 48.6993 76.3633C48.8169 76.2699 48.9444 76.1898 49.0796 76.1246C49.3345 75.9911 49.7027 75.7969 50.172 75.5865C51.3985 75.052 52.6532 74.5847 53.9306 74.1867C55.4235 73.7093 56.7626 73.2966 57.762 73.0053C58.2515 72.8597 58.652 72.7464 58.9272 72.6695C59.0613 72.6186 59.2013 72.5846 59.3439 72.5684Z" fill="#263238"/>
<path d="M58.2435 68.4861C58.2435 68.5427 52.6319 68.5912 45.7015 68.5912C38.771 68.5912 33.1594 68.5427 33.1594 68.4861C33.1594 68.4294 38.7669 68.3809 45.7015 68.3809C52.636 68.3809 58.2435 68.4294 58.2435 68.4861Z" fill="#FAFAFA"/>
<path d="M58.8139 72.2116C58.8139 72.2683 52.5712 72.3168 44.872 72.3168C37.1729 72.3168 30.9342 72.2683 30.9342 72.2116C30.9342 72.155 37.1729 72.1064 44.872 72.1064C52.5712 72.1064 58.8139 72.155 58.8139 72.2116Z" fill="#FAFAFA"/>
<path d="M32.5162 76.4513C32.1369 76.5542 31.7425 76.5898 31.351 76.5565C30.9607 76.5896 30.5677 76.554 30.1898 76.4513C30.5677 76.3485 30.9607 76.3129 31.351 76.3461C31.7425 76.3128 32.1369 76.3484 32.5162 76.4513Z" fill="#FAFAFA"/>
<path d="M50.7224 76.5808C50.7224 76.6374 46.6402 76.686 41.6072 76.686C36.5742 76.686 32.4919 76.6374 32.4919 76.5808C32.4919 76.5241 36.5701 76.4756 41.6072 76.4756C46.6442 76.4756 50.7224 76.5201 50.7224 76.5808Z" fill="#FAFAFA"/>
<path d="M50.3177 80.947C50.3177 81.0077 46.6522 81.0522 42.1371 81.0522C37.6219 81.0522 33.9524 81.0077 33.9524 80.947C33.9524 80.8863 37.6139 80.8418 42.1371 80.8418C46.6603 80.8418 50.3177 80.8903 50.3177 80.947Z" fill="#FAFAFA"/>
<path d="M50.2045 84.9968C50.2045 85.0534 46.8869 85.102 42.7926 85.102C38.6982 85.102 35.3726 85.0534 35.3726 84.9968C35.3726 84.9402 38.6942 84.8916 42.7926 84.8916C46.891 84.8916 50.2045 84.9361 50.2045 84.9968Z" fill="#FAFAFA"/>
<path d="M50.8558 88.2702C50.8558 88.3309 47.3036 88.3754 42.922 88.3754C38.5404 88.3754 34.9882 88.3309 34.9882 88.2702C34.9882 88.2095 38.5404 88.165 42.922 88.165C47.3036 88.165 50.8558 88.2136 50.8558 88.2702Z" fill="#FAFAFA"/>
<path d="M51.8835 92.445C51.8835 92.5057 47.8377 92.5502 42.8573 92.5502C37.8769 92.5502 33.8311 92.5057 33.8311 92.445C33.8311 92.3844 37.8769 92.3398 42.8573 92.3398C47.8377 92.3398 51.8835 92.3884 51.8835 92.445Z" fill="#FAFAFA"/>
<path d="M35.0934 83.7178C35.017 83.6037 34.9596 83.478 34.9235 83.3456L34.5189 82.3098C34.1831 81.4359 33.7097 80.2303 33.2242 78.883C32.7387 77.5358 32.3301 76.3058 32.0752 75.4036C31.9498 74.9505 31.8527 74.5945 31.8001 74.3274C31.7612 74.1958 31.7381 74.06 31.7313 73.9229C31.9185 74.3927 32.0806 74.8721 32.2168 75.3591C32.5081 76.2492 32.9329 77.471 33.4306 78.8142C33.9282 80.1575 34.3652 81.3712 34.6443 82.2613C34.794 82.7063 34.9073 83.0704 34.9801 83.3213C35.0346 83.4481 35.0727 83.5813 35.0934 83.7178Z" fill="#263238"/>
</svg>