<svg width="163" height="129" viewBox="0 0 163 129" fill="none" xmlns="http://www.w3.org/2000/svg">
<path d="M104.215 100.34L104.217 100.34C115.977 104.414 123.575 115.153 123.965 127.489H1.94436C2.21397 118.478 6.13333 110.237 13.3925 104.886L13.3974 104.882C18.8869 100.783 24.839 99.6425 31.5048 98.3652C32.6912 98.1378 33.9004 97.9062 35.1335 97.6527L35.1367 97.652C35.2438 97.6296 35.3573 97.6061 35.4767 97.5813C37.0003 97.2654 39.4757 96.7521 41.7293 95.9278C42.9447 95.4832 44.1462 94.9307 45.1196 94.237C46.0847 93.5493 46.9265 92.6502 47.2335 91.4836C48.052 88.3731 48.0783 84.9812 48.1022 81.888C48.1055 81.4638 48.1087 81.0453 48.114 80.6339C48.1397 79.9235 48.0292 79.3754 47.6713 78.8641C47.52 78.648 47.3409 78.4634 47.1924 78.3128C47.164 78.284 47.1359 78.2556 47.1077 78.2272C46.9781 78.0965 46.8488 77.9661 46.7014 77.8026C45.1426 76.0265 43.8689 74.152 43.2577 71.9939C42.3027 68.5639 41.9073 64.9422 41.5498 61.3227L41.4332 60.1426L40.2897 60.4567C39.664 60.6286 39.226 60.4702 38.8073 60.0493C38.3284 59.5677 37.9071 58.7543 37.5454 57.704C37.1908 56.6743 36.9293 55.5275 36.7081 54.4651C36.6633 54.2502 36.6195 54.0348 36.5765 53.8228C36.4166 53.0364 36.2663 52.297 36.1106 51.7993C35.8746 51.0257 35.2007 48.4231 35.1057 46.2118C35.0566 45.0694 35.1743 44.2305 35.4187 43.7813C35.5232 43.5892 35.6193 43.5259 35.6942 43.4979C35.7805 43.4657 35.9833 43.4278 36.386 43.5482L38.7396 44.2519L37.5466 42.1045C36.3157 39.8888 35.882 37.0856 35.5684 34.3975L35.5679 34.393C34.859 28.5443 34.7066 22.6328 36.7582 17.2456C41.0267 6.19291 52.5119 0.627724 64.1265 1.01923L64.1298 1.01933C75.5464 1.36661 86.2084 7.69 89.6669 18.7911L89.667 18.7915C91.338 24.1473 91.0098 30.2102 90.1245 35.8762L90.1244 35.8761L90.1225 35.8891C89.8103 38.0743 89.3818 40.3134 88.3688 42.0961L87.1241 44.2869L89.5324 43.5459C89.9708 43.411 90.1761 43.4599 90.2534 43.4924C90.3211 43.5208 90.4265 43.5928 90.5361 43.8338C90.7852 44.3815 90.8593 45.3716 90.7465 46.6643C90.5276 49.1737 89.6845 52.0792 89.447 52.8133L89.4446 52.8208L89.4423 52.8284C89.2992 53.296 89.1638 53.9653 89.0221 54.6655C88.9805 54.8715 88.9383 55.0802 88.8952 55.2872C88.6958 56.2446 88.4617 57.2572 88.1404 58.1561C87.8123 59.0744 87.4327 59.7571 87.0087 60.1492C86.6485 60.4823 86.2439 60.6286 85.622 60.457L84.4768 60.1411L84.3609 61.3234C84.3081 61.862 84.2588 62.4063 84.2092 62.9543C84.0454 64.7641 83.8778 66.6149 83.5671 68.4372C83.1643 70.7997 82.5342 73.0143 81.4217 74.87C81.3254 75.0274 81.0999 75.2964 80.7364 75.6884C80.5772 75.8601 80.4052 76.0412 80.223 76.233L80.1762 76.2822C79.9785 76.4903 79.771 76.7093 79.5674 76.9301C79.1654 77.366 78.7517 77.8381 78.4345 78.2892C78.2754 78.5155 78.1248 78.7585 78.011 79.0072C77.9013 79.2471 77.7965 79.5551 77.7965 79.8949C77.7965 81.6081 77.8416 83.3213 77.9317 85.0345L77.9323 85.0443C77.9532 85.3776 77.9706 85.7262 77.9887 86.086C78.0809 87.9262 78.1877 90.0572 78.8337 91.9146L78.8337 91.9147L78.8379 91.9263C79.3705 93.3989 80.8269 94.2549 82.0815 94.7967C82.9743 95.1822 83.9894 95.4934 84.7899 95.7388C85.1236 95.8411 85.4201 95.932 85.6548 96.0121C88.7413 97.0863 91.9408 97.6556 95.0497 98.2088L95.0872 98.2155C98.2352 98.7756 101.291 99.3214 104.215 100.34ZM64.1602 0.0203785L64.1602 0.0197967L64.1602 0.0203785Z" fill="#ED7600" stroke="#ED7600" stroke-width="2"/>
<path d="M135.692 76.1321L134.677 76.0398L134.604 77.0567C134.585 77.3184 134.55 77.6649 134.508 78.0625C134.422 78.8965 134.312 79.9549 134.289 80.9253C134.272 81.6706 134.3 82.447 134.429 83.1615C134.557 83.8652 134.8 84.5966 135.278 85.1734C136.802 87.0135 139.496 87.9399 142.004 88.5626C143.091 88.8325 144.202 89.0578 145.238 89.2678C145.426 89.3058 145.611 89.3434 145.794 89.3806C146.999 89.627 148.059 89.8568 148.902 90.1272C156.122 92.5078 161.471 98.1795 161.964 106.115H127.94C127.307 104.406 126.178 102.884 124.942 101.562C123.541 100.064 121.934 98.751 120.61 97.6703L120.571 97.6386L120.569 97.637C116.948 94.6944 112.732 92.0307 107.895 91.1382C107.487 91.0619 106.857 91.0498 106.263 91.0383C106.184 91.0368 106.106 91.0353 106.029 91.0337C105.307 91.0183 104.553 90.9934 103.897 90.8976C103.191 90.7944 102.82 90.6364 102.686 90.5145C102.676 90.5056 102.67 90.4989 102.667 90.4947C102.665 90.4711 102.666 90.3624 102.772 90.1361L102.773 90.1334C103.031 89.5794 103.648 89.1768 104.685 88.8611C105.183 88.7092 105.72 88.5944 106.274 88.4833C106.353 88.4674 106.433 88.4515 106.514 88.4354C106.977 88.3433 107.459 88.2476 107.882 88.134L107.888 88.1324C108.175 88.0534 108.54 87.9722 108.98 87.8741C109.181 87.8292 109.399 87.7808 109.632 87.7274C110.346 87.5637 111.163 87.3628 111.949 87.102C112.726 86.8438 113.525 86.5102 114.182 86.0599C114.833 85.6128 115.448 84.977 115.648 84.0881C115.704 83.8453 115.752 83.2924 115.79 82.7196C115.832 82.098 115.871 81.3271 115.891 80.5736C115.91 79.8257 115.913 79.0714 115.879 78.4926C115.862 78.2112 115.835 77.926 115.784 77.6923C115.76 77.5844 115.717 77.417 115.629 77.2536C115.573 77.1491 115.299 76.676 114.697 76.6637C112.089 76.5761 109.482 76.228 106.965 75.6204L106.961 75.6194C105.31 75.2283 103.699 74.7158 102.235 73.9629L102.23 73.9606C101.566 73.6234 101.318 73.3918 101.234 73.275C101.231 73.2703 101.228 73.2663 101.225 73.2627C101.206 73.2388 101.2 73.2313 101.225 73.1421C101.276 72.9527 101.414 72.6968 101.694 72.228C101.715 72.193 101.737 72.1573 101.759 72.1207C102.006 71.7082 102.315 71.1928 102.596 70.5869L102.596 70.5869L102.6 70.5774C104.3 66.8027 104.82 62.3812 104.981 57.8585C105.058 55.6929 105.053 53.4772 105.047 51.2799C105.047 51.1762 105.047 51.0726 105.047 50.969C105.042 48.6623 105.041 46.3774 105.136 44.1496C105.327 39.6819 105.902 35.5482 107.531 32.0889C109.141 28.6714 111.803 25.8632 116.295 24.0624L116.295 24.0624L116.301 24.06C122.62 21.4808 131.333 21.6388 137.127 25.2334L137.128 25.2341C143.458 29.1487 145.403 36.8494 145.579 44.2202L145.579 44.2211C145.634 46.4247 145.541 48.72 145.443 51.0854L145.439 51.1731C145.343 53.4991 145.244 55.8896 145.289 58.2602C145.379 63.058 146.057 67.8918 148.619 72.1934C148.834 72.5586 149.047 72.8588 149.206 73.0819C149.231 73.117 149.254 73.1502 149.276 73.1814C149.301 73.2169 149.324 73.2488 149.344 73.2778C149.25 73.345 149.116 73.4329 148.927 73.5443C148.253 73.9409 147.529 74.2253 146.72 74.5401C145.074 75.1296 143.368 75.4735 141.576 75.736C141.482 75.7486 141.388 75.7612 141.294 75.7738C139.347 76.0343 137.433 76.2904 135.692 76.1321Z" fill="#ED7600" stroke="#ED7600" stroke-width="2"/>
</svg>