<svg width="99" height="25" viewBox="0 0 99 25" fill="none" xmlns="http://www.w3.org/2000/svg">
<rect y="2" width="16" height="22" rx="2" fill="#ED7600"/>
<path d="M8.872 19.584C8.408 19.952 7.808 20.296 7.072 20.616C6.336 20.92 5.76 21.072 5.344 21.072C4.848 21.072 4.272 20.792 3.616 20.232C2.976 19.656 2.432 18.976 1.984 18.192C1.552 17.392 1.352 16.688 1.384 16.08C1.496 14.368 1.888 12.568 2.56 10.68C3.232 8.792 4.16 7.2 5.344 5.904C6.528 4.608 7.888 3.96 9.424 3.96C10.24 3.96 10.968 4.176 11.608 4.608C12.264 5.024 12.768 5.576 13.12 6.264C13.488 6.936 13.672 7.64 13.672 8.376C13.672 8.92 13.48 9.352 13.096 9.672C12.712 9.992 12.224 10.152 11.632 10.152C11.136 10.152 10.6 10.032 10.024 9.792C10.056 9.408 10.072 9.152 10.072 9.024C10.072 8.416 9.984 7.96 9.808 7.656C9.648 7.352 9.416 7.2 9.112 7.2C8.6 7.2 8.016 7.76 7.36 8.88C6.704 9.984 6.128 11.36 5.632 13.008C5.152 14.656 4.88 16.232 4.816 17.736C6.384 17.72 8.152 17.336 10.12 16.584L10.216 15.48C9.896 15.512 9.632 15.528 9.424 15.528C8.928 15.528 8.496 15.48 8.128 15.384C7.76 15.288 7.544 15.144 7.48 14.952C7.416 14.808 7.384 14.592 7.384 14.304C7.384 13.92 7.432 13.52 7.528 13.104C7.64 12.688 7.76 12.408 7.888 12.264C8.112 12.008 8.384 11.84 8.704 11.76C9.04 11.68 9.528 11.64 10.168 11.64C11.384 11.64 12.232 11.912 12.712 12.456C13.208 12.984 13.456 13.768 13.456 14.808C13.456 15.592 13.312 16.656 13.024 18C12.736 19.328 12.384 20.496 11.968 21.504C11.552 22.512 11.152 23.016 10.768 23.016C10.448 23.016 10.088 22.944 9.688 22.8C9.304 22.656 8.976 22.472 8.704 22.248C8.432 22.04 8.296 21.848 8.296 21.672C8.312 21.416 8.4 21.112 8.56 20.76C8.736 20.408 8.92 20.096 9.112 19.824L8.872 19.584ZM19.4451 9.72C18.9651 10.2 18.5651 10.576 18.2451 10.848C17.9251 11.104 17.6691 11.232 17.4771 11.232C17.2371 11.232 16.9411 11.088 16.5891 10.8C16.2531 10.496 15.9571 10.144 15.7011 9.744C15.4451 9.344 15.3171 8.992 15.3171 8.688C15.3171 8.384 15.6931 7.936 16.4451 7.344C17.2131 6.752 18.0531 6.208 18.9651 5.712C19.8771 5.216 20.5171 4.968 20.8851 4.968C21.2531 4.968 21.6851 5.104 22.1811 5.376C22.6771 5.648 23.1011 5.984 23.4531 6.384C23.8051 6.768 23.9811 7.12 23.9811 7.44C23.9811 7.808 23.7811 8.704 23.3811 10.128C22.9331 11.76 22.6371 13 22.4931 13.848C22.3651 14.536 22.2131 15.728 22.0371 17.424C21.9091 18.688 21.7891 19.6 21.6771 20.16C21.5651 20.72 21.4051 21 21.1971 21C20.7971 21 20.3411 20.88 19.8291 20.64C19.3171 20.4 18.8771 20.112 18.5091 19.776C18.1411 19.44 17.9571 19.144 17.9571 18.888C17.9571 18.552 18.0691 17.784 18.2931 16.584C18.5331 15.384 18.8291 14.12 19.1811 12.792C19.5491 11.448 19.9411 10.344 20.3571 9.48L19.9731 9.216L19.4451 9.72ZM27.415 18.36C28.6683 18.3067 29.8283 17.66 30.895 16.42C31.5483 16.54 32.0683 16.7867 32.455 17.16C32.855 17.5333 33.055 18.0067 33.055 18.58C33.055 18.9933 32.815 19.3867 32.335 19.76C31.8683 20.1333 31.2817 20.4333 30.575 20.66C29.8683 20.8867 29.1883 21 28.535 21C27.895 21 27.2283 20.7933 26.535 20.38C25.8417 19.9533 25.2683 19.4333 24.815 18.82C24.3617 18.2067 24.135 17.6267 24.135 17.08C24.135 16.0267 24.375 14.9267 24.855 13.78C25.3483 12.62 26.0283 11.6533 26.895 10.88C27.7617 10.1067 28.735 9.72 29.815 9.72C30.4817 9.72 31.115 9.84 31.715 10.08C32.315 10.32 32.795 10.64 33.155 11.04C33.515 11.44 33.695 11.8533 33.695 12.28C33.695 12.6933 33.515 13.0667 33.155 13.4C32.795 13.72 32.3217 13.88 31.735 13.88C31.5483 13.88 31.355 13.86 31.155 13.82C30.8217 13.0067 30.455 12.4333 30.055 12.1C29.175 12.6733 28.5083 13.4733 28.055 14.5C27.6017 15.5267 27.375 16.5733 27.375 17.64C27.375 17.8 27.3883 18.04 27.415 18.36ZM43.7475 18.06C44.5608 17.66 45.2475 17.2333 45.8075 16.78C46.3942 16.98 46.8275 17.26 47.1075 17.62C47.4008 17.9667 47.5475 18.3667 47.5475 18.82C47.5475 19.14 47.3208 19.4733 46.8675 19.82C46.4142 20.1533 45.8742 20.4333 45.2475 20.66C44.6208 20.8867 44.0875 21 43.6475 21C43.3408 21 42.9875 20.8867 42.5875 20.66C42.2008 20.4333 41.8608 20.1667 41.5675 19.86C41.2875 19.5533 41.1475 19.3133 41.1475 19.14C41.1475 19.0067 41.2008 18.8267 41.3075 18.6C41.4275 18.3733 41.5542 18.14 41.6875 17.9C41.8208 17.66 41.9075 17.5 41.9475 17.42L41.4475 17.14C40.7408 18.3 40.0608 19.2333 39.4075 19.94C38.7675 20.6467 38.1342 21 37.5075 21C37.0808 21 36.6275 20.8133 36.1475 20.44C35.6808 20.0667 35.2808 19.6133 34.9475 19.08C34.6275 18.5467 34.4675 18.0733 34.4675 17.66C34.4675 16.4733 34.7142 15.26 35.2075 14.02C35.7008 12.78 36.3875 11.7533 37.2675 10.94C38.1608 10.1267 39.1675 9.72 40.2875 9.72C40.6875 9.72 41.0942 9.9 41.5075 10.26C41.9208 10.62 42.1875 10.9867 42.3075 11.36C42.3742 11.0667 42.4675 10.8133 42.5875 10.6C42.7208 10.3733 42.8608 10.26 43.0075 10.26C43.3542 10.26 43.7342 10.3867 44.1475 10.64C44.5742 10.88 44.9342 11.1667 45.2275 11.5C45.5208 11.82 45.6675 12.0733 45.6675 12.26C45.6542 12.5133 45.5475 12.9333 45.3475 13.52C45.1608 14.1067 44.8542 15 44.4275 16.2C44.1742 16.8533 43.9475 17.4733 43.7475 18.06ZM37.6075 18.22C38.6875 17.5533 39.6275 16.7333 40.4275 15.76C41.2275 14.7733 41.7742 13.6867 42.0675 12.5C41.7075 12.34 41.3675 12.26 41.0475 12.26C40.4208 12.26 39.8608 12.54 39.3675 13.1C38.8742 13.66 38.4808 14.3933 38.1875 15.3C37.8942 16.2067 37.7008 17.18 37.6075 18.22ZM51.7514 21C51.3914 21 50.9981 20.8867 50.5714 20.66C50.1447 20.42 49.7781 20.1467 49.4714 19.84C49.1647 19.52 49.0114 19.2533 49.0114 19.04C49.0114 18.7867 49.0647 18.46 49.1714 18.06C49.2781 17.6467 49.4381 17.1133 49.6514 16.46C49.8647 15.78 50.0247 15.24 50.1314 14.84C50.2381 14.4267 50.2914 14.0933 50.2914 13.84C50.2914 13.7333 50.2314 13.62 50.1114 13.5C49.9914 13.38 49.8047 13.22 49.5514 13.02C49.2581 12.78 49.0447 12.5933 48.9114 12.46C48.7781 12.3267 48.7114 12.1933 48.7114 12.06C48.7114 11.78 48.8447 11.4533 49.1114 11.08C49.3781 10.7067 49.6914 10.3867 50.0514 10.12C50.4114 9.85333 50.7181 9.72 50.9714 9.72C51.2514 9.72 51.5714 9.84667 51.9314 10.1C52.2914 10.3533 52.6047 10.6467 52.8714 10.98C53.1381 11.3 53.2714 11.5467 53.2714 11.72C53.2714 12.2267 53.1714 12.8933 52.9714 13.72L53.2114 13.84C53.5181 13.3467 53.8514 12.76 54.2114 12.08C54.5847 11.3867 54.8114 10.96 54.8914 10.8L55.2714 10.08C56.1914 10.0533 56.8781 10.22 57.3314 10.58C57.7847 10.94 58.0114 11.42 58.0114 12.02C58.0114 12.6067 57.8181 13.1933 57.4314 13.78C56.4714 14.1 55.6514 14.42 54.9714 14.74C54.3047 15.0467 53.6314 15.4133 52.9514 15.84C52.9114 17.32 52.7914 18.5533 52.5914 19.54C52.4047 20.5133 52.1247 21 51.7514 21ZM62.6756 21C62.0356 21 61.369 20.7933 60.6756 20.38C59.9823 19.9533 59.409 19.4333 58.9556 18.82C58.5023 18.2067 58.2756 17.6267 58.2756 17.08C58.2756 16.1067 58.5023 15.04 58.9556 13.88C59.4223 12.72 60.0623 11.74 60.8756 10.94C61.689 10.1267 62.609 9.72 63.6356 9.72C64.369 9.72 65.029 9.88 65.6156 10.2C66.2156 10.52 66.6823 10.92 67.0156 11.4C67.349 11.88 67.5156 12.3467 67.5156 12.8C67.5156 13.36 67.2623 13.9133 66.7556 14.46C66.249 14.9933 65.5423 15.4667 64.6356 15.88C63.729 16.28 62.6956 16.5667 61.5356 16.74C61.5223 16.9 61.5156 17.14 61.5156 17.46C61.5156 17.86 61.529 18.16 61.5556 18.36C62.2223 18.2933 62.8823 18.1133 63.5356 17.82C64.189 17.5267 64.9023 17.1133 65.6756 16.58C66.1956 16.74 66.589 16.9933 66.8556 17.34C67.1223 17.6867 67.2556 18.1 67.2556 18.58C67.2556 18.98 67.009 19.3733 66.5156 19.76C66.0356 20.1333 65.4356 20.4333 64.7156 20.66C63.9956 20.8867 63.3156 21 62.6756 21ZM61.8356 15.24C62.649 14.9467 63.329 14.5733 63.8756 14.12C64.4223 13.6667 64.6956 13.28 64.6956 12.96C64.6956 12.5867 64.4356 12.3333 63.9156 12.2C63.409 12.5733 62.9756 13.02 62.6156 13.54C62.269 14.06 62.009 14.6267 61.8356 15.24ZM73.0663 21C72.4263 21 71.7596 20.7933 71.0663 20.38C70.3729 19.9533 69.7996 19.4333 69.3463 18.82C68.8929 18.2067 68.6663 17.6267 68.6663 17.08C68.6663 16.1067 68.8929 15.04 69.3463 13.88C69.8129 12.72 70.4529 11.74 71.2663 10.94C72.0796 10.1267 72.9996 9.72 74.0263 9.72C74.7596 9.72 75.4196 9.88 76.0063 10.2C76.6063 10.52 77.0729 10.92 77.4063 11.4C77.7396 11.88 77.9063 12.3467 77.9063 12.8C77.9063 13.36 77.6529 13.9133 77.1463 14.46C76.6396 14.9933 75.9329 15.4667 75.0263 15.88C74.1196 16.28 73.0863 16.5667 71.9263 16.74C71.9129 16.9 71.9063 17.14 71.9063 17.46C71.9063 17.86 71.9196 18.16 71.9463 18.36C72.6129 18.2933 73.2729 18.1133 73.9263 17.82C74.5796 17.5267 75.2929 17.1133 76.0663 16.58C76.5863 16.74 76.9796 16.9933 77.2463 17.34C77.5129 17.6867 77.6463 18.1 77.6463 18.58C77.6463 18.98 77.3996 19.3733 76.9063 19.76C76.4263 20.1333 75.8263 20.4333 75.1063 20.66C74.3863 20.8867 73.7063 21 73.0663 21ZM72.2263 15.24C73.0396 14.9467 73.7196 14.5733 74.2663 14.12C74.8129 13.6667 75.0863 13.28 75.0863 12.96C75.0863 12.5867 74.8263 12.3333 74.3063 12.2C73.7996 12.5733 73.3663 13.02 73.0063 13.54C72.6596 14.06 72.3996 14.6267 72.2263 15.24ZM82.3569 21C81.9969 21 81.6035 20.8867 81.1769 20.66C80.7502 20.42 80.3835 20.1467 80.0769 19.84C79.7702 19.52 79.6169 19.2533 79.6169 19.04C79.6169 18.7867 79.6702 18.46 79.7769 18.06C79.8835 17.6467 80.0435 17.1133 80.2569 16.46C80.4702 15.78 80.6302 15.24 80.7369 14.84C80.8435 14.4267 80.8969 14.0933 80.8969 13.84C80.8969 13.7333 80.8369 13.62 80.7169 13.5C80.5969 13.38 80.4102 13.22 80.1569 13.02C79.8635 12.78 79.6502 12.5933 79.5169 12.46C79.3835 12.3267 79.3169 12.1933 79.3169 12.06C79.3169 11.78 79.4502 11.4533 79.7169 11.08C79.9835 10.7067 80.2969 10.3867 80.6569 10.12C81.0169 9.85333 81.3235 9.72 81.5769 9.72C81.8569 9.72 82.1769 9.84667 82.5369 10.1C82.8969 10.3533 83.2102 10.6467 83.4769 10.98C83.7435 11.3 83.8769 11.5467 83.8769 11.72C83.8769 12.2267 83.7769 12.8933 83.5769 13.72L83.8169 13.84C84.1235 13.3467 84.4569 12.76 84.8169 12.08C85.1902 11.3867 85.4169 10.96 85.4969 10.8L85.8769 10.08C86.7969 10.0533 87.4835 10.22 87.9369 10.58C88.3902 10.94 88.6169 11.42 88.6169 12.02C88.6169 12.6067 88.4235 13.1933 88.0369 13.78C87.0769 14.1 86.2569 14.42 85.5769 14.74C84.9102 15.0467 84.2369 15.4133 83.5569 15.84C83.5169 17.32 83.3969 18.5533 83.1969 19.54C83.0102 20.5133 82.7302 21 82.3569 21ZM94.4128 12.1C93.8128 12.5533 93.3261 13 92.9528 13.44C92.5928 13.88 92.4128 14.2533 92.4128 14.56C92.4128 14.7067 92.5395 14.86 92.7928 15.02C93.0461 15.1667 93.4661 15.3733 94.0528 15.64C94.9861 16.0667 95.7195 16.4667 96.2528 16.84C96.7861 17.2 97.0528 17.62 97.0528 18.1C97.0528 18.58 96.7795 19.0467 96.2328 19.5C95.6995 19.94 95.0328 20.3 94.2328 20.58C93.4328 20.86 92.6861 21 91.9928 21C91.4728 21 90.9261 20.8933 90.3528 20.68C89.7795 20.4533 89.2995 20.1733 88.9128 19.84C88.5261 19.4933 88.3328 19.1667 88.3328 18.86C88.3328 18.3133 88.5061 17.88 88.8528 17.56C89.2128 17.2267 89.6795 17.06 90.2528 17.06C90.5195 17.06 90.7928 17.1 91.0728 17.18C91.2995 17.9 91.4928 18.4133 91.6528 18.72C92.4661 18.5067 93.1928 18.1467 93.8328 17.64C92.7128 17.16 91.6861 16.62 90.7528 16.02C89.8328 15.42 89.3728 14.86 89.3728 14.34C89.3728 13.8067 89.6195 13.1733 90.1128 12.44C90.6061 11.6933 91.2328 11.0533 91.9928 10.52C92.7661 9.97333 93.5528 9.7 94.3528 9.7C94.8995 9.7 95.4195 9.86 95.9128 10.18C96.4195 10.5 96.8261 10.9 97.1328 11.38C97.4395 11.86 97.5928 12.3267 97.5928 12.78C97.5928 13.22 97.4195 13.58 97.0728 13.86C96.7395 14.1267 96.3128 14.26 95.7928 14.26C95.4595 14.26 95.1195 14.1933 94.7728 14.06C94.7461 13.5267 94.6261 12.8733 94.4128 12.1Z" fill="white"/>
</svg>